<svg xmlns="http://www.w3.org/2000/svg" xmlns:xlink="http://www.w3.org/1999/xlink" width="273" height="148" viewBox="0 0 273 148">
  <defs>
    <clipPath id="clip-path">
      <rect id="Rectangle_19021" data-name="Rectangle 19021" width="273" height="148" rx="9" transform="translate(51 564)" fill="#a2478b"/>
    </clipPath>
  </defs>
  <g id="Group_66866" data-name="Group 66866" transform="translate(-51 -564)">
    <rect id="Rectangle_19004" data-name="Rectangle 19004" width="273" height="148" rx="9" transform="translate(51 564)" fill="#eb538e"/>
    <g id="Mask_Group_25424" data-name="Mask Group 25424" clip-path="url(#clip-path)">
      <g id="Group_66856" data-name="Group 66856" transform="matrix(-0.259, 0.966, -0.966, -0.259, 427.107, 473.317)">
        <path id="Path_37848" data-name="Path 37848" d="M-4475.5,460.236s73.895-51.712,111.05-113.885-17.151-81.25-29.312-142.76" transform="translate(4475.497 -73.376)" fill="none" stroke="#f76fa4" stroke-width="1"/>
        <path id="Path_37849" data-name="Path 37849" d="M-4597.012,590.235s136.9,22.916,148.2-45.57-37.681-111.438,19.169-150.938,80.811-37.315,55.943-78.833-12.723-60.251-12.723-60.251" transform="translate(4601.043 -254.643)" fill="none" stroke="#f76fa4" stroke-width="1"/>
        <path id="Path_37850" data-name="Path 37850" d="M-4459.2,471.621s-22.236,8.177,3.6,60.563-51.595,44.74-69.244,68.295" transform="translate(4620.226 -463.445)" fill="none" stroke="#f76fa4" stroke-width="1"/>
        <path id="Path_37851" data-name="Path 37851" d="M-4777.962,286.213s-39.022-55.721-102.081-47.464,5.243,63.057,5.243,63.057" transform="translate(5303.805 53.062)" fill="none" stroke="#f76fa4" stroke-width="1"/>
        <path id="Path_37852" data-name="Path 37852" d="M-4793.114,348.1s-80.427-93-70.2-137.794,95.531-5.077,151.687,30.631" transform="translate(5197.804 51.085)" fill="none" stroke="#f76fa4" stroke-width="1"/>
        <path id="Path_37853" data-name="Path 37853" d="M-4522.817,364.79s-62.06-14.6-79.784-69.138-1.573-91.077-24.312-82.246-3.4,82.007-33.035,106.678" transform="translate(4797.551 43.78)" fill="none" stroke="#f76fa4" stroke-width="1"/>
        <path id="Path_37854" data-name="Path 37854" d="M-4648.107,195.8s78.421,62.558,47.083,103.18-113.928,32.411-89.883,109.481,77.949,97.766,69.712,167.678" transform="translate(4922.302 -182.025)" fill="none" stroke="#f76fa4" stroke-width="1"/>
        <path id="Path_37855" data-name="Path 37855" d="M-4823.893,443.432s-65.083-68.953-91.658-45.253,43.653,135.188,84.271,160.186,64.345,22.5,64.345,22.5" transform="translate(5306.417 -370.828)" fill="none" stroke="#f76fa4" stroke-width="1"/>
        <path id="Path_37856" data-name="Path 37856" d="M-4671.539,330.267s-101.654-112.1-153.371-101.6-39.254,35.042-62.547,62.351,32.626,122.782,36.426,135.341" transform="translate(5184.651 -62.229)" fill="none" stroke="#f76fa4" stroke-width="1"/>
      </g>
    </g>
    <path id="Path_91271" data-name="Path 91271" d="M1.008,15V4.57h3.4a5.941,5.941,0,0,1,2.877.665,4.755,4.755,0,0,1,1.9,1.834,5.339,5.339,0,0,1,.672,2.709,5.388,5.388,0,0,1-.672,2.709,4.727,4.727,0,0,1-1.9,1.848A5.941,5.941,0,0,1,4.41,15Zm1.9-1.68h1.54a3.669,3.669,0,0,0,1.841-.441A3.107,3.107,0,0,0,7.5,11.647a3.827,3.827,0,0,0,.434-1.869A3.818,3.818,0,0,0,7.5,7.9,3.071,3.071,0,0,0,6.293,6.684,3.717,3.717,0,0,0,4.452,6.25H2.912ZM14.84,15.168a3.907,3.907,0,0,1-2.058-.532,3.706,3.706,0,0,1-1.372-1.442,4.184,4.184,0,0,1-.49-2.016,4.1,4.1,0,0,1,.5-2.037,3.745,3.745,0,0,1,1.358-1.407A3.662,3.662,0,0,1,14.7,7.216a3.935,3.935,0,0,1,1.575.294,3.359,3.359,0,0,1,1.155.812A3.636,3.636,0,0,1,18.158,9.5a4.016,4.016,0,0,1,.252,1.435q0,.2-.021.406a1.51,1.51,0,0,1-.077.364h-5.88v-1.4h4.844l-.868.658a2.086,2.086,0,0,0-.063-1.148,1.644,1.644,0,0,0-.616-.8A1.77,1.77,0,0,0,14.7,8.728a1.853,1.853,0,0,0-1.022.287,1.776,1.776,0,0,0-.679.84,2.915,2.915,0,0,0-.175,1.337,2.476,2.476,0,0,0,.189,1.239,1.84,1.84,0,0,0,.728.833,2.1,2.1,0,0,0,1.113.294,2.037,2.037,0,0,0,1.071-.266,1.919,1.919,0,0,0,.693-.714l1.484.728a2.594,2.594,0,0,1-.7.966,3.5,3.5,0,0,1-1.127.658A4.152,4.152,0,0,1,14.84,15.168Zm8.442-.084a2.7,2.7,0,0,1-2-.707,2.7,2.7,0,0,1-.707-1.995V9.022H19.264V7.384h.14a1.207,1.207,0,0,0,.868-.294,1.126,1.126,0,0,0,.308-.854V5.648h1.834V7.384h1.75V9.022h-1.75v3.262a1.428,1.428,0,0,0,.133.644.888.888,0,0,0,.42.406,1.678,1.678,0,0,0,.735.14,2.246,2.246,0,0,0,.231-.014l.259-.028V15q-.2.028-.448.056A4.21,4.21,0,0,1,23.282,15.084Zm4.606.084A3.338,3.338,0,0,1,26.5,14.9a2.015,2.015,0,0,1-1.232-1.918,2.13,2.13,0,0,1,1.148-1.96,4.338,4.338,0,0,1,1.484-.476l2.492-.406v1.4l-2.142.364a1.563,1.563,0,0,0-.812.35.865.865,0,0,0-.266.658.744.744,0,0,0,.3.623,1.194,1.194,0,0,0,.749.231,2.055,2.055,0,0,0,1.015-.245,1.745,1.745,0,0,0,.686-.679,1.9,1.9,0,0,0,.245-.952V9.932a1.034,1.034,0,0,0-.385-.819,1.509,1.509,0,0,0-1.015-.329,1.788,1.788,0,0,0-1.043.315,1.825,1.825,0,0,0-.665.833l-1.5-.728a2.643,2.643,0,0,1,.707-1.043,3.561,3.561,0,0,1,1.141-.693,3.96,3.96,0,0,1,1.428-.252,3.773,3.773,0,0,1,1.652.343,2.685,2.685,0,0,1,1.113.952A2.534,2.534,0,0,1,32,9.932V15H30.268V13.7l.392-.028a3.081,3.081,0,0,1-.7.819,2.957,2.957,0,0,1-.924.5A3.57,3.57,0,0,1,27.888,15.168ZM33.712,15V7.384h1.834V15Zm0-8.47V4.57h1.834V6.53ZM37.254,15V4.4h1.834V15Zm6.44.168a3.834,3.834,0,0,1-2.121-.581,2.952,2.952,0,0,1-1.239-1.575l1.372-.658a2.413,2.413,0,0,0,.819,1.008,2.005,2.005,0,0,0,1.169.364,1.286,1.286,0,0,0,.8-.224.7.7,0,0,0,.294-.588.571.571,0,0,0-.119-.371.994.994,0,0,0-.322-.252,2.481,2.481,0,0,0-.441-.175l-1.246-.35a2.971,2.971,0,0,1-1.463-.854,2.007,2.007,0,0,1-.5-1.358,2.126,2.126,0,0,1,.357-1.225,2.371,2.371,0,0,1,.994-.819,3.455,3.455,0,0,1,1.463-.294,3.508,3.508,0,0,1,1.9.518A2.841,2.841,0,0,1,46.592,9.19l-1.4.658a1.688,1.688,0,0,0-.658-.826A1.826,1.826,0,0,0,43.5,8.714a1.145,1.145,0,0,0-.728.21.663.663,0,0,0-.266.546.6.6,0,0,0,.112.364.82.82,0,0,0,.315.252,3.525,3.525,0,0,0,.469.182l1.218.364a3.116,3.116,0,0,1,1.449.84,1.961,1.961,0,0,1,.511,1.372,2.073,2.073,0,0,1-.364,1.211,2.413,2.413,0,0,1-1.008.819A3.612,3.612,0,0,1,43.694,15.168Zm9.128,0a3.338,3.338,0,0,1-1.386-.266A2.015,2.015,0,0,1,50.2,12.984a2.256,2.256,0,0,1,.28-1.127,2.233,2.233,0,0,1,.868-.833,4.338,4.338,0,0,1,1.484-.476l2.492-.406v1.4l-2.142.364a1.563,1.563,0,0,0-.812.35.865.865,0,0,0-.266.658.744.744,0,0,0,.3.623,1.194,1.194,0,0,0,.749.231,2.055,2.055,0,0,0,1.015-.245,1.745,1.745,0,0,0,.686-.679,1.9,1.9,0,0,0,.245-.952V9.932a1.034,1.034,0,0,0-.385-.819A1.509,1.509,0,0,0,53.7,8.784a1.788,1.788,0,0,0-1.043.315A1.825,1.825,0,0,0,52,9.932L50.5,9.2a2.643,2.643,0,0,1,.707-1.043,3.561,3.561,0,0,1,1.141-.693,3.96,3.96,0,0,1,1.428-.252,3.773,3.773,0,0,1,1.652.343,2.685,2.685,0,0,1,1.113.952,2.534,2.534,0,0,1,.4,1.421V15H55.2V13.7l.392-.028a3.081,3.081,0,0,1-.7.819,2.957,2.957,0,0,1-.924.5A3.57,3.57,0,0,1,52.822,15.168Zm9.982,0a3.5,3.5,0,0,1-1.519-.329,2.646,2.646,0,0,1-1.1-.945l.182-.364V15H58.646V4.4H60.48V8.9l-.28-.378a2.677,2.677,0,0,1,1.064-.959,3.373,3.373,0,0,1,1.554-.343,3.649,3.649,0,0,1,1.946.532,3.93,3.93,0,0,1,1.379,1.428,4,4,0,0,1,.511,2.016,4.091,4.091,0,0,1-.5,2.016,3.79,3.79,0,0,1-1.372,1.435A3.739,3.739,0,0,1,62.8,15.168Zm-.21-1.68a2.134,2.134,0,0,0,1.12-.294,2.031,2.031,0,0,0,.763-.812,2.514,2.514,0,0,0,.273-1.19,2.473,2.473,0,0,0-.273-1.183A2.079,2.079,0,0,0,62.594,8.9a2.023,2.023,0,0,0-1.841,1.113,2.715,2.715,0,0,0,0,2.373,2.033,2.033,0,0,0,1.841,1.106Zm9.2,1.68a4.069,4.069,0,0,1-2.037-.518,3.972,3.972,0,0,1-.007-6.916,4.264,4.264,0,0,1,4.074,0,3.953,3.953,0,0,1,1.449,1.407,3.877,3.877,0,0,1,.539,2.051,3.849,3.849,0,0,1-.546,2.044,4,4,0,0,1-3.472,1.932Zm0-1.68a2,2,0,0,0,1.085-.294,2.07,2.07,0,0,0,.742-.819,2.526,2.526,0,0,0,.273-1.183,2.473,2.473,0,0,0-.273-1.183,2.148,2.148,0,0,0-.742-.812,1.965,1.965,0,0,0-1.085-.3,2.025,2.025,0,0,0-1.106.3,2.129,2.129,0,0,0-.749.812,2.473,2.473,0,0,0-.273,1.183,2.526,2.526,0,0,0,.273,1.183,2,2,0,0,0,1.855,1.113Zm8.134,1.68a2.915,2.915,0,0,1-1.533-.392,2.56,2.56,0,0,1-.994-1.092,3.682,3.682,0,0,1-.343-1.638V7.384H78.89v4.508a1.755,1.755,0,0,0,.189.833,1.371,1.371,0,0,0,.546.56,1.6,1.6,0,0,0,.805.2,1.561,1.561,0,0,0,.8-.2,1.42,1.42,0,0,0,.546-.567,1.806,1.806,0,0,0,.2-.868V7.384H83.8V15H82.068V13.5l.154.266a1.976,1.976,0,0,1-.875,1.05A2.8,2.8,0,0,1,79.926,15.168ZM89,15.084A2.7,2.7,0,0,1,87,14.377a2.7,2.7,0,0,1-.707-1.995V9.022H84.98V7.384h.14a1.207,1.207,0,0,0,.868-.294,1.126,1.126,0,0,0,.308-.854V5.648H88.13V7.384h1.75V9.022H88.13v3.262a1.428,1.428,0,0,0,.133.644.888.888,0,0,0,.42.406,1.678,1.678,0,0,0,.735.14,2.246,2.246,0,0,0,.231-.014l.259-.028V15q-.2.028-.448.056A4.21,4.21,0,0,1,89,15.084Zm5.754,3.01a3.656,3.656,0,0,1-.6-.049,2.026,2.026,0,0,1-.532-.161v-1.54q.182.042.441.084a3.028,3.028,0,0,0,.483.042,1.237,1.237,0,0,0,.917-.294,2.8,2.8,0,0,0,.511-.77l.5-1.176-.028,1.54L93.128,7.384H95.1l2.324,6.188h-.7l2.31-6.188h1.988L97.706,15.77a4.783,4.783,0,0,1-.714,1.26,2.9,2.9,0,0,1-.973.791A2.826,2.826,0,0,1,94.752,18.094Zm10.878-2.926a4.069,4.069,0,0,1-2.037-.518,3.972,3.972,0,0,1-.007-6.916,4.264,4.264,0,0,1,4.074,0,3.953,3.953,0,0,1,1.449,1.407,3.877,3.877,0,0,1,.539,2.051,3.849,3.849,0,0,1-.546,2.044,4,4,0,0,1-3.472,1.932Zm0-1.68a2,2,0,0,0,1.085-.294,2.07,2.07,0,0,0,.742-.819,2.526,2.526,0,0,0,.273-1.183,2.473,2.473,0,0,0-.273-1.183,2.148,2.148,0,0,0-.742-.812,1.965,1.965,0,0,0-1.085-.3,2.025,2.025,0,0,0-1.106.3,2.129,2.129,0,0,0-.749.812,2.473,2.473,0,0,0-.273,1.183,2.526,2.526,0,0,0,.273,1.183,2,2,0,0,0,1.855,1.113Zm8.134,1.68a2.915,2.915,0,0,1-1.533-.392,2.56,2.56,0,0,1-.994-1.092,3.682,3.682,0,0,1-.343-1.638V7.384h1.834v4.508a1.755,1.755,0,0,0,.189.833,1.371,1.371,0,0,0,.546.56,1.6,1.6,0,0,0,.805.2,1.561,1.561,0,0,0,.8-.2,1.42,1.42,0,0,0,.546-.567,1.806,1.806,0,0,0,.2-.868V7.384h1.834V15h-1.736V13.5l.154.266a1.976,1.976,0,0,1-.875,1.05A2.8,2.8,0,0,1,113.764,15.168Zm5.6-.168V7.384h1.722V9.078l-.14-.252a2,2,0,0,1,.833-1.19,2.631,2.631,0,0,1,1.365-.336h.448V8.924h-.658a1.69,1.69,0,0,0-1.26.483,1.842,1.842,0,0,0-.476,1.351V15ZM.854,33V25.384H2.688V33Zm0-8.47V22.57H2.688v1.96ZM4.4,33V25.384H6.118v1.5l-.14-.266a2.013,2.013,0,0,1,.875-1.043,2.758,2.758,0,0,1,1.421-.357,3,3,0,0,1,1.491.364,2.589,2.589,0,0,1,1.015,1.015,3.032,3.032,0,0,1,.364,1.505V33H9.31V28.534a1.806,1.806,0,0,0-.2-.868,1.434,1.434,0,0,0-.539-.567,1.684,1.684,0,0,0-1.6,0,1.419,1.419,0,0,0-.546.567,1.806,1.806,0,0,0-.2.868V33Zm11.214.168a3.834,3.834,0,0,1-2.121-.581,2.952,2.952,0,0,1-1.239-1.575l1.372-.658a2.413,2.413,0,0,0,.819,1.008,2.005,2.005,0,0,0,1.169.364,1.286,1.286,0,0,0,.8-.224.7.7,0,0,0,.294-.588.571.571,0,0,0-.119-.371.994.994,0,0,0-.322-.252,2.481,2.481,0,0,0-.441-.175l-1.246-.35a2.971,2.971,0,0,1-1.463-.854,2.007,2.007,0,0,1-.5-1.358,2.126,2.126,0,0,1,.357-1.225,2.371,2.371,0,0,1,.994-.819,3.455,3.455,0,0,1,1.463-.294,3.508,3.508,0,0,1,1.9.518,2.841,2.841,0,0,1,1.176,1.456l-1.4.658a1.688,1.688,0,0,0-.658-.826,1.826,1.826,0,0,0-1.036-.308,1.145,1.145,0,0,0-.728.21.663.663,0,0,0-.266.546.6.6,0,0,0,.112.364.82.82,0,0,0,.315.252,3.525,3.525,0,0,0,.469.182l1.218.364a3.116,3.116,0,0,1,1.449.84,1.961,1.961,0,0,1,.511,1.372,2.073,2.073,0,0,1-.364,1.211,2.413,2.413,0,0,1-1.008.819A3.612,3.612,0,0,1,15.61,33.168Zm7.784-.084a2.459,2.459,0,0,1-2.7-2.7v-3.36H19.376V25.384h.14a1.207,1.207,0,0,0,.868-.294,1.126,1.126,0,0,0,.308-.854v-.588h1.834v1.736h1.75v1.638h-1.75v3.262a1.428,1.428,0,0,0,.133.644.888.888,0,0,0,.42.406,1.678,1.678,0,0,0,.735.14,2.247,2.247,0,0,0,.231-.014l.259-.028V33q-.2.028-.448.056A4.21,4.21,0,0,1,23.394,33.084ZM25.718,33V25.384h1.834V33Zm0-8.47V22.57h1.834v1.96Zm7.014,8.554a2.459,2.459,0,0,1-2.7-2.7v-3.36H28.714V25.384h.14a1.207,1.207,0,0,0,.868-.294,1.126,1.126,0,0,0,.308-.854v-.588h1.834v1.736h1.75v1.638h-1.75v3.262a1.428,1.428,0,0,0,.133.644.888.888,0,0,0,.42.406,1.678,1.678,0,0,0,.735.14,2.247,2.247,0,0,0,.231-.014l.259-.028V33q-.2.028-.448.056A4.21,4.21,0,0,1,32.732,33.084Zm5.04.084a2.915,2.915,0,0,1-1.533-.392,2.56,2.56,0,0,1-.994-1.092,3.682,3.682,0,0,1-.343-1.638V25.384h1.834v4.508a1.755,1.755,0,0,0,.189.833,1.371,1.371,0,0,0,.546.56,1.6,1.6,0,0,0,.805.2,1.561,1.561,0,0,0,.8-.2,1.419,1.419,0,0,0,.546-.567,1.806,1.806,0,0,0,.2-.868V25.384H41.65V33H39.914V31.5l.154.266a1.976,1.976,0,0,1-.875,1.05A2.8,2.8,0,0,1,37.772,33.168Zm9.072-.084a2.459,2.459,0,0,1-2.7-2.7v-3.36H42.826V25.384h.14a1.207,1.207,0,0,0,.868-.294,1.126,1.126,0,0,0,.308-.854v-.588h1.834v1.736h1.75v1.638h-1.75v3.262a1.428,1.428,0,0,0,.133.644.888.888,0,0,0,.42.406,1.678,1.678,0,0,0,.735.14,2.247,2.247,0,0,0,.231-.014l.259-.028V33q-.2.028-.448.056A4.21,4.21,0,0,1,46.844,33.084ZM49.168,33V25.384H51V33Zm0-8.47V22.57H51v1.96Zm7.266,8.638A4.069,4.069,0,0,1,54.4,32.65a3.972,3.972,0,0,1-.007-6.916,4.264,4.264,0,0,1,4.074,0,3.953,3.953,0,0,1,1.449,1.407,4.135,4.135,0,0,1-.007,4.1,4,4,0,0,1-3.472,1.932Zm0-1.68a2,2,0,0,0,1.085-.294,2.07,2.07,0,0,0,.742-.819,2.526,2.526,0,0,0,.273-1.183,2.473,2.473,0,0,0-.273-1.183,2.148,2.148,0,0,0-.742-.812,1.965,1.965,0,0,0-1.085-.3,2.025,2.025,0,0,0-1.106.3,2.129,2.129,0,0,0-.749.812,2.473,2.473,0,0,0-.273,1.183,2.526,2.526,0,0,0,.273,1.183,2,2,0,0,0,1.855,1.113ZM61.852,33V25.384h1.722v1.5l-.14-.266a2.013,2.013,0,0,1,.875-1.043,2.758,2.758,0,0,1,1.421-.357,3,3,0,0,1,1.491.364,2.589,2.589,0,0,1,1.015,1.015A3.032,3.032,0,0,1,68.6,28.1V33H66.766V28.534a1.806,1.806,0,0,0-.2-.868,1.434,1.434,0,0,0-.539-.567,1.684,1.684,0,0,0-1.6,0,1.42,1.42,0,0,0-.546.567,1.806,1.806,0,0,0-.2.868V33Zm14.49.168a3.978,3.978,0,0,1-2.037-.525,3.829,3.829,0,0,1-1.421-1.428,4.25,4.25,0,0,1,0-4.067,3.792,3.792,0,0,1,1.421-1.414,4.02,4.02,0,0,1,2.037-.518,3.947,3.947,0,0,1,1.512.287,3.764,3.764,0,0,1,1.211.784A2.866,2.866,0,0,1,79.8,27.47l-1.61.7a1.9,1.9,0,0,0-.707-.924,1.932,1.932,0,0,0-1.141-.35,1.974,1.974,0,0,0-1.071.294,2.031,2.031,0,0,0-.735.812,2.795,2.795,0,0,0,0,2.38,2.031,2.031,0,0,0,.735.812,1.974,1.974,0,0,0,1.071.294A1.9,1.9,0,0,0,78.19,30.2l1.61.728a3.066,3.066,0,0,1-.728,1.155,3.573,3.573,0,0,1-1.2.8A3.984,3.984,0,0,1,76.342,33.168Zm7.14,0A3.338,3.338,0,0,1,82.1,32.9a2.015,2.015,0,0,1-1.232-1.918,2.13,2.13,0,0,1,1.148-1.96,4.337,4.337,0,0,1,1.484-.476l2.492-.406v1.4l-2.142.364a1.563,1.563,0,0,0-.812.35.865.865,0,0,0-.266.658.744.744,0,0,0,.3.623,1.194,1.194,0,0,0,.749.231,2.055,2.055,0,0,0,1.015-.245,1.745,1.745,0,0,0,.686-.679,1.9,1.9,0,0,0,.245-.952v-1.96a1.034,1.034,0,0,0-.385-.819,1.508,1.508,0,0,0-1.015-.329,1.788,1.788,0,0,0-1.043.315,1.825,1.825,0,0,0-.665.833l-1.5-.728a2.643,2.643,0,0,1,.707-1.043,3.561,3.561,0,0,1,1.141-.693,3.96,3.96,0,0,1,1.428-.252,3.773,3.773,0,0,1,1.652.343,2.685,2.685,0,0,1,1.113.952,2.534,2.534,0,0,1,.4,1.421V33H85.862V31.7l.392-.028a3.081,3.081,0,0,1-.7.819,2.957,2.957,0,0,1-.924.5A3.57,3.57,0,0,1,83.482,33.168ZM89.306,33V25.384h1.722v1.5l-.14-.266a2.013,2.013,0,0,1,.875-1.043,2.758,2.758,0,0,1,1.421-.357,3,3,0,0,1,1.491.364,2.589,2.589,0,0,1,1.015,1.015,3.032,3.032,0,0,1,.364,1.505V33H94.22V28.534a1.806,1.806,0,0,0-.2-.868,1.434,1.434,0,0,0-.539-.567,1.684,1.684,0,0,0-1.6,0,1.42,1.42,0,0,0-.546.567,1.806,1.806,0,0,0-.2.868V33Zm10.822,0V25.384h1.834V33Zm0-8.47V22.57h1.834v1.96ZM103.67,33V25.384h1.722v1.5l-.14-.266a2.013,2.013,0,0,1,.875-1.043,2.758,2.758,0,0,1,1.421-.357,3,3,0,0,1,1.491.364,2.589,2.589,0,0,1,1.015,1.015,3.032,3.032,0,0,1,.364,1.505V33h-1.834V28.534a1.806,1.806,0,0,0-.2-.868,1.434,1.434,0,0,0-.539-.567,1.684,1.684,0,0,0-1.6,0,1.42,1.42,0,0,0-.546.567,1.806,1.806,0,0,0-.2.868V33Zm11.984.168a3.978,3.978,0,0,1-2.037-.525,3.829,3.829,0,0,1-1.421-1.428,4.25,4.25,0,0,1,0-4.067,3.792,3.792,0,0,1,1.421-1.414,4.02,4.02,0,0,1,2.037-.518,3.947,3.947,0,0,1,1.512.287,3.764,3.764,0,0,1,1.211.784,2.866,2.866,0,0,1,.735,1.183l-1.61.7a1.9,1.9,0,0,0-.707-.924,1.932,1.932,0,0,0-1.141-.35,1.974,1.974,0,0,0-1.071.294,2.031,2.031,0,0,0-.735.812,2.795,2.795,0,0,0,0,2.38,2.031,2.031,0,0,0,.735.812,1.974,1.974,0,0,0,1.071.294A1.9,1.9,0,0,0,117.5,30.2l1.61.728a3.066,3.066,0,0,1-.728,1.155,3.573,3.573,0,0,1-1.2.8A3.984,3.984,0,0,1,115.654,33.168ZM120.512,33V25.384h1.722v1.694l-.14-.252a2,2,0,0,1,.833-1.19,2.631,2.631,0,0,1,1.365-.336h.448v1.624h-.658a1.69,1.69,0,0,0-1.26.483,1.842,1.842,0,0,0-.476,1.351V33Zm8.862.168a3.907,3.907,0,0,1-2.058-.532,3.706,3.706,0,0,1-1.372-1.442,4.184,4.184,0,0,1-.49-2.016,4.1,4.1,0,0,1,.5-2.037,3.745,3.745,0,0,1,1.358-1.407,3.662,3.662,0,0,1,1.925-.518,3.935,3.935,0,0,1,1.575.294,3.359,3.359,0,0,1,1.155.812,3.636,3.636,0,0,1,.728,1.183,4.016,4.016,0,0,1,.252,1.435q0,.2-.021.406a1.51,1.51,0,0,1-.077.364h-5.88v-1.4h4.844l-.868.658a2.086,2.086,0,0,0-.063-1.148,1.644,1.644,0,0,0-.616-.8,1.77,1.77,0,0,0-1.029-.294,1.853,1.853,0,0,0-1.022.287,1.776,1.776,0,0,0-.679.84,2.915,2.915,0,0,0-.175,1.337,2.476,2.476,0,0,0,.189,1.239,1.84,1.84,0,0,0,.728.833,2.1,2.1,0,0,0,1.113.294,2.037,2.037,0,0,0,1.071-.266,1.919,1.919,0,0,0,.693-.714l1.484.728a2.594,2.594,0,0,1-.7.966,3.5,3.5,0,0,1-1.127.658A4.152,4.152,0,0,1,129.374,33.168Zm7.252,0a3.338,3.338,0,0,1-1.386-.266,2.015,2.015,0,0,1-1.232-1.918,2.256,2.256,0,0,1,.28-1.127,2.233,2.233,0,0,1,.868-.833,4.337,4.337,0,0,1,1.484-.476l2.492-.406v1.4l-2.142.364a1.563,1.563,0,0,0-.812.35.865.865,0,0,0-.266.658.744.744,0,0,0,.3.623,1.194,1.194,0,0,0,.749.231,2.055,2.055,0,0,0,1.015-.245,1.745,1.745,0,0,0,.686-.679,1.9,1.9,0,0,0,.245-.952v-1.96a1.034,1.034,0,0,0-.385-.819,1.509,1.509,0,0,0-1.015-.329,1.788,1.788,0,0,0-1.043.315,1.825,1.825,0,0,0-.665.833l-1.5-.728a2.643,2.643,0,0,1,.707-1.043,3.561,3.561,0,0,1,1.141-.693,3.96,3.96,0,0,1,1.428-.252,3.773,3.773,0,0,1,1.652.343,2.685,2.685,0,0,1,1.113.952,2.534,2.534,0,0,1,.4,1.421V33h-1.736V31.7l.392-.028a3.081,3.081,0,0,1-.7.819,2.956,2.956,0,0,1-.924.5A3.57,3.57,0,0,1,136.626,33.168Zm8.722,0a3.834,3.834,0,0,1-2.121-.581,2.952,2.952,0,0,1-1.239-1.575l1.372-.658a2.413,2.413,0,0,0,.819,1.008,2.005,2.005,0,0,0,1.169.364,1.286,1.286,0,0,0,.8-.224.7.7,0,0,0,.294-.588.571.571,0,0,0-.119-.371.994.994,0,0,0-.322-.252,2.482,2.482,0,0,0-.441-.175l-1.246-.35a2.971,2.971,0,0,1-1.463-.854,2.007,2.007,0,0,1-.5-1.358,2.126,2.126,0,0,1,.357-1.225,2.37,2.37,0,0,1,.994-.819,3.455,3.455,0,0,1,1.463-.294,3.508,3.508,0,0,1,1.9.518,2.841,2.841,0,0,1,1.176,1.456l-1.4.658a1.688,1.688,0,0,0-.658-.826,1.826,1.826,0,0,0-1.036-.308,1.145,1.145,0,0,0-.728.21.663.663,0,0,0-.266.546.6.6,0,0,0,.112.364.82.82,0,0,0,.315.252,3.525,3.525,0,0,0,.469.182l1.218.364a3.116,3.116,0,0,1,1.449.84,1.961,1.961,0,0,1,.511,1.372,2.073,2.073,0,0,1-.364,1.211,2.413,2.413,0,0,1-1.008.819A3.612,3.612,0,0,1,145.348,33.168Zm7.924,0a3.907,3.907,0,0,1-2.058-.532,3.706,3.706,0,0,1-1.372-1.442,4.184,4.184,0,0,1-.49-2.016,4.1,4.1,0,0,1,.5-2.037,3.745,3.745,0,0,1,1.358-1.407,3.662,3.662,0,0,1,1.925-.518,3.935,3.935,0,0,1,1.575.294,3.359,3.359,0,0,1,1.155.812,3.636,3.636,0,0,1,.728,1.183,4.016,4.016,0,0,1,.252,1.435q0,.2-.021.406a1.509,1.509,0,0,1-.077.364h-5.88v-1.4h4.844l-.868.658a2.086,2.086,0,0,0-.063-1.148,1.644,1.644,0,0,0-.616-.8,1.77,1.77,0,0,0-1.029-.294,1.853,1.853,0,0,0-1.022.287,1.777,1.777,0,0,0-.679.84,2.915,2.915,0,0,0-.175,1.337,2.476,2.476,0,0,0,.189,1.239,1.84,1.84,0,0,0,.728.833,2.1,2.1,0,0,0,1.113.294,2.037,2.037,0,0,0,1.071-.266,1.919,1.919,0,0,0,.693-.714l1.484.728a2.594,2.594,0,0,1-.7.966,3.5,3.5,0,0,1-1.127.658A4.152,4.152,0,0,1,153.272,33.168Zm10.948-.084a2.459,2.459,0,0,1-2.7-2.7v-3.36H160.2V25.384h.14a1.207,1.207,0,0,0,.868-.294,1.126,1.126,0,0,0,.308-.854v-.588h1.834v1.736h1.75v1.638h-1.75v3.262a1.428,1.428,0,0,0,.133.644.888.888,0,0,0,.42.406,1.678,1.678,0,0,0,.735.14,2.247,2.247,0,0,0,.231-.014l.259-.028V33q-.2.028-.448.056A4.21,4.21,0,0,1,164.22,33.084ZM166.544,33V22.4h1.834v4.48l-.252-.266A2.013,2.013,0,0,1,169,25.573a2.758,2.758,0,0,1,1.421-.357,3,3,0,0,1,1.491.364,2.589,2.589,0,0,1,1.015,1.015,3.032,3.032,0,0,1,.364,1.505V33h-1.834V28.534a1.806,1.806,0,0,0-.2-.868,1.434,1.434,0,0,0-.539-.567,1.684,1.684,0,0,0-1.6,0,1.42,1.42,0,0,0-.546.567,1.806,1.806,0,0,0-.2.868V33Zm11.928.168a3.907,3.907,0,0,1-2.058-.532,3.706,3.706,0,0,1-1.372-1.442,4.184,4.184,0,0,1-.49-2.016,4.1,4.1,0,0,1,.5-2.037,3.745,3.745,0,0,1,1.358-1.407,3.662,3.662,0,0,1,1.925-.518,3.935,3.935,0,0,1,1.575.294,3.359,3.359,0,0,1,1.155.812,3.636,3.636,0,0,1,.728,1.183,4.016,4.016,0,0,1,.252,1.435q0,.2-.021.406a1.509,1.509,0,0,1-.077.364h-5.88v-1.4h4.844l-.868.658a2.086,2.086,0,0,0-.063-1.148,1.644,1.644,0,0,0-.616-.8,1.77,1.77,0,0,0-1.029-.294,1.853,1.853,0,0,0-1.022.287,1.777,1.777,0,0,0-.679.84,2.915,2.915,0,0,0-.175,1.337,2.476,2.476,0,0,0,.189,1.239,1.84,1.84,0,0,0,.728.833,2.1,2.1,0,0,0,1.113.294,2.037,2.037,0,0,0,1.071-.266,1.919,1.919,0,0,0,.693-.714l1.484.728a2.594,2.594,0,0,1-.7.966,3.5,3.5,0,0,1-1.127.658A4.152,4.152,0,0,1,178.472,33.168Zm-173.95,18a3.978,3.978,0,0,1-2.037-.525,3.829,3.829,0,0,1-1.421-1.428,4.25,4.25,0,0,1,0-4.067,3.792,3.792,0,0,1,1.421-1.414,4.02,4.02,0,0,1,2.037-.518,3.947,3.947,0,0,1,1.512.287,3.764,3.764,0,0,1,1.211.784A2.866,2.866,0,0,1,7.98,45.47l-1.61.7a1.9,1.9,0,0,0-.707-.924,1.932,1.932,0,0,0-1.141-.35,1.974,1.974,0,0,0-1.071.294A2.031,2.031,0,0,0,2.716,46a2.795,2.795,0,0,0,0,2.38,2.031,2.031,0,0,0,.735.812,1.974,1.974,0,0,0,1.071.294A1.9,1.9,0,0,0,6.37,48.2l1.61.728a3.066,3.066,0,0,1-.728,1.155,3.573,3.573,0,0,1-1.2.8A3.984,3.984,0,0,1,4.522,51.168ZM9.38,51V43.384H11.1v1.694l-.14-.252a2,2,0,0,1,.833-1.19A2.631,2.631,0,0,1,13.16,43.3h.448v1.624H12.95a1.69,1.69,0,0,0-1.26.483,1.842,1.842,0,0,0-.476,1.351V51Zm8.862.168a3.907,3.907,0,0,1-2.058-.532,3.706,3.706,0,0,1-1.372-1.442,4.184,4.184,0,0,1-.49-2.016,4.1,4.1,0,0,1,.5-2.037,3.745,3.745,0,0,1,1.358-1.407,3.662,3.662,0,0,1,1.925-.518,3.935,3.935,0,0,1,1.575.294,3.359,3.359,0,0,1,1.155.812,3.636,3.636,0,0,1,.728,1.183,4.016,4.016,0,0,1,.252,1.435q0,.2-.021.406a1.51,1.51,0,0,1-.077.364h-5.88v-1.4h4.844l-.868.658a2.086,2.086,0,0,0-.063-1.148,1.644,1.644,0,0,0-.616-.8,1.77,1.77,0,0,0-1.029-.294,1.853,1.853,0,0,0-1.022.287,1.776,1.776,0,0,0-.679.84,2.915,2.915,0,0,0-.175,1.337,2.476,2.476,0,0,0,.189,1.239,1.84,1.84,0,0,0,.728.833,2.1,2.1,0,0,0,1.113.294,2.037,2.037,0,0,0,1.071-.266,1.919,1.919,0,0,0,.693-.714l1.484.728a2.594,2.594,0,0,1-.7.966,3.5,3.5,0,0,1-1.127.658A4.152,4.152,0,0,1,18.242,51.168Zm8.512,0a3.739,3.739,0,0,1-1.974-.525,3.79,3.79,0,0,1-1.372-1.435,4.091,4.091,0,0,1-.5-2.016,4.04,4.04,0,0,1,.5-2.016,3.856,3.856,0,0,1,1.379-1.428,3.685,3.685,0,0,1,1.953-.532,3.384,3.384,0,0,1,1.547.343,2.666,2.666,0,0,1,1.071.959l-.28.378V40.4h1.834V51H29.176V49.53l.2.364a2.543,2.543,0,0,1-1.092.945A3.542,3.542,0,0,1,26.754,51.168Zm.2-1.68a2.014,2.014,0,0,0,1.855-1.106,2.715,2.715,0,0,0,0-2.373,2.127,2.127,0,0,0-2.961-.812,2.094,2.094,0,0,0-.763.812,2.473,2.473,0,0,0-.273,1.183,2.514,2.514,0,0,0,.273,1.19,2.031,2.031,0,0,0,.763.812A2.108,2.108,0,0,0,26.95,49.488ZM32.634,51V43.384h1.834V51Zm0-8.47V40.57h1.834v1.96Zm7.7,8.638a3.5,3.5,0,0,1-1.519-.329,2.646,2.646,0,0,1-1.1-.945l.182-.364V51H36.176V40.4H38.01V44.9l-.28-.378a2.677,2.677,0,0,1,1.064-.959,3.373,3.373,0,0,1,1.554-.343,3.649,3.649,0,0,1,1.946.532,3.93,3.93,0,0,1,1.379,1.428,4,4,0,0,1,.511,2.016,4.091,4.091,0,0,1-.5,2.016,3.79,3.79,0,0,1-1.372,1.435A3.739,3.739,0,0,1,40.334,51.168Zm-.21-1.68a2.134,2.134,0,0,0,1.12-.294,2.032,2.032,0,0,0,.763-.812,2.514,2.514,0,0,0,.273-1.19,2.473,2.473,0,0,0-.273-1.183A2.079,2.079,0,0,0,40.124,44.9a2.023,2.023,0,0,0-1.841,1.113,2.715,2.715,0,0,0,0,2.373,2.033,2.033,0,0,0,1.841,1.106ZM45.6,51V43.384h1.834V51Zm0-8.47V40.57h1.834v1.96ZM49.14,51V40.4h1.834V51Zm3.542,0V43.384h1.834V51Zm0-8.47V40.57h1.834v1.96ZM59.7,51.084a2.459,2.459,0,0,1-2.7-2.7v-3.36H55.678V43.384h.14a1.207,1.207,0,0,0,.868-.294,1.126,1.126,0,0,0,.308-.854v-.588h1.834v1.736h1.75v1.638h-1.75v3.262a1.428,1.428,0,0,0,.133.644.888.888,0,0,0,.42.406,1.678,1.678,0,0,0,.735.14,2.246,2.246,0,0,0,.231-.014l.259-.028V51q-.2.028-.448.056A4.21,4.21,0,0,1,59.7,51.084Zm3.248,3.01a3.656,3.656,0,0,1-.6-.049,2.026,2.026,0,0,1-.532-.161v-1.54q.182.042.441.084a3.028,3.028,0,0,0,.483.042,1.237,1.237,0,0,0,.917-.294,2.8,2.8,0,0,0,.511-.77l.5-1.176-.028,1.54L61.32,43.384h1.974l2.324,6.188h-.7l2.31-6.188h1.988L65.9,51.77a4.783,4.783,0,0,1-.714,1.26,2.9,2.9,0,0,1-.973.791A2.826,2.826,0,0,1,62.944,54.094Zm13.524-2.926a4.069,4.069,0,0,1-2.037-.518,3.972,3.972,0,0,1-.007-6.916,4.264,4.264,0,0,1,4.074,0,3.953,3.953,0,0,1,1.449,1.407,4.135,4.135,0,0,1-.007,4.1,4,4,0,0,1-3.472,1.932Zm0-1.68a2,2,0,0,0,1.085-.294,2.07,2.07,0,0,0,.742-.819,2.526,2.526,0,0,0,.273-1.183,2.473,2.473,0,0,0-.273-1.183,2.148,2.148,0,0,0-.742-.812,1.965,1.965,0,0,0-1.085-.3,2.025,2.025,0,0,0-1.106.3,2.129,2.129,0,0,0-.749.812,2.473,2.473,0,0,0-.273,1.183,2.526,2.526,0,0,0,.273,1.183,2,2,0,0,0,1.855,1.113ZM82.6,51V45.022H81.256V43.384H82.6v-.252a2.873,2.873,0,0,1,.357-1.477,2.354,2.354,0,0,1,1-.931,3.376,3.376,0,0,1,1.526-.322,3.63,3.63,0,0,1,.371.021q.2.021.343.049v1.582a1.9,1.9,0,0,0-.259-.035q-.119-.007-.217-.007a1.473,1.473,0,0,0-.952.273,1.027,1.027,0,0,0-.336.847v.252h1.694v1.638H84.434V51Zm8.246,3.094a3.656,3.656,0,0,1-.6-.049,2.026,2.026,0,0,1-.532-.161v-1.54q.182.042.441.084a3.028,3.028,0,0,0,.483.042,1.237,1.237,0,0,0,.917-.294,2.8,2.8,0,0,0,.511-.77l.5-1.176-.028,1.54-3.318-8.386H91.2l2.324,6.188h-.7l2.31-6.188h1.988L93.8,51.77a4.783,4.783,0,0,1-.714,1.26,2.9,2.9,0,0,1-.973.791A2.826,2.826,0,0,1,90.846,54.094Zm10.878-2.926a4.069,4.069,0,0,1-2.037-.518,3.972,3.972,0,0,1-.007-6.916,4.264,4.264,0,0,1,4.074,0,3.953,3.953,0,0,1,1.449,1.407,4.135,4.135,0,0,1-.007,4.1,4,4,0,0,1-3.472,1.932Zm0-1.68a2,2,0,0,0,1.085-.294,2.07,2.07,0,0,0,.742-.819,2.526,2.526,0,0,0,.273-1.183,2.473,2.473,0,0,0-.273-1.183,2.148,2.148,0,0,0-.742-.812,1.965,1.965,0,0,0-1.085-.3,2.025,2.025,0,0,0-1.106.3,2.129,2.129,0,0,0-.749.812,2.473,2.473,0,0,0-.273,1.183,2.526,2.526,0,0,0,.273,1.183,2,2,0,0,0,1.855,1.113Zm8.134,1.68a2.915,2.915,0,0,1-1.533-.392,2.56,2.56,0,0,1-.994-1.092,3.682,3.682,0,0,1-.343-1.638V43.384h1.834v4.508a1.755,1.755,0,0,0,.189.833,1.371,1.371,0,0,0,.546.56,1.6,1.6,0,0,0,.805.2,1.561,1.561,0,0,0,.8-.2,1.42,1.42,0,0,0,.546-.567,1.806,1.806,0,0,0,.2-.868V43.384h1.834V51H112V49.5l.154.266a1.976,1.976,0,0,1-.875,1.05A2.8,2.8,0,0,1,109.858,51.168Zm5.6-.168V43.384h1.722v1.694l-.14-.252a2,2,0,0,1,.833-1.19,2.631,2.631,0,0,1,1.365-.336h.448v1.624h-.658a1.69,1.69,0,0,0-1.26.483,1.842,1.842,0,0,0-.476,1.351V51Zm7.756,2.8V43.384h1.722V44.9l-.168-.378a2.677,2.677,0,0,1,1.064-.959,3.373,3.373,0,0,1,1.554-.343,3.649,3.649,0,0,1,1.946.532,3.93,3.93,0,0,1,1.379,1.428,4,4,0,0,1,.511,2.016,4.091,4.091,0,0,1-.5,2.016,3.79,3.79,0,0,1-1.372,1.435,3.739,3.739,0,0,1-1.974.525,3.5,3.5,0,0,1-1.519-.329,2.646,2.646,0,0,1-1.1-.945l.294-.364V53.8Zm3.948-4.312a2.134,2.134,0,0,0,1.12-.294,2.031,2.031,0,0,0,.763-.812,2.515,2.515,0,0,0,.273-1.19,2.473,2.473,0,0,0-.273-1.183,2.079,2.079,0,0,0-1.883-1.113,2.023,2.023,0,0,0-1.841,1.113,2.715,2.715,0,0,0,0,2.373,2.033,2.033,0,0,0,1.841,1.106ZM132.636,51V43.384h1.722v1.694l-.14-.252a2,2,0,0,1,.833-1.19,2.631,2.631,0,0,1,1.365-.336h.448v1.624h-.658a1.69,1.69,0,0,0-1.26.483,1.842,1.842,0,0,0-.476,1.351V51Zm8.974.168a4.069,4.069,0,0,1-2.037-.518,3.972,3.972,0,0,1-.007-6.916,4.264,4.264,0,0,1,4.074,0,3.953,3.953,0,0,1,1.449,1.407,4.135,4.135,0,0,1-.007,4.1,4,4,0,0,1-3.472,1.932Zm0-1.68a2,2,0,0,0,1.085-.294,2.07,2.07,0,0,0,.742-.819,2.526,2.526,0,0,0,.273-1.183,2.473,2.473,0,0,0-.273-1.183,2.148,2.148,0,0,0-.742-.812,1.965,1.965,0,0,0-1.085-.3,2.025,2.025,0,0,0-1.106.3,2.129,2.129,0,0,0-.749.812,2.473,2.473,0,0,0-.273,1.183,2.526,2.526,0,0,0,.273,1.183,2,2,0,0,0,1.855,1.113ZM147.742,51V45.022H146.4V43.384h1.344v-.252a2.873,2.873,0,0,1,.357-1.477,2.354,2.354,0,0,1,1-.931,3.376,3.376,0,0,1,1.526-.322,3.63,3.63,0,0,1,.371.021q.2.021.343.049v1.582a1.9,1.9,0,0,0-.259-.035q-.119-.007-.217-.007a1.473,1.473,0,0,0-.952.273,1.027,1.027,0,0,0-.336.847v.252h1.694v1.638h-1.694V51Zm4.676,0V43.384h1.834V51Zm0-8.47V40.57h1.834v1.96ZM155.96,51V40.4h1.834V51Zm7.154.168a3.907,3.907,0,0,1-2.058-.532,3.706,3.706,0,0,1-1.372-1.442,4.184,4.184,0,0,1-.49-2.016,4.1,4.1,0,0,1,.5-2.037,3.745,3.745,0,0,1,1.358-1.407,3.662,3.662,0,0,1,1.925-.518,3.935,3.935,0,0,1,1.575.294,3.359,3.359,0,0,1,1.155.812,3.636,3.636,0,0,1,.728,1.183,4.016,4.016,0,0,1,.252,1.435q0,.2-.021.406a1.509,1.509,0,0,1-.077.364h-5.88v-1.4h4.844l-.868.658a2.086,2.086,0,0,0-.063-1.148,1.644,1.644,0,0,0-.616-.8,1.77,1.77,0,0,0-1.029-.294,1.853,1.853,0,0,0-1.022.287,1.777,1.777,0,0,0-.679.84,2.915,2.915,0,0,0-.175,1.337,2.476,2.476,0,0,0,.189,1.239,1.84,1.84,0,0,0,.728.833,2.1,2.1,0,0,0,1.113.294,2.037,2.037,0,0,0,1.071-.266,1.919,1.919,0,0,0,.693-.714l1.484.728a2.594,2.594,0,0,1-.7.966,3.5,3.5,0,0,1-1.127.658A4.152,4.152,0,0,1,163.114,51.168Zm5.908-3.332L168.9,40.57h1.862l-.126,7.266ZM168.9,51V49.04h1.862V51Z" transform="translate(72 585)" fill="#fff"/>
    <rect id="Rectangle_19005" data-name="Rectangle 19005" width="136" height="26" rx="13" transform="translate(72 661)" fill="#fff"/>
    <path id="Path_91272" data-name="Path 91272" d="M-50.022,0l3.6-10.43h2.464L-40.362,0h-2.072l-.742-2.24h-4.032L-47.964,0Zm3.36-3.92h2.94l-1.736-5.194h.532ZM-36.078.168a3.739,3.739,0,0,1-1.974-.525,3.79,3.79,0,0,1-1.372-1.435,4.091,4.091,0,0,1-.5-2.016,4.04,4.04,0,0,1,.5-2.016,3.856,3.856,0,0,1,1.379-1.428,3.685,3.685,0,0,1,1.953-.532,3.384,3.384,0,0,1,1.547.343,2.666,2.666,0,0,1,1.071.959l-.28.378V-10.6h1.834V0h-1.736V-1.47l.2.364a2.543,2.543,0,0,1-1.092.945A3.542,3.542,0,0,1-36.078.168Zm.2-1.68a2.061,2.061,0,0,0,1.106-.294,2.064,2.064,0,0,0,.749-.812,2.514,2.514,0,0,0,.273-1.19,2.526,2.526,0,0,0-.273-1.183,2.052,2.052,0,0,0-.749-.819A2.061,2.061,0,0,0-35.882-6.1a2.07,2.07,0,0,0-1.106.3,2.094,2.094,0,0,0-.763.812,2.473,2.473,0,0,0-.273,1.183,2.514,2.514,0,0,0,.273,1.19,2.031,2.031,0,0,0,.763.812A2.108,2.108,0,0,0-35.882-1.512Zm9.226,1.68A3.739,3.739,0,0,1-28.63-.357,3.79,3.79,0,0,1-30-1.792a4.091,4.091,0,0,1-.5-2.016A4.04,4.04,0,0,1-30-5.824a3.856,3.856,0,0,1,1.379-1.428,3.685,3.685,0,0,1,1.953-.532,3.384,3.384,0,0,1,1.547.343,2.666,2.666,0,0,1,1.071.959l-.28.378V-10.6H-22.5V0h-1.736V-1.47l.2.364a2.543,2.543,0,0,1-1.092.945A3.542,3.542,0,0,1-26.656.168Zm.2-1.68a2.061,2.061,0,0,0,1.106-.294,2.064,2.064,0,0,0,.749-.812,2.514,2.514,0,0,0,.273-1.19,2.526,2.526,0,0,0-.273-1.183,2.052,2.052,0,0,0-.749-.819A2.061,2.061,0,0,0-26.46-6.1a2.07,2.07,0,0,0-1.106.3,2.094,2.094,0,0,0-.763.812A2.473,2.473,0,0,0-28.6-3.808a2.514,2.514,0,0,0,.273,1.19,2.031,2.031,0,0,0,.763.812A2.108,2.108,0,0,0-26.46-1.512ZM-18.27,0V-7.616h1.834V0Zm0-8.47v-1.96h1.834v1.96ZM-14.728,0V-7.616h1.722v1.5l-.14-.266a2.013,2.013,0,0,1,.875-1.043,2.758,2.758,0,0,1,1.421-.357,3,3,0,0,1,1.491.364A2.589,2.589,0,0,1-8.344-6.405,3.032,3.032,0,0,1-7.98-4.9V0H-9.814V-4.466a1.806,1.806,0,0,0-.2-.868,1.434,1.434,0,0,0-.539-.567,1.551,1.551,0,0,0-.805-.2,1.561,1.561,0,0,0-.8.2,1.419,1.419,0,0,0-.546.567,1.806,1.806,0,0,0-.2.868V0ZM-3.514.168A3.834,3.834,0,0,1-5.635-.413,2.952,2.952,0,0,1-6.874-1.988L-5.5-2.646a2.413,2.413,0,0,0,.819,1.008,2.005,2.005,0,0,0,1.169.364,1.286,1.286,0,0,0,.8-.224.7.7,0,0,0,.294-.588.571.571,0,0,0-.119-.371.994.994,0,0,0-.322-.252A2.481,2.481,0,0,0-3.3-2.884l-1.246-.35a2.971,2.971,0,0,1-1.463-.854,2.007,2.007,0,0,1-.5-1.358,2.126,2.126,0,0,1,.357-1.225,2.371,2.371,0,0,1,.994-.819A3.455,3.455,0,0,1-3.7-7.784a3.508,3.508,0,0,1,1.9.518A2.841,2.841,0,0,1-.616-5.81l-1.4.658a1.688,1.688,0,0,0-.658-.826A1.826,1.826,0,0,0-3.71-6.286a1.145,1.145,0,0,0-.728.21A.663.663,0,0,0-4.7-5.53a.6.6,0,0,0,.112.364.82.82,0,0,0,.315.252,3.525,3.525,0,0,0,.469.182l1.218.364a3.116,3.116,0,0,1,1.449.84A1.961,1.961,0,0,1-.63-2.156,2.073,2.073,0,0,1-.994-.945,2.413,2.413,0,0,1-2-.126,3.612,3.612,0,0,1-3.514.168ZM4.27.084A2.7,2.7,0,0,1,2.275-.623a2.7,2.7,0,0,1-.707-2v-3.36H.252V-7.616h.14A1.207,1.207,0,0,0,1.26-7.91a1.126,1.126,0,0,0,.308-.854v-.588H3.4v1.736h1.75v1.638H3.4v3.262a1.428,1.428,0,0,0,.133.644.888.888,0,0,0,.42.406,1.678,1.678,0,0,0,.735.14,2.246,2.246,0,0,0,.231-.014l.259-.028V0q-.2.028-.448.056A4.21,4.21,0,0,1,4.27.084ZM6.594,0V-7.616H8.428V0Zm0-8.47v-1.96H8.428v1.96ZM13.608.084a2.7,2.7,0,0,1-1.995-.707,2.7,2.7,0,0,1-.707-2v-3.36H9.59V-7.616h.14A1.207,1.207,0,0,0,10.6-7.91a1.126,1.126,0,0,0,.308-.854v-.588H12.74v1.736h1.75v1.638H12.74v3.262a1.428,1.428,0,0,0,.133.644.888.888,0,0,0,.42.406,1.678,1.678,0,0,0,.735.14,2.246,2.246,0,0,0,.231-.014l.259-.028V0q-.2.028-.448.056A4.21,4.21,0,0,1,13.608.084Zm5.04.084a2.915,2.915,0,0,1-1.533-.392,2.56,2.56,0,0,1-.994-1.092,3.682,3.682,0,0,1-.343-1.638V-7.616h1.834v4.508a1.755,1.755,0,0,0,.189.833,1.371,1.371,0,0,0,.546.56,1.6,1.6,0,0,0,.805.2,1.561,1.561,0,0,0,.8-.2,1.419,1.419,0,0,0,.546-.567,1.806,1.806,0,0,0,.2-.868V-7.616h1.834V0H20.79V-1.5l.154.266a1.976,1.976,0,0,1-.875,1.05A2.8,2.8,0,0,1,18.648.168ZM27.72.084a2.7,2.7,0,0,1-2-.707,2.7,2.7,0,0,1-.707-2v-3.36H23.7V-7.616h.14a1.207,1.207,0,0,0,.868-.294,1.126,1.126,0,0,0,.308-.854v-.588h1.834v1.736H28.6v1.638h-1.75v3.262a1.428,1.428,0,0,0,.133.644.888.888,0,0,0,.42.406,1.678,1.678,0,0,0,.735.14,2.247,2.247,0,0,0,.231-.014l.259-.028V0q-.2.028-.448.056A4.21,4.21,0,0,1,27.72.084ZM30.044,0V-7.616h1.834V0Zm0-8.47v-1.96h1.834v1.96ZM37.31.168A4.069,4.069,0,0,1,35.273-.35a3.92,3.92,0,0,1-1.456-1.414,3.887,3.887,0,0,1-.539-2.044,3.887,3.887,0,0,1,.539-2.044,3.936,3.936,0,0,1,1.449-1.414,4.058,4.058,0,0,1,2.044-.518,4.031,4.031,0,0,1,2.03.518,3.953,3.953,0,0,1,1.449,1.407,3.877,3.877,0,0,1,.539,2.051,3.849,3.849,0,0,1-.546,2.044A3.991,3.991,0,0,1,39.326-.35,4,4,0,0,1,37.31.168Zm0-1.68a2,2,0,0,0,1.085-.294,2.07,2.07,0,0,0,.742-.819,2.526,2.526,0,0,0,.273-1.183,2.473,2.473,0,0,0-.273-1.183,2.148,2.148,0,0,0-.742-.812,1.965,1.965,0,0,0-1.085-.3,2.025,2.025,0,0,0-1.106.3,2.129,2.129,0,0,0-.749.812,2.473,2.473,0,0,0-.273,1.183,2.526,2.526,0,0,0,.273,1.183,2.052,2.052,0,0,0,.749.819A2.061,2.061,0,0,0,37.31-1.512ZM42.728,0V-7.616H44.45v1.5l-.14-.266a2.013,2.013,0,0,1,.875-1.043,2.758,2.758,0,0,1,1.421-.357A3,3,0,0,1,48.1-7.42a2.589,2.589,0,0,1,1.015,1.015A3.032,3.032,0,0,1,49.476-4.9V0H47.642V-4.466a1.806,1.806,0,0,0-.2-.868,1.434,1.434,0,0,0-.539-.567,1.551,1.551,0,0,0-.805-.2,1.561,1.561,0,0,0-.8.2,1.42,1.42,0,0,0-.546.567,1.806,1.806,0,0,0-.2.868V0Z" transform="translate(140 679)" fill="#eb538e"/>
    <g id="Group_66849" data-name="Group 66849" transform="translate(-7.572 9.319)">
      <path id="Subtraction_45" data-name="Subtraction 45" d="M36.944,0h0a49.848,49.848,0,0,1-18.47,3.407A49.888,49.888,0,0,1,0,0L0,19.73a49.891,49.891,0,0,0,18.472,3.405A49.892,49.892,0,0,0,36.944,19.73V0Z" transform="translate(263.389 661.766)" fill="#ffb1d0"/>
      <path id="Path_37834" data-name="Path 37834" d="M25.272,28.279,2.734,18.751a3.266,3.266,0,0,1-.225-6.113L24.272,1.886a13.812,13.812,0,0,1,12.143.04L58.607,13.083a3.267,3.267,0,0,1-.282,6.113L36.237,28.322A14.378,14.378,0,0,1,25.272,28.279Z" transform="translate(251.312 647.253)" fill="#ff95be"/>
      <path id="Subtraction_46" data-name="Subtraction 46" d="M36.944,23.135h0a49.85,49.85,0,0,0-18.47-3.406A49.888,49.888,0,0,0,0,23.133L0,3.405A49.891,49.891,0,0,1,18.472,0,49.9,49.9,0,0,1,36.944,3.405v19.73Z" transform="translate(263.389 657.751)" fill="#fd81b2"/>
      <rect id="Rectangle_19006" data-name="Rectangle 19006" width="18.307" height="3.433" rx="1.716" transform="translate(311.902 661.997) rotate(90)" fill="#fd81b2"/>
      <path id="Path_37837" data-name="Path 37837" d="M36.943,5.711v-2.3A49.753,49.753,0,0,0,18.472,0,49.757,49.757,0,0,0,0,3.406V13.4C7.645,8.286,17.823,5.166,29,5.166a58.589,58.589,0,0,1,7.945.545" transform="translate(263.39 657.751)" fill="#ff6aa4"/>
    </g>
  </g>
</svg>
