<svg xmlns="http://www.w3.org/2000/svg" xmlns:xlink="http://www.w3.org/1999/xlink" width="273" height="148" viewBox="0 0 273 148">
  <defs>
    <clipPath id="clip-path">
      <rect id="Rectangle_19019" data-name="Rectangle 19019" width="273" height="148" rx="9" transform="translate(51 393)" fill="#4b9d97"/>
    </clipPath>
  </defs>
  <g id="Group_66867" data-name="Group 66867" transform="translate(-51 -393)">
    <g id="Group_66858" data-name="Group 66858">
      <rect id="Rectangle_19007" data-name="Rectangle 19007" width="273" height="148" rx="9" transform="translate(51 393)" fill="#4b9d97"/>
      <g id="Mask_Group_25423" data-name="Mask Group 25423" clip-path="url(#clip-path)">
        <g id="Group_66855" data-name="Group 66855" transform="translate(-51.741 257.884)">
          <path id="Path_37839" data-name="Path 37839" d="M-4475.5,460.236s73.895-51.712,111.05-113.885-17.151-81.25-29.312-142.76" transform="translate(4475.497 -73.376)" fill="none" stroke="#50aca5" stroke-width="1"/>
          <path id="Path_37840" data-name="Path 37840" d="M-4597.012,590.235s136.9,22.916,148.2-45.57-37.681-111.438,19.169-150.938,80.811-37.315,55.943-78.833-12.723-60.251-12.723-60.251" transform="translate(4601.043 -254.643)" fill="none" stroke="#50aca5" stroke-width="1"/>
          <path id="Path_37841" data-name="Path 37841" d="M-4459.2,471.621s-22.236,8.177,3.6,60.563-51.595,44.74-69.244,68.295" transform="translate(4620.226 -463.445)" fill="none" stroke="#50aca5" stroke-width="1"/>
          <path id="Path_37842" data-name="Path 37842" d="M-4777.962,286.213s-39.022-55.721-102.081-47.464,5.243,63.057,5.243,63.057" transform="translate(5303.805 53.062)" fill="none" stroke="#50aca5" stroke-width="1"/>
          <path id="Path_37843" data-name="Path 37843" d="M-4793.114,348.1s-80.427-93-70.2-137.794,95.531-5.077,151.687,30.631" transform="translate(5212.804 60.085)" fill="none" stroke="#50aca5" stroke-width="1"/>
          <path id="Path_37844" data-name="Path 37844" d="M-4522.817,364.79s-62.06-14.6-79.784-69.138-1.573-91.077-24.312-82.246-3.4,82.007-33.035,106.678" transform="translate(4818.599 14.148)" fill="none" stroke="#50aca5" stroke-width="1"/>
          <path id="Path_37845" data-name="Path 37845" d="M-4648.107,195.8s78.421,62.558,47.083,103.18-113.928,32.411-89.883,109.481,77.949,97.766,69.712,167.678" transform="translate(4922.302 -182.025)" fill="none" stroke="#50aca5" stroke-width="1"/>
          <path id="Path_37846" data-name="Path 37846" d="M-4823.893,443.432s-65.083-68.953-91.658-45.253,43.653,135.188,84.271,160.186,64.345,22.5,64.345,22.5" transform="translate(5306.417 -370.828)" fill="none" stroke="#50aca5" stroke-width="1"/>
          <path id="Path_37847" data-name="Path 37847" d="M-4671.539,330.267s-101.654-112.1-153.371-101.6-39.254,35.042-62.547,62.351,32.626,122.782,36.426,135.341" transform="translate(5184.651 -62.229)" fill="none" stroke="#50aca5" stroke-width="1"/>
        </g>
      </g>
      <path id="Path_91270" data-name="Path 91270" d="M1.008,15V4.57h1.82L6.734,9.876H5.866L9.688,4.57h1.82V15H9.59V6.74l.742.182L6.37,12.2H6.146L2.282,6.922l.63-.182V15Zm15.974.168a3.907,3.907,0,0,1-2.058-.532,3.706,3.706,0,0,1-1.372-1.442,4.184,4.184,0,0,1-.49-2.016,4.1,4.1,0,0,1,.5-2.037,3.745,3.745,0,0,1,1.358-1.407,3.662,3.662,0,0,1,1.925-.518,3.935,3.935,0,0,1,1.575.294,3.359,3.359,0,0,1,1.155.812A3.636,3.636,0,0,1,20.3,9.5a4.016,4.016,0,0,1,.252,1.435q0,.2-.021.406a1.51,1.51,0,0,1-.077.364h-5.88v-1.4h4.844l-.868.658a2.086,2.086,0,0,0-.063-1.148,1.644,1.644,0,0,0-.616-.8,1.77,1.77,0,0,0-1.029-.294,1.853,1.853,0,0,0-1.022.287,1.776,1.776,0,0,0-.679.84,2.915,2.915,0,0,0-.175,1.337,2.476,2.476,0,0,0,.189,1.239,1.84,1.84,0,0,0,.728.833A2.1,2.1,0,0,0,17,13.558a2.037,2.037,0,0,0,1.071-.266,1.919,1.919,0,0,0,.693-.714l1.484.728a2.594,2.594,0,0,1-.7.966,3.5,3.5,0,0,1-1.127.658A4.152,4.152,0,0,1,16.982,15.168ZM21.952,15V7.384h1.722V9.148l-.2-.294a1.975,1.975,0,0,1,.84-1.232A2.679,2.679,0,0,1,25.8,7.216a2.848,2.848,0,0,1,1.652.49,2.206,2.206,0,0,1,.924,1.288l-.518.042a2.737,2.737,0,0,1,1.05-1.365,3.071,3.071,0,0,1,3.059-.091,2.616,2.616,0,0,1,1,1.015,3.032,3.032,0,0,1,.364,1.505V15H31.5V10.534a1.921,1.921,0,0,0-.182-.868,1.386,1.386,0,0,0-.5-.567,1.441,1.441,0,0,0-.784-.2,1.46,1.46,0,0,0-.77.2,1.354,1.354,0,0,0-.518.567,1.921,1.921,0,0,0-.182.868V15H26.726V10.534a1.921,1.921,0,0,0-.182-.868,1.369,1.369,0,0,0-.511-.567,1.575,1.575,0,0,0-1.547,0,1.354,1.354,0,0,0-.518.567,1.921,1.921,0,0,0-.182.868V15Zm17.108.168a3.5,3.5,0,0,1-1.519-.329,2.646,2.646,0,0,1-1.1-.945l.182-.364V15H34.9V4.4h1.834V8.9l-.28-.378a2.677,2.677,0,0,1,1.064-.959,3.373,3.373,0,0,1,1.554-.343,3.649,3.649,0,0,1,1.946.532A3.93,3.93,0,0,1,42.4,9.176a4,4,0,0,1,.511,2.016,4.091,4.091,0,0,1-.5,2.016,3.79,3.79,0,0,1-1.372,1.435A3.739,3.739,0,0,1,39.06,15.168Zm-.21-1.68a2.134,2.134,0,0,0,1.12-.294,2.032,2.032,0,0,0,.763-.812,2.514,2.514,0,0,0,.273-1.19,2.473,2.473,0,0,0-.273-1.183A2.079,2.079,0,0,0,38.85,8.9a2.023,2.023,0,0,0-1.841,1.113,2.715,2.715,0,0,0,0,2.373,2.033,2.033,0,0,0,1.841,1.106Zm9.086,1.68a3.907,3.907,0,0,1-2.058-.532,3.706,3.706,0,0,1-1.372-1.442,4.184,4.184,0,0,1-.49-2.016,4.1,4.1,0,0,1,.5-2.037,3.745,3.745,0,0,1,1.358-1.407A3.662,3.662,0,0,1,47.8,7.216a3.935,3.935,0,0,1,1.575.294,3.359,3.359,0,0,1,1.155.812A3.636,3.636,0,0,1,51.254,9.5a4.016,4.016,0,0,1,.252,1.435q0,.2-.021.406a1.51,1.51,0,0,1-.077.364h-5.88v-1.4h4.844l-.868.658a2.086,2.086,0,0,0-.063-1.148,1.644,1.644,0,0,0-.616-.8A1.77,1.77,0,0,0,47.8,8.728a1.853,1.853,0,0,0-1.022.287,1.776,1.776,0,0,0-.679.84,2.915,2.915,0,0,0-.175,1.337,2.476,2.476,0,0,0,.189,1.239,1.84,1.84,0,0,0,.728.833,2.1,2.1,0,0,0,1.113.294,2.037,2.037,0,0,0,1.071-.266,1.919,1.919,0,0,0,.693-.714l1.484.728a2.594,2.594,0,0,1-.7.966,3.5,3.5,0,0,1-1.127.658A4.152,4.152,0,0,1,47.936,15.168ZM52.906,15V7.384h1.722V9.078l-.14-.252a2,2,0,0,1,.833-1.19A2.631,2.631,0,0,1,56.686,7.3h.448V8.924h-.658a1.69,1.69,0,0,0-1.26.483,1.842,1.842,0,0,0-.476,1.351V15Zm8.148.168a3.834,3.834,0,0,1-2.121-.581,2.952,2.952,0,0,1-1.239-1.575l1.372-.658a2.413,2.413,0,0,0,.819,1.008,2.005,2.005,0,0,0,1.169.364,1.286,1.286,0,0,0,.8-.224.7.7,0,0,0,.294-.588.571.571,0,0,0-.119-.371.994.994,0,0,0-.322-.252,2.481,2.481,0,0,0-.441-.175l-1.246-.35a2.971,2.971,0,0,1-1.463-.854,2.007,2.007,0,0,1-.5-1.358,2.126,2.126,0,0,1,.357-1.225,2.371,2.371,0,0,1,.994-.819,3.455,3.455,0,0,1,1.463-.294,3.508,3.508,0,0,1,1.9.518A2.841,2.841,0,0,1,63.952,9.19l-1.4.658a1.688,1.688,0,0,0-.658-.826,1.826,1.826,0,0,0-1.036-.308,1.145,1.145,0,0,0-.728.21.663.663,0,0,0-.266.546.6.6,0,0,0,.112.364.82.82,0,0,0,.315.252,3.525,3.525,0,0,0,.469.182l1.218.364a3.116,3.116,0,0,1,1.449.84,1.961,1.961,0,0,1,.511,1.372,2.073,2.073,0,0,1-.364,1.211,2.413,2.413,0,0,1-1.008.819A3.612,3.612,0,0,1,61.054,15.168ZM67.872,15V4.4h1.834V15Zm7.266.168A4.069,4.069,0,0,1,73.1,14.65a3.972,3.972,0,0,1-.007-6.916,4.264,4.264,0,0,1,4.074,0,3.953,3.953,0,0,1,1.449,1.407,3.877,3.877,0,0,1,.539,2.051,3.849,3.849,0,0,1-.546,2.044,4,4,0,0,1-3.472,1.932Zm0-1.68a2,2,0,0,0,1.085-.294,2.07,2.07,0,0,0,.742-.819,2.526,2.526,0,0,0,.273-1.183,2.473,2.473,0,0,0-.273-1.183,2.148,2.148,0,0,0-.742-.812,1.965,1.965,0,0,0-1.085-.3,2.025,2.025,0,0,0-1.106.3,2.129,2.129,0,0,0-.749.812,2.473,2.473,0,0,0-.273,1.183,2.526,2.526,0,0,0,.273,1.183,2,2,0,0,0,1.855,1.113Zm9.142,1.68a4.069,4.069,0,0,1-2.037-.518,3.972,3.972,0,0,1-.007-6.916,4.264,4.264,0,0,1,4.074,0,3.953,3.953,0,0,1,1.449,1.407,3.877,3.877,0,0,1,.539,2.051,3.849,3.849,0,0,1-.546,2.044,4,4,0,0,1-3.472,1.932Zm0-1.68a2,2,0,0,0,1.085-.294,2.07,2.07,0,0,0,.742-.819,2.526,2.526,0,0,0,.273-1.183,2.473,2.473,0,0,0-.273-1.183,2.148,2.148,0,0,0-.742-.812,1.965,1.965,0,0,0-1.085-.3,2.025,2.025,0,0,0-1.106.3,2.129,2.129,0,0,0-.749.812,2.473,2.473,0,0,0-.273,1.183,2.526,2.526,0,0,0,.273,1.183,2,2,0,0,0,1.855,1.113ZM89.7,15V4.4h1.834v6.944l-.7-.21,3.584-3.752H96.7L93.884,10.45,96.754,15h-2.1l-2.492-3.948,1.092-.224-2.3,2.464.574-1.12V15Zm11.48,0V9.022H99.834V7.384h1.344V7.132a2.873,2.873,0,0,1,.357-1.477,2.354,2.354,0,0,1,1-.931,3.376,3.376,0,0,1,1.526-.322,3.63,3.63,0,0,1,.371.021q.2.021.343.049V6.054a1.9,1.9,0,0,0-.259-.035q-.119-.007-.217-.007a1.473,1.473,0,0,0-.952.273,1.027,1.027,0,0,0-.336.847v.252h1.694V9.022h-1.694V15Zm8.33.168a4.069,4.069,0,0,1-2.037-.518,3.972,3.972,0,0,1-.007-6.916,4.264,4.264,0,0,1,4.074,0,3.953,3.953,0,0,1,1.449,1.407,3.877,3.877,0,0,1,.539,2.051,3.849,3.849,0,0,1-.546,2.044,4,4,0,0,1-3.472,1.932Zm0-1.68a2,2,0,0,0,1.085-.294,2.07,2.07,0,0,0,.742-.819,2.526,2.526,0,0,0,.273-1.183,2.473,2.473,0,0,0-.273-1.183,2.148,2.148,0,0,0-.742-.812,1.965,1.965,0,0,0-1.085-.3,2.025,2.025,0,0,0-1.106.3,2.129,2.129,0,0,0-.749.812,2.473,2.473,0,0,0-.273,1.183,2.526,2.526,0,0,0,.273,1.183,2,2,0,0,0,1.855,1.113ZM114.926,15V7.384h1.722V9.078l-.14-.252a2,2,0,0,1,.833-1.19,2.631,2.631,0,0,1,1.365-.336h.448V8.924H118.5a1.69,1.69,0,0,0-1.26.483,1.842,1.842,0,0,0-.476,1.351V15Zm11.48.168a4.069,4.069,0,0,1-2.037-.518,3.972,3.972,0,0,1-.007-6.916,4.264,4.264,0,0,1,4.074,0,3.953,3.953,0,0,1,1.449,1.407,3.877,3.877,0,0,1,.539,2.051,3.849,3.849,0,0,1-.546,2.044,4,4,0,0,1-3.472,1.932Zm0-1.68a2,2,0,0,0,1.085-.294,2.07,2.07,0,0,0,.742-.819,2.526,2.526,0,0,0,.273-1.183,2.473,2.473,0,0,0-.273-1.183,2.148,2.148,0,0,0-.742-.812,1.965,1.965,0,0,0-1.085-.3,2.025,2.025,0,0,0-1.106.3,2.129,2.129,0,0,0-.749.812,2.473,2.473,0,0,0-.273,1.183,2.526,2.526,0,0,0,.273,1.183,2,2,0,0,0,1.855,1.113ZM131.824,15V7.384h1.722V9.078l-.14-.252a2,2,0,0,1,.833-1.19A2.631,2.631,0,0,1,135.6,7.3h.448V8.924h-.658a1.69,1.69,0,0,0-1.26.483,1.842,1.842,0,0,0-.476,1.351V15Zm8.946,3.08a4.37,4.37,0,0,1-1.582-.28,3.765,3.765,0,0,1-1.253-.777,2.942,2.942,0,0,1-.763-1.169l1.708-.644a1.587,1.587,0,0,0,.665.861,2.171,2.171,0,0,0,1.225.329,2.21,2.21,0,0,0,.987-.21,1.556,1.556,0,0,0,.665-.609,1.839,1.839,0,0,0,.238-.959V12.886l.35.42a2.606,2.606,0,0,1-1.05,1.036,3.14,3.14,0,0,1-1.5.35,3.708,3.708,0,0,1-1.9-.49,3.5,3.5,0,0,1-1.316-1.344,3.872,3.872,0,0,1-.476-1.918,3.822,3.822,0,0,1,.476-1.918,3.509,3.509,0,0,1,1.3-1.323,3.647,3.647,0,0,1,1.876-.483,3.08,3.08,0,0,1,1.505.357A3,3,0,0,1,143.01,8.6l-.252.462V7.384h1.736v7.238a3.321,3.321,0,0,1-.483,1.778,3.414,3.414,0,0,1-1.316,1.232A4,4,0,0,1,140.77,18.08ZM140.686,13a1.994,1.994,0,0,0,1.029-.259,1.84,1.84,0,0,0,.693-.721,2.186,2.186,0,0,0,.252-1.064A2.149,2.149,0,0,0,142.4,9.9a1.889,1.889,0,0,0-1.715-1,2.039,2.039,0,0,0-1.036.266,1.882,1.882,0,0,0-.721.735,2.149,2.149,0,0,0-.259,1.057,2.11,2.11,0,0,0,.259,1.05,1.91,1.91,0,0,0,.714.728A2.028,2.028,0,0,0,140.686,13Zm7.84,2.17a3.338,3.338,0,0,1-1.386-.266,2.015,2.015,0,0,1-1.232-1.918,2.256,2.256,0,0,1,.28-1.127,2.233,2.233,0,0,1,.868-.833,4.337,4.337,0,0,1,1.484-.476l2.492-.406v1.4l-2.142.364a1.563,1.563,0,0,0-.812.35.865.865,0,0,0-.266.658.744.744,0,0,0,.3.623,1.194,1.194,0,0,0,.749.231,2.055,2.055,0,0,0,1.015-.245,1.745,1.745,0,0,0,.686-.679,1.9,1.9,0,0,0,.245-.952V9.932a1.034,1.034,0,0,0-.385-.819,1.509,1.509,0,0,0-1.015-.329,1.788,1.788,0,0,0-1.043.315,1.825,1.825,0,0,0-.665.833L146.2,9.2a2.643,2.643,0,0,1,.707-1.043,3.561,3.561,0,0,1,1.141-.693,3.96,3.96,0,0,1,1.428-.252,3.773,3.773,0,0,1,1.652.343,2.685,2.685,0,0,1,1.113.952,2.534,2.534,0,0,1,.4,1.421V15h-1.736V13.7l.392-.028a3.081,3.081,0,0,1-.7.819,2.956,2.956,0,0,1-.924.5A3.57,3.57,0,0,1,148.526,15.168ZM154.35,15V7.384h1.722v1.5l-.14-.266a2.013,2.013,0,0,1,.875-1.043,2.758,2.758,0,0,1,1.421-.357,3,3,0,0,1,1.491.364,2.589,2.589,0,0,1,1.015,1.015A3.032,3.032,0,0,1,161.1,10.1V15h-1.834V10.534a1.806,1.806,0,0,0-.2-.868,1.434,1.434,0,0,0-.539-.567,1.684,1.684,0,0,0-1.6,0,1.419,1.419,0,0,0-.546.567,1.806,1.806,0,0,0-.2.868V15Zm8.316,0V7.384H164.5V15Zm0-8.47V4.57H164.5V6.53Zm6.44,8.638a3.834,3.834,0,0,1-2.121-.581,2.952,2.952,0,0,1-1.239-1.575l1.372-.658a2.413,2.413,0,0,0,.819,1.008,2.005,2.005,0,0,0,1.169.364,1.286,1.286,0,0,0,.8-.224.7.7,0,0,0,.294-.588.571.571,0,0,0-.119-.371.994.994,0,0,0-.322-.252,2.481,2.481,0,0,0-.441-.175l-1.246-.35a2.971,2.971,0,0,1-1.463-.854,2.007,2.007,0,0,1-.5-1.358,2.126,2.126,0,0,1,.357-1.225,2.37,2.37,0,0,1,.994-.819,3.456,3.456,0,0,1,1.463-.294,3.508,3.508,0,0,1,1.9.518A2.841,2.841,0,0,1,172,9.19l-1.4.658a1.688,1.688,0,0,0-.658-.826,1.826,1.826,0,0,0-1.036-.308,1.145,1.145,0,0,0-.728.21.663.663,0,0,0-.266.546.6.6,0,0,0,.112.364.82.82,0,0,0,.315.252,3.525,3.525,0,0,0,.469.182l1.218.364a3.116,3.116,0,0,1,1.449.84,1.961,1.961,0,0,1,.511,1.372,2.073,2.073,0,0,1-.364,1.211,2.413,2.413,0,0,1-1.008.819A3.612,3.612,0,0,1,169.106,15.168Zm6.622,0a3.338,3.338,0,0,1-1.386-.266,2.015,2.015,0,0,1-1.232-1.918,2.256,2.256,0,0,1,.28-1.127,2.233,2.233,0,0,1,.868-.833,4.337,4.337,0,0,1,1.484-.476l2.492-.406v1.4l-2.142.364a1.563,1.563,0,0,0-.812.35.865.865,0,0,0-.266.658.744.744,0,0,0,.3.623,1.194,1.194,0,0,0,.749.231,2.055,2.055,0,0,0,1.015-.245,1.745,1.745,0,0,0,.686-.679,1.9,1.9,0,0,0,.245-.952V9.932a1.034,1.034,0,0,0-.385-.819,1.509,1.509,0,0,0-1.015-.329,1.788,1.788,0,0,0-1.043.315,1.825,1.825,0,0,0-.665.833L173.4,9.2a2.643,2.643,0,0,1,.707-1.043,3.561,3.561,0,0,1,1.141-.693,3.96,3.96,0,0,1,1.428-.252,3.773,3.773,0,0,1,1.652.343,2.685,2.685,0,0,1,1.113.952,2.534,2.534,0,0,1,.4,1.421V15h-1.736V13.7l.392-.028a3.081,3.081,0,0,1-.7.819,2.956,2.956,0,0,1-.924.5A3.57,3.57,0,0,1,175.728,15.168Zm9.156-.084a2.7,2.7,0,0,1-2-.707,2.7,2.7,0,0,1-.707-1.995V9.022h-1.316V7.384h.14a1.207,1.207,0,0,0,.868-.294,1.126,1.126,0,0,0,.308-.854V5.648h1.834V7.384h1.75V9.022h-1.75v3.262a1.428,1.428,0,0,0,.133.644.888.888,0,0,0,.42.406,1.678,1.678,0,0,0,.735.14,2.247,2.247,0,0,0,.231-.014l.259-.028V15q-.2.028-.448.056A4.21,4.21,0,0,1,184.884,15.084ZM187.208,15V7.384h1.834V15Zm0-8.47V4.57h1.834V6.53Zm7.266,8.638a4.069,4.069,0,0,1-2.037-.518,3.972,3.972,0,0,1-.007-6.916,4.264,4.264,0,0,1,4.074,0,3.953,3.953,0,0,1,1.449,1.407,3.877,3.877,0,0,1,.539,2.051,3.849,3.849,0,0,1-.546,2.044,4,4,0,0,1-3.472,1.932Zm0-1.68a2,2,0,0,0,1.085-.294,2.07,2.07,0,0,0,.742-.819,2.526,2.526,0,0,0,.273-1.183,2.473,2.473,0,0,0-.273-1.183,2.148,2.148,0,0,0-.742-.812,1.965,1.965,0,0,0-1.085-.3,2.025,2.025,0,0,0-1.106.3,2.129,2.129,0,0,0-.749.812,2.473,2.473,0,0,0-.273,1.183,2.526,2.526,0,0,0,.273,1.183,2,2,0,0,0,1.855,1.113ZM199.892,15V7.384h1.722v1.5l-.14-.266a2.013,2.013,0,0,1,.875-1.043,2.758,2.758,0,0,1,1.421-.357,3,3,0,0,1,1.491.364,2.589,2.589,0,0,1,1.015,1.015,3.032,3.032,0,0,1,.364,1.505V15h-1.834V10.534a1.806,1.806,0,0,0-.2-.868,1.434,1.434,0,0,0-.539-.567,1.684,1.684,0,0,0-1.6,0,1.419,1.419,0,0,0-.546.567,1.806,1.806,0,0,0-.2.868V15ZM4.4,33.168a3.739,3.739,0,0,1-1.974-.525A3.79,3.79,0,0,1,1.05,31.208a4.091,4.091,0,0,1-.5-2.016,4.04,4.04,0,0,1,.5-2.016,3.856,3.856,0,0,1,1.379-1.428,3.685,3.685,0,0,1,1.953-.532,3.384,3.384,0,0,1,1.547.343A2.666,2.666,0,0,1,7,26.518l-.28.378V22.4H8.554V33H6.818V31.53l.2.364a2.543,2.543,0,0,1-1.092.945A3.542,3.542,0,0,1,4.4,33.168Zm.2-1.68a2.014,2.014,0,0,0,1.855-1.106,2.715,2.715,0,0,0,0-2.373A2,2,0,0,0,4.592,26.9a2.07,2.07,0,0,0-1.106.3,2.094,2.094,0,0,0-.763.812,2.473,2.473,0,0,0-.273,1.183,2.514,2.514,0,0,0,.273,1.19,2.031,2.031,0,0,0,.763.812A2.108,2.108,0,0,0,4.592,31.488Zm9.3,1.68a3.907,3.907,0,0,1-2.058-.532,3.706,3.706,0,0,1-1.372-1.442,4.184,4.184,0,0,1-.49-2.016,4.1,4.1,0,0,1,.5-2.037,3.745,3.745,0,0,1,1.358-1.407,3.662,3.662,0,0,1,1.925-.518,3.935,3.935,0,0,1,1.575.294,3.359,3.359,0,0,1,1.155.812,3.636,3.636,0,0,1,.728,1.183,4.016,4.016,0,0,1,.252,1.435q0,.2-.021.406a1.51,1.51,0,0,1-.077.364H11.48v-1.4h4.844l-.868.658a2.086,2.086,0,0,0-.063-1.148,1.644,1.644,0,0,0-.616-.8,1.77,1.77,0,0,0-1.029-.294,1.853,1.853,0,0,0-1.022.287,1.776,1.776,0,0,0-.679.84,2.915,2.915,0,0,0-.175,1.337,2.476,2.476,0,0,0,.189,1.239,1.84,1.84,0,0,0,.728.833,2.1,2.1,0,0,0,1.113.294,2.037,2.037,0,0,0,1.071-.266,1.919,1.919,0,0,0,.693-.714l1.484.728a2.594,2.594,0,0,1-.7.966,3.5,3.5,0,0,1-1.127.658A4.152,4.152,0,0,1,13.888,33.168Zm8.442-.084a2.459,2.459,0,0,1-2.7-2.7v-3.36H18.312V25.384h.14a1.207,1.207,0,0,0,.868-.294,1.126,1.126,0,0,0,.308-.854v-.588h1.834v1.736h1.75v1.638h-1.75v3.262a1.428,1.428,0,0,0,.133.644.888.888,0,0,0,.42.406,1.678,1.678,0,0,0,.735.14,2.247,2.247,0,0,0,.231-.014l.259-.028V33q-.2.028-.448.056A4.21,4.21,0,0,1,22.33,33.084Zm4.606.084A3.338,3.338,0,0,1,25.55,32.9a2.015,2.015,0,0,1-1.232-1.918,2.13,2.13,0,0,1,1.148-1.96,4.337,4.337,0,0,1,1.484-.476l2.492-.406v1.4l-2.142.364a1.563,1.563,0,0,0-.812.35.865.865,0,0,0-.266.658.744.744,0,0,0,.3.623,1.194,1.194,0,0,0,.749.231,2.055,2.055,0,0,0,1.015-.245,1.745,1.745,0,0,0,.686-.679,1.9,1.9,0,0,0,.245-.952v-1.96a1.034,1.034,0,0,0-.385-.819,1.509,1.509,0,0,0-1.015-.329,1.788,1.788,0,0,0-1.043.315,1.825,1.825,0,0,0-.665.833l-1.5-.728a2.643,2.643,0,0,1,.707-1.043,3.561,3.561,0,0,1,1.141-.693,3.96,3.96,0,0,1,1.428-.252,3.773,3.773,0,0,1,1.652.343,2.685,2.685,0,0,1,1.113.952,2.534,2.534,0,0,1,.4,1.421V33H29.316V31.7l.392-.028a3.081,3.081,0,0,1-.7.819,2.957,2.957,0,0,1-.924.5A3.57,3.57,0,0,1,26.936,33.168ZM32.76,33V25.384h1.834V33Zm0-8.47V22.57h1.834v1.96ZM36.3,33V22.4h1.834V33Zm6.44.168a3.834,3.834,0,0,1-2.121-.581,2.952,2.952,0,0,1-1.239-1.575l1.372-.658a2.413,2.413,0,0,0,.819,1.008,2.005,2.005,0,0,0,1.169.364,1.286,1.286,0,0,0,.8-.224.7.7,0,0,0,.294-.588.571.571,0,0,0-.119-.371.994.994,0,0,0-.322-.252,2.482,2.482,0,0,0-.441-.175l-1.246-.35a2.971,2.971,0,0,1-1.463-.854,2.007,2.007,0,0,1-.5-1.358,2.126,2.126,0,0,1,.357-1.225,2.371,2.371,0,0,1,.994-.819,3.455,3.455,0,0,1,1.463-.294,3.508,3.508,0,0,1,1.9.518A2.841,2.841,0,0,1,45.64,27.19l-1.4.658a1.688,1.688,0,0,0-.658-.826,1.826,1.826,0,0,0-1.036-.308,1.145,1.145,0,0,0-.728.21.663.663,0,0,0-.266.546.6.6,0,0,0,.112.364.82.82,0,0,0,.315.252,3.525,3.525,0,0,0,.469.182l1.218.364a3.116,3.116,0,0,1,1.449.84,1.961,1.961,0,0,1,.511,1.372,2.073,2.073,0,0,1-.364,1.211,2.413,2.413,0,0,1-1.008.819A3.612,3.612,0,0,1,42.742,33.168ZM51.478,33,48.86,25.384h1.932l1.918,5.782-.672-.014,2.044-5.768h1.624l2.03,5.768-.672.014,1.918-5.782h1.932L58.3,33H56.658l-2.072-6.034H55.2L53.1,33Zm10.458,0V22.4H63.77v4.48l-.252-.266a2.013,2.013,0,0,1,.875-1.043,2.758,2.758,0,0,1,1.421-.357,3,3,0,0,1,1.491.364,2.589,2.589,0,0,1,1.015,1.015,3.032,3.032,0,0,1,.364,1.505V33H66.85V28.534a1.806,1.806,0,0,0-.2-.868,1.434,1.434,0,0,0-.539-.567,1.684,1.684,0,0,0-1.6,0,1.42,1.42,0,0,0-.546.567,1.806,1.806,0,0,0-.2.868V33Zm11.928.168a3.907,3.907,0,0,1-2.058-.532,3.706,3.706,0,0,1-1.372-1.442,4.184,4.184,0,0,1-.49-2.016,4.1,4.1,0,0,1,.5-2.037A3.745,3.745,0,0,1,71.8,25.734a3.662,3.662,0,0,1,1.925-.518,3.935,3.935,0,0,1,1.575.294,3.359,3.359,0,0,1,1.155.812,3.636,3.636,0,0,1,.728,1.183,4.016,4.016,0,0,1,.252,1.435q0,.2-.021.406a1.51,1.51,0,0,1-.077.364h-5.88v-1.4H76.3l-.868.658a2.086,2.086,0,0,0-.063-1.148,1.644,1.644,0,0,0-.616-.8,1.77,1.77,0,0,0-1.029-.294,1.853,1.853,0,0,0-1.022.287,1.776,1.776,0,0,0-.679.84,2.915,2.915,0,0,0-.175,1.337,2.476,2.476,0,0,0,.189,1.239,1.84,1.84,0,0,0,.728.833,2.1,2.1,0,0,0,1.113.294,2.037,2.037,0,0,0,1.071-.266,1.919,1.919,0,0,0,.693-.714l1.484.728a2.594,2.594,0,0,1-.7.966,3.5,3.5,0,0,1-1.127.658A4.152,4.152,0,0,1,73.864,33.168ZM78.834,33V25.384h1.722v1.5l-.14-.266a2.013,2.013,0,0,1,.875-1.043,2.758,2.758,0,0,1,1.421-.357,3,3,0,0,1,1.491.364,2.589,2.589,0,0,1,1.015,1.015,3.032,3.032,0,0,1,.364,1.505V33H83.748V28.534a1.806,1.806,0,0,0-.2-.868,1.434,1.434,0,0,0-.539-.567,1.684,1.684,0,0,0-1.6,0,1.42,1.42,0,0,0-.546.567,1.806,1.806,0,0,0-.2.868V33Zm10.822,0V22.4H91.49V33Zm7.266.168a4.069,4.069,0,0,1-2.037-.518,3.972,3.972,0,0,1-.007-6.916,4.264,4.264,0,0,1,4.074,0,3.953,3.953,0,0,1,1.449,1.407,4.135,4.135,0,0,1-.007,4.1,4,4,0,0,1-3.472,1.932Zm0-1.68a2,2,0,0,0,1.085-.294,2.07,2.07,0,0,0,.742-.819,2.526,2.526,0,0,0,.273-1.183,2.473,2.473,0,0,0-.273-1.183,2.148,2.148,0,0,0-.742-.812,1.965,1.965,0,0,0-1.085-.3,2.025,2.025,0,0,0-1.106.3,2.129,2.129,0,0,0-.749.812,2.473,2.473,0,0,0-.273,1.183,2.526,2.526,0,0,0,.273,1.183,2,2,0,0,0,1.855,1.113Zm9.142,1.68a4.069,4.069,0,0,1-2.037-.518,3.972,3.972,0,0,1-.007-6.916,4.264,4.264,0,0,1,4.074,0,3.953,3.953,0,0,1,1.449,1.407,4.135,4.135,0,0,1-.007,4.1,4,4,0,0,1-3.472,1.932Zm0-1.68a2,2,0,0,0,1.085-.294,2.07,2.07,0,0,0,.742-.819,2.526,2.526,0,0,0,.273-1.183,2.473,2.473,0,0,0-.273-1.183,2.148,2.148,0,0,0-.742-.812,1.965,1.965,0,0,0-1.085-.3,2.025,2.025,0,0,0-1.106.3,2.129,2.129,0,0,0-.749.812,2.473,2.473,0,0,0-.273,1.183,2.526,2.526,0,0,0,.273,1.183,2,2,0,0,0,1.855,1.113ZM111.482,33V22.4h1.834v6.944l-.7-.21,3.584-3.752h2.282l-2.814,3.066,2.87,4.55h-2.1l-2.492-3.948,1.092-.224-2.3,2.464.574-1.12V33Zm8.092,0V25.384h1.834V33Zm0-8.47V22.57h1.834v1.96ZM123.116,33V25.384h1.722v1.5l-.14-.266a2.013,2.013,0,0,1,.875-1.043,2.758,2.758,0,0,1,1.421-.357,3,3,0,0,1,1.491.364,2.589,2.589,0,0,1,1.015,1.015,3.032,3.032,0,0,1,.364,1.505V33H128.03V28.534a1.806,1.806,0,0,0-.2-.868,1.434,1.434,0,0,0-.539-.567,1.684,1.684,0,0,0-1.6,0,1.42,1.42,0,0,0-.546.567,1.806,1.806,0,0,0-.2.868V33Zm12.012,3.08a4.37,4.37,0,0,1-1.582-.28,3.765,3.765,0,0,1-1.253-.777,2.942,2.942,0,0,1-.763-1.169l1.708-.644a1.587,1.587,0,0,0,.665.861,2.171,2.171,0,0,0,1.225.329,2.21,2.21,0,0,0,.987-.21,1.556,1.556,0,0,0,.665-.609,1.839,1.839,0,0,0,.238-.959V30.886l.35.42a2.606,2.606,0,0,1-1.05,1.036,3.14,3.14,0,0,1-1.5.35,3.708,3.708,0,0,1-1.9-.49,3.5,3.5,0,0,1-1.316-1.344,3.872,3.872,0,0,1-.476-1.918,3.822,3.822,0,0,1,.476-1.918,3.509,3.509,0,0,1,1.3-1.323,3.647,3.647,0,0,1,1.876-.483,3.08,3.08,0,0,1,1.505.357,3,3,0,0,1,1.085,1.029l-.252.462v-1.68h1.736v7.238a3.321,3.321,0,0,1-.483,1.778,3.414,3.414,0,0,1-1.316,1.232A4,4,0,0,1,135.128,36.08ZM135.044,31a1.994,1.994,0,0,0,1.029-.259,1.84,1.84,0,0,0,.693-.721,2.186,2.186,0,0,0,.252-1.064,2.15,2.15,0,0,0-.259-1.057,1.889,1.889,0,0,0-1.715-1,2.039,2.039,0,0,0-1.036.266,1.882,1.882,0,0,0-.721.735,2.15,2.15,0,0,0-.259,1.057,2.11,2.11,0,0,0,.259,1.05,1.91,1.91,0,0,0,.714.728A2.028,2.028,0,0,0,135.044,31Zm8.918,2V27.022h-1.344V25.384h1.344v-.252a2.873,2.873,0,0,1,.357-1.477,2.354,2.354,0,0,1,1-.931,3.376,3.376,0,0,1,1.526-.322,3.63,3.63,0,0,1,.371.021q.2.021.343.049v1.582a1.9,1.9,0,0,0-.259-.035q-.119-.007-.217-.007a1.473,1.473,0,0,0-.952.273,1.027,1.027,0,0,0-.336.847v.252h1.694v1.638H145.8V33Zm8.33.168a4.069,4.069,0,0,1-2.037-.518,3.972,3.972,0,0,1-.007-6.916,4.264,4.264,0,0,1,4.074,0,3.953,3.953,0,0,1,1.449,1.407,4.135,4.135,0,0,1-.007,4.1,4,4,0,0,1-3.472,1.932Zm0-1.68a2,2,0,0,0,1.085-.294,2.07,2.07,0,0,0,.742-.819,2.526,2.526,0,0,0,.273-1.183,2.473,2.473,0,0,0-.273-1.183,2.148,2.148,0,0,0-.742-.812,1.965,1.965,0,0,0-1.085-.3,2.025,2.025,0,0,0-1.106.3,2.129,2.129,0,0,0-.749.812,2.473,2.473,0,0,0-.273,1.183,2.526,2.526,0,0,0,.273,1.183,2,2,0,0,0,1.855,1.113ZM157.71,33V25.384h1.722v1.694l-.14-.252a2,2,0,0,1,.833-1.19,2.631,2.631,0,0,1,1.365-.336h.448v1.624h-.658a1.69,1.69,0,0,0-1.26.483,1.842,1.842,0,0,0-.476,1.351V33Zm11.228.084a2.459,2.459,0,0,1-2.7-2.7v-3.36H164.92V25.384h.14a1.207,1.207,0,0,0,.868-.294,1.126,1.126,0,0,0,.308-.854v-.588h1.834v1.736h1.75v1.638h-1.75v3.262a1.428,1.428,0,0,0,.133.644.888.888,0,0,0,.42.406,1.678,1.678,0,0,0,.735.14,2.247,2.247,0,0,0,.231-.014l.259-.028V33q-.2.028-.448.056A4.21,4.21,0,0,1,168.938,33.084ZM171.262,33V22.4H173.1v4.48l-.252-.266a2.013,2.013,0,0,1,.875-1.043,2.758,2.758,0,0,1,1.421-.357,3,3,0,0,1,1.491.364,2.589,2.589,0,0,1,1.015,1.015,3.032,3.032,0,0,1,.364,1.505V33h-1.834V28.534a1.806,1.806,0,0,0-.2-.868,1.434,1.434,0,0,0-.539-.567,1.684,1.684,0,0,0-1.6,0,1.42,1.42,0,0,0-.546.567,1.806,1.806,0,0,0-.2.868V33Zm11.928.168a3.907,3.907,0,0,1-2.058-.532,3.706,3.706,0,0,1-1.372-1.442,4.184,4.184,0,0,1-.49-2.016,4.1,4.1,0,0,1,.5-2.037,3.745,3.745,0,0,1,1.358-1.407,3.662,3.662,0,0,1,1.925-.518,3.935,3.935,0,0,1,1.575.294,3.359,3.359,0,0,1,1.155.812,3.636,3.636,0,0,1,.728,1.183,4.016,4.016,0,0,1,.252,1.435q0,.2-.021.406a1.509,1.509,0,0,1-.077.364h-5.88v-1.4h4.844l-.868.658a2.086,2.086,0,0,0-.063-1.148,1.644,1.644,0,0,0-.616-.8,1.77,1.77,0,0,0-1.029-.294,1.853,1.853,0,0,0-1.022.287,1.777,1.777,0,0,0-.679.84,2.915,2.915,0,0,0-.175,1.337,2.476,2.476,0,0,0,.189,1.239,1.84,1.84,0,0,0,.728.833,2.1,2.1,0,0,0,1.113.294,2.037,2.037,0,0,0,1.071-.266,1.919,1.919,0,0,0,.693-.714l1.484.728a2.594,2.594,0,0,1-.7.966,3.5,3.5,0,0,1-1.127.658A4.152,4.152,0,0,1,183.19,33.168ZM.854,51V43.384H2.688V51Zm0-8.47V40.57H2.688v1.96Zm7.084,8.638a3.739,3.739,0,0,1-1.974-.525,3.79,3.79,0,0,1-1.372-1.435,4.091,4.091,0,0,1-.5-2.016,4.04,4.04,0,0,1,.5-2.016,3.856,3.856,0,0,1,1.379-1.428,3.685,3.685,0,0,1,1.953-.532,3.384,3.384,0,0,1,1.547.343,2.666,2.666,0,0,1,1.071.959l-.28.378V40.4H12.1V51H10.36V49.53l.2.364a2.543,2.543,0,0,1-1.092.945A3.542,3.542,0,0,1,7.938,51.168Zm.2-1.68a2.014,2.014,0,0,0,1.855-1.106,2.715,2.715,0,0,0,0-2.373A2.127,2.127,0,0,0,7.028,45.2a2.094,2.094,0,0,0-.763.812,2.473,2.473,0,0,0-.273,1.183,2.514,2.514,0,0,0,.273,1.19,2.031,2.031,0,0,0,.763.812A2.108,2.108,0,0,0,8.134,49.488Zm9.3,1.68a3.907,3.907,0,0,1-2.058-.532A3.706,3.706,0,0,1,14,49.194a4.184,4.184,0,0,1-.49-2.016,4.1,4.1,0,0,1,.5-2.037,3.745,3.745,0,0,1,1.358-1.407,3.662,3.662,0,0,1,1.925-.518,3.935,3.935,0,0,1,1.575.294,3.359,3.359,0,0,1,1.155.812,3.636,3.636,0,0,1,.728,1.183A4.016,4.016,0,0,1,21,46.94q0,.2-.021.406a1.51,1.51,0,0,1-.077.364h-5.88v-1.4h4.844L19,46.968a2.086,2.086,0,0,0-.063-1.148,1.644,1.644,0,0,0-.616-.8,1.77,1.77,0,0,0-1.029-.294,1.853,1.853,0,0,0-1.022.287,1.776,1.776,0,0,0-.679.84,2.915,2.915,0,0,0-.175,1.337,2.476,2.476,0,0,0,.189,1.239,1.84,1.84,0,0,0,.728.833,2.1,2.1,0,0,0,1.113.294,2.037,2.037,0,0,0,1.071-.266,1.919,1.919,0,0,0,.693-.714l1.484.728a2.594,2.594,0,0,1-.7.966,3.5,3.5,0,0,1-1.127.658A4.152,4.152,0,0,1,17.43,51.168Zm7.252,0A3.338,3.338,0,0,1,23.3,50.9a2.015,2.015,0,0,1-1.232-1.918,2.13,2.13,0,0,1,1.148-1.96,4.338,4.338,0,0,1,1.484-.476l2.492-.406v1.4l-2.142.364a1.563,1.563,0,0,0-.812.35.865.865,0,0,0-.266.658.744.744,0,0,0,.3.623,1.194,1.194,0,0,0,.749.231,2.055,2.055,0,0,0,1.015-.245,1.745,1.745,0,0,0,.686-.679,1.9,1.9,0,0,0,.245-.952v-1.96a1.034,1.034,0,0,0-.385-.819,1.508,1.508,0,0,0-1.015-.329,1.788,1.788,0,0,0-1.043.315,1.825,1.825,0,0,0-.665.833l-1.5-.728a2.643,2.643,0,0,1,.707-1.043,3.561,3.561,0,0,1,1.141-.693,3.96,3.96,0,0,1,1.428-.252,3.773,3.773,0,0,1,1.652.343,2.685,2.685,0,0,1,1.113.952,2.534,2.534,0,0,1,.4,1.421V51H27.062V49.7l.392-.028a3.081,3.081,0,0,1-.7.819,2.957,2.957,0,0,1-.924.5A3.57,3.57,0,0,1,24.682,51.168ZM30.506,51V40.4H32.34V51Zm6.048,0V43.384h1.722v1.764l-.2-.294a1.975,1.975,0,0,1,.84-1.232,2.679,2.679,0,0,1,1.484-.406,2.848,2.848,0,0,1,1.652.49,2.206,2.206,0,0,1,.924,1.288l-.518.042a2.737,2.737,0,0,1,1.05-1.365,3.071,3.071,0,0,1,3.059-.091,2.616,2.616,0,0,1,1,1.015,3.032,3.032,0,0,1,.364,1.5V51H46.1V46.534a1.921,1.921,0,0,0-.182-.868,1.386,1.386,0,0,0-.5-.567,1.441,1.441,0,0,0-.784-.2,1.46,1.46,0,0,0-.77.2,1.354,1.354,0,0,0-.518.567,1.921,1.921,0,0,0-.182.868V51H41.328V46.534a1.921,1.921,0,0,0-.182-.868,1.369,1.369,0,0,0-.511-.567,1.575,1.575,0,0,0-1.547,0,1.354,1.354,0,0,0-.518.567,1.921,1.921,0,0,0-.182.868V51Zm15.26.168a3.338,3.338,0,0,1-1.386-.266A2.015,2.015,0,0,1,49.2,48.984a2.256,2.256,0,0,1,.28-1.127,2.233,2.233,0,0,1,.868-.833,4.338,4.338,0,0,1,1.484-.476l2.492-.406v1.4l-2.142.364a1.563,1.563,0,0,0-.812.35.865.865,0,0,0-.266.658.744.744,0,0,0,.3.623,1.194,1.194,0,0,0,.749.231,2.055,2.055,0,0,0,1.015-.245,1.745,1.745,0,0,0,.686-.679,1.9,1.9,0,0,0,.245-.952v-1.96a1.034,1.034,0,0,0-.385-.819,1.509,1.509,0,0,0-1.015-.329,1.788,1.788,0,0,0-1.043.315,1.825,1.825,0,0,0-.665.833l-1.5-.728a2.643,2.643,0,0,1,.707-1.043,3.561,3.561,0,0,1,1.141-.693,3.96,3.96,0,0,1,1.428-.252,3.773,3.773,0,0,1,1.652.343,2.686,2.686,0,0,1,1.113.952,2.534,2.534,0,0,1,.4,1.421V51H54.194V49.7l.392-.028a3.081,3.081,0,0,1-.7.819,2.956,2.956,0,0,1-.924.5A3.57,3.57,0,0,1,51.814,51.168Zm9.156-.084a2.459,2.459,0,0,1-2.7-2.7v-3.36H56.952V43.384h.14a1.207,1.207,0,0,0,.868-.294,1.126,1.126,0,0,0,.308-.854v-.588H60.1v1.736h1.75v1.638H60.1v3.262a1.428,1.428,0,0,0,.133.644.888.888,0,0,0,.42.406,1.678,1.678,0,0,0,.735.14,2.246,2.246,0,0,0,.231-.014l.259-.028V51q-.2.028-.448.056A4.21,4.21,0,0,1,60.97,51.084Zm5.922.084a3.978,3.978,0,0,1-2.037-.525,3.829,3.829,0,0,1-1.421-1.428,4.25,4.25,0,0,1,0-4.067,3.792,3.792,0,0,1,1.421-1.414,4.02,4.02,0,0,1,2.037-.518A3.947,3.947,0,0,1,68.4,43.5a3.764,3.764,0,0,1,1.211.784,2.866,2.866,0,0,1,.735,1.183l-1.61.7a1.9,1.9,0,0,0-.707-.924,1.932,1.932,0,0,0-1.141-.35,1.974,1.974,0,0,0-1.071.294,2.031,2.031,0,0,0-.735.812,2.795,2.795,0,0,0,0,2.38,2.031,2.031,0,0,0,.735.812,1.974,1.974,0,0,0,1.071.294A1.9,1.9,0,0,0,68.74,48.2l1.61.728a3.066,3.066,0,0,1-.728,1.155,3.573,3.573,0,0,1-1.2.8A3.984,3.984,0,0,1,66.892,51.168ZM71.75,51V40.4h1.834v4.48l-.252-.266a2.013,2.013,0,0,1,.875-1.043,2.758,2.758,0,0,1,1.421-.357,3,3,0,0,1,1.491.364A2.589,2.589,0,0,1,78.134,44.6a3.032,3.032,0,0,1,.364,1.5V51H76.664V46.534a1.806,1.806,0,0,0-.2-.868,1.434,1.434,0,0,0-.539-.567,1.684,1.684,0,0,0-1.6,0,1.42,1.42,0,0,0-.546.567,1.806,1.806,0,0,0-.2.868V51ZM81,47.836l-.126-7.266H82.74l-.126,7.266ZM80.878,51V49.04H82.74V51Z" transform="translate(72 414)" fill="#fff"/>
      <rect id="Rectangle_19008" data-name="Rectangle 19008" width="150" height="26" rx="13" transform="translate(72 490)" fill="#fff"/>
      <path id="Path_91273" data-name="Path 91273" d="M-58.128,0l3.6-10.43h2.464L-48.468,0H-50.54l-.742-2.24h-4.032L-56.07,0Zm3.36-3.92h2.94l-1.736-5.194h.532ZM-44.184.168a3.739,3.739,0,0,1-1.974-.525A3.79,3.79,0,0,1-47.53-1.792a4.091,4.091,0,0,1-.5-2.016,4.04,4.04,0,0,1,.5-2.016,3.856,3.856,0,0,1,1.379-1.428A3.685,3.685,0,0,1-44.2-7.784a3.384,3.384,0,0,1,1.547.343,2.666,2.666,0,0,1,1.071.959l-.28.378V-10.6h1.834V0h-1.736V-1.47l.2.364a2.543,2.543,0,0,1-1.092.945A3.542,3.542,0,0,1-44.184.168Zm.2-1.68a2.061,2.061,0,0,0,1.106-.294,2.064,2.064,0,0,0,.749-.812,2.514,2.514,0,0,0,.273-1.19,2.526,2.526,0,0,0-.273-1.183,2.052,2.052,0,0,0-.749-.819A2.061,2.061,0,0,0-43.988-6.1a2.07,2.07,0,0,0-1.106.3,2.094,2.094,0,0,0-.763.812,2.473,2.473,0,0,0-.273,1.183,2.514,2.514,0,0,0,.273,1.19,2.031,2.031,0,0,0,.763.812A2.108,2.108,0,0,0-43.988-1.512Zm9.226,1.68a3.739,3.739,0,0,1-1.974-.525,3.79,3.79,0,0,1-1.372-1.435,4.091,4.091,0,0,1-.5-2.016,4.04,4.04,0,0,1,.5-2.016,3.856,3.856,0,0,1,1.379-1.428,3.685,3.685,0,0,1,1.953-.532,3.384,3.384,0,0,1,1.547.343,2.666,2.666,0,0,1,1.071.959l-.28.378V-10.6H-30.6V0H-32.34V-1.47l.2.364a2.543,2.543,0,0,1-1.092.945A3.542,3.542,0,0,1-34.762.168Zm.2-1.68a2.061,2.061,0,0,0,1.106-.294,2.064,2.064,0,0,0,.749-.812,2.514,2.514,0,0,0,.273-1.19,2.526,2.526,0,0,0-.273-1.183,2.052,2.052,0,0,0-.749-.819A2.061,2.061,0,0,0-34.566-6.1a2.07,2.07,0,0,0-1.106.3,2.094,2.094,0,0,0-.763.812,2.473,2.473,0,0,0-.273,1.183,2.514,2.514,0,0,0,.273,1.19,2.031,2.031,0,0,0,.763.812A2.108,2.108,0,0,0-34.566-1.512ZM-22.652.168A4.069,4.069,0,0,1-24.689-.35a3.92,3.92,0,0,1-1.456-1.414,3.887,3.887,0,0,1-.539-2.044,3.887,3.887,0,0,1,.539-2.044A3.936,3.936,0,0,1-24.7-7.266a4.058,4.058,0,0,1,2.044-.518,4.031,4.031,0,0,1,2.03.518,3.953,3.953,0,0,1,1.449,1.407,3.877,3.877,0,0,1,.539,2.051,3.849,3.849,0,0,1-.546,2.044A3.991,3.991,0,0,1-20.636-.35,4,4,0,0,1-22.652.168Zm0-1.68a2,2,0,0,0,1.085-.294,2.07,2.07,0,0,0,.742-.819,2.526,2.526,0,0,0,.273-1.183,2.473,2.473,0,0,0-.273-1.183,2.148,2.148,0,0,0-.742-.812,1.965,1.965,0,0,0-1.085-.3,2.025,2.025,0,0,0-1.106.3,2.129,2.129,0,0,0-.749.812,2.473,2.473,0,0,0-.273,1.183,2.526,2.526,0,0,0,.273,1.183,2.052,2.052,0,0,0,.749.819A2.061,2.061,0,0,0-22.652-1.512ZM-17.234,0V-7.616h1.722v1.694l-.14-.252a2,2,0,0,1,.833-1.19A2.631,2.631,0,0,1-13.454-7.7h.448v1.624h-.658a1.69,1.69,0,0,0-1.26.483A1.842,1.842,0,0,0-15.4-4.242V0Zm8.946,3.08A4.37,4.37,0,0,1-9.87,2.8a3.765,3.765,0,0,1-1.253-.777A2.942,2.942,0,0,1-11.886.854L-10.178.21a1.587,1.587,0,0,0,.665.861A2.171,2.171,0,0,0-8.288,1.4,2.21,2.21,0,0,0-7.3,1.19,1.556,1.556,0,0,0-6.636.581,1.839,1.839,0,0,0-6.4-.378V-2.114l.35.42A2.606,2.606,0,0,1-7.1-.658a3.14,3.14,0,0,1-1.5.35A3.708,3.708,0,0,1-10.5-.8a3.5,3.5,0,0,1-1.316-1.344,3.872,3.872,0,0,1-.476-1.918,3.822,3.822,0,0,1,.476-1.918,3.509,3.509,0,0,1,1.3-1.323,3.647,3.647,0,0,1,1.876-.483,3.08,3.08,0,0,1,1.5.357A3,3,0,0,1-6.048-6.4l-.252.462v-1.68h1.736V-.378A3.321,3.321,0,0,1-5.047,1.4,3.414,3.414,0,0,1-6.363,2.632,4,4,0,0,1-8.288,3.08ZM-8.372-2a1.994,1.994,0,0,0,1.029-.259,1.84,1.84,0,0,0,.693-.721A2.186,2.186,0,0,0-6.4-4.046,2.15,2.15,0,0,0-6.657-5.1a1.929,1.929,0,0,0-.7-.735A1.926,1.926,0,0,0-8.372-6.1a2.039,2.039,0,0,0-1.036.266,1.882,1.882,0,0,0-.721.735,2.15,2.15,0,0,0-.259,1.057A2.11,2.11,0,0,0-10.129-3a1.91,1.91,0,0,0,.714.728A2.028,2.028,0,0,0-8.372-2ZM-.532.168A3.338,3.338,0,0,1-1.918-.1a2.069,2.069,0,0,1-.91-.763A2.077,2.077,0,0,1-3.15-2.016a2.256,2.256,0,0,1,.28-1.127A2.233,2.233,0,0,1-2-3.976,4.338,4.338,0,0,1-.518-4.452l2.492-.406v1.4l-2.142.364a1.563,1.563,0,0,0-.812.35.865.865,0,0,0-.266.658.744.744,0,0,0,.3.623A1.194,1.194,0,0,0-.2-1.232,2.055,2.055,0,0,0,.819-1.477,1.745,1.745,0,0,0,1.5-2.156a1.9,1.9,0,0,0,.245-.952v-1.96a1.034,1.034,0,0,0-.385-.819A1.509,1.509,0,0,0,.35-6.216,1.788,1.788,0,0,0-.693-5.9a1.825,1.825,0,0,0-.665.833l-1.5-.728a2.643,2.643,0,0,1,.707-1.043,3.561,3.561,0,0,1,1.141-.693A3.96,3.96,0,0,1,.42-7.784a3.773,3.773,0,0,1,1.652.343,2.685,2.685,0,0,1,1.113.952,2.534,2.534,0,0,1,.4,1.421V0H1.848V-1.3L2.24-1.33a3.081,3.081,0,0,1-.7.819,2.957,2.957,0,0,1-.924.5A3.57,3.57,0,0,1-.532.168ZM5.292,0V-7.616H7.014v1.5l-.14-.266a2.013,2.013,0,0,1,.875-1.043A2.758,2.758,0,0,1,9.17-7.784a3,3,0,0,1,1.491.364,2.589,2.589,0,0,1,1.015,1.015A3.032,3.032,0,0,1,12.04-4.9V0H10.206V-4.466a1.806,1.806,0,0,0-.2-.868A1.434,1.434,0,0,0,9.471-5.9a1.551,1.551,0,0,0-.805-.2,1.561,1.561,0,0,0-.8.2,1.419,1.419,0,0,0-.546.567,1.806,1.806,0,0,0-.2.868V0Zm8.316,0V-7.616h1.834V0Zm0-8.47v-1.96h1.834v1.96ZM20.048.168a3.834,3.834,0,0,1-2.121-.581,2.952,2.952,0,0,1-1.239-1.575l1.372-.658a2.413,2.413,0,0,0,.819,1.008,2.005,2.005,0,0,0,1.169.364,1.286,1.286,0,0,0,.8-.224.7.7,0,0,0,.294-.588.571.571,0,0,0-.119-.371.994.994,0,0,0-.322-.252,2.481,2.481,0,0,0-.441-.175l-1.246-.35a2.971,2.971,0,0,1-1.463-.854,2.007,2.007,0,0,1-.5-1.358,2.126,2.126,0,0,1,.357-1.225A2.371,2.371,0,0,1,18.4-7.49a3.455,3.455,0,0,1,1.463-.294,3.508,3.508,0,0,1,1.9.518A2.841,2.841,0,0,1,22.946-5.81l-1.4.658a1.688,1.688,0,0,0-.658-.826,1.826,1.826,0,0,0-1.036-.308,1.145,1.145,0,0,0-.728.21.663.663,0,0,0-.266.546.6.6,0,0,0,.112.364.82.82,0,0,0,.315.252,3.525,3.525,0,0,0,.469.182l1.218.364a3.116,3.116,0,0,1,1.449.84,1.961,1.961,0,0,1,.511,1.372,2.073,2.073,0,0,1-.364,1.211,2.413,2.413,0,0,1-1.008.819A3.612,3.612,0,0,1,20.048.168Zm6.622,0A3.338,3.338,0,0,1,25.284-.1a2.069,2.069,0,0,1-.91-.763,2.077,2.077,0,0,1-.322-1.155,2.256,2.256,0,0,1,.28-1.127,2.233,2.233,0,0,1,.868-.833,4.338,4.338,0,0,1,1.484-.476l2.492-.406v1.4l-2.142.364a1.563,1.563,0,0,0-.812.35.865.865,0,0,0-.266.658.744.744,0,0,0,.3.623,1.194,1.194,0,0,0,.749.231,2.055,2.055,0,0,0,1.015-.245,1.745,1.745,0,0,0,.686-.679,1.9,1.9,0,0,0,.245-.952v-1.96a1.034,1.034,0,0,0-.385-.819,1.509,1.509,0,0,0-1.015-.329,1.788,1.788,0,0,0-1.043.315,1.825,1.825,0,0,0-.665.833l-1.5-.728a2.643,2.643,0,0,1,.707-1.043,3.561,3.561,0,0,1,1.141-.693,3.96,3.96,0,0,1,1.428-.252,3.773,3.773,0,0,1,1.652.343,2.685,2.685,0,0,1,1.113.952,2.534,2.534,0,0,1,.4,1.421V0H29.05V-1.3l.392-.028a3.081,3.081,0,0,1-.7.819,2.957,2.957,0,0,1-.924.5A3.57,3.57,0,0,1,26.67.168ZM35.826.084a2.7,2.7,0,0,1-1.995-.707,2.7,2.7,0,0,1-.707-2v-3.36H31.808V-7.616h.14a1.207,1.207,0,0,0,.868-.294,1.126,1.126,0,0,0,.308-.854v-.588h1.834v1.736h1.75v1.638h-1.75v3.262a1.428,1.428,0,0,0,.133.644.888.888,0,0,0,.42.406,1.678,1.678,0,0,0,.735.14,2.247,2.247,0,0,0,.231-.014l.259-.028V0q-.2.028-.448.056A4.21,4.21,0,0,1,35.826.084ZM38.15,0V-7.616h1.834V0Zm0-8.47v-1.96h1.834v1.96ZM45.416.168A4.069,4.069,0,0,1,43.379-.35a3.92,3.92,0,0,1-1.456-1.414,3.887,3.887,0,0,1-.539-2.044,3.887,3.887,0,0,1,.539-2.044,3.936,3.936,0,0,1,1.449-1.414,4.058,4.058,0,0,1,2.044-.518,4.031,4.031,0,0,1,2.03.518A3.953,3.953,0,0,1,48.9-5.859a3.877,3.877,0,0,1,.539,2.051,3.849,3.849,0,0,1-.546,2.044A3.991,3.991,0,0,1,47.432-.35,4,4,0,0,1,45.416.168Zm0-1.68A2,2,0,0,0,46.5-1.806a2.07,2.07,0,0,0,.742-.819,2.526,2.526,0,0,0,.273-1.183,2.473,2.473,0,0,0-.273-1.183A2.148,2.148,0,0,0,46.5-5.8a1.965,1.965,0,0,0-1.085-.3,2.025,2.025,0,0,0-1.106.3,2.129,2.129,0,0,0-.749.812,2.473,2.473,0,0,0-.273,1.183,2.526,2.526,0,0,0,.273,1.183,2.052,2.052,0,0,0,.749.819A2.061,2.061,0,0,0,45.416-1.512ZM50.834,0V-7.616h1.722v1.5l-.14-.266a2.013,2.013,0,0,1,.875-1.043,2.758,2.758,0,0,1,1.421-.357A3,3,0,0,1,56.2-7.42a2.589,2.589,0,0,1,1.015,1.015A3.032,3.032,0,0,1,57.582-4.9V0H55.748V-4.466a1.806,1.806,0,0,0-.2-.868,1.434,1.434,0,0,0-.539-.567,1.551,1.551,0,0,0-.805-.2,1.561,1.561,0,0,0-.8.2,1.419,1.419,0,0,0-.546.567,1.806,1.806,0,0,0-.2.868V0Z" transform="translate(147 508)" fill="#4b9d97"/>
      <g id="Group_66851" data-name="Group 66851" transform="translate(0 4)">
        <path id="Subtraction_47" data-name="Subtraction 47" d="M2565,1218.89h-8a6.007,6.007,0,0,1-6-6V1205a6.007,6.007,0,0,1,6-6h8a6.007,6.007,0,0,1,6,6v7.889A6.007,6.007,0,0,1,2565,1218.89ZM2557,1203a2,2,0,0,0-2,2v10.89a2,2,0,0,0,2,2h8a2,2,0,0,0,2-2V1205a2,2,0,0,0-2-2Z" transform="translate(-2282.647 -728.835)" fill="#61ccc4"/>
        <rect id="Rectangle_19012" data-name="Rectangle 19012" width="47.295" height="33.89" rx="6" transform="translate(255.023 478.11)" fill="#61ccc4"/>
        <path id="Subtraction_48" data-name="Subtraction 48" d="M2592.294,1248.335H2561a8.009,8.009,0,0,1-8-8v-3.265a8.013,8.013,0,0,0,8,7.82h31.295a8.011,8.011,0,0,0,8-7.992v3.437A8.009,8.009,0,0,1,2592.294,1248.335Z" transform="translate(-2297.977 -749.129)" fill="#4b9d97" opacity="0.512"/>
        <rect id="Rectangle_19015" data-name="Rectangle 19015" width="7" height="11" rx="3" transform="translate(275.671 490.165)" fill="#89ebe4"/>
      </g>
    </g>
  </g>
</svg>
