<svg xmlns="http://www.w3.org/2000/svg" xmlns:xlink="http://www.w3.org/1999/xlink" width="273" height="148" viewBox="0 0 273 148">
  <defs>
    <clipPath id="clip-path">
      <rect id="Rectangle_19018" data-name="Rectangle 19018" width="273" height="148" rx="9" transform="translate(51 222)" fill="#e06dad"/>
    </clipPath>
  </defs>
  <g id="Group_66868" data-name="Group 66868" transform="translate(-51 -222)">
    <g id="Group_66859" data-name="Group 66859">
      <rect id="Rectangle_18996" data-name="Rectangle 18996" width="273" height="148" rx="9" transform="translate(51 222)" fill="#d94e9c"/>
      <g id="Mask_Group_25422" data-name="Mask Group 25422" clip-path="url(#clip-path)">
        <g id="Group_66854" data-name="Group 66854" transform="translate(3670.347 3503.508) rotate(47)">
          <path id="Path_37839" data-name="Path 37839" d="M-4374.1,203.591s-60.5,42.336-90.916,93.236,14.042,66.519,24,116.877" transform="translate(-105.639 -3.133)" fill="none" stroke="#e864ae" stroke-width="1"/>
          <path id="Path_37840" data-name="Path 37840" d="M-4406.184,257.659s-112.075-18.761-121.327,37.308,30.849,91.233-15.694,123.571-66.16,30.55-45.8,64.54,10.417,49.327,10.417,49.327" transform="translate(-76.851 -15.228)" fill="none" stroke="#e864ae" stroke-width="1"/>
          <path id="Path_37841" data-name="Path 37841" d="M-4517.614,577.115s18.2-6.694-2.95-49.582,42.24-36.628,56.689-55.912" transform="translate(-93.948 -66.632)" fill="none" stroke="#e864ae" stroke-width="1"/>
          <path id="Path_37842" data-name="Path 37842" d="M-4906.772,250.68s31.947,45.619,83.573,38.859-4.293-51.625-4.293-51.625" transform="translate(-3.467 -11.265)" fill="none" stroke="#e864ae" stroke-width="1"/>
          <path id="Path_37843" data-name="Path 37843" d="M-4797.5,190.365s65.844,76.135,57.473,112.811-78.211,4.156-124.185-25.077" transform="translate(-13.549)" fill="none" stroke="#e864ae" stroke-width="1"/>
          <path id="Path_37844" data-name="Path 37844" d="M-4659.948,212.091s50.808,11.952,65.318,56.6,54.358-33.783,72.974-41.013-31.416,5.1-7.153-15.1" transform="translate(-61.941 -5.147)" fill="none" stroke="#e864ae" stroke-width="1"/>
          <path id="Path_37845" data-name="Path 37845" d="M-4650.634,507.185s-64.2-51.215-38.547-84.473,93.272-26.534,73.587-89.631-63.816-80.04-57.073-137.277" transform="translate(-53.582 -1.289)" fill="none" stroke="#e864ae" stroke-width="1"/>
          <path id="Path_37846" data-name="Path 37846" d="M-4874.773,505.795s53.283,56.451,75.04,37.048-35.738-110.677-68.992-131.143-52.679-18.423-52.679-18.423" transform="translate(0 -48.058)" fill="none" stroke="#e864ae" stroke-width="1"/>
          <path id="Path_37847" data-name="Path 37847" d="M-4893.114,306.646s83.223,91.775,125.563,83.177,32.137-28.688,51.207-51.046-26.71-100.521-29.822-110.8" transform="translate(-6.702 -8.91)" fill="none" stroke="#e864ae" stroke-width="1"/>
        </g>
      </g>
      <path id="Path_91269" data-name="Path 91269" d="M5.95,15.168a5.227,5.227,0,0,1-2.072-.406,5.125,5.125,0,0,1-1.666-1.134A5.225,5.225,0,0,1,1.1,11.92,5.627,5.627,0,0,1,.7,9.778a5.863,5.863,0,0,1,.385-2.149A4.97,4.97,0,0,1,3.836,4.8a5.306,5.306,0,0,1,2.072-.4,5.089,5.089,0,0,1,2.009.378,4.641,4.641,0,0,1,1.5,1A3.725,3.725,0,0,1,10.3,7.146L8.61,7.958a2.732,2.732,0,0,0-.994-1.316,2.846,2.846,0,0,0-1.708-.5A3.226,3.226,0,0,0,4.179,6.6,3.131,3.131,0,0,0,3.017,7.874a4.148,4.148,0,0,0-.413,1.9,4.077,4.077,0,0,0,.427,1.911A3.2,3.2,0,0,0,4.214,12.97a3.262,3.262,0,0,0,1.736.462,3.42,3.42,0,0,0,1.47-.315,2.669,2.669,0,0,0,1.078-.9A2.346,2.346,0,0,0,8.9,10.842v-.8l.868.756H5.908V9.19h4.9v1.05a5.246,5.246,0,0,1-.406,2.128,4.459,4.459,0,0,1-1.1,1.547,4.727,4.727,0,0,1-1.561.938A5.214,5.214,0,0,1,5.95,15.168Zm9.842,0a3.907,3.907,0,0,1-2.058-.532,3.706,3.706,0,0,1-1.372-1.442,4.184,4.184,0,0,1-.49-2.016,4.1,4.1,0,0,1,.5-2.037,3.745,3.745,0,0,1,1.358-1.407,3.662,3.662,0,0,1,1.925-.518,3.935,3.935,0,0,1,1.575.294,3.359,3.359,0,0,1,1.155.812A3.636,3.636,0,0,1,19.11,9.5a4.016,4.016,0,0,1,.252,1.435q0,.2-.021.406a1.51,1.51,0,0,1-.077.364h-5.88v-1.4h4.844l-.868.658A2.086,2.086,0,0,0,17.3,9.82a1.644,1.644,0,0,0-.616-.8,1.77,1.77,0,0,0-1.029-.294,1.853,1.853,0,0,0-1.022.287,1.776,1.776,0,0,0-.679.84,2.915,2.915,0,0,0-.175,1.337,2.476,2.476,0,0,0,.189,1.239,1.84,1.84,0,0,0,.728.833,2.1,2.1,0,0,0,1.113.294,2.037,2.037,0,0,0,1.071-.266,1.919,1.919,0,0,0,.693-.714l1.484.728a2.594,2.594,0,0,1-.7.966,3.5,3.5,0,0,1-1.127.658A4.152,4.152,0,0,1,15.792,15.168Zm8.442-.084a2.7,2.7,0,0,1-2-.707,2.7,2.7,0,0,1-.707-1.995V9.022H20.216V7.384h.14a1.207,1.207,0,0,0,.868-.294,1.126,1.126,0,0,0,.308-.854V5.648h1.834V7.384h1.75V9.022h-1.75v3.262a1.428,1.428,0,0,0,.133.644.888.888,0,0,0,.42.406,1.678,1.678,0,0,0,.735.14,2.246,2.246,0,0,0,.231-.014l.259-.028V15q-.2.028-.448.056A4.21,4.21,0,0,1,24.234,15.084Zm6.4-.084V6.194H28.616V4.57h3.92V15Zm8.19.168a3.652,3.652,0,0,1-2.184-.672,4.4,4.4,0,0,1-1.463-1.89,7.094,7.094,0,0,1-.525-2.828,7.114,7.114,0,0,1,.518-2.828,4.363,4.363,0,0,1,1.456-1.876,3.919,3.919,0,0,1,4.389,0,4.477,4.477,0,0,1,1.463,1.883,6.962,6.962,0,0,1,.532,2.821,7.043,7.043,0,0,1-.525,2.821,4.456,4.456,0,0,1-1.463,1.89A3.649,3.649,0,0,1,38.822,15.168Zm.014-1.736a1.786,1.786,0,0,0,1.218-.441,2.811,2.811,0,0,0,.777-1.26A6.2,6.2,0,0,0,41.1,9.778a6.2,6.2,0,0,0-.273-1.953,2.73,2.73,0,0,0-.784-1.253,1.85,1.85,0,0,0-1.239-.434,1.784,1.784,0,0,0-1.2.434,2.76,2.76,0,0,0-.777,1.253,6.2,6.2,0,0,0-.273,1.953,6.151,6.151,0,0,0,.273,1.939,2.83,2.83,0,0,0,.784,1.267A1.8,1.8,0,0,0,38.836,13.432ZM46.3,15l-1.12-1.12,2.128-2.128-2.114-2.1,1.12-1.106,2.1,2.1,2.114-2.1,1.12,1.106-2.128,2.1,2.128,2.128L50.54,15l-2.128-2.128Zm10.108,0V7.384h1.722V9.148l-.2-.294a1.975,1.975,0,0,1,.84-1.232,2.679,2.679,0,0,1,1.484-.406,2.848,2.848,0,0,1,1.652.49,2.206,2.206,0,0,1,.924,1.288l-.518.042a2.737,2.737,0,0,1,1.05-1.365,3.071,3.071,0,0,1,3.059-.091,2.616,2.616,0,0,1,1,1.015,3.032,3.032,0,0,1,.364,1.505V15H65.954V10.534a1.921,1.921,0,0,0-.182-.868,1.386,1.386,0,0,0-.5-.567,1.441,1.441,0,0,0-.784-.2,1.46,1.46,0,0,0-.77.2,1.354,1.354,0,0,0-.518.567,1.921,1.921,0,0,0-.182.868V15H61.18V10.534A1.921,1.921,0,0,0,61,9.666a1.369,1.369,0,0,0-.511-.567,1.575,1.575,0,0,0-1.547,0,1.354,1.354,0,0,0-.518.567,1.921,1.921,0,0,0-.182.868V15Zm16.674.168a4.069,4.069,0,0,1-2.037-.518,3.972,3.972,0,0,1-.007-6.916,4.264,4.264,0,0,1,4.074,0,3.953,3.953,0,0,1,1.449,1.407,3.877,3.877,0,0,1,.539,2.051,3.849,3.849,0,0,1-.546,2.044,4,4,0,0,1-3.472,1.932Zm0-1.68a2,2,0,0,0,1.085-.294,2.07,2.07,0,0,0,.742-.819,2.526,2.526,0,0,0,.273-1.183,2.473,2.473,0,0,0-.273-1.183,2.148,2.148,0,0,0-.742-.812,1.965,1.965,0,0,0-1.085-.3,2.025,2.025,0,0,0-1.106.3,2.129,2.129,0,0,0-.749.812,2.473,2.473,0,0,0-.273,1.183,2.526,2.526,0,0,0,.273,1.183,2,2,0,0,0,1.855,1.113ZM78.5,15V7.384H80.22V9.078l-.14-.252a2,2,0,0,1,.833-1.19A2.631,2.631,0,0,1,82.278,7.3h.448V8.924h-.658a1.69,1.69,0,0,0-1.26.483,1.842,1.842,0,0,0-.476,1.351V15Zm8.862.168a3.907,3.907,0,0,1-2.058-.532,3.706,3.706,0,0,1-1.372-1.442,4.184,4.184,0,0,1-.49-2.016,4.1,4.1,0,0,1,.5-2.037,3.745,3.745,0,0,1,1.358-1.407,3.662,3.662,0,0,1,1.925-.518,3.935,3.935,0,0,1,1.575.294,3.359,3.359,0,0,1,1.155.812A3.636,3.636,0,0,1,90.678,9.5a4.016,4.016,0,0,1,.252,1.435q0,.2-.021.406a1.51,1.51,0,0,1-.077.364h-5.88v-1.4H89.8l-.868.658a2.086,2.086,0,0,0-.063-1.148,1.644,1.644,0,0,0-.616-.8,1.77,1.77,0,0,0-1.029-.294,1.853,1.853,0,0,0-1.022.287,1.776,1.776,0,0,0-.679.84,2.915,2.915,0,0,0-.175,1.337,2.476,2.476,0,0,0,.189,1.239,1.84,1.84,0,0,0,.728.833,2.1,2.1,0,0,0,1.113.294,2.037,2.037,0,0,0,1.071-.266,1.92,1.92,0,0,0,.693-.714l1.484.728a2.594,2.594,0,0,1-.7.966,3.5,3.5,0,0,1-1.127.658A4.152,4.152,0,0,1,87.36,15.168ZM94.836,15V7.384h1.722V9.078l-.14-.252a2,2,0,0,1,.833-1.19A2.631,2.631,0,0,1,98.616,7.3h.448V8.924h-.658a1.69,1.69,0,0,0-1.26.483,1.842,1.842,0,0,0-.476,1.351V15Zm8.862.168a3.907,3.907,0,0,1-2.058-.532,3.706,3.706,0,0,1-1.372-1.442,4.184,4.184,0,0,1-.49-2.016,4.1,4.1,0,0,1,.5-2.037,3.745,3.745,0,0,1,1.358-1.407,3.662,3.662,0,0,1,1.925-.518,3.935,3.935,0,0,1,1.575.294,3.359,3.359,0,0,1,1.155.812,3.636,3.636,0,0,1,.728,1.183,4.016,4.016,0,0,1,.252,1.435q0,.2-.021.406a1.51,1.51,0,0,1-.077.364h-5.88v-1.4h4.844l-.868.658A2.086,2.086,0,0,0,105.2,9.82a1.644,1.644,0,0,0-.616-.8,1.77,1.77,0,0,0-1.029-.294,1.853,1.853,0,0,0-1.022.287,1.776,1.776,0,0,0-.679.84,2.915,2.915,0,0,0-.175,1.337,2.476,2.476,0,0,0,.189,1.239,1.84,1.84,0,0,0,.728.833,2.1,2.1,0,0,0,1.113.294,2.037,2.037,0,0,0,1.071-.266,1.92,1.92,0,0,0,.693-.714l1.484.728a2.594,2.594,0,0,1-.7.966,3.5,3.5,0,0,1-1.127.658A4.152,4.152,0,0,1,103.7,15.168Zm7.868,0a3.834,3.834,0,0,1-2.121-.581,2.952,2.952,0,0,1-1.239-1.575l1.372-.658a2.413,2.413,0,0,0,.819,1.008,2.005,2.005,0,0,0,1.169.364,1.286,1.286,0,0,0,.8-.224.7.7,0,0,0,.294-.588.571.571,0,0,0-.119-.371.993.993,0,0,0-.322-.252,2.481,2.481,0,0,0-.441-.175l-1.246-.35a2.971,2.971,0,0,1-1.463-.854,2.007,2.007,0,0,1-.5-1.358,2.126,2.126,0,0,1,.357-1.225,2.371,2.371,0,0,1,.994-.819,3.455,3.455,0,0,1,1.463-.294,3.508,3.508,0,0,1,1.9.518,2.841,2.841,0,0,1,1.176,1.456l-1.4.658a1.688,1.688,0,0,0-.658-.826,1.826,1.826,0,0,0-1.036-.308,1.145,1.145,0,0,0-.728.21.663.663,0,0,0-.266.546.6.6,0,0,0,.112.364.82.82,0,0,0,.315.252,3.525,3.525,0,0,0,.469.182l1.218.364a3.116,3.116,0,0,1,1.449.84,1.961,1.961,0,0,1,.511,1.372,2.073,2.073,0,0,1-.364,1.211,2.413,2.413,0,0,1-1.008.819A3.612,3.612,0,0,1,111.566,15.168Zm4.312,2.632V7.384H117.6V8.9l-.168-.378a2.677,2.677,0,0,1,1.064-.959,3.373,3.373,0,0,1,1.554-.343A3.649,3.649,0,0,1,122,7.748a3.93,3.93,0,0,1,1.379,1.428,4,4,0,0,1,.511,2.016,4.091,4.091,0,0,1-.5,2.016,3.79,3.79,0,0,1-1.372,1.435,3.739,3.739,0,0,1-1.974.525,3.5,3.5,0,0,1-1.519-.329,2.646,2.646,0,0,1-1.1-.945l.294-.364V17.8Zm3.948-4.312a2.134,2.134,0,0,0,1.12-.294,2.031,2.031,0,0,0,.763-.812,2.514,2.514,0,0,0,.273-1.19,2.473,2.473,0,0,0-.273-1.183A2.079,2.079,0,0,0,119.826,8.9a2.023,2.023,0,0,0-1.841,1.113,2.715,2.715,0,0,0,0,2.373,2.033,2.033,0,0,0,1.841,1.106Zm9.2,1.68a4.069,4.069,0,0,1-2.037-.518,3.972,3.972,0,0,1-.007-6.916,4.264,4.264,0,0,1,4.074,0A3.953,3.953,0,0,1,132.5,9.141a3.877,3.877,0,0,1,.539,2.051,3.849,3.849,0,0,1-.546,2.044,4,4,0,0,1-3.472,1.932Zm0-1.68a2,2,0,0,0,1.085-.294,2.07,2.07,0,0,0,.742-.819,2.526,2.526,0,0,0,.273-1.183,2.473,2.473,0,0,0-.273-1.183,2.148,2.148,0,0,0-.742-.812,1.965,1.965,0,0,0-1.085-.3,2.025,2.025,0,0,0-1.106.3,2.129,2.129,0,0,0-.749.812,2.473,2.473,0,0,0-.273,1.183,2.526,2.526,0,0,0,.273,1.183,2,2,0,0,0,1.855,1.113ZM134.442,15V7.384h1.722v1.5l-.14-.266a2.013,2.013,0,0,1,.875-1.043,2.758,2.758,0,0,1,1.421-.357,3,3,0,0,1,1.491.364,2.589,2.589,0,0,1,1.015,1.015,3.032,3.032,0,0,1,.364,1.505V15h-1.834V10.534a1.806,1.806,0,0,0-.2-.868,1.434,1.434,0,0,0-.539-.567,1.684,1.684,0,0,0-1.6,0,1.419,1.419,0,0,0-.546.567,1.806,1.806,0,0,0-.2.868V15Zm11.214.168a3.834,3.834,0,0,1-2.121-.581,2.952,2.952,0,0,1-1.239-1.575l1.372-.658a2.413,2.413,0,0,0,.819,1.008,2.005,2.005,0,0,0,1.169.364,1.286,1.286,0,0,0,.8-.224.7.7,0,0,0,.294-.588.571.571,0,0,0-.119-.371.994.994,0,0,0-.322-.252,2.481,2.481,0,0,0-.441-.175l-1.246-.35a2.971,2.971,0,0,1-1.463-.854,2.007,2.007,0,0,1-.5-1.358,2.126,2.126,0,0,1,.357-1.225,2.37,2.37,0,0,1,.994-.819,3.456,3.456,0,0,1,1.463-.294,3.508,3.508,0,0,1,1.9.518,2.841,2.841,0,0,1,1.176,1.456l-1.4.658a1.688,1.688,0,0,0-.658-.826,1.826,1.826,0,0,0-1.036-.308,1.145,1.145,0,0,0-.728.21.663.663,0,0,0-.266.546.6.6,0,0,0,.112.364.82.82,0,0,0,.315.252,3.525,3.525,0,0,0,.469.182l1.218.364a3.116,3.116,0,0,1,1.449.84,1.961,1.961,0,0,1,.511,1.372,2.073,2.073,0,0,1-.364,1.211,2.413,2.413,0,0,1-1.008.819A3.612,3.612,0,0,1,145.656,15.168Zm7.924,0a3.907,3.907,0,0,1-2.058-.532,3.706,3.706,0,0,1-1.372-1.442,4.184,4.184,0,0,1-.49-2.016,4.1,4.1,0,0,1,.5-2.037,3.745,3.745,0,0,1,1.358-1.407,3.662,3.662,0,0,1,1.925-.518,3.935,3.935,0,0,1,1.575.294,3.359,3.359,0,0,1,1.155.812A3.636,3.636,0,0,1,156.9,9.5a4.016,4.016,0,0,1,.252,1.435q0,.2-.021.406a1.509,1.509,0,0,1-.077.364h-5.88v-1.4h4.844l-.868.658a2.086,2.086,0,0,0-.063-1.148,1.644,1.644,0,0,0-.616-.8,1.77,1.77,0,0,0-1.029-.294,1.853,1.853,0,0,0-1.022.287,1.777,1.777,0,0,0-.679.84,2.915,2.915,0,0,0-.175,1.337,2.476,2.476,0,0,0,.189,1.239,1.84,1.84,0,0,0,.728.833,2.1,2.1,0,0,0,1.113.294,2.037,2.037,0,0,0,1.071-.266,1.919,1.919,0,0,0,.693-.714l1.484.728a2.594,2.594,0,0,1-.7.966,3.5,3.5,0,0,1-1.127.658A4.152,4.152,0,0,1,153.58,15.168Zm7.868,0a3.834,3.834,0,0,1-2.121-.581,2.952,2.952,0,0,1-1.239-1.575l1.372-.658a2.413,2.413,0,0,0,.819,1.008,2.005,2.005,0,0,0,1.169.364,1.286,1.286,0,0,0,.8-.224.7.7,0,0,0,.294-.588.571.571,0,0,0-.119-.371.994.994,0,0,0-.322-.252,2.481,2.481,0,0,0-.441-.175l-1.246-.35a2.971,2.971,0,0,1-1.463-.854,2.007,2.007,0,0,1-.5-1.358,2.126,2.126,0,0,1,.357-1.225,2.37,2.37,0,0,1,.994-.819,3.456,3.456,0,0,1,1.463-.294,3.508,3.508,0,0,1,1.9.518,2.841,2.841,0,0,1,1.176,1.456l-1.4.658a1.688,1.688,0,0,0-.658-.826,1.826,1.826,0,0,0-1.036-.308,1.145,1.145,0,0,0-.728.21.663.663,0,0,0-.266.546.6.6,0,0,0,.112.364.82.82,0,0,0,.315.252,3.525,3.525,0,0,0,.469.182l1.218.364a3.116,3.116,0,0,1,1.449.84,1.961,1.961,0,0,1,.511,1.372,2.073,2.073,0,0,1-.364,1.211,2.413,2.413,0,0,1-1.008.819A3.612,3.612,0,0,1,161.448,15.168Zm-156.436,18a3.5,3.5,0,0,1-1.519-.329,2.646,2.646,0,0,1-1.1-.945l.182-.364V33H.854V22.4H2.688V26.9l-.28-.378a2.677,2.677,0,0,1,1.064-.959,3.373,3.373,0,0,1,1.554-.343,3.649,3.649,0,0,1,1.946.532,3.93,3.93,0,0,1,1.379,1.428,4,4,0,0,1,.511,2.016,4.091,4.091,0,0,1-.5,2.016,3.79,3.79,0,0,1-1.372,1.435A3.739,3.739,0,0,1,5.012,33.168Zm-.21-1.68a2.134,2.134,0,0,0,1.12-.294,2.031,2.031,0,0,0,.763-.812,2.514,2.514,0,0,0,.273-1.19,2.473,2.473,0,0,0-.273-1.183A2.079,2.079,0,0,0,4.8,26.9a2.023,2.023,0,0,0-1.841,1.113,2.715,2.715,0,0,0,0,2.373A2.033,2.033,0,0,0,4.8,31.488Zm6.258,4.606a3.656,3.656,0,0,1-.6-.049,2.026,2.026,0,0,1-.532-.161v-1.54q.182.042.441.084a3.028,3.028,0,0,0,.483.042,1.237,1.237,0,0,0,.917-.294,2.8,2.8,0,0,0,.511-.77l.5-1.176-.028,1.54L9.436,25.384H11.41l2.324,6.188h-.7l2.31-6.188h1.988L14.014,33.77a4.783,4.783,0,0,1-.714,1.26,2.9,2.9,0,0,1-.973.791A2.826,2.826,0,0,1,11.06,36.094ZM23.156,33l-3-7.616h2l2.17,5.992H23.59l2.184-5.992h2L24.78,33Zm9.114.168a3.907,3.907,0,0,1-2.058-.532,3.706,3.706,0,0,1-1.372-1.442,4.184,4.184,0,0,1-.49-2.016,4.1,4.1,0,0,1,.5-2.037,3.745,3.745,0,0,1,1.358-1.407,3.662,3.662,0,0,1,1.925-.518,3.935,3.935,0,0,1,1.575.294,3.359,3.359,0,0,1,1.155.812,3.636,3.636,0,0,1,.728,1.183,4.016,4.016,0,0,1,.252,1.435q0,.2-.021.406a1.51,1.51,0,0,1-.077.364h-5.88v-1.4h4.844l-.868.658a2.086,2.086,0,0,0-.063-1.148,1.644,1.644,0,0,0-.616-.8,1.77,1.77,0,0,0-1.029-.294,1.853,1.853,0,0,0-1.022.287,1.776,1.776,0,0,0-.679.84,2.915,2.915,0,0,0-.175,1.337,2.476,2.476,0,0,0,.189,1.239,1.84,1.84,0,0,0,.728.833,2.1,2.1,0,0,0,1.113.294,2.037,2.037,0,0,0,1.071-.266,1.919,1.919,0,0,0,.693-.714l1.484.728a2.594,2.594,0,0,1-.7.966,3.5,3.5,0,0,1-1.127.658A4.152,4.152,0,0,1,32.27,33.168ZM37.24,33V25.384h1.722v1.694l-.14-.252a2,2,0,0,1,.833-1.19A2.631,2.631,0,0,1,41.02,25.3h.448v1.624H40.81a1.69,1.69,0,0,0-1.26.483,1.842,1.842,0,0,0-.476,1.351V33Zm5.25,0V25.384h1.834V33Zm0-8.47V22.57h1.834v1.96ZM46.914,33V27.022H45.57V25.384h1.344v-.252a2.873,2.873,0,0,1,.357-1.477,2.354,2.354,0,0,1,1-.931A3.376,3.376,0,0,1,49.8,22.4a3.63,3.63,0,0,1,.371.021q.2.021.343.049v1.582a1.9,1.9,0,0,0-.259-.035q-.119-.007-.217-.007a1.474,1.474,0,0,0-.952.273,1.027,1.027,0,0,0-.336.847v.252h1.694v1.638H48.748V33Zm5.74,3.094a3.656,3.656,0,0,1-.6-.049,2.026,2.026,0,0,1-.532-.161v-1.54q.182.042.441.084a3.028,3.028,0,0,0,.483.042,1.237,1.237,0,0,0,.917-.294,2.8,2.8,0,0,0,.511-.77l.5-1.176-.028,1.54L51.03,25.384H53l2.324,6.188h-.7l2.31-6.188h1.988L55.608,33.77a4.783,4.783,0,0,1-.714,1.26,2.9,2.9,0,0,1-.973.791A2.826,2.826,0,0,1,52.654,36.094ZM59.948,33V25.384h1.834V33Zm0-8.47V22.57h1.834v1.96ZM63.49,33V25.384h1.722v1.5l-.14-.266a2.013,2.013,0,0,1,.875-1.043,2.758,2.758,0,0,1,1.421-.357,3,3,0,0,1,1.491.364,2.589,2.589,0,0,1,1.015,1.015,3.032,3.032,0,0,1,.364,1.505V33H68.4V28.534a1.806,1.806,0,0,0-.2-.868,1.434,1.434,0,0,0-.539-.567,1.684,1.684,0,0,0-1.6,0,1.42,1.42,0,0,0-.546.567,1.806,1.806,0,0,0-.2.868V33ZM75.5,36.08a4.37,4.37,0,0,1-1.582-.28,3.765,3.765,0,0,1-1.253-.777,2.942,2.942,0,0,1-.763-1.169l1.708-.644a1.587,1.587,0,0,0,.665.861A2.171,2.171,0,0,0,75.5,34.4a2.21,2.21,0,0,0,.987-.21,1.556,1.556,0,0,0,.665-.609,1.839,1.839,0,0,0,.238-.959V30.886l.35.42a2.606,2.606,0,0,1-1.05,1.036,3.14,3.14,0,0,1-1.5.35,3.708,3.708,0,0,1-1.9-.49,3.5,3.5,0,0,1-1.316-1.344A3.872,3.872,0,0,1,71.5,28.94a3.822,3.822,0,0,1,.476-1.918,3.509,3.509,0,0,1,1.3-1.323,3.647,3.647,0,0,1,1.876-.483,3.08,3.08,0,0,1,1.505.357A3,3,0,0,1,77.742,26.6l-.252.462v-1.68h1.736v7.238a3.321,3.321,0,0,1-.483,1.778,3.414,3.414,0,0,1-1.316,1.232A4,4,0,0,1,75.5,36.08ZM75.418,31a1.994,1.994,0,0,0,1.029-.259,1.84,1.84,0,0,0,.693-.721,2.186,2.186,0,0,0,.252-1.064,2.15,2.15,0,0,0-.259-1.057,1.889,1.889,0,0,0-1.715-1,2.039,2.039,0,0,0-1.036.266,1.882,1.882,0,0,0-.721.735,2.15,2.15,0,0,0-.259,1.057A2.11,2.11,0,0,0,73.661,30a1.91,1.91,0,0,0,.714.728A2.028,2.028,0,0,0,75.418,31Zm8.96,5.1a3.656,3.656,0,0,1-.6-.049,2.026,2.026,0,0,1-.532-.161v-1.54q.182.042.441.084a3.028,3.028,0,0,0,.483.042,1.237,1.237,0,0,0,.917-.294,2.8,2.8,0,0,0,.511-.77l.5-1.176-.028,1.54-3.318-8.386h1.974l2.324,6.188h-.7l2.31-6.188H90.65L87.332,33.77a4.783,4.783,0,0,1-.714,1.26,2.9,2.9,0,0,1-.973.791A2.826,2.826,0,0,1,84.378,36.094Zm10.878-2.926a4.069,4.069,0,0,1-2.037-.518,3.972,3.972,0,0,1-.007-6.916,4.264,4.264,0,0,1,4.074,0,3.953,3.953,0,0,1,1.449,1.407,4.135,4.135,0,0,1-.007,4.1,4,4,0,0,1-3.472,1.932Zm0-1.68a2,2,0,0,0,1.085-.294,2.07,2.07,0,0,0,.742-.819,2.526,2.526,0,0,0,.273-1.183,2.473,2.473,0,0,0-.273-1.183,2.148,2.148,0,0,0-.742-.812,1.965,1.965,0,0,0-1.085-.3,2.025,2.025,0,0,0-1.106.3,2.129,2.129,0,0,0-.749.812,2.473,2.473,0,0,0-.273,1.183,2.526,2.526,0,0,0,.273,1.183,2,2,0,0,0,1.855,1.113Zm8.134,1.68a2.915,2.915,0,0,1-1.533-.392,2.56,2.56,0,0,1-.994-1.092,3.682,3.682,0,0,1-.343-1.638V25.384h1.834v4.508a1.755,1.755,0,0,0,.189.833,1.371,1.371,0,0,0,.546.56,1.6,1.6,0,0,0,.805.2,1.561,1.561,0,0,0,.8-.2,1.42,1.42,0,0,0,.546-.567,1.806,1.806,0,0,0,.2-.868V25.384h1.834V33h-1.736V31.5l.154.266a1.976,1.976,0,0,1-.875,1.05A2.8,2.8,0,0,1,103.39,33.168Zm5.6-.168V25.384h1.722v1.694l-.14-.252a2,2,0,0,1,.833-1.19,2.631,2.631,0,0,1,1.365-.336h.448v1.624h-.658a1.69,1.69,0,0,0-1.26.483,1.842,1.842,0,0,0-.476,1.351V33Zm7.756,2.8V25.384h1.722V26.9l-.168-.378a2.677,2.677,0,0,1,1.064-.959,3.373,3.373,0,0,1,1.554-.343,3.649,3.649,0,0,1,1.946.532,3.93,3.93,0,0,1,1.379,1.428,4,4,0,0,1,.511,2.016,4.091,4.091,0,0,1-.5,2.016,3.79,3.79,0,0,1-1.372,1.435,3.739,3.739,0,0,1-1.974.525,3.5,3.5,0,0,1-1.519-.329,2.646,2.646,0,0,1-1.1-.945l.294-.364V35.8Zm3.948-4.312a2.134,2.134,0,0,0,1.12-.294,2.031,2.031,0,0,0,.763-.812,2.514,2.514,0,0,0,.273-1.19,2.473,2.473,0,0,0-.273-1.183,2.079,2.079,0,0,0-1.883-1.113,2.023,2.023,0,0,0-1.841,1.113,2.715,2.715,0,0,0,0,2.373,2.033,2.033,0,0,0,1.841,1.106ZM126.168,33V25.384h1.722v1.694l-.14-.252a2,2,0,0,1,.833-1.19,2.631,2.631,0,0,1,1.365-.336h.448v1.624h-.658a1.69,1.69,0,0,0-1.26.483A1.842,1.842,0,0,0,128,28.758V33Zm8.974.168a4.069,4.069,0,0,1-2.037-.518,3.972,3.972,0,0,1-.007-6.916,4.264,4.264,0,0,1,4.074,0,3.953,3.953,0,0,1,1.449,1.407,4.135,4.135,0,0,1-.007,4.1,4,4,0,0,1-3.472,1.932Zm0-1.68a2,2,0,0,0,1.085-.294,2.07,2.07,0,0,0,.742-.819,2.526,2.526,0,0,0,.273-1.183,2.473,2.473,0,0,0-.273-1.183,2.148,2.148,0,0,0-.742-.812,1.965,1.965,0,0,0-1.085-.3,2.025,2.025,0,0,0-1.106.3,2.129,2.129,0,0,0-.749.812,2.473,2.473,0,0,0-.273,1.183,2.526,2.526,0,0,0,.273,1.183,2,2,0,0,0,1.855,1.113ZM141.274,33V27.022H139.93V25.384h1.344v-.252a2.873,2.873,0,0,1,.357-1.477,2.354,2.354,0,0,1,1-.931,3.376,3.376,0,0,1,1.526-.322,3.63,3.63,0,0,1,.371.021q.2.021.343.049v1.582a1.9,1.9,0,0,0-.259-.035q-.119-.007-.217-.007a1.473,1.473,0,0,0-.952.273,1.027,1.027,0,0,0-.336.847v.252H144.8v1.638h-1.694V33Zm4.676,0V25.384h1.834V33Zm0-8.47V22.57h1.834v1.96ZM149.492,33V22.4h1.834V33Zm7.154.168a3.907,3.907,0,0,1-2.058-.532,3.706,3.706,0,0,1-1.372-1.442,4.184,4.184,0,0,1-.49-2.016,4.1,4.1,0,0,1,.5-2.037,3.745,3.745,0,0,1,1.358-1.407,3.662,3.662,0,0,1,1.925-.518,3.935,3.935,0,0,1,1.575.294,3.359,3.359,0,0,1,1.155.812,3.636,3.636,0,0,1,.728,1.183,4.016,4.016,0,0,1,.252,1.435q0,.2-.021.406a1.509,1.509,0,0,1-.077.364h-5.88v-1.4h4.844l-.868.658a2.086,2.086,0,0,0-.063-1.148,1.644,1.644,0,0,0-.616-.8,1.77,1.77,0,0,0-1.029-.294,1.853,1.853,0,0,0-1.022.287,1.777,1.777,0,0,0-.679.84,2.915,2.915,0,0,0-.175,1.337,2.476,2.476,0,0,0,.189,1.239,1.84,1.84,0,0,0,.728.833,2.1,2.1,0,0,0,1.113.294,2.037,2.037,0,0,0,1.071-.266,1.919,1.919,0,0,0,.693-.714l1.484.728a2.594,2.594,0,0,1-.7.966,3.5,3.5,0,0,1-1.127.658A4.152,4.152,0,0,1,156.646,33.168ZM2.772,51,.154,43.384H2.086L4,49.166l-.672-.014,2.044-5.768H7l2.03,5.768-.672.014,1.918-5.782h1.932L9.59,51H7.952L5.88,44.966H6.5L4.4,51ZM13.23,51V43.384h1.834V51Zm0-8.47V40.57h1.834v1.96Zm7.014,8.554a2.459,2.459,0,0,1-2.7-2.7v-3.36H16.226V43.384h.14a1.207,1.207,0,0,0,.868-.294,1.126,1.126,0,0,0,.308-.854v-.588h1.834v1.736h1.75v1.638h-1.75v3.262a1.428,1.428,0,0,0,.133.644.888.888,0,0,0,.42.406,1.678,1.678,0,0,0,.735.14,2.246,2.246,0,0,0,.231-.014l.259-.028V51q-.2.028-.448.056A4.21,4.21,0,0,1,20.244,51.084ZM22.568,51V40.4H24.4v4.48l-.252-.266a2.013,2.013,0,0,1,.875-1.043,2.758,2.758,0,0,1,1.421-.357,3,3,0,0,1,1.491.364A2.589,2.589,0,0,1,28.952,44.6a3.032,3.032,0,0,1,.364,1.5V51H27.482V46.534a1.806,1.806,0,0,0-.2-.868,1.434,1.434,0,0,0-.539-.567,1.684,1.684,0,0,0-1.6,0,1.42,1.42,0,0,0-.546.567,1.806,1.806,0,0,0-.2.868V51Zm13.132.168a3.338,3.338,0,0,1-1.386-.266,2.015,2.015,0,0,1-1.232-1.918,2.256,2.256,0,0,1,.28-1.127,2.233,2.233,0,0,1,.868-.833,4.338,4.338,0,0,1,1.484-.476l2.492-.406v1.4l-2.142.364a1.563,1.563,0,0,0-.812.35.865.865,0,0,0-.266.658.744.744,0,0,0,.3.623,1.194,1.194,0,0,0,.749.231,2.055,2.055,0,0,0,1.015-.245,1.745,1.745,0,0,0,.686-.679,1.9,1.9,0,0,0,.245-.952v-1.96a1.034,1.034,0,0,0-.385-.819,1.509,1.509,0,0,0-1.015-.329,1.788,1.788,0,0,0-1.043.315,1.825,1.825,0,0,0-.665.833l-1.5-.728a2.643,2.643,0,0,1,.707-1.043,3.561,3.561,0,0,1,1.141-.693,3.96,3.96,0,0,1,1.428-.252,3.773,3.773,0,0,1,1.652.343,2.686,2.686,0,0,1,1.113.952,2.534,2.534,0,0,1,.4,1.421V51H38.08V49.7l.392-.028a3.081,3.081,0,0,1-.7.819,2.957,2.957,0,0,1-.924.5A3.57,3.57,0,0,1,35.7,51.168ZM41.524,51V43.384h1.722v1.5l-.14-.266a2.013,2.013,0,0,1,.875-1.043,2.758,2.758,0,0,1,1.421-.357,3,3,0,0,1,1.491.364A2.589,2.589,0,0,1,47.908,44.6a3.032,3.032,0,0,1,.364,1.5V51H46.438V46.534a1.806,1.806,0,0,0-.2-.868A1.434,1.434,0,0,0,45.7,45.1a1.684,1.684,0,0,0-1.6,0,1.42,1.42,0,0,0-.546.567,1.806,1.806,0,0,0-.2.868V51ZM52.5,51V40.57h1.9V51Zm3.92,0V40.57h3.4a5.941,5.941,0,0,1,2.877.665,4.755,4.755,0,0,1,1.9,1.834,5.8,5.8,0,0,1,0,5.418,4.727,4.727,0,0,1-1.9,1.848A5.941,5.941,0,0,1,59.822,51Zm1.9-1.68h1.54a3.669,3.669,0,0,0,1.841-.441,3.107,3.107,0,0,0,1.211-1.232,4.256,4.256,0,0,0,0-3.745A3.071,3.071,0,0,0,61.7,42.684a3.717,3.717,0,0,0-1.841-.434h-1.54ZM69.146,53.8V43.384h1.722V44.9l-.168-.378a2.677,2.677,0,0,1,1.064-.959,3.373,3.373,0,0,1,1.554-.343,3.649,3.649,0,0,1,1.946.532,3.93,3.93,0,0,1,1.379,1.428,4,4,0,0,1,.511,2.016,4.091,4.091,0,0,1-.5,2.016,3.79,3.79,0,0,1-1.372,1.435,3.739,3.739,0,0,1-1.974.525,3.5,3.5,0,0,1-1.519-.329,2.646,2.646,0,0,1-1.1-.945l.294-.364V53.8Zm3.948-4.312a2.134,2.134,0,0,0,1.12-.294,2.031,2.031,0,0,0,.763-.812,2.514,2.514,0,0,0,.273-1.19,2.473,2.473,0,0,0-.273-1.183A2.079,2.079,0,0,0,73.094,44.9a2.023,2.023,0,0,0-1.841,1.113,2.715,2.715,0,0,0,0,2.373,2.033,2.033,0,0,0,1.841,1.106ZM78.568,51V43.384H80.29v1.694l-.14-.252a2,2,0,0,1,.833-1.19,2.631,2.631,0,0,1,1.365-.336H82.8v1.624h-.658a1.69,1.69,0,0,0-1.26.483,1.842,1.842,0,0,0-.476,1.351V51Zm8.974.168A4.069,4.069,0,0,1,85.5,50.65a3.972,3.972,0,0,1-.007-6.916,4.264,4.264,0,0,1,4.074,0,3.953,3.953,0,0,1,1.449,1.407,4.135,4.135,0,0,1-.007,4.1,4,4,0,0,1-3.472,1.932Zm0-1.68a2,2,0,0,0,1.085-.294,2.07,2.07,0,0,0,.742-.819,2.526,2.526,0,0,0,.273-1.183,2.473,2.473,0,0,0-.273-1.183,2.148,2.148,0,0,0-.742-.812,1.965,1.965,0,0,0-1.085-.3,2.025,2.025,0,0,0-1.106.3,2.129,2.129,0,0,0-.749.812,2.473,2.473,0,0,0-.273,1.183,2.526,2.526,0,0,0,.273,1.183,2,2,0,0,0,1.855,1.113Zm9.142,1.68a4.069,4.069,0,0,1-2.037-.518,3.972,3.972,0,0,1-.007-6.916,4.264,4.264,0,0,1,4.074,0,3.953,3.953,0,0,1,1.449,1.407,4.135,4.135,0,0,1-.007,4.1,4,4,0,0,1-3.472,1.932Zm0-1.68a2,2,0,0,0,1.085-.294,2.07,2.07,0,0,0,.742-.819,2.526,2.526,0,0,0,.273-1.183,2.473,2.473,0,0,0-.273-1.183,2.148,2.148,0,0,0-.742-.812,1.965,1.965,0,0,0-1.085-.3,2.025,2.025,0,0,0-1.106.3,2.129,2.129,0,0,0-.749.812,2.473,2.473,0,0,0-.273,1.183,2.526,2.526,0,0,0,.273,1.183,2,2,0,0,0,1.855,1.113ZM102.816,51V45.022h-1.344V43.384h1.344v-.252a2.873,2.873,0,0,1,.357-1.477,2.354,2.354,0,0,1,1-.931A3.376,3.376,0,0,1,105.7,40.4a3.63,3.63,0,0,1,.371.021q.2.021.343.049v1.582a1.9,1.9,0,0,0-.259-.035q-.119-.007-.217-.007a1.473,1.473,0,0,0-.952.273,1.027,1.027,0,0,0-.336.847v.252h1.694v1.638H104.65V51Z" transform="translate(72 243)" fill="#fff"/>
      <rect id="Rectangle_18997" data-name="Rectangle 18997" width="78" height="26" rx="13" transform="translate(72 319)" fill="#fff"/>
      <path id="Path_91274" data-name="Path 91274" d="M-16.38,0l-3.64-10.43h2.072l2.856,8.638H-15.5l2.856-8.638h2.072L-14.2,0Zm9.744.168A3.907,3.907,0,0,1-8.694-.364a3.706,3.706,0,0,1-1.372-1.442,4.184,4.184,0,0,1-.49-2.016,4.1,4.1,0,0,1,.5-2.037A3.745,3.745,0,0,1-8.7-7.266a3.662,3.662,0,0,1,1.925-.518A3.935,3.935,0,0,1-5.2-7.49a3.359,3.359,0,0,1,1.155.812A3.636,3.636,0,0,1-3.318-5.5,4.016,4.016,0,0,1-3.066-4.06q0,.2-.021.406a1.51,1.51,0,0,1-.077.364h-5.88v-1.4H-4.2l-.868.658A2.086,2.086,0,0,0-5.131-5.18a1.644,1.644,0,0,0-.616-.8,1.77,1.77,0,0,0-1.029-.294A1.853,1.853,0,0,0-7.8-5.985a1.776,1.776,0,0,0-.679.84,2.915,2.915,0,0,0-.175,1.337,2.476,2.476,0,0,0,.189,1.239,1.84,1.84,0,0,0,.728.833,2.1,2.1,0,0,0,1.113.294,2.037,2.037,0,0,0,1.071-.266,1.919,1.919,0,0,0,.693-.714l1.484.728a2.594,2.594,0,0,1-.7.966A3.5,3.5,0,0,1-5.2-.07,4.152,4.152,0,0,1-6.636.168ZM-1.666,0V-7.616H.056v1.694l-.14-.252a2,2,0,0,1,.833-1.19A2.631,2.631,0,0,1,2.114-7.7h.448v1.624H1.9a1.69,1.69,0,0,0-1.26.483A1.842,1.842,0,0,0,.168-4.242V0Zm5.25,0V-7.616H5.418V0Zm0-8.47v-1.96H5.418v1.96ZM8.008,0V-5.978H6.664V-7.616H8.008v-.252a2.873,2.873,0,0,1,.357-1.477,2.354,2.354,0,0,1,1-.931,3.376,3.376,0,0,1,1.526-.322,3.63,3.63,0,0,1,.371.021q.2.021.343.049v1.582a1.9,1.9,0,0,0-.259-.035q-.119-.007-.217-.007a1.473,1.473,0,0,0-.952.273,1.027,1.027,0,0,0-.336.847v.252h1.694v1.638H9.842V0Zm5.74,3.094a3.656,3.656,0,0,1-.6-.049,2.026,2.026,0,0,1-.532-.161V1.344q.182.042.441.084a3.028,3.028,0,0,0,.483.042,1.237,1.237,0,0,0,.917-.294,2.8,2.8,0,0,0,.511-.77l.5-1.176L15.442.77,12.124-7.616H14.1l2.324,6.188h-.7l2.31-6.188H20.02L16.7.77a4.783,4.783,0,0,1-.714,1.26,2.9,2.9,0,0,1-.973.791A2.826,2.826,0,0,1,13.748,3.094Z" transform="translate(111 337)" fill="#d64b99"/>
      <g id="Group_66847" data-name="Group 66847" transform="translate(0 1)">
        <g id="Group_66846" data-name="Group 66846">
          <rect id="Rectangle_18998" data-name="Rectangle 18998" width="46.295" height="30.89" rx="5" transform="translate(249.096 315.534) rotate(-16)" fill="rgba(253,159,212,0.44)"/>
          <rect id="Rectangle_18999" data-name="Rectangle 18999" width="47.295" height="33.89" rx="7" transform="translate(255.023 313.735)" fill="#ff9fd4"/>
          <rect id="Rectangle_19000" data-name="Rectangle 19000" width="11" height="3" rx="1.5" transform="translate(279 324)" fill="#f576bd"/>
          <rect id="Rectangle_19001" data-name="Rectangle 19001" width="16" height="3" rx="1.5" transform="translate(279 330)" fill="#f576bd"/>
          <rect id="Rectangle_19002" data-name="Rectangle 19002" width="7" height="3" rx="1.5" transform="translate(279 336)" fill="rgba(245,118,189,0.53)"/>
          <g id="vuesax_bold_frame" data-name="vuesax/bold/frame" transform="translate(151.396 70.722)">
            <g id="frame" transform="translate(108 252)">
              <path id="Vector" d="M3.475,0a3.471,3.471,0,0,0-.088,6.942.59.59,0,0,1,.161,0H3.6A3.472,3.472,0,0,0,3.475,0Z" transform="translate(5.303 1.463)" fill="#ffceea"/>
              <path id="Vector-2" data-name="Vector" d="M8.866,1.02a7.263,7.263,0,0,0-7.425,0A2.887,2.887,0,0,0,0,3.383,2.863,2.863,0,0,0,1.434,5.731,6.759,6.759,0,0,0,5.15,6.763,6.759,6.759,0,0,0,8.866,5.731,2.886,2.886,0,0,0,10.3,3.369,2.88,2.88,0,0,0,8.866,1.02Z" transform="translate(3.628 9.33)" fill="#ffceea"/>
              <path id="Vector-3" data-name="Vector" d="M0,0H17.556V17.556H0Z" transform="translate(17.556 17.556) rotate(180)" fill="none" opacity="0"/>
            </g>
          </g>
        </g>
      </g>
    </g>
  </g>
</svg>
