<svg xmlns="http://www.w3.org/2000/svg" xmlns:xlink="http://www.w3.org/1999/xlink" width="273" height="148" viewBox="0 0 273 148">
  <defs>
    <clipPath id="clip-path">
      <rect id="Rectangle_19017" data-name="Rectangle 19017" width="273" height="148" rx="9" transform="translate(51 44)" fill="#975ad8"/>
    </clipPath>
  </defs>
  <g id="Group_66860" data-name="Group 66860" transform="translate(-51 -44)">
    <g id="Group_66857" data-name="Group 66857">
      <rect id="Rectangle_18992" data-name="Rectangle 18992" width="273" height="148" rx="9" transform="translate(51 44)" fill="#975ad8"/>
      <g id="Mask_Group_25421" data-name="Mask Group 25421" clip-path="url(#clip-path)">
        <g id="Group_66853" data-name="Group 66853" transform="translate(4907.56 -246.677)" opacity="0.76">
          <path id="Path_37839" data-name="Path 37839" d="M-4374.1,203.591s-60.5,42.336-90.916,93.236,14.042,66.519,24,116.877" transform="translate(-105.639 -3.133)" fill="none" stroke="#ad69f5" stroke-width="1"/>
          <path id="Path_37840" data-name="Path 37840" d="M-4406.184,257.659s-112.075-18.761-121.327,37.308,30.849,91.233-15.694,123.571-66.16,30.55-45.8,64.54,10.417,49.327,10.417,49.327" transform="translate(-76.851 -15.228)" fill="none" stroke="#ad69f5" stroke-width="1"/>
          <path id="Path_37841" data-name="Path 37841" d="M-4517.614,577.115s18.2-6.694-2.95-49.582,42.24-36.628,56.689-55.912" transform="translate(-93.948 -66.632)" fill="none" stroke="#ad69f5" stroke-width="1"/>
          <path id="Path_37842" data-name="Path 37842" d="M-4906.772,250.68s31.947,45.619,83.573,38.859-4.293-51.625-4.293-51.625" transform="translate(-3.467 -11.265)" fill="none" stroke="#ad69f5" stroke-width="1"/>
          <path id="Path_37843" data-name="Path 37843" d="M-4797.5,190.365s65.844,76.135,57.473,112.811-78.211,4.156-124.185-25.077" transform="translate(-13.549)" fill="none" stroke="#ad69f5" stroke-width="1"/>
          <path id="Path_37844" data-name="Path 37844" d="M-4659.948,212.091s50.808,11.952,65.318,56.6,1.288,74.564,19.9,67.334,2.782-67.139,27.045-87.336" transform="translate(-61.941 -5.147)" fill="none" stroke="#ad69f5" stroke-width="1"/>
          <path id="Path_37845" data-name="Path 37845" d="M-4650.634,507.185s-64.2-51.215-38.547-84.473,93.272-26.534,73.587-89.631-63.816-80.04-57.073-137.277" transform="translate(-53.582 -1.289)" fill="none" stroke="#ad69f5" stroke-width="1"/>
          <path id="Path_37846" data-name="Path 37846" d="M-4874.773,505.795s53.283,56.451,75.04,37.048-35.738-110.677-68.992-131.143-52.679-18.423-52.679-18.423" transform="translate(0 -48.058)" fill="none" stroke="#ad69f5" stroke-width="1"/>
          <path id="Path_37847" data-name="Path 37847" d="M-4893.114,306.646s83.223,91.775,125.563,83.177,32.137-28.688,51.207-51.046-26.71-100.521-29.822-110.8" transform="translate(-6.702 -8.91)" fill="none" stroke="#ad69f5" stroke-width="1"/>
        </g>
      </g>
      <path id="Path_91268" data-name="Path 91268" d="M1.316,15l3.542-4.564.322.336a2.84,2.84,0,0,1-.406.252,1.589,1.589,0,0,1-.42.14,2.581,2.581,0,0,1-.476.042,3.292,3.292,0,0,1-1.694-.434A3.16,3.16,0,0,1,1.015,9.589a3.373,3.373,0,0,1-.427-1.7A3.423,3.423,0,0,1,1.057,6.1,3.389,3.389,0,0,1,2.345,4.857,3.783,3.783,0,0,1,4.214,4.4,3.82,3.82,0,0,1,6.09,4.85,3.326,3.326,0,0,1,7.84,7.86a4.634,4.634,0,0,1-.112,1.008,4.6,4.6,0,0,1-.4,1.071A9.036,9.036,0,0,1,6.51,11.22L3.6,15Zm2.9-5.39a1.751,1.751,0,0,0,.875-.217A1.578,1.578,0,0,0,5.7,8.777a1.812,1.812,0,0,0,.224-.9,1.787,1.787,0,0,0-.231-.924,1.713,1.713,0,0,0-.609-.616,1.67,1.67,0,0,0-.868-.224,1.718,1.718,0,0,0-.868.224,1.679,1.679,0,0,0-.623.616,1.787,1.787,0,0,0-.231.924,1.769,1.769,0,0,0,.231.9,1.612,1.612,0,0,0,.623.616A1.762,1.762,0,0,0,4.214,9.61ZM13.4,15.168a3.652,3.652,0,0,1-2.184-.672,4.4,4.4,0,0,1-1.463-1.89,7.094,7.094,0,0,1-.525-2.828A7.114,7.114,0,0,1,9.744,6.95,4.363,4.363,0,0,1,11.2,5.074,3.652,3.652,0,0,1,13.384,4.4a3.667,3.667,0,0,1,2.2.672,4.477,4.477,0,0,1,1.463,1.883,6.962,6.962,0,0,1,.532,2.821,7.043,7.043,0,0,1-.525,2.821,4.455,4.455,0,0,1-1.463,1.89A3.649,3.649,0,0,1,13.4,15.168Zm.014-1.736a1.786,1.786,0,0,0,1.218-.441,2.811,2.811,0,0,0,.777-1.26,6.2,6.2,0,0,0,.273-1.953,6.2,6.2,0,0,0-.273-1.953,2.73,2.73,0,0,0-.784-1.253,1.85,1.85,0,0,0-1.239-.434,1.784,1.784,0,0,0-1.2.434A2.76,2.76,0,0,0,11.4,7.825a6.2,6.2,0,0,0-.273,1.953,6.151,6.151,0,0,0,.273,1.939,2.83,2.83,0,0,0,.784,1.267A1.8,1.8,0,0,0,13.412,13.432ZM20.51,15,28.966,4.57h1.96L22.47,15Zm1.638-5.138a2.7,2.7,0,0,1-1.407-.371,2.778,2.778,0,0,1-.987-.987,2.646,2.646,0,0,1-.364-1.372,2.707,2.707,0,0,1,1.351-2.366A2.737,2.737,0,0,1,22.148,4.4a2.673,2.673,0,0,1,1.386.364,2.722,2.722,0,0,1,.98.987,2.683,2.683,0,0,1,.364,1.379A2.646,2.646,0,0,1,24.514,8.5a2.8,2.8,0,0,1-.98.987A2.634,2.634,0,0,1,22.148,9.862Zm-.014-1.414a1.224,1.224,0,0,0,.7-.189,1.237,1.237,0,0,0,.427-.49,1.469,1.469,0,0,0,0-1.281A1.3,1.3,0,0,0,22.834,6a1.191,1.191,0,0,0-.7-.2,1.175,1.175,0,0,0-.679.2,1.326,1.326,0,0,0-.441.5,1.38,1.38,0,0,0-.154.637,1.394,1.394,0,0,0,.154.63,1.259,1.259,0,0,0,.441.5A1.206,1.206,0,0,0,22.134,8.448Zm7.112,6.72a2.671,2.671,0,0,1-1.393-.371,2.778,2.778,0,0,1-.987-.987,2.646,2.646,0,0,1-.364-1.372,2.771,2.771,0,0,1,4.144-2.366,2.722,2.722,0,0,1,.98.987,2.683,2.683,0,0,1,.364,1.379,2.646,2.646,0,0,1-.364,1.372,2.8,2.8,0,0,1-.98.987A2.66,2.66,0,0,1,29.246,15.168Zm0-1.414a1.232,1.232,0,0,0,.693-.189,1.219,1.219,0,0,0,.434-.49,1.469,1.469,0,0,0,0-1.281,1.283,1.283,0,0,0-.434-.49,1.2,1.2,0,0,0-.693-.2,1.175,1.175,0,0,0-.679.2,1.326,1.326,0,0,0-.441.5,1.38,1.38,0,0,0-.154.637,1.394,1.394,0,0,0,.154.63,1.259,1.259,0,0,0,.441.5A1.206,1.206,0,0,0,29.246,13.754ZM40.11,15.168a4.069,4.069,0,0,1-2.037-.518,3.972,3.972,0,0,1-.007-6.916,4.264,4.264,0,0,1,4.074,0,3.953,3.953,0,0,1,1.449,1.407,3.877,3.877,0,0,1,.539,2.051,3.849,3.849,0,0,1-.546,2.044,4,4,0,0,1-3.472,1.932Zm0-1.68a2,2,0,0,0,1.085-.294,2.07,2.07,0,0,0,.742-.819,2.526,2.526,0,0,0,.273-1.183,2.473,2.473,0,0,0-.273-1.183,2.148,2.148,0,0,0-.742-.812,1.965,1.965,0,0,0-1.085-.3A2.025,2.025,0,0,0,39,9.2a2.129,2.129,0,0,0-.749.812,2.473,2.473,0,0,0-.273,1.183,2.526,2.526,0,0,0,.273,1.183,2,2,0,0,0,1.855,1.113ZM46.242,15V9.022H44.9V7.384h1.344V7.132A2.873,2.873,0,0,1,46.6,5.655a2.354,2.354,0,0,1,1-.931A3.376,3.376,0,0,1,49.126,4.4a3.63,3.63,0,0,1,.371.021q.2.021.343.049V6.054a1.9,1.9,0,0,0-.259-.035q-.119-.007-.217-.007a1.473,1.473,0,0,0-.952.273,1.027,1.027,0,0,0-.336.847v.252H49.77V9.022H48.076V15Zm10.794.084a2.7,2.7,0,0,1-1.995-.707,2.7,2.7,0,0,1-.707-1.995V9.022H53.018V7.384h.14a1.207,1.207,0,0,0,.868-.294,1.126,1.126,0,0,0,.308-.854V5.648h1.834V7.384h1.75V9.022h-1.75v3.262a1.428,1.428,0,0,0,.133.644.888.888,0,0,0,.42.406,1.678,1.678,0,0,0,.735.14,2.246,2.246,0,0,0,.231-.014l.259-.028V15q-.2.028-.448.056A4.21,4.21,0,0,1,57.036,15.084ZM59.36,15V4.4h1.834v4.48l-.252-.266a2.013,2.013,0,0,1,.875-1.043,2.758,2.758,0,0,1,1.421-.357,3,3,0,0,1,1.491.364,2.589,2.589,0,0,1,1.015,1.015,3.032,3.032,0,0,1,.364,1.505V15H64.274V10.534a1.806,1.806,0,0,0-.2-.868,1.434,1.434,0,0,0-.539-.567,1.684,1.684,0,0,0-1.6,0,1.419,1.419,0,0,0-.546.567,1.806,1.806,0,0,0-.2.868V15Zm11.928.168a3.907,3.907,0,0,1-2.058-.532,3.706,3.706,0,0,1-1.372-1.442,4.184,4.184,0,0,1-.49-2.016,4.1,4.1,0,0,1,.5-2.037,3.745,3.745,0,0,1,1.358-1.407,3.662,3.662,0,0,1,1.925-.518,3.935,3.935,0,0,1,1.575.294,3.359,3.359,0,0,1,1.155.812A3.636,3.636,0,0,1,74.606,9.5a4.016,4.016,0,0,1,.252,1.435q0,.2-.021.406a1.51,1.51,0,0,1-.077.364H68.88v-1.4h4.844l-.868.658a2.086,2.086,0,0,0-.063-1.148,1.644,1.644,0,0,0-.616-.8,1.77,1.77,0,0,0-1.029-.294,1.853,1.853,0,0,0-1.022.287,1.776,1.776,0,0,0-.679.84,2.915,2.915,0,0,0-.175,1.337,2.476,2.476,0,0,0,.189,1.239,1.84,1.84,0,0,0,.728.833,2.1,2.1,0,0,0,1.113.294,2.037,2.037,0,0,0,1.071-.266,1.92,1.92,0,0,0,.693-.714l1.484.728a2.594,2.594,0,0,1-.7.966,3.5,3.5,0,0,1-1.127.658A4.152,4.152,0,0,1,71.288,15.168ZM78.764,15V7.384h1.722V9.148l-.2-.294a1.975,1.975,0,0,1,.84-1.232,2.679,2.679,0,0,1,1.484-.406,2.848,2.848,0,0,1,1.652.49,2.206,2.206,0,0,1,.924,1.288l-.518.042a2.737,2.737,0,0,1,1.05-1.365,3.071,3.071,0,0,1,3.059-.091,2.616,2.616,0,0,1,1,1.015,3.032,3.032,0,0,1,.364,1.505V15H88.312V10.534a1.921,1.921,0,0,0-.182-.868,1.386,1.386,0,0,0-.5-.567,1.441,1.441,0,0,0-.784-.2,1.459,1.459,0,0,0-.77.2,1.354,1.354,0,0,0-.518.567,1.921,1.921,0,0,0-.182.868V15H83.538V10.534a1.921,1.921,0,0,0-.182-.868,1.369,1.369,0,0,0-.511-.567,1.575,1.575,0,0,0-1.547,0,1.354,1.354,0,0,0-.518.567,1.921,1.921,0,0,0-.182.868V15Zm16.562.168a3.907,3.907,0,0,1-2.058-.532A3.706,3.706,0,0,1,91.9,13.194a4.184,4.184,0,0,1-.49-2.016,4.1,4.1,0,0,1,.5-2.037,3.745,3.745,0,0,1,1.358-1.407,3.662,3.662,0,0,1,1.925-.518,3.935,3.935,0,0,1,1.575.294,3.359,3.359,0,0,1,1.155.812A3.636,3.636,0,0,1,98.644,9.5,4.016,4.016,0,0,1,98.9,10.94q0,.2-.021.406a1.51,1.51,0,0,1-.077.364h-5.88v-1.4h4.844l-.868.658a2.086,2.086,0,0,0-.063-1.148,1.644,1.644,0,0,0-.616-.8,1.77,1.77,0,0,0-1.029-.294,1.853,1.853,0,0,0-1.022.287,1.776,1.776,0,0,0-.679.84,2.915,2.915,0,0,0-.175,1.337,2.476,2.476,0,0,0,.189,1.239,1.84,1.84,0,0,0,.728.833,2.1,2.1,0,0,0,1.113.294,2.037,2.037,0,0,0,1.071-.266,1.92,1.92,0,0,0,.693-.714l1.484.728a2.594,2.594,0,0,1-.7.966,3.5,3.5,0,0,1-1.127.658A4.152,4.152,0,0,1,95.326,15.168ZM100.3,15V7.384h1.722V9.148l-.2-.294a1.975,1.975,0,0,1,.84-1.232,2.679,2.679,0,0,1,1.484-.406,2.848,2.848,0,0,1,1.652.49,2.206,2.206,0,0,1,.924,1.288l-.518.042a2.737,2.737,0,0,1,1.05-1.365,3.071,3.071,0,0,1,3.059-.091,2.616,2.616,0,0,1,1,1.015,3.032,3.032,0,0,1,.364,1.505V15h-1.834V10.534a1.921,1.921,0,0,0-.182-.868,1.386,1.386,0,0,0-.5-.567,1.441,1.441,0,0,0-.784-.2,1.459,1.459,0,0,0-.77.2,1.354,1.354,0,0,0-.518.567,1.921,1.921,0,0,0-.182.868V15H105.07V10.534a1.921,1.921,0,0,0-.182-.868,1.369,1.369,0,0,0-.511-.567,1.575,1.575,0,0,0-1.547,0,1.354,1.354,0,0,0-.518.567,1.921,1.921,0,0,0-.182.868V15Zm17.108.168a3.5,3.5,0,0,1-1.519-.329,2.646,2.646,0,0,1-1.1-.945l.182-.364V15h-1.722V4.4h1.834V8.9l-.28-.378a2.677,2.677,0,0,1,1.064-.959,3.373,3.373,0,0,1,1.554-.343,3.649,3.649,0,0,1,1.946.532,3.93,3.93,0,0,1,1.379,1.428,4,4,0,0,1,.511,2.016,4.091,4.091,0,0,1-.5,2.016,3.79,3.79,0,0,1-1.372,1.435A3.739,3.739,0,0,1,117.4,15.168Zm-.21-1.68a2.134,2.134,0,0,0,1.12-.294,2.031,2.031,0,0,0,.763-.812,2.514,2.514,0,0,0,.273-1.19,2.473,2.473,0,0,0-.273-1.183A2.079,2.079,0,0,0,117.194,8.9a2.023,2.023,0,0,0-1.841,1.113,2.715,2.715,0,0,0,0,2.373,2.033,2.033,0,0,0,1.841,1.106Zm9.086,1.68a3.907,3.907,0,0,1-2.058-.532,3.706,3.706,0,0,1-1.372-1.442,4.184,4.184,0,0,1-.49-2.016,4.1,4.1,0,0,1,.5-2.037,3.745,3.745,0,0,1,1.358-1.407,3.662,3.662,0,0,1,1.925-.518,3.935,3.935,0,0,1,1.575.294,3.359,3.359,0,0,1,1.155.812A3.636,3.636,0,0,1,129.6,9.5a4.016,4.016,0,0,1,.252,1.435q0,.2-.021.406a1.51,1.51,0,0,1-.077.364h-5.88v-1.4h4.844l-.868.658a2.086,2.086,0,0,0-.063-1.148,1.644,1.644,0,0,0-.616-.8,1.77,1.77,0,0,0-1.029-.294,1.853,1.853,0,0,0-1.022.287,1.776,1.776,0,0,0-.679.84,2.915,2.915,0,0,0-.175,1.337,2.476,2.476,0,0,0,.189,1.239,1.84,1.84,0,0,0,.728.833,2.1,2.1,0,0,0,1.113.294,2.037,2.037,0,0,0,1.071-.266,1.919,1.919,0,0,0,.693-.714l1.484.728a2.594,2.594,0,0,1-.7.966,3.5,3.5,0,0,1-1.127.658A4.152,4.152,0,0,1,126.28,15.168ZM131.25,15V7.384h1.722V9.078l-.14-.252a2,2,0,0,1,.833-1.19A2.631,2.631,0,0,1,135.03,7.3h.448V8.924h-.658a1.69,1.69,0,0,0-1.26.483,1.842,1.842,0,0,0-.476,1.351V15Zm8.148.168a3.834,3.834,0,0,1-2.121-.581,2.952,2.952,0,0,1-1.239-1.575l1.372-.658a2.413,2.413,0,0,0,.819,1.008,2.005,2.005,0,0,0,1.169.364,1.286,1.286,0,0,0,.8-.224.7.7,0,0,0,.294-.588.571.571,0,0,0-.119-.371.994.994,0,0,0-.322-.252,2.481,2.481,0,0,0-.441-.175l-1.246-.35a2.971,2.971,0,0,1-1.463-.854,2.007,2.007,0,0,1-.5-1.358,2.126,2.126,0,0,1,.357-1.225,2.37,2.37,0,0,1,.994-.819,3.456,3.456,0,0,1,1.463-.294,3.508,3.508,0,0,1,1.9.518A2.841,2.841,0,0,1,142.3,9.19l-1.4.658a1.688,1.688,0,0,0-.658-.826,1.826,1.826,0,0,0-1.036-.308,1.145,1.145,0,0,0-.728.21.663.663,0,0,0-.266.546.6.6,0,0,0,.112.364.82.82,0,0,0,.315.252,3.525,3.525,0,0,0,.469.182l1.218.364a3.116,3.116,0,0,1,1.449.84,1.961,1.961,0,0,1,.511,1.372,2.073,2.073,0,0,1-.364,1.211,2.413,2.413,0,0,1-1.008.819A3.612,3.612,0,0,1,139.4,15.168ZM.854,35.8V25.384H2.576V26.9l-.168-.378a2.677,2.677,0,0,1,1.064-.959,3.373,3.373,0,0,1,1.554-.343,3.649,3.649,0,0,1,1.946.532,3.93,3.93,0,0,1,1.379,1.428,4,4,0,0,1,.511,2.016,4.091,4.091,0,0,1-.5,2.016,3.79,3.79,0,0,1-1.372,1.435,3.739,3.739,0,0,1-1.974.525,3.5,3.5,0,0,1-1.519-.329,2.646,2.646,0,0,1-1.1-.945l.294-.364V35.8ZM4.8,31.488a2.134,2.134,0,0,0,1.12-.294,2.031,2.031,0,0,0,.763-.812,2.514,2.514,0,0,0,.273-1.19,2.473,2.473,0,0,0-.273-1.183A2.079,2.079,0,0,0,4.8,26.9a2.023,2.023,0,0,0-1.841,1.113,2.715,2.715,0,0,0,0,2.373A2.033,2.033,0,0,0,4.8,31.488ZM10.276,33V25.384H12v1.694l-.14-.252a2,2,0,0,1,.833-1.19,2.631,2.631,0,0,1,1.365-.336H14.5v1.624h-.658a1.69,1.69,0,0,0-1.26.483,1.842,1.842,0,0,0-.476,1.351V33Zm8.862.168a3.907,3.907,0,0,1-2.058-.532,3.706,3.706,0,0,1-1.372-1.442,4.184,4.184,0,0,1-.49-2.016,4.1,4.1,0,0,1,.5-2.037,3.745,3.745,0,0,1,1.358-1.407A3.662,3.662,0,0,1,19,25.216a3.935,3.935,0,0,1,1.575.294,3.359,3.359,0,0,1,1.155.812,3.636,3.636,0,0,1,.728,1.183,4.016,4.016,0,0,1,.252,1.435q0,.2-.021.406a1.51,1.51,0,0,1-.077.364H16.73v-1.4h4.844l-.868.658a2.086,2.086,0,0,0-.063-1.148,1.644,1.644,0,0,0-.616-.8A1.77,1.77,0,0,0,19,26.728a1.853,1.853,0,0,0-1.022.287,1.776,1.776,0,0,0-.679.84,2.915,2.915,0,0,0-.175,1.337,2.476,2.476,0,0,0,.189,1.239,1.84,1.84,0,0,0,.728.833,2.1,2.1,0,0,0,1.113.294,2.037,2.037,0,0,0,1.071-.266,1.919,1.919,0,0,0,.693-.714l1.484.728a2.594,2.594,0,0,1-.7.966,3.5,3.5,0,0,1-1.127.658A4.152,4.152,0,0,1,19.138,33.168ZM24.99,33V27.022H23.646V25.384H24.99v-.252a2.873,2.873,0,0,1,.357-1.477,2.354,2.354,0,0,1,1-.931,3.376,3.376,0,0,1,1.526-.322,3.63,3.63,0,0,1,.371.021q.2.021.343.049v1.582a1.9,1.9,0,0,0-.259-.035q-.119-.007-.217-.007a1.473,1.473,0,0,0-.952.273,1.027,1.027,0,0,0-.336.847v.252h1.694v1.638H26.824V33Zm8.218.168a3.907,3.907,0,0,1-2.058-.532,3.706,3.706,0,0,1-1.372-1.442,4.184,4.184,0,0,1-.49-2.016,4.1,4.1,0,0,1,.5-2.037,3.745,3.745,0,0,1,1.358-1.407,3.662,3.662,0,0,1,1.925-.518,3.935,3.935,0,0,1,1.575.294,3.359,3.359,0,0,1,1.155.812,3.636,3.636,0,0,1,.728,1.183,4.016,4.016,0,0,1,.252,1.435q0,.2-.021.406a1.51,1.51,0,0,1-.077.364H30.8v-1.4h4.844l-.868.658a2.086,2.086,0,0,0-.063-1.148,1.644,1.644,0,0,0-.616-.8,1.77,1.77,0,0,0-1.029-.294,1.853,1.853,0,0,0-1.022.287,1.776,1.776,0,0,0-.679.84,2.915,2.915,0,0,0-.175,1.337,2.476,2.476,0,0,0,.189,1.239,1.84,1.84,0,0,0,.728.833,2.1,2.1,0,0,0,1.113.294,2.037,2.037,0,0,0,1.071-.266,1.919,1.919,0,0,0,.693-.714l1.484.728a2.594,2.594,0,0,1-.7.966,3.5,3.5,0,0,1-1.127.658A4.152,4.152,0,0,1,33.208,33.168ZM38.178,33V25.384H39.9v1.694l-.14-.252a2,2,0,0,1,.833-1.19,2.631,2.631,0,0,1,1.365-.336h.448v1.624h-.658a1.69,1.69,0,0,0-1.26.483,1.842,1.842,0,0,0-.476,1.351V33Zm11.228.084a2.459,2.459,0,0,1-2.7-2.7v-3.36H45.388V25.384h.14a1.207,1.207,0,0,0,.868-.294,1.126,1.126,0,0,0,.308-.854v-.588h1.834v1.736h1.75v1.638h-1.75v3.262a1.428,1.428,0,0,0,.133.644.888.888,0,0,0,.42.406,1.678,1.678,0,0,0,.735.14,2.247,2.247,0,0,0,.231-.014l.259-.028V33q-.2.028-.448.056A4.21,4.21,0,0,1,49.406,33.084Zm5.978.084a4.069,4.069,0,0,1-2.037-.518,3.972,3.972,0,0,1-.007-6.916,4.264,4.264,0,0,1,4.074,0,3.953,3.953,0,0,1,1.449,1.407,4.135,4.135,0,0,1-.007,4.1,4,4,0,0,1-3.472,1.932Zm0-1.68a2,2,0,0,0,1.085-.294,2.07,2.07,0,0,0,.742-.819,2.526,2.526,0,0,0,.273-1.183,2.473,2.473,0,0,0-.273-1.183,2.148,2.148,0,0,0-.742-.812,1.965,1.965,0,0,0-1.085-.3,2.025,2.025,0,0,0-1.106.3,2.129,2.129,0,0,0-.749.812,2.473,2.473,0,0,0-.273,1.183,2.526,2.526,0,0,0,.273,1.183,2,2,0,0,0,1.855,1.113Zm11.592,1.68a3.978,3.978,0,0,1-2.037-.525,3.829,3.829,0,0,1-1.421-1.428,4.25,4.25,0,0,1,0-4.067,3.792,3.792,0,0,1,1.421-1.414,4.02,4.02,0,0,1,2.037-.518,3.947,3.947,0,0,1,1.512.287,3.764,3.764,0,0,1,1.211.784,2.866,2.866,0,0,1,.735,1.183l-1.61.7a1.9,1.9,0,0,0-.707-.924,1.932,1.932,0,0,0-1.141-.35,1.974,1.974,0,0,0-1.071.294A2.031,2.031,0,0,0,65.17,28a2.795,2.795,0,0,0,0,2.38,2.031,2.031,0,0,0,.735.812,1.974,1.974,0,0,0,1.071.294A1.9,1.9,0,0,0,68.824,30.2l1.61.728a3.066,3.066,0,0,1-.728,1.155,3.573,3.573,0,0,1-1.2.8A3.984,3.984,0,0,1,66.976,33.168Zm8.582,0a4.069,4.069,0,0,1-2.037-.518,3.972,3.972,0,0,1-.007-6.916,4.264,4.264,0,0,1,4.074,0,3.953,3.953,0,0,1,1.449,1.407,4.135,4.135,0,0,1-.007,4.1,4,4,0,0,1-3.472,1.932Zm0-1.68a2,2,0,0,0,1.085-.294,2.07,2.07,0,0,0,.742-.819,2.526,2.526,0,0,0,.273-1.183,2.473,2.473,0,0,0-.273-1.183,2.148,2.148,0,0,0-.742-.812,1.965,1.965,0,0,0-1.085-.3,2.025,2.025,0,0,0-1.106.3,2.129,2.129,0,0,0-.749.812,2.473,2.473,0,0,0-.273,1.183,2.526,2.526,0,0,0,.273,1.183,2,2,0,0,0,1.855,1.113ZM80.976,33V25.384H82.7v1.5l-.14-.266a2.013,2.013,0,0,1,.875-1.043,2.758,2.758,0,0,1,1.421-.357,3,3,0,0,1,1.491.364,2.589,2.589,0,0,1,1.015,1.015,3.032,3.032,0,0,1,.364,1.505V33H85.89V28.534a1.806,1.806,0,0,0-.2-.868,1.434,1.434,0,0,0-.539-.567,1.684,1.684,0,0,0-1.6,0,1.42,1.42,0,0,0-.546.567,1.806,1.806,0,0,0-.2.868V33Zm11.788.084a2.459,2.459,0,0,1-2.7-2.7v-3.36H88.746V25.384h.14a1.207,1.207,0,0,0,.868-.294,1.126,1.126,0,0,0,.308-.854v-.588H91.9v1.736h1.75v1.638H91.9v3.262a1.428,1.428,0,0,0,.133.644.888.888,0,0,0,.42.406,1.678,1.678,0,0,0,.735.14,2.247,2.247,0,0,0,.231-.014l.259-.028V33q-.2.028-.448.056A4.21,4.21,0,0,1,92.764,33.084Zm4.606.084a3.338,3.338,0,0,1-1.386-.266,2.015,2.015,0,0,1-1.232-1.918,2.13,2.13,0,0,1,1.148-1.96,4.337,4.337,0,0,1,1.484-.476l2.492-.406v1.4l-2.142.364a1.563,1.563,0,0,0-.812.35.865.865,0,0,0-.266.658.744.744,0,0,0,.3.623,1.194,1.194,0,0,0,.749.231,2.055,2.055,0,0,0,1.015-.245,1.745,1.745,0,0,0,.686-.679,1.9,1.9,0,0,0,.245-.952v-1.96a1.034,1.034,0,0,0-.385-.819,1.508,1.508,0,0,0-1.015-.329,1.788,1.788,0,0,0-1.043.315,1.825,1.825,0,0,0-.665.833l-1.5-.728a2.643,2.643,0,0,1,.707-1.043,3.561,3.561,0,0,1,1.141-.693,3.96,3.96,0,0,1,1.428-.252,3.773,3.773,0,0,1,1.652.343,2.685,2.685,0,0,1,1.113.952,2.534,2.534,0,0,1,.4,1.421V33H99.75V31.7l.392-.028a3.081,3.081,0,0,1-.7.819,2.957,2.957,0,0,1-.924.5A3.57,3.57,0,0,1,97.37,33.168Zm9.492,0a3.978,3.978,0,0,1-2.037-.525,3.829,3.829,0,0,1-1.421-1.428,4.25,4.25,0,0,1,0-4.067,3.792,3.792,0,0,1,1.421-1.414,4.02,4.02,0,0,1,2.037-.518,3.947,3.947,0,0,1,1.512.287,3.764,3.764,0,0,1,1.211.784,2.866,2.866,0,0,1,.735,1.183l-1.61.7a1.9,1.9,0,0,0-.707-.924,1.932,1.932,0,0,0-1.141-.35,1.974,1.974,0,0,0-1.071.294,2.031,2.031,0,0,0-.735.812,2.795,2.795,0,0,0,0,2.38,2.031,2.031,0,0,0,.735.812,1.974,1.974,0,0,0,1.071.294A1.9,1.9,0,0,0,108.71,30.2l1.61.728a3.066,3.066,0,0,1-.728,1.155,3.573,3.573,0,0,1-1.2.8A3.984,3.984,0,0,1,106.862,33.168Zm8.33-.084a2.459,2.459,0,0,1-2.7-2.7v-3.36h-1.316V25.384h.14a1.207,1.207,0,0,0,.868-.294,1.126,1.126,0,0,0,.308-.854v-.588h1.834v1.736h1.75v1.638h-1.75v3.262a1.428,1.428,0,0,0,.133.644.888.888,0,0,0,.42.406,1.678,1.678,0,0,0,.735.14,2.247,2.247,0,0,0,.231-.014l.259-.028V33q-.2.028-.448.056A4.21,4.21,0,0,1,115.192,33.084Zm4.83,2.716V25.384h1.722V26.9l-.168-.378a2.677,2.677,0,0,1,1.064-.959,3.373,3.373,0,0,1,1.554-.343,3.649,3.649,0,0,1,1.946.532,3.93,3.93,0,0,1,1.379,1.428,4,4,0,0,1,.511,2.016,4.091,4.091,0,0,1-.5,2.016,3.79,3.79,0,0,1-1.372,1.435,3.739,3.739,0,0,1-1.974.525,3.5,3.5,0,0,1-1.519-.329,2.646,2.646,0,0,1-1.1-.945l.294-.364V35.8Zm3.948-4.312a2.134,2.134,0,0,0,1.12-.294,2.031,2.031,0,0,0,.763-.812,2.514,2.514,0,0,0,.273-1.19,2.473,2.473,0,0,0-.273-1.183A2.079,2.079,0,0,0,123.97,26.9a2.023,2.023,0,0,0-1.841,1.113,2.715,2.715,0,0,0,0,2.373,2.033,2.033,0,0,0,1.841,1.106ZM129.444,33V25.384h1.722v1.694l-.14-.252a2,2,0,0,1,.833-1.19,2.631,2.631,0,0,1,1.365-.336h.448v1.624h-.658a1.69,1.69,0,0,0-1.26.483,1.842,1.842,0,0,0-.476,1.351V33Zm8.974.168a4.069,4.069,0,0,1-2.037-.518,3.972,3.972,0,0,1-.007-6.916,4.264,4.264,0,0,1,4.074,0,3.953,3.953,0,0,1,1.449,1.407,4.135,4.135,0,0,1-.007,4.1,4,4,0,0,1-3.472,1.932Zm0-1.68a2,2,0,0,0,1.085-.294,2.07,2.07,0,0,0,.742-.819,2.526,2.526,0,0,0,.273-1.183,2.473,2.473,0,0,0-.273-1.183,2.148,2.148,0,0,0-.742-.812,1.965,1.965,0,0,0-1.085-.3,2.025,2.025,0,0,0-1.106.3,2.129,2.129,0,0,0-.749.812,2.473,2.473,0,0,0-.273,1.183,2.526,2.526,0,0,0,.273,1.183,2,2,0,0,0,1.855,1.113ZM144.55,33V27.022h-1.344V25.384h1.344v-.252a2.873,2.873,0,0,1,.357-1.477,2.354,2.354,0,0,1,1-.931,3.376,3.376,0,0,1,1.526-.322,3.63,3.63,0,0,1,.371.021q.2.021.343.049v1.582a1.9,1.9,0,0,0-.259-.035q-.119-.007-.217-.007a1.473,1.473,0,0,0-.952.273,1.027,1.027,0,0,0-.336.847v.252h1.694v1.638h-1.694V33Zm4.676,0V25.384h1.834V33Zm0-8.47V22.57h1.834v1.96ZM152.768,33V22.4H154.6V33Zm7.154.168a3.907,3.907,0,0,1-2.058-.532,3.706,3.706,0,0,1-1.372-1.442,4.184,4.184,0,0,1-.49-2.016,4.1,4.1,0,0,1,.5-2.037,3.745,3.745,0,0,1,1.358-1.407,3.662,3.662,0,0,1,1.925-.518,3.935,3.935,0,0,1,1.575.294,3.359,3.359,0,0,1,1.155.812,3.636,3.636,0,0,1,.728,1.183,4.016,4.016,0,0,1,.252,1.435q0,.2-.021.406a1.509,1.509,0,0,1-.077.364h-5.88v-1.4h4.844l-.868.658a2.086,2.086,0,0,0-.063-1.148,1.644,1.644,0,0,0-.616-.8,1.77,1.77,0,0,0-1.029-.294,1.853,1.853,0,0,0-1.022.287,1.777,1.777,0,0,0-.679.84,2.915,2.915,0,0,0-.175,1.337,2.476,2.476,0,0,0,.189,1.239,1.84,1.84,0,0,0,.728.833,2.1,2.1,0,0,0,1.113.294,2.037,2.037,0,0,0,1.071-.266,1.919,1.919,0,0,0,.693-.714l1.484.728a2.594,2.594,0,0,1-.7.966,3.5,3.5,0,0,1-1.127.658A4.152,4.152,0,0,1,159.922,33.168Zm7.868,0a3.834,3.834,0,0,1-2.121-.581,2.952,2.952,0,0,1-1.239-1.575l1.372-.658a2.413,2.413,0,0,0,.819,1.008,2.005,2.005,0,0,0,1.169.364,1.286,1.286,0,0,0,.8-.224.7.7,0,0,0,.294-.588.571.571,0,0,0-.119-.371.994.994,0,0,0-.322-.252,2.482,2.482,0,0,0-.441-.175l-1.246-.35a2.971,2.971,0,0,1-1.463-.854,2.007,2.007,0,0,1-.5-1.358,2.126,2.126,0,0,1,.357-1.225,2.37,2.37,0,0,1,.994-.819,3.455,3.455,0,0,1,1.463-.294,3.508,3.508,0,0,1,1.9.518,2.841,2.841,0,0,1,1.176,1.456l-1.4.658a1.688,1.688,0,0,0-.658-.826,1.826,1.826,0,0,0-1.036-.308,1.145,1.145,0,0,0-.728.21.663.663,0,0,0-.266.546.6.6,0,0,0,.112.364.82.82,0,0,0,.315.252,3.525,3.525,0,0,0,.469.182l1.218.364a3.116,3.116,0,0,1,1.449.84,1.961,1.961,0,0,1,.511,1.372,2.073,2.073,0,0,1-.364,1.211,2.413,2.413,0,0,1-1.008.819A3.612,3.612,0,0,1,167.79,33.168ZM2.772,51,.154,43.384H2.086L4,49.166l-.672-.014,2.044-5.768H7l2.03,5.768-.672.014,1.918-5.782h1.932L9.59,51H7.952L5.88,44.966H6.5L4.4,51ZM13.23,51V43.384h1.834V51Zm0-8.47V40.57h1.834v1.96Zm7.014,8.554a2.459,2.459,0,0,1-2.7-2.7v-3.36H16.226V43.384h.14a1.207,1.207,0,0,0,.868-.294,1.126,1.126,0,0,0,.308-.854v-.588h1.834v1.736h1.75v1.638h-1.75v3.262a1.428,1.428,0,0,0,.133.644.888.888,0,0,0,.42.406,1.678,1.678,0,0,0,.735.14,2.246,2.246,0,0,0,.231-.014l.259-.028V51q-.2.028-.448.056A4.21,4.21,0,0,1,20.244,51.084ZM22.568,51V40.4H24.4v4.48l-.252-.266a2.013,2.013,0,0,1,.875-1.043,2.758,2.758,0,0,1,1.421-.357,3,3,0,0,1,1.491.364A2.589,2.589,0,0,1,28.952,44.6a3.032,3.032,0,0,1,.364,1.5V51H27.482V46.534a1.806,1.806,0,0,0-.2-.868,1.434,1.434,0,0,0-.539-.567,1.684,1.684,0,0,0-1.6,0,1.42,1.42,0,0,0-.546.567,1.806,1.806,0,0,0-.2.868V51ZM33.39,53.8V43.384h1.722V44.9l-.168-.378a2.677,2.677,0,0,1,1.064-.959,3.373,3.373,0,0,1,1.554-.343,3.649,3.649,0,0,1,1.946.532,3.93,3.93,0,0,1,1.379,1.428,4,4,0,0,1,.511,2.016,4.091,4.091,0,0,1-.5,2.016,3.79,3.79,0,0,1-1.372,1.435,3.739,3.739,0,0,1-1.974.525,3.5,3.5,0,0,1-1.519-.329,2.646,2.646,0,0,1-1.1-.945l.294-.364V53.8Zm3.948-4.312a2.134,2.134,0,0,0,1.12-.294,2.032,2.032,0,0,0,.763-.812,2.514,2.514,0,0,0,.273-1.19,2.473,2.473,0,0,0-.273-1.183A2.079,2.079,0,0,0,37.338,44.9,2.023,2.023,0,0,0,35.5,46.009a2.715,2.715,0,0,0,0,2.373,2.033,2.033,0,0,0,1.841,1.106ZM42.812,51V40.4h1.834v4.48l-.252-.266a2.013,2.013,0,0,1,.875-1.043,2.758,2.758,0,0,1,1.421-.357,3,3,0,0,1,1.491.364A2.589,2.589,0,0,1,49.2,44.6a3.032,3.032,0,0,1,.364,1.5V51H47.726V46.534a1.806,1.806,0,0,0-.2-.868,1.434,1.434,0,0,0-.539-.567,1.684,1.684,0,0,0-1.6,0,1.42,1.42,0,0,0-.546.567,1.806,1.806,0,0,0-.2.868V51Zm12.04.168a4.069,4.069,0,0,1-2.037-.518,3.972,3.972,0,0,1-.007-6.916,4.264,4.264,0,0,1,4.074,0,3.953,3.953,0,0,1,1.449,1.407,4.135,4.135,0,0,1-.007,4.1,4,4,0,0,1-3.472,1.932Zm0-1.68a2,2,0,0,0,1.085-.294,2.07,2.07,0,0,0,.742-.819,2.526,2.526,0,0,0,.273-1.183,2.473,2.473,0,0,0-.273-1.183,2.148,2.148,0,0,0-.742-.812,1.965,1.965,0,0,0-1.085-.3,2.025,2.025,0,0,0-1.106.3,2.129,2.129,0,0,0-.749.812,2.473,2.473,0,0,0-.273,1.183A2.526,2.526,0,0,0,53,48.375a2,2,0,0,0,1.855,1.113Zm8.75,1.6a2.459,2.459,0,0,1-2.7-2.7v-3.36H59.584V43.384h.14a1.207,1.207,0,0,0,.868-.294,1.126,1.126,0,0,0,.308-.854v-.588h1.834v1.736h1.75v1.638h-1.75v3.262a1.428,1.428,0,0,0,.133.644.888.888,0,0,0,.42.406,1.678,1.678,0,0,0,.735.14,2.246,2.246,0,0,0,.231-.014l.259-.028V51q-.2.028-.448.056A4.21,4.21,0,0,1,63.6,51.084Zm5.978.084a4.069,4.069,0,0,1-2.037-.518,3.972,3.972,0,0,1-.007-6.916,4.264,4.264,0,0,1,4.074,0,3.953,3.953,0,0,1,1.449,1.407,4.135,4.135,0,0,1-.007,4.1,4,4,0,0,1-3.472,1.932Zm0-1.68a2,2,0,0,0,1.085-.294,2.07,2.07,0,0,0,.742-.819,2.526,2.526,0,0,0,.273-1.183,2.473,2.473,0,0,0-.273-1.183,2.148,2.148,0,0,0-.742-.812,1.965,1.965,0,0,0-1.085-.3,2.025,2.025,0,0,0-1.106.3,2.129,2.129,0,0,0-.749.812,2.473,2.473,0,0,0-.273,1.183,2.526,2.526,0,0,0,.273,1.183,2,2,0,0,0,1.855,1.113Zm8.316,1.68a3.834,3.834,0,0,1-2.121-.581,2.952,2.952,0,0,1-1.239-1.575l1.372-.658a2.413,2.413,0,0,0,.819,1.008,2.005,2.005,0,0,0,1.169.364,1.286,1.286,0,0,0,.8-.224.7.7,0,0,0,.294-.588.571.571,0,0,0-.119-.371.993.993,0,0,0-.322-.252,2.481,2.481,0,0,0-.441-.175l-1.246-.35a2.971,2.971,0,0,1-1.463-.854,2.007,2.007,0,0,1-.5-1.358,2.126,2.126,0,0,1,.357-1.225,2.371,2.371,0,0,1,.994-.819,3.455,3.455,0,0,1,1.463-.294,3.508,3.508,0,0,1,1.9.518,2.841,2.841,0,0,1,1.176,1.456l-1.4.658a1.688,1.688,0,0,0-.658-.826,1.826,1.826,0,0,0-1.036-.308,1.145,1.145,0,0,0-.728.21.663.663,0,0,0-.266.546.6.6,0,0,0,.112.364.82.82,0,0,0,.315.252,3.526,3.526,0,0,0,.469.182l1.218.364a3.116,3.116,0,0,1,1.449.84,1.961,1.961,0,0,1,.511,1.372,2.073,2.073,0,0,1-.364,1.211,2.413,2.413,0,0,1-1.008.819A3.612,3.612,0,0,1,77.9,51.168Zm5.25-3.332L83.02,40.57h1.862l-.126,7.266ZM83.02,51V49.04h1.862V51Z" transform="translate(72 65)" fill="#fff"/>
      <rect id="Rectangle_18993" data-name="Rectangle 18993" width="106" height="26" rx="13" transform="translate(72 141)" fill="#fff"/>
      <path id="Path_91275" data-name="Path 91275" d="M-36.169,0l3.6-10.43h2.464L-26.509,0h-2.072l-.742-2.24h-4.032L-34.111,0Zm3.36-3.92h2.94l-1.736-5.194h.532ZM-22.225.168A3.739,3.739,0,0,1-24.2-.357a3.79,3.79,0,0,1-1.372-1.435,4.091,4.091,0,0,1-.5-2.016,4.04,4.04,0,0,1,.5-2.016,3.856,3.856,0,0,1,1.379-1.428,3.685,3.685,0,0,1,1.953-.532,3.384,3.384,0,0,1,1.547.343,2.666,2.666,0,0,1,1.071.959l-.28.378V-10.6h1.834V0H-19.8V-1.47l.2.364A2.543,2.543,0,0,1-20.7-.161,3.542,3.542,0,0,1-22.225.168Zm.2-1.68a2.061,2.061,0,0,0,1.106-.294,2.064,2.064,0,0,0,.749-.812,2.514,2.514,0,0,0,.273-1.19,2.526,2.526,0,0,0-.273-1.183,2.052,2.052,0,0,0-.749-.819A2.061,2.061,0,0,0-22.029-6.1a2.07,2.07,0,0,0-1.106.3,2.094,2.094,0,0,0-.763.812,2.473,2.473,0,0,0-.273,1.183,2.514,2.514,0,0,0,.273,1.19,2.031,2.031,0,0,0,.763.812A2.108,2.108,0,0,0-22.029-1.512ZM-12.8.168a3.739,3.739,0,0,1-1.974-.525,3.79,3.79,0,0,1-1.372-1.435,4.091,4.091,0,0,1-.5-2.016,4.04,4.04,0,0,1,.5-2.016A3.856,3.856,0,0,1-14.77-7.252a3.685,3.685,0,0,1,1.953-.532,3.384,3.384,0,0,1,1.547.343,2.666,2.666,0,0,1,1.071.959l-.28.378V-10.6h1.834V0h-1.736V-1.47l.2.364a2.543,2.543,0,0,1-1.092.945A3.542,3.542,0,0,1-12.8.168Zm.2-1.68A2.061,2.061,0,0,0-11.5-1.806a2.064,2.064,0,0,0,.749-.812,2.514,2.514,0,0,0,.273-1.19,2.526,2.526,0,0,0-.273-1.183A2.052,2.052,0,0,0-11.5-5.81,2.061,2.061,0,0,0-12.607-6.1a2.07,2.07,0,0,0-1.106.3,2.094,2.094,0,0,0-.763.812,2.473,2.473,0,0,0-.273,1.183,2.514,2.514,0,0,0,.273,1.19,2.031,2.031,0,0,0,.763.812A2.108,2.108,0,0,0-12.607-1.512ZM-4.417,2.8V-7.616H-2.7V-6.1l-.168-.378A2.677,2.677,0,0,1-1.8-7.441,3.373,3.373,0,0,1-.245-7.784,3.649,3.649,0,0,1,1.7-7.252,3.93,3.93,0,0,1,3.08-5.824a4,4,0,0,1,.511,2.016,4.091,4.091,0,0,1-.5,2.016A3.79,3.79,0,0,1,1.715-.357,3.739,3.739,0,0,1-.259.168,3.5,3.5,0,0,1-1.778-.161a2.646,2.646,0,0,1-1.1-.945l.294-.364V2.8ZM-.469-1.512a2.134,2.134,0,0,0,1.12-.294,2.031,2.031,0,0,0,.763-.812,2.514,2.514,0,0,0,.273-1.19,2.473,2.473,0,0,0-.273-1.183A2.094,2.094,0,0,0,.651-5.8a2.1,2.1,0,0,0-1.12-.3,2.045,2.045,0,0,0-1.085.294,2.036,2.036,0,0,0-.756.819,2.526,2.526,0,0,0-.273,1.183,2.514,2.514,0,0,0,.273,1.19,2.047,2.047,0,0,0,.756.812A2.045,2.045,0,0,0-.469-1.512ZM5,0V-10.6H6.839v4.48l-.252-.266a2.013,2.013,0,0,1,.875-1.043,2.758,2.758,0,0,1,1.421-.357,3,3,0,0,1,1.491.364,2.589,2.589,0,0,1,1.015,1.015A3.032,3.032,0,0,1,11.753-4.9V0H9.919V-4.466a1.806,1.806,0,0,0-.2-.868A1.434,1.434,0,0,0,9.184-5.9a1.551,1.551,0,0,0-.805-.2,1.561,1.561,0,0,0-.8.2,1.419,1.419,0,0,0-.546.567,1.806,1.806,0,0,0-.2.868V0Zm12.04.168A4.069,4.069,0,0,1,15.008-.35a3.92,3.92,0,0,1-1.456-1.414,3.887,3.887,0,0,1-.539-2.044,3.887,3.887,0,0,1,.539-2.044A3.936,3.936,0,0,1,15-7.266a4.058,4.058,0,0,1,2.044-.518,4.031,4.031,0,0,1,2.03.518,3.953,3.953,0,0,1,1.449,1.407,3.877,3.877,0,0,1,.539,2.051,3.849,3.849,0,0,1-.546,2.044A3.991,3.991,0,0,1,19.061-.35,4,4,0,0,1,17.045.168Zm0-1.68a2,2,0,0,0,1.085-.294,2.07,2.07,0,0,0,.742-.819,2.526,2.526,0,0,0,.273-1.183,2.473,2.473,0,0,0-.273-1.183A2.148,2.148,0,0,0,18.13-5.8a1.965,1.965,0,0,0-1.085-.3,2.025,2.025,0,0,0-1.106.3,2.129,2.129,0,0,0-.749.812,2.473,2.473,0,0,0-.273,1.183,2.526,2.526,0,0,0,.273,1.183,2.052,2.052,0,0,0,.749.819A2.061,2.061,0,0,0,17.045-1.512Zm8.75,1.6a2.7,2.7,0,0,1-2-.707,2.7,2.7,0,0,1-.707-2v-3.36H21.777V-7.616h.14a1.207,1.207,0,0,0,.868-.294,1.126,1.126,0,0,0,.308-.854v-.588h1.834v1.736h1.75v1.638h-1.75v3.262a1.428,1.428,0,0,0,.133.644.888.888,0,0,0,.42.406,1.678,1.678,0,0,0,.735.14,2.247,2.247,0,0,0,.231-.014l.259-.028V0q-.2.028-.448.056A4.21,4.21,0,0,1,25.795.084Zm5.978.084A4.069,4.069,0,0,1,29.736-.35,3.92,3.92,0,0,1,28.28-1.764a3.887,3.887,0,0,1-.539-2.044,3.887,3.887,0,0,1,.539-2.044,3.936,3.936,0,0,1,1.449-1.414,4.058,4.058,0,0,1,2.044-.518,4.031,4.031,0,0,1,2.03.518,3.953,3.953,0,0,1,1.449,1.407,3.877,3.877,0,0,1,.539,2.051,3.849,3.849,0,0,1-.546,2.044A3.991,3.991,0,0,1,33.789-.35,4,4,0,0,1,31.773.168Zm0-1.68a2,2,0,0,0,1.085-.294,2.07,2.07,0,0,0,.742-.819,2.526,2.526,0,0,0,.273-1.183A2.473,2.473,0,0,0,33.6-4.991a2.148,2.148,0,0,0-.742-.812,1.965,1.965,0,0,0-1.085-.3,2.025,2.025,0,0,0-1.106.3,2.129,2.129,0,0,0-.749.812,2.473,2.473,0,0,0-.273,1.183,2.526,2.526,0,0,0,.273,1.183,2.052,2.052,0,0,0,.749.819A2.061,2.061,0,0,0,31.773-1.512Z" transform="translate(125 159)" fill="#a44eff"/>
      <g id="Group_66844" data-name="Group 66844" transform="translate(0 -16)">
        <rect id="Rectangle_18994" data-name="Rectangle 18994" width="40.489" height="41.852" rx="8" transform="matrix(0.985, -0.174, 0.174, 0.985, 256.885, 145.024)" fill="#ad69f5"/>
        <rect id="Rectangle_18995" data-name="Rectangle 18995" width="40.886" height="42.377" rx="8" transform="translate(265.755 145.165)" fill="#ce9fff"/>
        <path id="Path_37838" data-name="Path 37838" d="M5.5,0A5.5,5.5,0,1,1,0,5.5,5.5,5.5,0,0,1,5.5,0Z" transform="translate(276.198 151.851)" fill="#e9d3ff"/>
        <path id="Polygon_5" data-name="Polygon 5" d="M5.514,6.2a4,4,0,0,1,6.973,0l2.161,3.841A4,4,0,0,1,11.161,16H6.839a4,4,0,0,1-3.486-5.961Z" transform="translate(271.456 164.851)" fill="#a269dd"/>
        <path id="Path_37831" data-name="Path 37831" d="M9.5,6.682a3.464,3.464,0,0,1,5.991,0L21.942,17.8a3.464,3.464,0,0,1-3,5.2L.075,22.937c.342-.593,1.629-2.832,2.97-5.141Z" transform="translate(278.525 157.894)" fill="#b67bf5"/>
      </g>
    </g>
  </g>
</svg>
