<svg xmlns="http://www.w3.org/2000/svg" width="128.858" height="149.226" viewBox="0 0 128.858 149.226">
  <g id="Group_62754" data-name="Group 62754" transform="translate(-125.142 -336.922)">
    <g id="Group_61939" data-name="Group 61939" transform="translate(-6.858 -39.755)">
      <g id="Group_391" data-name="Group 391" transform="translate(132 376.677)">
        <g id="XMLID_1_" transform="translate(0 24.851)">
          <path id="Path_448" data-name="Path 448" d="M16.809,84.995q1.035-.852,2.144-1.628A34.97,34.97,0,0,1,43.3,77.7q1.835.226,3.644.613c2.539.539,4.976,1.22,7.38,1.949,2.376.738,4.809,1.608,7.117,2.507,7.236,2.815,14.446,6.658,22.1,8.16a41.343,41.343,0,0,0,29.713-5.8l11.592-6.664-5.977,11.919a76.419,76.419,0,0,1-8.613,13.666A41.18,41.18,0,0,1,97.52,114.965a31.446,31.446,0,0,1-8.054,2.966,36.84,36.84,0,0,1-8.407.828,45.41,45.41,0,0,1-8.186-.873,60.889,60.889,0,0,1-7.8-2.019c-2.539-.815-4.982-1.827-7.409-2.847l-3.6-1.65-3.467-1.7c-2.25-1.117-4.53-2.173-6.851-3.114a66.569,66.569,0,0,0-7.062-2.53,48.75,48.75,0,0,0-7.294-1.637,36.577,36.577,0,0,0-7.444-.4,26.147,26.147,0,0,0-7.316,1.464A15.654,15.654,0,0,0,8.3,107.518a16.171,16.171,0,0,1,5.923-4.985,25.163,25.163,0,0,1,7.512-2.421,43.236,43.236,0,0,1,15.762.629,70.579,70.579,0,0,1,7.637,1.99c2.514.774,4.953,1.737,7.38,2.725L56.07,106.9l3.5,1.31c2.366.806,4.732,1.592,7.127,2.183A48.535,48.535,0,0,0,81,112.272a28.305,28.305,0,0,0,13.078-3.6,33.787,33.787,0,0,0,10.16-9.322c.459-.6.883-1.242,1.316-1.868-.8.282-1.6.562-2.446.831a38.226,38.226,0,0,1-3.888,1.021,35.032,35.032,0,0,1-4.045.613,38.778,38.778,0,0,1-8.122-.074,61.546,61.546,0,0,1-15.036-4.013c-4.7-1.807-9.13-3.827-13.528-5.589-2.212-.886-4.35-1.673-6.607-2.408-2.225-.748-4.453-1.445-6.655-1.981A39.224,39.224,0,0,0,38.68,84.8a25.362,25.362,0,0,0-6.443.334,30.358,30.358,0,0,0-6.183,1.756,32.525,32.525,0,0,0-5.011,2.6c.844-.164,1.692-.3,2.546-.4a35.965,35.965,0,0,1,17.287,2.337c1.39.526,2.575,1.053,3.907,1.647l3.794,1.756c2.507,1.165,4.969,2.366,7.5,3.384,1.262.51,2.539.973,3.833,1.374a39.561,39.561,0,0,0,3.945.979c.668.125,1.342.2,2.019.3.677.061,1.358.083,2.042.128l2.058-.058,2.054-.26-2.016.53-2.067.334c-.7.048-1.4.119-2.1.144-.7-.01-1.409.01-2.112-.029a38.4,38.4,0,0,1-8.311-1.515c-2.706-.764-5.355-1.685-7.948-2.642L43.589,96.1c-1.239-.424-2.632-.892-3.865-1.233a34.361,34.361,0,0,0-3.849-.88c-1.29-.234-2.584-.372-3.878-.482a30.6,30.6,0,0,0-7.672.449,28.126,28.126,0,0,0-7.191,2.382c-3.9,1.9-6.818,4.806-9.849,7.871Q3.89,107.64.5,111.071c-.157.161-.318.321-.475.482.786-.793,1.278-3.05,1.737-4.16C5.121,99.174,9.789,90.77,16.809,84.995Z" transform="translate(-0.02 -77.414)" fill="#fff"/>
        </g>
        <g id="Group_390" data-name="Group 390" transform="translate(28.68)">
          <circle id="Ellipse_29" data-name="Ellipse 29" cx="9.608" cy="9.608" r="9.608" fill="#fff"/>
        </g>
      </g>
      <g id="Group_61938" data-name="Group 61938" transform="translate(133.299 463.585)">
        <g id="Group_388" data-name="Group 388" transform="translate(0.545)">
          <path id="Path_434" data-name="Path 434" d="M446.087,30.992c-.821,0-1.547.019-2.156.06s-1,.057-1.2.057c-.1,0-.288-.006-.558-.019s-.609-.025-.992-.038-.792-.025-1.227-.041-.884-.019-1.335-.019c-.273,0-1.106,0-1.106.593a.577.577,0,0,0,.634.6c.149,0,.415.013.786.038a7.863,7.863,0,0,1,1.072.149,1.326,1.326,0,0,1,.989.834,9.017,9.017,0,0,1,.317,2.625l.418,19.274q-.38-.4-.894-.97c-.659-.723-1.423-1.563-2.3-2.511l-.621-.675c-.688-.751-1.411-1.537-2.168-2.368q-1.483-1.622-2.948-3.2-2.292-2.449-4.448-4.784t-3.9-4.194c-1.1-1.176-2.067-2.219-2.863-3.1-.51-.564-1.163-1.284-1.376-1.493s-.447-.466-.716-.777c-.352-.4-.628-.583-.891-.583-.184,0-.51.086-.643.659a8.059,8.059,0,0,0-.108,1.636l-.041,22.657a21.355,21.355,0,0,1-.212,3.693c-.12.59-.361.923-.767,1.03a3.294,3.294,0,0,1-.827.181c-.3.025-.536.038-.685.038a.559.559,0,0,0-.634.555c0,.238.124.634.948.634.894,0,1.718-.019,2.451-.06.713-.038,1.167-.06,1.347-.06.124,0,.463.01,1.366.06.745.041,1.7.06,2.824.06.85,0,1.03-.346,1.03-.634a.557.557,0,0,0-.634-.555c-.177,0-.456-.013-.831-.038a5,5,0,0,1-1.059-.184,1.231,1.231,0,0,1-.539-.317,1.7,1.7,0,0,1-.377-.685,6.886,6.886,0,0,1-.263-1.281c-.063-.533-.111-1.208-.136-2.007l-.491-18.063q.39.437.929,1.027,1.027,1.127,2.409,2.666t3.024,3.344c1.059,1.16,2.2,2.393,3.383,3.661,1.113,1.2,2.232,2.378,3.325,3.522q1.74,1.821,3.243,3.382c1,1.043,1.864,1.924,2.555,2.615s1.1,1.1,1.2,1.2l1.284,1.284c.33.33.605.6.827.786a3.367,3.367,0,0,0,.552.415.943.943,0,0,0,.45.136.518.518,0,0,0,.431-.206,1.058,1.058,0,0,0,.159-.5,8.267,8.267,0,0,0,.064-.865c.013-.371.019-.881.019-1.553l.079-23.17a9.368,9.368,0,0,1,.225-2.457c.079-.254.263-.605.992-.751a4.594,4.594,0,0,1,.533-.092c.133-.013.25-.019.346-.019.7,0,.751-.456.751-.6C447.117,31.191,446.771,30.992,446.087,30.992Z" transform="translate(-414.69 -28.221)" fill="#fff"/>
          <path id="Path_435" data-name="Path 435" d="M673.2,48.922a13.561,13.561,0,0,0-1.823-2.33,28.549,28.549,0,0,0-2.9-2.6l-1.11-.872c-.932-.726-1.718-1.382-2.33-1.959a11.834,11.834,0,0,1-1.446-1.576,4.556,4.556,0,0,1-.723-1.385,5.111,5.111,0,0,1-.2-1.471,3.874,3.874,0,0,1,1.294-3.138,4.84,4.84,0,0,1,3.252-1.129,8.211,8.211,0,0,1,2.169.244,5.62,5.62,0,0,1,1.4.577,2.951,2.951,0,0,1,.767.637,3.325,3.325,0,0,1,.336.488,2.89,2.89,0,0,1,.295.865c.089.428.149.758.174,1a3.638,3.638,0,0,0,.086.406.52.52,0,0,0,.542.371c.6,0,.6-.891.6-1.227,0-1.36.026-2.34.08-3,.07-.907.079-1.113.079-1.192,0-.288-.187-.593-.713-.593a3.649,3.649,0,0,1-.491-.038c-.184-.025-.463-.076-.812-.149a11.676,11.676,0,0,0-1.686-.3,19.131,19.131,0,0,0-2.073-.1,10.855,10.855,0,0,0-3.5.529,7.8,7.8,0,0,0-2.679,1.528,6.8,6.8,0,0,0-1.721,2.365,7.485,7.485,0,0,0-.6,3.015,9.426,9.426,0,0,0,.225,2.067,8.122,8.122,0,0,0,.821,2.1,12.044,12.044,0,0,0,1.6,2.213,23.733,23.733,0,0,0,2.606,2.444l1.775,1.461c.818.688,1.531,1.328,2.118,1.9a10.055,10.055,0,0,1,1.36,1.61,5.636,5.636,0,0,1,.732,1.572,6.716,6.716,0,0,1,.225,1.794,5.1,5.1,0,0,1-.336,1.788,4.586,4.586,0,0,1-.983,1.576,5.135,5.135,0,0,1-1.658,1.135,5.783,5.783,0,0,1-2.362.447,8.369,8.369,0,0,1-1.867-.209,5.9,5.9,0,0,1-1.671-.656,4.128,4.128,0,0,1-1.268-1.157,4.643,4.643,0,0,1-.736-1.75,6.172,6.172,0,0,1-.1-.77c-.013-.244-.019-.453-.019-.634,0-.7-.457-.751-.6-.751-.263,0-.583.162-.631.923-.026.317-.067.846-.117,1.585s-.079,1.629-.079,2.631a4.141,4.141,0,0,0,.092,1.138,1.117,1.117,0,0,0,.679.65,10.143,10.143,0,0,0,2.653.856,15.913,15.913,0,0,0,2.783.241,13.788,13.788,0,0,0,3.24-.384,8.384,8.384,0,0,0,2.913-1.335,7.341,7.341,0,0,0,1.756-1.674,9.145,9.145,0,0,0,1.065-1.864,8.441,8.441,0,0,0,.533-1.81,9.284,9.284,0,0,0,.142-1.474,11.087,11.087,0,0,0-.244-2.343A7.319,7.319,0,0,0,673.2,48.922Z" transform="translate(-581.217 -28.221)" fill="#fff"/>
          <path id="Path_436" data-name="Path 436" d="M746.088,31.135a.466.466,0,0,0-.491-.409,2.4,2.4,0,0,0-.463.067c-.181.038-.415.086-.7.136-.308.051-.691.1-1.141.136s-1,.057-1.614.057H726.855c-.228,0-.647-.019-1.284-.057s-1.237-.086-1.807-.139a3.077,3.077,0,0,1-1.049-.241A1.65,1.65,0,0,0,722,30.45c-.228,0-.4.165-.517.488-.066.181-.124.336-.181.479-.025.07-.066.225-.187.742-.092.4-.193.834-.3,1.309s-.2.923-.279,1.331a4.924,4.924,0,0,0-.124.834c0,.64.428.672.514.672.206,0,.491-.1.691-.6a4.059,4.059,0,0,1,.2-.422c.092-.171.241-.425.437-.745a2.158,2.158,0,0,1,.482-.517,2.1,2.1,0,0,1,.688-.323A6.455,6.455,0,0,1,724.5,33.5a13.106,13.106,0,0,1,1.528-.076l5.532-.076V49.75c0,1.9-.007,3.592-.019,5.078a33.024,33.024,0,0,1-.175,3.459,6.994,6.994,0,0,1-.32,1.4.745.745,0,0,1-.6.517,3.457,3.457,0,0,1-.545.108,4.371,4.371,0,0,1-.555.038.559.559,0,0,0-.634.555c0,.238.124.634.948.634.292,0,.653-.006,1.078-.019l1.227-.038c.4-.013.748-.025,1.052-.041s.469-.019.52-.019.225.006.52.019.688.025,1.151.041c.323.01.666.019,1.033.025l.491.013c.555.013,1.113.019,1.668.019.827,0,.948-.4.948-.634a.557.557,0,0,0-.634-.555c-.174,0-.441-.013-.786-.038a8.959,8.959,0,0,1-.951-.117,1.087,1.087,0,0,1-.938-.533,4.153,4.153,0,0,1-.33-1.369,31.823,31.823,0,0,1-.175-3.462c-.013-1.471-.019-3.18-.019-5.078V33.338l4.657.076a14.825,14.825,0,0,1,2.3.212,5.337,5.337,0,0,1,1.376.425,1.563,1.563,0,0,1,.647.555,1.623,1.623,0,0,1,.231.7l.041.434a1.925,1.925,0,0,0,.13.669.535.535,0,0,0,.5.295c.178,0,.6-.082.6-.831,0-.1.006-.33.019-.682s.025-.761.041-1.208l.038-1.344c.013-.45.019-.824.019-1.116C746.11,31.366,746.1,31.243,746.088,31.135Z" transform="translate(-623.494 -28.228)" fill="#fff"/>
          <path id="Path_437" data-name="Path 437" d="M564.789,29.371a16.756,16.756,0,0,0-12.81-5.931,17.126,17.126,0,0,0-12.512,5.031,16.286,16.286,0,0,0-5.066,11.91,16.706,16.706,0,0,0,5.1,12.053,16.364,16.364,0,0,0,11.983,5.174h.641a16.3,16.3,0,0,0,12.455-5.646l.082-.092V47.089l-.58.859a16.516,16.516,0,0,1-5.474,5.123,14.714,14.714,0,0,1-7.478,1.912c-2.669,0-5.494-1.144-8.4-3.4l22.267-21.985Zm-3.826.228L540.772,49.65a14.28,14.28,0,0,1-3.468-9.482,13.57,13.57,0,0,1,4.277-9.827,13.531,13.531,0,0,1,9.793-4.276A14.57,14.57,0,0,1,560.962,29.6Z" transform="translate(-496.451 -23.44)" fill="#fff"/>
        </g>
        <g id="Group_389" data-name="Group 389" transform="translate(0 37.866)">
          <path id="Path_438" data-name="Path 438" d="M435.278,161.326a2.119,2.119,0,0,1-1.322-.561,2.232,2.232,0,0,1-.355-1.423l-.33-9.168-.082-3.3a6.486,6.486,0,0,1,.273-2.225,1.221,1.221,0,0,1,.9-.786l.586-.149a.429.429,0,0,0,.364-.437.352.352,0,0,0-.406-.387c-.1.009-.228.019-.4.029-.342.035-.8.054-1.369.054-.178,0-.327,0-.438-.013-.326-.035-.536-.054-.615-.054a.609.609,0,0,0-.447.136,2.347,2.347,0,0,0-.33.574L424.88,157.4l-.285.64a1.708,1.708,0,0,1-.086.159,1.78,1.78,0,0,1-.124-.257l-.7-1.407-5.706-12.306-.149-.314c-.285-.618-.653-.932-1.094-.932a3.9,3.9,0,0,0-.517.041c-.193.019-.669.029-1.411.029a8.587,8.587,0,0,1-.919-.029c-.225-.019-.377-.029-.463-.029-.292,0-.46.152-.46.415,0,.168.089.384.507.45a2.784,2.784,0,0,1,2.067,1.385,7.705,7.705,0,0,1,.628,3.554c0,.751-.067,2.533-.206,5.443l-.193,3.972a5.692,5.692,0,0,1-.463,2.33,1.9,1.9,0,0,1-1.316.875c-.368.076-.425.288-.425.409,0,.155.07.412.529.412a3.047,3.047,0,0,0,.441-.041,14.6,14.6,0,0,1,1.9-.12c.552,0,1.341.044,2.349.136a4.551,4.551,0,0,0,.52.029c.447,0,.514-.266.514-.428,0-.333-.533-.456-.935-.52-1.075-.165-1.594-1-1.594-2.552,0-1.69.013-2.78.041-3.335l.292-6.293,4.942,10.664.276.58c.2.38.342.656.38.745.222.5.463.742.732.742s.488-.235.688-.71c.048-.1.127-.273.244-.517.209-.409.46-.942.742-1.579q1.041-2.325,1.151-2.568l1.4-2.872,1.22-2.609c.231-.476.682-1.3,1.341-2.463l.339,8.283.054,2.229a3.775,3.775,0,0,1-.26,1.667,1.544,1.544,0,0,1-1.008.656c-.355.1-.428.282-.428.422s.067.358.514.358c.149,0,.688-.025,1.648-.076.6-.041,1.043-.06,1.328-.06a11.343,11.343,0,0,1,1.135.054l1.068.111c.13.01.247.016.349.016.517,0,.624-.212.624-.387C436.105,161.484,435.633,161.376,435.278,161.326Z" transform="translate(-412.97 -142.888)" fill="#fff"/>
          <path id="Path_439" data-name="Path 439" d="M501.584,177.021a1.87,1.87,0,0,0-.352.06,1.809,1.809,0,0,1-.3.022.974.974,0,0,1-.929-.482,3.809,3.809,0,0,1-.292-1.753v-5.361a2.954,2.954,0,0,0-1.072-2.425,4.627,4.627,0,0,0-2.964-.853,4.383,4.383,0,0,0-3.357,1.36,2.922,2.922,0,0,0-.948,1.908c0,.266.2.5.587.707a2.6,2.6,0,0,0,1.217.285.4.4,0,0,0,.308-.108.339.339,0,0,0,.082-.263,1.927,1.927,0,0,0-.1-.46,3.523,3.523,0,0,1-.171-1c0-.942.552-1.4,1.69-1.4a2.742,2.742,0,0,1,2.051.783,2.983,2.983,0,0,1,.555,2.08v1.585a14.067,14.067,0,0,0-4.793,1.389,2.845,2.845,0,0,0-1.49,2.546,2.512,2.512,0,0,0,.8,1.94,3.047,3.047,0,0,0,2.124.723,6.269,6.269,0,0,0,3.646-1.455,2.563,2.563,0,0,0,2.061,1.344,3.442,3.442,0,0,0,1.281-.263c.479-.193.707-.384.72-.6a.3.3,0,0,0-.076-.238A.37.37,0,0,0,501.584,177.021Zm-7.1-3.6a6.872,6.872,0,0,1,3.094-.929v2.58a1.957,1.957,0,0,1-.441,1.423,2.548,2.548,0,0,1-1.835.716,1.785,1.785,0,0,1-1.924-1.924A2.176,2.176,0,0,1,494.486,173.42Z" transform="translate(-466.469 -158.83)" fill="#fff"/>
          <path id="Path_440" data-name="Path 440" d="M535.24,171.357l-.849.384a2.923,2.923,0,0,1-1.357.288,2.009,2.009,0,0,1-1.515-.552,2.6,2.6,0,0,1-.349-1.655v-6.765H534.3a.706.706,0,0,0,.714-.476l.314-.78a1.175,1.175,0,0,0,.133-.384.272.272,0,0,0-.073-.231.226.226,0,0,0-.2-.048.881.881,0,0,0-.349.184,1.553,1.553,0,0,1-.865.2h-2.793l.054-2.248c0-.412-.2-.475-.31-.475-.13,0-.285.111-.621.659a11.938,11.938,0,0,1-2.428,2.691c-.272.231-.4.415-.4.583,0,.12.06.327.475.327h1.1v6.784c0,2.257,1.1,3.4,3.268,3.4a4.8,4.8,0,0,0,2.064-.536c.773-.374,1.151-.726,1.151-1.078A.264.264,0,0,0,535.24,171.357Z" transform="translate(-491.173 -153.756)" fill="#fff"/>
          <path id="Path_441" data-name="Path 441" d="M562.018,166.182a2.213,2.213,0,0,0-1.186-.529c-.885,0-1.807.726-2.812,2.213v-1.636l.013-.266a.65.65,0,0,0-.152-.485.4.4,0,0,0-.295-.1,1.048,1.048,0,0,0-.365.127,7.34,7.34,0,0,1-2.986,1.186,1.909,1.909,0,0,0-.336.051.384.384,0,0,0-.279.365c0,.254.158.4.437.4l.463-.013c.932,0,1.388.475,1.388,1.455v5.871a4.225,4.225,0,0,1-.162,1.525.917.917,0,0,1-.672.441c-.345.067-.52.209-.52.425a.36.36,0,0,0,.1.273.487.487,0,0,0,.355.114h.041c.092-.01.26-.032.5-.07a11.675,11.675,0,0,1,1.506-.067l1.591.013c.326,0,.58.009.755.025.5.06.615.07.659.07.453,0,.5-.276.5-.393,0-.162-.1-.365-.548-.393l-.71-.054a1.206,1.206,0,0,1-.986-.5,3.106,3.106,0,0,1-.288-1.569v-4.876a2.025,2.025,0,0,1,.526-1.423,1.7,1.7,0,0,1,1.306-.564,1.851,1.851,0,0,1,1.053.393c.491.32.6.349.672.349h0c.111-.01.295-.082.726-.606s.472-.716.463-.837C562.763,166.838,562.518,166.549,562.018,166.182Z" transform="translate(-509.033 -158.249)" fill="#fff"/>
          <path id="Path_442" data-name="Path 442" d="M592.08,151.51c.231,0,.514-.2.862-.605a1.586,1.586,0,0,0,.5-.957.735.735,0,0,0-.155-.409l-.33-.523c-.254-.409-.507-.605-.777-.605-.225,0-.5.19-.866.6a1.146,1.146,0,0,0-.05,1.9C591.592,151.32,591.852,151.51,592.08,151.51Z" transform="translate(-534.412 -146.659)" fill="#fff"/>
          <path id="Path_443" data-name="Path 443" d="M591.707,176.679l-.625-.067a1.12,1.12,0,0,1-.812-.371,2.591,2.591,0,0,1-.193-1.239V165.78c0-.371-.181-.441-.288-.447l-.032,0-.761.358a14.8,14.8,0,0,1-1.934.869c-.536.168-.77.317-.783.507a.259.259,0,0,0,.07.2.756.756,0,0,0,.555.146c.437,0,.723.1.843.288a2.952,2.952,0,0,1,.2,1.414v5.96a2.891,2.891,0,0,1-.162,1.138.855.855,0,0,1-.536.457l-.263.082a.417.417,0,0,0-.327.409c0,.111.048.371.488.371a4.955,4.955,0,0,0,.517-.044c.092-.016.225-.028.409-.041l.992-.054.881.016c.4,0,.71.01.948.032.447.044.742.063.9.063.406,0,.482-.212.488-.342C592.3,176.974,592.208,176.746,591.707,176.679Z" transform="translate(-531.338 -158.216)" fill="#fff"/>
          <path id="Path_444" data-name="Path 444" d="M629.173,176.631a1.8,1.8,0,0,1-1.274-.558,2.363,2.363,0,0,1-.383-1.484v-4.41a4.991,4.991,0,0,0-1.065-3.382,3.778,3.778,0,0,0-2.983-1.224,4.693,4.693,0,0,0-3.741,1.962,4.444,4.444,0,0,0-1.389-1.48,3.888,3.888,0,0,0-2.032-.482,4.614,4.614,0,0,0-3.493,1.648v-1.338c0-.415-.108-.624-.324-.624-.073,0-.209.038-.7.317a10.873,10.873,0,0,1-2.6,1.043c-.276.082-.415.216-.415.4a.248.248,0,0,0,.13.235.5.5,0,0,0,.3.1h.6a.716.716,0,0,1,.685.311,2.9,2.9,0,0,1,.2,1.293v6.121a2.427,2.427,0,0,1-.162,1.116,1.286,1.286,0,0,1-.742.441c-.317.1-.384.285-.384.422a.322.322,0,0,0,.1.25.473.473,0,0,0,.377.1c.1-.013.269-.032.507-.063.184-.019.339-.032.469-.032l.932-.016h.919a9.407,9.407,0,0,1,1.125.041c.314.038.536.06.669.07h.038a.44.44,0,0,0,.317-.1.335.335,0,0,0,.1-.254c0-.171-.092-.384-.529-.425a2.027,2.027,0,0,1-1.249-.485,1.732,1.732,0,0,1-.358-1.214v-5.877a1.881,1.881,0,0,1,.7-1.534,2.844,2.844,0,0,1,1.87-.593,2.526,2.526,0,0,1,1.965.786,3.152,3.152,0,0,1,.713,2.184v5.072a3.373,3.373,0,0,1-.124,1.278c-.044.079-.206.244-.8.457-.269.1-.327.244-.327.352s.045.358.447.358a3.041,3.041,0,0,0,.441-.041c.317-.044,1.11-.067,2.356-.067a12.389,12.389,0,0,1,1.281.082c.215.019.358.029.45.029.45,0,.517-.228.517-.365,0-.168-.1-.377-.561-.418a1.792,1.792,0,0,1-1.24-.453,2.2,2.2,0,0,1-.32-1.376v-4.948a5.851,5.851,0,0,0-.086-.97,1.846,1.846,0,0,1-.038-.32c0-.38.266-.758.8-1.119a3.009,3.009,0,0,1,1.709-.555,2.471,2.471,0,0,1,2.1.98,4.552,4.552,0,0,1,.761,2.8v4.473l-.013.469a1.014,1.014,0,0,1-.155.634,1.9,1.9,0,0,1-.742.418c-.273.108-.317.263-.308.371s.063.38.488.38a3.151,3.151,0,0,0,.425-.048c.3-.041,1.056-.06,2.251-.06a9.617,9.617,0,0,1,1.347.067,3.3,3.3,0,0,0,.441.041c.4,0,.447-.25.447-.358C629.607,176.9,629.55,176.663,629.173,176.631Z" transform="translate(-546.699 -158.168)" fill="#fff"/>
          <path id="Path_445" data-name="Path 445" d="M684.621,166.24a6.083,6.083,0,0,0-4.4,1.778,6.151,6.151,0,0,0-.1,8.619,5.989,5.989,0,0,0,4.362,1.683,6.162,6.162,0,0,0,4.476-1.731,5.884,5.884,0,0,0,1.772-4.378,5.71,5.71,0,0,0-1.8-4.207A5.959,5.959,0,0,0,684.621,166.24ZM688.555,173a5.243,5.243,0,0,1-.951,3.306,3.114,3.114,0,0,1-2.577,1.2,3.822,3.822,0,0,1-3.151-1.712,7.052,7.052,0,0,1-1.281-4.3,4.951,4.951,0,0,1,1.018-3.243,3.294,3.294,0,0,1,2.66-1.224,3.663,3.663,0,0,1,3.075,1.648A7.238,7.238,0,0,1,688.555,173Z" transform="translate(-594.263 -158.837)" fill="#fff"/>
          <path id="Path_446" data-name="Path 446" d="M736.4,176.66l-.574-.082a1.1,1.1,0,0,1-1.049-.945l-.041-.647.013-3.69a6.643,6.643,0,0,0-.9-3.823,4.158,4.158,0,0,0-3.56-1.845,5.052,5.052,0,0,0-3.687,1.978v-1.23c0-.2,0-.371.013-.514a.557.557,0,0,0-.1-.428.306.306,0,0,0-.234-.1.809.809,0,0,0-.38.12c-.073.035-.25.124-.532.26l-.723.355a6.887,6.887,0,0,1-1.737.552c-.3.06-.45.19-.45.384a.316.316,0,0,0,.181.3.557.557,0,0,0,.282.073l.586-.016a.868.868,0,0,1,.777.3,2.494,2.494,0,0,1,.213,1.252V175.1a2.013,2.013,0,0,1-.219,1.081,1.734,1.734,0,0,1-.885.558q-.314.128-.333.371a.326.326,0,0,0,.076.25.377.377,0,0,0,.285.1c.092,0,.279-.016.564-.048s1.147-.06,2.584-.06c.679,0,1.109.01,1.268.029a4.728,4.728,0,0,0,.72.079c.39,0,.434-.26.434-.371,0-.165-.1-.371-.564-.412-1.163-.07-1.75-.447-1.791-1.148l-.028-6.318a1.791,1.791,0,0,1,.837-1.439,3.172,3.172,0,0,1,1.953-.647,3,3,0,0,1,2.406.989,4.3,4.3,0,0,1,.849,2.853v4.717c0,.507-.149.793-.46.869l-.406.108a.379.379,0,0,0-.339.384.335.335,0,0,0,.152.314l.244.06.406-.029h.523l1.347-.041a14.529,14.529,0,0,1,1.652.06,5.057,5.057,0,0,0,.549.048.637.637,0,0,0,.476-.146.369.369,0,0,0,.1-.273C736.881,176.9,736.789,176.714,736.4,176.66Z" transform="translate(-624.349 -158.222)" fill="#fff"/>
          <path id="Path_447" data-name="Path 447" d="M776.486,167.155c-.1,0-.307.009-.621.025-.266.019-.745.029-1.423.029-.615,0-1.024-.01-1.217-.029l-.548-.041a.4.4,0,0,0-.3.092.349.349,0,0,0-.1.266c0,.146.073.336.419.412a2.5,2.5,0,0,1,1.109.469,1.2,1.2,0,0,1,.266.865,4.738,4.738,0,0,1-.323,1.576l-1.962,5.367-2.577-6.125a4.359,4.359,0,0,1-.431-1.474c0-.114,0-.46.72-.567.39-.057.84-.162.84-.466a.361.361,0,0,0-.1-.273.478.478,0,0,0-.346-.114c-.117,0-.289.006-.539.029-.349.025-.954.041-1.794.041-.679,0-1.151-.013-1.366-.041-.292-.029-.539-.041-.735-.041-.447,0-.514.257-.514.412q0,.262.39.371a1.35,1.35,0,0,1,.688.387,4.294,4.294,0,0,1,.59,1.065l3.437,7.976a5.446,5.446,0,0,1,.51,1.585,4.744,4.744,0,0,1-.7,2.051,9.673,9.673,0,0,1-1.642,2.229.514.514,0,0,0-.2.355c0,.228.295.317,1.049.317a3.753,3.753,0,0,0,1-.06c.139-.051.247-.206.333-.488l.133-.434,4.847-13.657a3.083,3.083,0,0,1,.45-.894,1.794,1.794,0,0,1,.716-.434c.238-.1.358-.244.358-.418C776.891,167.406,776.853,167.155,776.486,167.155Z" transform="translate(-653.362 -159.451)" fill="#fff"/>
        </g>
      </g>
    </g>
    <g id="Group_66612" data-name="Group 66612" transform="translate(-2 1)">
      <path id="Path_37797" data-name="Path 37797" d="M-1.928,0V-5.96h2.1a2.3,2.3,0,0,1,1.04.224,1.676,1.676,0,0,1,.7.64,1.847,1.847,0,0,1,.252.976,1.773,1.773,0,0,1-.32,1.072,1.765,1.765,0,0,1-.864.632L2.368,0H1.456L0-2.584l.52.3H-1.144V0Zm.784-3H.2a1.327,1.327,0,0,0,.616-.136.99.99,0,0,0,.412-.392,1.161,1.161,0,0,0,.148-.592,1.156,1.156,0,0,0-.148-.6A1,1,0,0,0,.816-5.1,1.327,1.327,0,0,0,.2-5.24H-1.144Z" transform="translate(250 417)" fill="#fff"/>
      <g id="Ellipse_63415" data-name="Ellipse 63415" transform="translate(244 408)" fill="none" stroke="#fff" stroke-width="0.8">
        <circle cx="6" cy="6" r="6" stroke="none"/>
        <circle cx="6" cy="6" r="5.6" fill="none"/>
      </g>
    </g>
  </g>
</svg>
