<svg xmlns="http://www.w3.org/2000/svg" xmlns:xlink="http://www.w3.org/1999/xlink" width="113" height="97" viewBox="0 0 113 97">
  <defs>
    <linearGradient id="linear-gradient" x1="1.163" y1="-0.214" x2="0.5" y2="0.637" gradientUnits="objectBoundingBox">
      <stop offset="0" stop-color="#e664aa"/>
      <stop offset="1" stop-color="#950053"/>
    </linearGradient>
    <filter id="Rectangle_19176" x="-21" y="-21" width="155" height="139" filterUnits="userSpaceOnUse">
      <feOffset input="SourceAlpha"/>
      <feGaussianBlur stdDeviation="7" result="blur"/>
      <feFlood flood-opacity="0.082"/>
      <feComposite operator="in" in2="blur"/>
      <feComposite in="SourceGraphic"/>
    </filter>
    <clipPath id="clip-path">
      <g transform="matrix(1, 0, 0, 1, 0, 0)" filter="url(#Rectangle_19176)">
        <rect id="Rectangle_19176-2" data-name="Rectangle 19176" width="113" height="97" rx="12" transform="translate(161 576)" fill="url(#linear-gradient)"/>
      </g>
    </clipPath>
  </defs>
  <g id="Mask_Group_25455" data-name="Mask Group 25455" transform="translate(-161 -576)" clip-path="url(#clip-path)">
    <path id="Union_25" data-name="Union 25" d="M82.037,67a46.145,46.145,0,0,1-8.288-.884,61.986,61.986,0,0,1-7.893-2.044c-2.57-.826-5.043-1.849-7.5-2.882l-3.646-1.67L51.2,57.795c-2.278-1.131-4.586-2.2-6.936-3.151a67.233,67.233,0,0,0-7.149-2.56,49.377,49.377,0,0,0-7.384-1.657,37.1,37.1,0,0,0-7.536-.41A26.484,26.484,0,0,0,14.789,51.5a15.859,15.859,0,0,0-6.406,4.119,16.371,16.371,0,0,1,6-5.046,25.446,25.446,0,0,1,7.6-2.449,43.78,43.78,0,0,1,15.956.636,71.459,71.459,0,0,1,7.73,2.015c2.546.783,5.015,1.757,7.472,2.759l3.6,1.461,3.542,1.326c2.4.815,4.79,1.611,7.214,2.209a49.154,49.154,0,0,0,14.477,1.9,28.666,28.666,0,0,0,13.24-3.642A34.185,34.185,0,0,0,105.5,47.354c.464-.611.894-1.259,1.333-1.892-.806.287-1.621.569-2.477.842a38.572,38.572,0,0,1-3.935,1.034,35.274,35.274,0,0,1-4.095.62,39.187,39.187,0,0,1-8.222-.075,62.308,62.308,0,0,1-15.221-4.061c-4.754-1.829-9.243-3.873-13.694-5.656-2.239-.9-4.4-1.693-6.689-2.437-2.251-.757-4.507-1.462-6.736-2a39.84,39.84,0,0,0-6.627-1.1,25.648,25.648,0,0,0-6.521.339,30.776,30.776,0,0,0-6.259,1.776,33.111,33.111,0,0,0-5.073,2.632c.854-.166,1.713-.308,2.577-.407a36.419,36.419,0,0,1,17.5,2.366c1.407.532,2.606,1.065,3.954,1.666l3.841,1.777c2.538,1.179,5.031,2.394,7.588,3.424,1.278.517,2.571.985,3.88,1.391a40,40,0,0,0,3.993.99c.676.126,1.359.2,2.044.3.686.061,1.376.085,2.067.131l2.083-.059,2.081-.262-2.041.535-2.094.338c-.705.048-1.414.121-2.129.147-.708-.01-1.426.01-2.138-.029a38.926,38.926,0,0,1-8.414-1.533c-2.74-.773-5.421-1.706-8.047-2.674l-3.925-1.4c-1.255-.429-2.666-.9-3.912-1.247a34.745,34.745,0,0,0-3.9-.89c-1.306-.238-2.616-.378-3.926-.487A30.939,30.939,0,0,0,24.6,41.9a28.548,28.548,0,0,0-7.278,2.411c-3.95,1.927-6.9,4.863-9.971,7.967Q3.917,55.741.481,59.216c-.159.161-.322.324-.48.487.8-.8,1.294-3.088,1.758-4.211C5.163,47.175,9.888,38.669,17,32.824q1.047-.861,2.17-1.646a35.405,35.405,0,0,1,24.65-5.731q1.856.228,3.689.621c2.571.545,5.037,1.234,7.47,1.97,2.406.747,4.869,1.628,7.205,2.538,7.325,2.85,14.624,6.739,22.374,8.258a41.865,41.865,0,0,0,30.08-5.867l11.735-6.745-6.052,12.063A77.4,77.4,0,0,1,111.6,52.116a41.676,41.676,0,0,1-12.9,11.04,31.869,31.869,0,0,1-8.154,3A37.128,37.128,0,0,1,82.557,67Zm-53-57.273a9.727,9.727,0,1,1,9.726,9.725A9.726,9.726,0,0,1,29.033,9.725Z" transform="translate(166 592)" opacity="0.107"/>
  </g>
</svg>
