<svg xmlns="http://www.w3.org/2000/svg" xmlns:xlink="http://www.w3.org/1999/xlink" width="73.664" height="71.386" viewBox="0 0 73.664 71.386">
  <defs>
    <clipPath id="clip-path">
      <path id="Path_91260" data-name="Path 91260" d="M51.407,60.417H11.892A11.892,11.892,0,0,1,0,48.526V25.978a11.894,11.894,0,0,1,4.865-9.595L24.1,2.3a11.892,11.892,0,0,1,13.86-.136L58.242,16.4A11.892,11.892,0,0,1,63.3,26.134V48.526A11.892,11.892,0,0,1,51.407,60.417" transform="translate(29.366 394)" fill="#950553"/>
    </clipPath>
    <linearGradient id="linear-gradient" x1="0.692" y1="1" x2="0.279" y2="0.187" gradientUnits="objectBoundingBox">
      <stop offset="0" stop-color="#e499c3"/>
      <stop offset="1" stop-color="#ffeaf6"/>
    </linearGradient>
  </defs>
  <g id="Group_67059" data-name="Group 67059" transform="translate(-20.867 -383.032)">
    <path id="Path_91263" data-name="Path 91263" d="M51.407,60.417H11.892A11.892,11.892,0,0,1,0,48.526V25.978a11.894,11.894,0,0,1,4.865-9.595L24.1,2.3a11.892,11.892,0,0,1,13.86-.136L58.242,16.4A11.892,11.892,0,0,1,63.3,26.134V48.526A11.892,11.892,0,0,1,51.407,60.417" transform="translate(20.867 395.109) rotate(-11)" fill="#fdb7df"/>
    <path id="Path_91258" data-name="Path 91258" d="M51.407,60.417H11.892A11.892,11.892,0,0,1,0,48.526V25.978a11.894,11.894,0,0,1,4.865-9.595L24.1,2.3a11.892,11.892,0,0,1,13.86-.136L58.242,16.4A11.892,11.892,0,0,1,63.3,26.134V48.526A11.892,11.892,0,0,1,51.407,60.417" transform="translate(29.366 394)" fill="#950553"/>
    <g id="Mask_Group_25460" data-name="Mask Group 25460" opacity="0.6" clip-path="url(#clip-path)">
      <g id="Group_67051" data-name="Group 67051">
        <ellipse id="Ellipse_63513" data-name="Ellipse 63513" cx="26.564" cy="26.563" rx="26.564" ry="26.563" transform="translate(65.907 428.555) rotate(142)" fill="#d86da9"/>
        <ellipse id="Ellipse_63514" data-name="Ellipse 63514" cx="23.311" cy="23.311" rx="23.311" ry="23.311" transform="translate(88.761 399.692) rotate(142)" fill="#b5538a"/>
      </g>
    </g>
    <path id="Union_28" data-name="Union 28" d="M7.187,27.846a3.431,3.431,0,0,1-3.5-4.16c.264-1.941.525-3.884.819-5.82a2.777,2.777,0,0,1,2.065-2.347,17.614,17.614,0,0,0,2.322-.856A5.8,5.8,0,0,0,12.13,9.9c.038-.281.078-.562.126-.915a32.6,32.6,0,0,1,8.806,0c.1.615.168,1.182.3,1.733A6.006,6.006,0,0,0,25.6,15.183c.389.136.795.223,1.188.349A2.8,2.8,0,0,1,28.848,18c.254,1.871.506,3.742.789,5.609a3.448,3.448,0,0,1-3.47,4.234H7.187Zm9.469-13.067a4.234,4.234,0,1,0,.007,0Zm9.636-3.091a2.758,2.758,0,0,1-1.8-2.725,11.153,11.153,0,0,1-.011-1.123,1.52,1.52,0,0,0-1.081-1.731,17.218,17.218,0,0,0-2.991-.727,25.871,25.871,0,0,0-4.446-.3c-1.279.035-2.968.368-4.789.589a3.875,3.875,0,0,0-.889.261c-1.169.445-1.427.841-1.425,2.14,0,.054,0,.107,0,.161-.014,2.364-.645,3.255-2.859,3.812a12.366,12.366,0,0,1-2.8.382,2.754,2.754,0,0,1-2.994-2.5A16.26,16.26,0,0,1,0,6.955,2.937,2.937,0,0,1,1,4.962,12.843,12.843,0,0,1,5.755,1.949a29.875,29.875,0,0,1,12.8-1.9A27.844,27.844,0,0,1,27.5,1.915a15.591,15.591,0,0,1,4.213,2.432,4.04,4.04,0,0,1,1.621,3.963,16.2,16.2,0,0,1-.354,2.1,2.65,2.65,0,0,1-2.561,2.026q-.24.013-.479.013A9.455,9.455,0,0,1,26.292,11.688Z" transform="translate(44.32 415.209)" fill="url(#linear-gradient)"/>
  </g>
</svg>
