<svg xmlns="http://www.w3.org/2000/svg" xmlns:xlink="http://www.w3.org/1999/xlink" width="69.894" height="64.092" viewBox="0 0 69.894 64.092">
  <defs>
    <linearGradient id="linear-gradient" x1="0.429" y1="1" x2="0.401" y2="0.5" gradientUnits="objectBoundingBox">
      <stop offset="0" stop-color="#e499c3"/>
      <stop offset="1" stop-color="#ffeaf6"/>
    </linearGradient>
    <clipPath id="clip-path">
      <path id="Path_91254" data-name="Path 91254" d="M46.614,0C41.1,0,35.172,1.129,31.076,4.238,26.981,1.129,21.048,0,15.539,0A30.564,30.564,0,0,0,3.447,2.231,5.759,5.759,0,0,0,0,7.458V47.325A5.636,5.636,0,0,0,7.007,52.8a34.926,34.926,0,0,1,8.532-1.017,29.876,29.876,0,0,1,12.882,2.6,5.8,5.8,0,0,0,5.282,0,29.479,29.479,0,0,1,12.882-2.6A34.938,34.938,0,0,1,55.119,52.8a5.608,5.608,0,0,0,7-5.479V7.458a5.757,5.757,0,0,0-3.445-5.227A30.339,30.339,0,0,0,46.614,0" transform="translate(99 329.533)" fill="#950553"/>
    </clipPath>
    <clipPath id="clip-path-2">
      <rect id="Rectangle_19193" data-name="Rectangle 19193" width="40.001" height="28.005" transform="translate(0 0.001)" fill="url(#linear-gradient)"/>
    </clipPath>
  </defs>
  <g id="Group_67057" data-name="Group 67057" transform="translate(-18.867 -190.419)">
    <path id="Path_91254-2" data-name="Path 91254" d="M46.614,0C41.1,0,35.172,1.129,31.076,4.238,26.981,1.129,21.048,0,15.539,0A30.564,30.564,0,0,0,3.447,2.231,5.759,5.759,0,0,0,0,7.458V47.325A5.636,5.636,0,0,0,7.007,52.8a34.926,34.926,0,0,1,8.532-1.017,29.876,29.876,0,0,1,12.882,2.6,5.8,5.8,0,0,0,5.282,0,29.479,29.479,0,0,1,12.882-2.6A34.938,34.938,0,0,1,55.119,52.8a5.608,5.608,0,0,0,7-5.479V7.458a5.757,5.757,0,0,0-3.445-5.227A30.339,30.339,0,0,0,46.614,0" transform="translate(18.867 197.99) rotate(-7)" fill="#fdb7df"/>
    <g id="Group_67043" data-name="Group 67043" transform="translate(-72.363 -130.045)">
      <path id="Path_91253" data-name="Path 91253" d="M46.614,0C41.1,0,35.172,1.129,31.076,4.238,26.981,1.129,21.048,0,15.539,0A30.564,30.564,0,0,0,3.447,2.231,5.759,5.759,0,0,0,0,7.458V47.325A5.636,5.636,0,0,0,7.007,52.8a34.926,34.926,0,0,1,8.532-1.017,29.876,29.876,0,0,1,12.882,2.6,5.8,5.8,0,0,0,5.282,0,29.479,29.479,0,0,1,12.882-2.6A34.938,34.938,0,0,1,55.119,52.8a5.608,5.608,0,0,0,7-5.479V7.458a5.757,5.757,0,0,0-3.445-5.227A30.339,30.339,0,0,0,46.614,0" transform="translate(99 329.533)" fill="#950553"/>
      <rect id="Rectangle_19197" data-name="Rectangle 19197" width="29.32" height="22.193" transform="translate(113.161 350)" fill="none"/>
      <g id="Mask_Group_25458" data-name="Mask Group 25458" clip-path="url(#clip-path)">
        <g id="Group_67042" data-name="Group 67042" transform="translate(124.126 244.536) rotate(30)" opacity="0.6">
          <g id="Group_67041" data-name="Group 67041" transform="translate(57.726)">
            <path id="Path_91248" data-name="Path 91248" d="M-1561.794,12786.378l54.172,11.3c0,.553-2.954-74.814-2.954-74.814l-51.218-17.041-2.3,2.879Z" transform="translate(1564.098 -12701.977)" fill="#b5538a"/>
            <path id="Path_91249" data-name="Path 91249" d="M-1561.794,12797.145l60.247-9.588c0,.553-2.954-74.812-2.954-74.812l-57.294,3.846-2.3,2.879Z" transform="translate(1564.098 -12712.744)" fill="#d86da9"/>
          </g>
          <g id="Group_67040" data-name="Group 67040" transform="translate(0)">
            <path id="Path_91251" data-name="Path 91251" d="M-1509.926,12786.378l-54.172,11.3c0,.553,2.954-74.814,2.954-74.814l51.219-17.041,2.3,2.879Z" transform="translate(1570.173 -12701.977)" fill="#b5538a"/>
            <path id="Path_91250" data-name="Path 91250" d="M-1503.85,12797.145l-60.248-9.588c0,.553,2.954-74.812,2.954-74.812l57.294,3.846,2.3,2.879Z" transform="translate(1564.098 -12712.744)" fill="#d86da9"/>
          </g>
        </g>
      </g>
      <g id="Group_67038" data-name="Group 67038" transform="translate(110.061 343.041)">
        <g id="Group_67037" data-name="Group 67037" clip-path="url(#clip-path-2)">
          <path id="Path_91246" data-name="Path 91246" d="M20,0A4.44,4.44,0,0,0,18.52.256L.989,6.588a1.5,1.5,0,0,0,0,2.825l3.618,1.306A10.288,10.288,0,0,0,3,16.244V18a11.854,11.854,0,0,1-1.394,5.05A16.443,16.443,0,0,1,.2,25.4a1.009,1.009,0,0,0-.144.938,1,1,0,0,0,.7.637l4,1a.994.994,0,0,0,.775-.125.98.98,0,0,0,.444-.65,16.123,16.123,0,0,0-.131-6.794A13.85,13.85,0,0,0,5,17.781V16.244A8.3,8.3,0,0,1,6.745,11.15,7.624,7.624,0,0,1,9.82,8.919l9.812-3.856a1,1,0,1,1,.732,1.856l-9.813,3.856a5.73,5.73,0,0,0-2.012,1.35l9.974,3.6a4.415,4.415,0,0,0,2.963,0L39.014,9.413a1.5,1.5,0,0,0,0-2.825L21.482.256A4.44,4.44,0,0,0,20,0M8,23.5C8,25.706,13.376,28,20,28s12-2.294,12-4.5l-.956-9.087-8.888,3.212a6.385,6.385,0,0,1-4.312,0L8.957,14.413Z" fill="url(#linear-gradient)"/>
        </g>
      </g>
    </g>
  </g>
</svg>
