<svg xmlns="http://www.w3.org/2000/svg" xmlns:xlink="http://www.w3.org/1999/xlink" width="53.343" height="57.281" viewBox="0 0 53.343 57.281">
  <defs>
    <clipPath id="clip-path">
      <path id="Icon_material-location-on" data-name="Icon material-location-on" d="M28.246,3A20.731,20.731,0,0,0,7.5,23.746c0,15.56,20.746,32.232,20.746,32.232S48.992,39.306,48.992,23.746A20.731,20.731,0,0,0,28.246,3Zm0,28.155a7.409,7.409,0,1,1,7.409-7.409A7.412,7.412,0,0,1,28.246,31.155Z" transform="translate(159.254 337.066)" fill="#950553"/>
    </clipPath>
    <linearGradient id="linear-gradient" x1="0.742" y1="1" x2="0.148" y2="0.133" gradientUnits="objectBoundingBox">
      <stop offset="0" stop-color="#e499c3"/>
      <stop offset="1" stop-color="#ffeaf6"/>
    </linearGradient>
  </defs>
  <g id="Group_66992" data-name="Group 66992" transform="translate(-171.421 -331.338)">
    <g id="Group_66988" data-name="Group 66988" transform="translate(4.667 -8.729)">
      <path id="Icon_material-location-on-2" data-name="Icon material-location-on" d="M28.246,3A20.731,20.731,0,0,0,7.5,23.746c0,15.56,20.746,32.232,20.746,32.232S48.992,39.306,48.992,23.746A20.731,20.731,0,0,0,28.246,3Zm0,28.155a7.409,7.409,0,1,1,7.409-7.409A7.412,7.412,0,0,1,28.246,31.155Z" transform="translate(159.254 337.066)" fill="#950553"/>
      <g id="Mask_Group_25436" data-name="Mask Group 25436" clip-path="url(#clip-path)">
        <g id="Group_66987" data-name="Group 66987" transform="translate(35.944 46.794)">
          <g id="Group_66986" data-name="Group 66986" transform="translate(122.417 270.222)" opacity="0.603">
            <g id="Group_66985" data-name="Group 66985">
              <rect id="Rectangle_19140" data-name="Rectangle 19140" width="46.638" height="46.638" rx="23.319" transform="translate(0 34.109) rotate(-47)" fill="#b5538a" opacity="0.704"/>
              <rect id="Rectangle_19141" data-name="Rectangle 19141" width="21.571" height="21.571" rx="10.786" transform="translate(0 47.611) rotate(-47)" fill="#d86da9" opacity="0.277"/>
            </g>
          </g>
        </g>
      </g>
    </g>
    <path id="Union_22" data-name="Union 22" d="M-2685.844-9048.986v-5.188a10.1,10.1,0,0,1-5.152-2.862,10.586,10.586,0,0,1-3-7.438,10.591,10.591,0,0,1,3-7.443,10.055,10.055,0,0,1,7.25-3.081,10.067,10.067,0,0,1,7.251,3.081,10.6,10.6,0,0,1,3,7.443,10.594,10.594,0,0,1-3,7.438,10.132,10.132,0,0,1-4.792,2.778v5.272a2.279,2.279,0,0,1-2.28,2.277A2.278,2.278,0,0,1-2685.844-9048.986Zm-3.419-15.489a5.6,5.6,0,0,0,5.516,5.659,5.6,5.6,0,0,0,5.516-5.659,5.6,5.6,0,0,0-5.516-5.662A5.6,5.6,0,0,0-2689.263-9064.476Z" transform="translate(8589.586 4735.09) rotate(-46)" fill="url(#linear-gradient)"/>
  </g>
</svg>
