<svg xmlns="http://www.w3.org/2000/svg" width="16.121" height="16.234" viewBox="0 0 16.121 16.234">
  <path id="Icon_material-access-alarm" data-name="Icon material-access-alarm" d="M19.121,5.9,15.414,2.79l-1.04,1.233,3.708,3.111ZM7.74,4.023,6.708,2.79,3,5.893,4.04,7.127Zm3.724,3.716H10.255v4.836l3.829,2.3.6-.991-3.224-1.91Zm-.4-3.224a7.255,7.255,0,1,0,7.255,7.255A7.255,7.255,0,0,0,11.061,4.515Zm0,12.9A5.643,5.643,0,1,1,16.7,11.77,5.638,5.638,0,0,1,11.061,17.412Z" transform="translate(-3 -2.79)" fill="#950053"/>
</svg>
