<svg xmlns="http://www.w3.org/2000/svg" xmlns:xlink="http://www.w3.org/1999/xlink" width="39.229" height="39.22" viewBox="0 0 39.229 39.22">
  <defs>
    <linearGradient id="linear-gradient" x1="-0.133" y1="-0.106" x2="1.21" y2="1.335" gradientUnits="objectBoundingBox">
      <stop offset="0" stop-color="#f9ed41"/>
      <stop offset="0.241" stop-color="#ff833d"/>
      <stop offset="0.398" stop-color="#ee5567"/>
      <stop offset="0.489" stop-color="#e7407b"/>
      <stop offset="1" stop-color="#0028ff"/>
    </linearGradient>
  </defs>
  <path id="Icon_awesome-instagram" data-name="Icon awesome-instagram" d="M19.614,11.792A10.056,10.056,0,1,0,29.669,21.848,10.04,10.04,0,0,0,19.614,11.792Zm0,16.593a6.537,6.537,0,1,1,6.537-6.537A6.549,6.549,0,0,1,19.614,28.385Zm12.812-17a2.345,2.345,0,1,1-2.345-2.345A2.34,2.34,0,0,1,32.426,11.381Zm6.66,2.38c-.149-3.142-.866-5.925-3.168-8.218S30.842,2.533,27.7,2.376c-3.238-.184-12.944-.184-16.182,0C8.385,2.524,5.6,3.242,3.3,5.535S.29,10.611.133,13.753c-.184,3.238-.184,12.944,0,16.182C.281,33.076,1,35.859,3.3,38.152s5.076,3.011,8.218,3.168c3.238.184,12.944.184,16.182,0,3.142-.149,5.925-.866,8.218-3.168s3.011-5.076,3.168-8.218c.184-3.238.184-12.935,0-16.173ZM34.9,33.409a6.619,6.619,0,0,1-3.728,3.728c-2.582,1.024-8.708.788-11.561.788s-8.988.228-11.561-.788a6.619,6.619,0,0,1-3.728-3.728C3.3,30.827,3.537,24.7,3.537,21.848s-.228-8.988.788-11.561A6.619,6.619,0,0,1,8.053,6.559c2.582-1.024,8.708-.788,11.561-.788s8.988-.228,11.561.788A6.619,6.619,0,0,1,34.9,10.287c1.024,2.582.788,8.708.788,11.561S35.927,30.836,34.9,33.409Z" transform="translate(0.005 -2.238)" fill="url(#linear-gradient)"/>
</svg>
