<svg xmlns="http://www.w3.org/2000/svg" width="23" height="23" viewBox="0 0 23 23">
  <g id="Group_67096" data-name="Group 67096" transform="translate(-0.05 -0.371)">
    <circle id="Ellipse_702" data-name="Ellipse 702" cx="11.5" cy="11.5" r="11.5" transform="translate(0.05 0.371)" fill="#2995e5"/>
    <path id="Icon_zocial-call" data-name="Icon zocial-call" d="M3.293,5.363a.906.906,0,0,1,.231-.492L5.369,3.026q.215-.184.323.061l1.491,2.8a.4.4,0,0,1-.077.477l-.676.676a.765.765,0,0,0-.215.477A2.347,2.347,0,0,0,6.691,8.7a10.109,10.109,0,0,0,.938,1.23l.477.491c.144.144.328.32.554.53a9.282,9.282,0,0,0,1.114.83A2.494,2.494,0,0,0,11,12.3a.669.669,0,0,0,.492-.2l.8-.8a.338.338,0,0,1,.461-.061l2.691,1.584a.225.225,0,0,1,.123.161.2.2,0,0,1-.061.177L13.656,15a.9.9,0,0,1-.491.23,3.719,3.719,0,0,1-1.7-.208,7.688,7.688,0,0,1-1.752-.838q-.807-.522-1.5-1.06T7.107,12.2l-.4-.385q-.154-.154-.407-.423t-.885-1.06A15.441,15.441,0,0,1,4.323,8.791a9.013,9.013,0,0,1-.8-1.714A3.647,3.647,0,0,1,3.293,5.363Z" transform="translate(1.954 2.558)" fill="#fff"/>
  </g>
</svg>
