<svg xmlns="http://www.w3.org/2000/svg" width="27.233" height="27.232" viewBox="0 0 27.233 27.232">
  <g id="vuesax_linear_call" data-name="vuesax/linear/call" transform="translate(0 0)">
    <g id="call" transform="translate(0 0)">
      <g id="call-2" data-name="call" transform="translate(2.269 2.269)">
        <path id="Vector" d="M22.66,18.529a2.888,2.888,0,0,1-.284,1.237,4.682,4.682,0,0,1-.772,1.157,5.116,5.116,0,0,1-1.861,1.339,5.7,5.7,0,0,1-2.213.431,9.456,9.456,0,0,1-3.7-.828,19.93,19.93,0,0,1-3.9-2.247,32.622,32.622,0,0,1-3.722-3.177,32.241,32.241,0,0,1-3.166-3.71A20.229,20.229,0,0,1,.817,8.862,9.557,9.557,0,0,1,0,5.151a5.87,5.87,0,0,1,.408-2.19,5.223,5.223,0,0,1,1.3-1.895A3.325,3.325,0,0,1,4.074,0a2.132,2.132,0,0,1,.919.2,1.85,1.85,0,0,1,.76.635L8.385,4.55a3.883,3.883,0,0,1,.454.794A1.793,1.793,0,0,1,9,6.037a1.54,1.54,0,0,1-.238.806,3.859,3.859,0,0,1-.635.806l-.862.9A.607.607,0,0,0,7.08,9a1.03,1.03,0,0,0,.034.261c.034.091.068.159.091.227a9.416,9.416,0,0,0,1.055,1.452c.511.59,1.055,1.191,1.645,1.793.613.6,1.2,1.157,1.8,1.668a8.709,8.709,0,0,0,1.464,1.044c.057.023.125.057.2.091a.783.783,0,0,0,.284.045.624.624,0,0,0,.465-.193l.862-.851a3.481,3.481,0,0,1,.817-.635,1.511,1.511,0,0,1,.806-.238,1.811,1.811,0,0,1,.692.148,4.389,4.389,0,0,1,.794.443l3.756,2.667a1.721,1.721,0,0,1,.624.726A2.328,2.328,0,0,1,22.66,18.529Z" fill="#2995e5"/>
      </g>
      <path id="Vector-2" data-name="Vector" d="M0,0H27.233V27.232H0Z" fill="#2995e5" opacity="0"/>
    </g>
  </g>
</svg>
