<svg id="vuesax_bold_sms" data-name="vuesax/bold/sms" xmlns="http://www.w3.org/2000/svg" width="17.5" height="17.5" viewBox="0 0 17.5 17.5">
  <g id="sms" transform="translate(0)">
    <path id="Vector" d="M0,0H17.5V17.5H0Z" fill="none" opacity="0"/>
    <path id="Vector-2" data-name="Vector" d="M10.938,0H3.646C1.458,0,0,1.094,0,3.646v5.1C0,11.3,1.458,12.4,3.646,12.4h7.292c2.188,0,3.646-1.094,3.646-3.646v-5.1C14.583,1.094,13.125,0,10.938,0Zm.343,4.441L9,6.264a2.815,2.815,0,0,1-3.413,0L3.3,4.441a.561.561,0,0,1-.088-.773.545.545,0,0,1,.766-.087L6.264,5.4a1.74,1.74,0,0,0,2.049,0L10.595,3.58a.538.538,0,0,1,.766.087A.553.553,0,0,1,11.28,4.441Z" transform="translate(1.458 2.552)" fill="#79c6ff"/>
  </g>
</svg>
