<svg id="vuesax_bold_call" data-name="vuesax/bold/call" xmlns="http://www.w3.org/2000/svg" width="17.5" height="17.5" viewBox="0 0 17.5 17.5">
  <g id="call" transform="translate(0 0)">
    <path id="Vector" d="M6.6,9.443,5.25,10.792a.733.733,0,0,1-1.028.007c-.08-.08-.16-.153-.241-.233A20.718,20.718,0,0,1,1.947,8.181,13,13,0,0,1,.518,5.695,6.26,6.26,0,0,1,0,3.31,3.772,3.772,0,0,1,.262,1.9,3.356,3.356,0,0,1,1.1.685,2.136,2.136,0,0,1,2.618,0a1.37,1.37,0,0,1,.591.131A1.189,1.189,0,0,1,3.7.54L5.389,2.924a2.5,2.5,0,0,1,.292.51,1.153,1.153,0,0,1,.1.445.99.99,0,0,1-.153.518,2.48,2.48,0,0,1-.408.518l-.554.576a.39.39,0,0,0-.117.292.662.662,0,0,0,.022.168c.022.058.044.1.058.146a6.051,6.051,0,0,0,.678.933c.328.379.678.766,1.057,1.152.073.073.153.146.226.219A.731.731,0,0,1,6.6,9.443Z" transform="translate(1.458 1.458)" fill="#79c6ff"/>
    <path id="Vector-2" data-name="Vector" d="M9.02,3.128a1.852,1.852,0,0,1-.109.62,1.781,1.781,0,0,1-.073.175,3.009,3.009,0,0,1-.5.744,3.287,3.287,0,0,1-1.2.86c-.007,0-.015.007-.022.007a3.683,3.683,0,0,1-1.4.27,6.077,6.077,0,0,1-2.377-.532A12.807,12.807,0,0,1,.839,3.828C.554,3.617.27,3.405,0,3.179L2.384.795a4.1,4.1,0,0,0,.54.35c.036.015.08.036.131.058a.5.5,0,0,0,.182.029.4.4,0,0,0,.3-.124L4.091.561A2.237,2.237,0,0,1,4.616.153.971.971,0,0,1,5.133,0a1.164,1.164,0,0,1,.445.095,2.82,2.82,0,0,1,.51.284L8.5,2.093a1.106,1.106,0,0,1,.4.467A1.5,1.5,0,0,1,9.02,3.128Z" transform="translate(7 10.237)" fill="#79c6ff"/>
    <path id="Vector-3" data-name="Vector" d="M0,0H17.5V17.5H0Z" transform="translate(17.5 17.5) rotate(180)" fill="none" opacity="0"/>
  </g>
</svg>
