<svg xmlns="http://www.w3.org/2000/svg" width="12.481" height="17.942" viewBox="0 0 12.481 17.942">
  <path id="Icon_map-book-store" data-name="Icon map-book-store" d="M18.961,16.262V3A1.565,1.565,0,0,0,17.4,1.44H8.04A1.565,1.565,0,0,0,6.48,3V17.822a1.565,1.565,0,0,0,1.56,1.56H17.4c.725,0,1.56,0,1.56-.78v-.39H8.43a.782.782,0,0,1-.78-.78v-1.17H18.961ZM8.43,4.56a.391.391,0,0,1,.39-.39h7.8a.391.391,0,0,1,.39.39v.78a.391.391,0,0,1-.39.39H8.82a.391.391,0,0,1-.39-.39Zm0,3.12a.391.391,0,0,1,.39-.39h7.8a.391.391,0,0,1,.39.39v.78a.391.391,0,0,1-.39.39H8.82a.391.391,0,0,1-.39-.39Z" transform="translate(-6.48 -1.44)" fill="#8695a7"/>
</svg>
