<svg xmlns="http://www.w3.org/2000/svg" xmlns:xlink="http://www.w3.org/1999/xlink" width="22.071" height="31.916" viewBox="0 0 22.071 31.916">
  <defs>
    <clipPath id="clip-path">
      <rect id="Rectangle_17012" data-name="Rectangle 17012" width="22.071" height="31.916" fill="#565f6c"/>
    </clipPath>
  </defs>
  <g id="Group_62434" data-name="Group 62434" transform="translate(0)">
    <g id="Group_62433" data-name="Group 62433" transform="translate(0)" clip-path="url(#clip-path)">
      <path id="Path_36272" data-name="Path 36272" d="M2.718,12.264c-.192.825-.414,1.644-.57,2.476A28.272,28.272,0,0,0,1.7,20.08a.489.489,0,0,0,.313.527q1.052.419,2.107.827c.121.047.255.057.375.106a.616.616,0,0,1,.367.725.6.6,0,0,1-.691.476A7.653,7.653,0,0,1,.814,21.3a.957.957,0,0,1-.35-.614,26.342,26.342,0,0,1,1.245-9.281A14.5,14.5,0,0,1,5.016,5.83,14.013,14.013,0,0,1,6.623,4.493a.458.458,0,0,0,.223-.522c-.087-.441-.154-.886-.23-1.33-.1-.57.122-.821.695-.912A10.431,10.431,0,0,0,8.9,1.361,3.579,3.579,0,0,0,10.5.288.636.636,0,0,1,11.547.262a4.672,4.672,0,0,0,3.105,1.465c.725.092.9.287.786,1.021-.068.445-.157.886-.213,1.332a.4.4,0,0,0,.117.321,13.008,13.008,0,0,1,4.841,6.505,20.636,20.636,0,0,1,1.3,5.982c.087,1.2.092,2.415.146,3.622a.913.913,0,0,1-.389.825A8.11,8.11,0,0,1,17.9,22.743a.607.607,0,0,1-.7-.511.616.616,0,0,1,.443-.714c.417-.131.847-.225,1.259-.371,1.482-.522,1.5-.534,1.456-2.1a25.017,25.017,0,0,0-.917-6.382c-.033-.113-.07-.226-.108-.337-.007-.02-.03-.035-.076-.088-.06.315-.111.6-.172.892a7.934,7.934,0,0,1-1.974,3.76,1.451,1.451,0,0,0-.295.473,6.024,6.024,0,0,1-2.352,3.038.5.5,0,0,0-.254.494c.016.355,0,.711.005,1.067,0,.513.11.668.594.837q2.429.849,4.86,1.692a3.383,3.383,0,0,1,2.4,3.3c.014,1.1.007,2.205,0,3.308,0,.473-.234.734-.63.732s-.63-.274-.633-.742c-.006-1.055,0-2.11,0-3.166a2.163,2.163,0,0,0-1.6-2.246q-2.429-.848-4.859-1.692a1.9,1.9,0,0,1-1.394-1.921c0-.28,0-.559,0-.894a6.821,6.821,0,0,1-3.818,0c0,.338,0,.618,0,.9a1.93,1.93,0,0,1-1.493,2.063q-2.378.778-4.758,1.55a2.146,2.146,0,0,0-1.6,2.171c-.007,1.043,0,2.087-.005,3.13a1.329,1.329,0,0,1-.073.486.571.571,0,0,1-.665.353.509.509,0,0,1-.5-.473,37.822,37.822,0,0,1,.057-4.19A3.111,3.111,0,0,1,2.409,24.5C4,23.967,5.6,23.458,7.2,22.938c.545-.177.658-.329.66-.9,0-.379-.014-.76.005-1.138a.525.525,0,0,0-.279-.516,6.047,6.047,0,0,1-2.294-2.912,1.132,1.132,0,0,0-.219-.357,8.151,8.151,0,0,1-2.22-4.778.241.241,0,0,0-.027-.063l-.108-.013m2.2,2.42c0-.731-.035-1.36.015-1.982a1.363,1.363,0,0,1,.334-.854A11.979,11.979,0,0,0,7.43,9.363.767.767,0,0,1,8.7,9.311a5.733,5.733,0,0,0,2.456,1.694,11.465,11.465,0,0,0,4.9.6c.816-.045,1.093.212,1.094,1.041,0,.621,0,1.242,0,1.928A6.723,6.723,0,0,0,16,6.547,6.942,6.942,0,0,0,4.921,14.684m3.267-4.007c-.643.657-1.28,1.3-1.911,1.956a.338.338,0,0,0-.085.219,30.468,30.468,0,0,0,.083,3.3,4.752,4.752,0,0,0,4.737,4.03,4.763,4.763,0,0,0,4.79-4.054,24.9,24.9,0,0,0,.081-2.658c0-.184,0-.369,0-.58-2.858.094-5.531-.293-7.7-2.21M7.95,2.945c.031.167.051.283.073.4s.048.241.076.384a8.5,8.5,0,0,1,5.888,0l.123-.782a6.588,6.588,0,0,1-3.078-1.379A6.506,6.506,0,0,1,7.95,2.945" transform="translate(0 -0.001)" fill="#565f6c"/>
      <path id="Path_36273" data-name="Path 36273" d="M41.449,277.462a3.888,3.888,0,0,1,5.725.726,3.872,3.872,0,0,1,2.7-1.641,3.775,3.775,0,0,1,3,.913,2.2,2.2,0,0,1,.39-.253.621.621,0,0,1,.845.591c.028.639.023,1.28.011,1.919a.635.635,0,0,1-.584.612c-.343.037-.613-.18-.714-.6a2.443,2.443,0,0,0-1.744-1.842,2.493,2.493,0,0,0-2.731.885,1.478,1.478,0,0,1-1.081.665A1.432,1.432,0,0,1,46,278.786a2.52,2.52,0,0,0-4.02-.011,3.2,3.2,0,0,0-.444.914c-.142.41-.411.653-.758.6a.693.693,0,0,1-.558-.786q.012-.746.011-1.493c0-.322.038-.622.372-.78.264-.125.507-.057.843.235" transform="translate(-36.136 -248.418)" fill="#565f6c"/>
    </g>
  </g>
</svg>
