<svg xmlns="http://www.w3.org/2000/svg" width="24" height="24" viewBox="0 0 24 24">
  <g id="vuesax_bold_briefcase" data-name="vuesax/bold/briefcase" transform="translate(-108 -188)">
    <path id="Vector" d="M19.087,5.21c-.85-.94-2.27-1.41-4.33-1.41h-.24V3.76c0-1.68,0-3.76-3.76-3.76H9.237c-3.76,0-3.76,2.09-3.76,3.76v.05h-.24c-2.07,0-3.48.47-4.33,1.41a4.547,4.547,0,0,0-.86,3.59l.01.07.1,1.05s.72.48,1.08.68c.14.09.29.17.44.25a17.165,17.165,0,0,0,5.5,1.88c.09.94.5,2.04,2.69,2.04s2.62-1.09,2.69-2.06a16.829,16.829,0,0,0,5.79-2.08c.06-.03.1-.06.15-.09a13.914,13.914,0,0,0,1.36-.9l.04-.36.05-.47c.01-.06.01-.11.02-.18A4.433,4.433,0,0,0,19.087,5.21Zm-8,6.85c0,1.06,0,1.22-1.23,1.22s-1.23-.19-1.23-1.21V10.81h2.46ZM6.907,3.8V3.76c0-1.7,0-2.33,2.33-2.33h1.52c2.33,0,2.33.64,2.33,2.33v.05H6.907Z" transform="translate(110.003 189.77)" fill="#9a34ff"/>
    <path id="Vector-2" data-name="Vector" d="M19.34,0,18.9,4.847c-.21,2-1.03,4.04-5.43,4.04H5.85c-4.4,0-5.22-2.04-5.43-4.03L0,.237a39.646,39.646,0,0,0,5.6,2.2c.55,1.46,1.91,2.24,3.93,2.24,2,0,3.38-.81,3.93-2.27A38.336,38.336,0,0,0,19.34,0Z" transform="translate(110.34 201.343)" fill="#9a34ff"/>
    <path id="Vector-3" data-name="Vector" d="M0,0H24V24H0Z" transform="translate(132 212) rotate(180)" fill="none" opacity="0"/>
  </g>
</svg>
