<svg xmlns="http://www.w3.org/2000/svg" width="36" height="36" viewBox="0 0 36 36">
  <g id="Group_62333" data-name="Group 62333" transform="translate(-128 -89)">
    <path id="Path_36246" data-name="Path 36246" d="M18,0A18,18,0,1,1,0,18,18,18,0,0,1,18,0" transform="translate(128 89)" fill="#ffdef4"/>
    <path id="Path_36247" data-name="Path 36247" d="M23.82,27.063H12.181a2.415,2.415,0,0,1-2.413-2.412V13.012A2.416,2.416,0,0,1,12.181,10.6H23.82a2.416,2.416,0,0,1,2.412,2.413V24.651a2.415,2.415,0,0,1-2.412,2.412M12.181,12.1a.915.915,0,0,0-.913.913V24.651a.914.914,0,0,0,.913.912H23.82a.913.913,0,0,0,.912-.912V13.012a.914.914,0,0,0-.912-.913Z" transform="translate(128 89)" fill="#c60089"/>
    <path id="Path_36248" data-name="Path 36248" d="M21.325,13.762a.75.75,0,0,1-.75-.75V9.686a.75.75,0,0,1,1.5,0v3.326a.75.75,0,0,1-.75.75" transform="translate(128 89)" fill="#c60089"/>
    <path id="Path_36249" data-name="Path 36249" d="M14.674,13.762a.75.75,0,0,1-.75-.75V9.686a.75.75,0,0,1,1.5,0v3.326a.75.75,0,0,1-.75.75" transform="translate(128 89)" fill="#c60089"/>
    <path id="Path_36250" data-name="Path 36250" d="M25.482,17.087H10.518a.75.75,0,0,1,0-1.5H25.482a.75.75,0,0,1,0,1.5" transform="translate(128 89)" fill="#c60089"/>
  </g>
</svg>
