<svg id="cashfree-logo" xmlns="http://www.w3.org/2000/svg" width="84.501" height="24.653" viewBox="0 0 84.501 24.653">
  <path id="Path_91534" data-name="Path 91534" d="M98.064,65.39a3.78,3.78,0,0,0-2.572-.79H91.8v9.663h1.911V71.47h1.341a4.557,4.557,0,0,0,1.745-.312,3.5,3.5,0,0,0,1.231-.845,3.336,3.336,0,0,0,.716-1.231,4.3,4.3,0,0,0,.239-1.451A2.733,2.733,0,0,0,98.064,65.39Zm-1.212,3.4a1.668,1.668,0,0,1-.661.808,2.108,2.108,0,0,1-1.176.294h-1.3V66.217h1.782a1.788,1.788,0,0,1,1.139.331,1.328,1.328,0,0,1,.441,1.121A2.711,2.711,0,0,1,96.852,68.788Z" transform="translate(-74.936 -52.733)" fill="#1f074f"/>
  <path id="Path_91535" data-name="Path 91535" d="M143.548,81.848V79.441a3.869,3.869,0,0,0-.276-1.58,2.126,2.126,0,0,0-.716-.955,2.958,2.958,0,0,0-1.121-.478,6.506,6.506,0,0,0-1.378-.129,8.983,8.983,0,0,0-1.212.092,5.53,5.53,0,0,0-1.084.257v1.488h.129a4.689,4.689,0,0,1,.845-.257,5.3,5.3,0,0,1,1.084-.129,3.342,3.342,0,0,1,1.029.129.951.951,0,0,1,.625.459,1.946,1.946,0,0,1,.22,1.029V79.5a2.637,2.637,0,0,0-.4-.074,5.42,5.42,0,0,0-1.01-.092,5.235,5.235,0,0,0-1.672.257,2.338,2.338,0,0,0-1.121.753,2.114,2.114,0,0,0-.386,1.3,1.949,1.949,0,0,0,.845,1.782,4.722,4.722,0,0,0,2.535.551,7.012,7.012,0,0,0,1.047-.073,9.919,9.919,0,0,0,1.065-.184,6.99,6.99,0,0,0,.992-.312l.037-.11a4.466,4.466,0,0,1-.073-.643C143.566,82.4,143.548,82.123,143.548,81.848Zm-2.168.735a4.828,4.828,0,0,1-.9.073,2.369,2.369,0,0,1-1.194-.239.853.853,0,0,1-.423-.79.894.894,0,0,1,.423-.827,2.7,2.7,0,0,1,1.3-.239,4.134,4.134,0,0,1,.808.073c.11.018.22.037.312.055v1.065c0,.147.018.276.018.386.018.11.037.2.055.294A1.517,1.517,0,0,1,141.38,82.583Z" transform="translate(-111.914 -62.284)" fill="#1f074f"/>
  <path id="Path_91536" data-name="Path 91536" d="M182.329,82.425,180.6,77.3h-2v.165l2.792,7.311-1.176,2.811v.165h1.874l3.986-10.287V77.3h-1.892Z" transform="translate(-145.791 -63.1)" fill="#1f074f"/>
  <path id="Path_91537" data-name="Path 91537" d="M236.922,77.025a2.708,2.708,0,0,0-1.065-.5,5.38,5.38,0,0,0-1.231-.129,5.851,5.851,0,0,0-1.359.165,6.791,6.791,0,0,0-1.084.349,2.376,2.376,0,0,0-.863-.349,5.377,5.377,0,0,0-1.231-.147,8.638,8.638,0,0,0-1.157.092,11.367,11.367,0,0,0-1.139.239,5.3,5.3,0,0,0-.955.312l-.037.11a3,3,0,0,1,.073.661c.018.276.037.551.037.827s.018.514.018.68v4.574H228.8v-4.9c0-.276-.018-.533-.037-.735,0-.055-.018-.129-.018-.184.11-.037.22-.055.349-.092a4.22,4.22,0,0,1,.827-.092,1.981,1.981,0,0,1,.845.165.986.986,0,0,1,.569.551,2.328,2.328,0,0,1,.22,1.121V83.9h1.874V79.67a4.1,4.1,0,0,0-.257-1.543,4.92,4.92,0,0,1,.5-.129,2.958,2.958,0,0,1,.68-.073,2.343,2.343,0,0,1,.919.165.937.937,0,0,1,.569.551,2.6,2.6,0,0,1,.2,1.121v4.152h1.874V79.688a4.191,4.191,0,0,0-.276-1.653A2.075,2.075,0,0,0,236.922,77.025Z" transform="translate(-185.136 -62.365)" fill="#1f074f"/>
  <path id="Path_91538" data-name="Path 91538" d="M303.685,76.914A3.462,3.462,0,0,0,301.7,76.4a3.829,3.829,0,0,0-1.911.478,3.109,3.109,0,0,0-1.249,1.323,4.369,4.369,0,0,0-.441,2.021,4.936,4.936,0,0,0,.276,1.727,3.137,3.137,0,0,0,.845,1.194,3.428,3.428,0,0,0,1.341.68,6.71,6.71,0,0,0,1.8.22,6.252,6.252,0,0,0,1.268-.11,4.23,4.23,0,0,0,.919-.276V82.132h-.129a2.643,2.643,0,0,1-.772.276,5.3,5.3,0,0,1-1.157.129,4.051,4.051,0,0,1-1.3-.2,1.723,1.723,0,0,1-.882-.68,2.086,2.086,0,0,1-.294-.882h5.034l.018-.441a5.088,5.088,0,0,0-.276-2.039A2.732,2.732,0,0,0,303.685,76.914Zm-.459,2.645h-3.215a3.217,3.217,0,0,1,.184-.845,1.356,1.356,0,0,1,.606-.7,1.746,1.746,0,0,1,.882-.22,1.512,1.512,0,0,1,1.157.423,1.816,1.816,0,0,1,.386,1.249Z" transform="translate(-243.338 -62.365)" fill="#1f074f"/>
  <path id="Path_91539" data-name="Path 91539" d="M352.113,77.043a3.081,3.081,0,0,0-1.121-.5,5.908,5.908,0,0,0-1.3-.147,8.614,8.614,0,0,0-1.139.092c-.386.055-.772.147-1.157.239a5.3,5.3,0,0,0-.955.312l-.037.11a3,3,0,0,1,.073.661c.018.276.037.551.037.827s.018.514.018.68V83.9H348.4V79.009c0-.276-.018-.533-.037-.735,0-.055-.018-.129-.018-.184.11-.037.22-.055.349-.092a4.219,4.219,0,0,1,.827-.092,2.536,2.536,0,0,1,.955.165,1.079,1.079,0,0,1,.625.551,2.329,2.329,0,0,1,.22,1.121V83.9H353.2V79.67a4,4,0,0,0-.276-1.617A2.661,2.661,0,0,0,352.113,77.043Z" transform="translate(-282.765 -62.365)" fill="#1f074f"/>
  <path id="Path_91540" data-name="Path 91540" d="M395.568,74.752a2.28,2.28,0,0,1-.5.055,1.424,1.424,0,0,1-.992-.294,1.274,1.274,0,0,1-.331-.974V70.417h2V68.911h-2V67h-1.874v1.892H390.7V70.4h1.176v3.27a3.125,3.125,0,0,0,.331,1.525,2.119,2.119,0,0,0,1.01.863,4.249,4.249,0,0,0,1.617.276,2.773,2.773,0,0,0,.716-.073,3.645,3.645,0,0,0,.569-.147V74.605h-.129A1.268,1.268,0,0,1,395.568,74.752Z" transform="translate(-318.927 -54.692)" fill="#1f074f"/>
  <path id="Path_91541" data-name="Path 91541" d="M432.74,80.852a2.017,2.017,0,0,0-.827-.68,3.733,3.733,0,0,0-1.139-.331l-.625-.11a4.122,4.122,0,0,1-.919-.257.506.506,0,0,1-.312-.5.619.619,0,0,1,.422-.625,2.976,2.976,0,0,1,1.176-.184,5.651,5.651,0,0,1,.974.074,5.2,5.2,0,0,1,.974.276h.11V76.976a4.978,4.978,0,0,0-.937-.2,6.472,6.472,0,0,0-1.066-.073,5.115,5.115,0,0,0-2,.331,2.455,2.455,0,0,0-1.121.845,2.071,2.071,0,0,0-.349,1.194,1.663,1.663,0,0,0,.57,1.378,3.622,3.622,0,0,0,1.653.643l.625.11a4.254,4.254,0,0,1,.955.257.54.54,0,0,1,.312.533.687.687,0,0,1-.165.478.7.7,0,0,1-.386.239,3.425,3.425,0,0,1-.5.092c-.184,0-.349.018-.5.018a6.483,6.483,0,0,1-1.323-.147,6.757,6.757,0,0,1-1.121-.349h-.11V83.9a8.264,8.264,0,0,0,1.157.276,7.6,7.6,0,0,0,1.286.11,4.739,4.739,0,0,0,2.609-.569,1.965,1.965,0,0,0,.882-1.764A1.786,1.786,0,0,0,432.74,80.852Z" transform="translate(-348.64 -62.61)" fill="#1f074f"/>
  <path id="Path_91542" data-name="Path 91542" d="M131.9,7.5a5.6,5.6,0,0,1,.569-2.627A4.061,4.061,0,0,1,134.2,3.125a6.017,6.017,0,0,1,2.829-.625,6.254,6.254,0,0,1,1.231.11,4.23,4.23,0,0,1,.919.276v1.69h-.129a3.244,3.244,0,0,0-.845-.312,4.836,4.836,0,0,0-1.066-.129,3.785,3.785,0,0,0-1.8.386,2.641,2.641,0,0,0-1.1,1.139,3.919,3.919,0,0,0-.367,1.819,4.165,4.165,0,0,0,.367,1.819,2.6,2.6,0,0,0,1.1,1.121,3.785,3.785,0,0,0,1.8.386,4.988,4.988,0,0,0,1.066-.11,2.706,2.706,0,0,0,.845-.331h.129v1.69a4.23,4.23,0,0,1-.919.276,6.123,6.123,0,0,1-1.231.11,6.02,6.02,0,0,1-2.829-.606,4.019,4.019,0,0,1-1.727-1.727A5.372,5.372,0,0,1,131.9,7.5Z" transform="translate(-107.669 -2.041)" fill="#1f074f"/>
  <path id="Path_91543" data-name="Path 91543" d="M186.985,21.374c-.018-.276-.037-.533-.037-.827V18.141a3.869,3.869,0,0,0-.276-1.58,2.127,2.127,0,0,0-.716-.955,2.958,2.958,0,0,0-1.121-.478A6.5,6.5,0,0,0,183.458,15a8.979,8.979,0,0,0-1.212.092,5.527,5.527,0,0,0-1.084.257v1.488h.129a4.691,4.691,0,0,1,.845-.257,5.3,5.3,0,0,1,1.084-.129,3.343,3.343,0,0,1,1.029.129.951.951,0,0,1,.625.459,1.946,1.946,0,0,1,.22,1.029V18.2a2.634,2.634,0,0,0-.4-.073,5.418,5.418,0,0,0-1.01-.092,5.236,5.236,0,0,0-1.672.257,2.338,2.338,0,0,0-1.121.753,2.114,2.114,0,0,0-.386,1.3,1.949,1.949,0,0,0,.845,1.782,4.721,4.721,0,0,0,2.535.551,7.012,7.012,0,0,0,1.047-.073,9.916,9.916,0,0,0,1.065-.184,6.311,6.311,0,0,0,.992-.312l.037-.11A4.386,4.386,0,0,0,186.985,21.374Zm-2.2-.073a4.828,4.828,0,0,1-.9.073,2.369,2.369,0,0,1-1.194-.239.853.853,0,0,1-.423-.79.894.894,0,0,1,.423-.827,2.7,2.7,0,0,1,1.3-.239,4.134,4.134,0,0,1,.808.073c.11.018.22.037.312.055v1.065c0,.147.018.276.018.386.018.11.037.2.055.294A1.316,1.316,0,0,1,184.78,21.3Z" transform="translate(-147.341 -12.244)" fill="#1f074f"/>
  <path id="Path_91544" data-name="Path 91544" d="M226.118,20.921h.11a7.353,7.353,0,0,0,1.121.349,6.483,6.483,0,0,0,1.323.147,4.819,4.819,0,0,0,.5-.018,3.424,3.424,0,0,0,.5-.092.7.7,0,0,0,.386-.239.656.656,0,0,0,.165-.478.557.557,0,0,0-.312-.533,4.255,4.255,0,0,0-.955-.257l-.625-.11a3.839,3.839,0,0,1-1.653-.643,1.663,1.663,0,0,1-.569-1.378,2.071,2.071,0,0,1,.349-1.194,2.36,2.36,0,0,1,1.121-.845,5.115,5.115,0,0,1,2-.331,6.471,6.471,0,0,1,1.065.073,4.979,4.979,0,0,1,.937.2v1.543h-.11a4.967,4.967,0,0,0-1.947-.349,2.916,2.916,0,0,0-1.176.184.634.634,0,0,0-.423.625.506.506,0,0,0,.312.5,4.81,4.81,0,0,0,.919.257l.625.11a4.135,4.135,0,0,1,1.139.331,2.017,2.017,0,0,1,.827.68,1.785,1.785,0,0,1,.312,1.065,2.006,2.006,0,0,1-.882,1.764,4.7,4.7,0,0,1-2.609.569,7.6,7.6,0,0,1-1.286-.11,8.938,8.938,0,0,1-1.157-.276Z" transform="translate(-184.565 -12.489)" fill="#1f074f"/>
  <path id="Path_91545" data-name="Path 91545" d="M274.44,4.846a2.517,2.517,0,0,0-.68-1.01,2.392,2.392,0,0,0-.992-.551,4.6,4.6,0,0,0-2.37-.055,5.073,5.073,0,0,0-.5.147V.4h-1.966L267.9.51a2.815,2.815,0,0,1,.073.643c.018.276.037.551.037.827s.018.514.018.68v7.954H269.9V4.846h.018c.184-.037.367-.092.569-.129a3.336,3.336,0,0,1,.588-.055,2.1,2.1,0,0,1,.882.165,1.1,1.1,0,0,1,.606.551,2.249,2.249,0,0,1,.22,1.1v4.133h1.874V6.389A3.808,3.808,0,0,0,274.44,4.846Z" transform="translate(-218.686 -0.327)" fill="#1f074f"/>
  <path id="Path_91546" data-name="Path 91546" d="M317.243,0a3.82,3.82,0,0,0-1.672.331,2.418,2.418,0,0,0-1.065.992,3.583,3.583,0,0,0-.367,1.635H313V4.464h1.176v5.823h1.874V4.464h1.874V2.958h-1.874a1.773,1.773,0,0,1,.312-1.121,1.236,1.236,0,0,1,1.029-.367,1.618,1.618,0,0,1,.478.055,1.219,1.219,0,0,1,.367.11h.129V.165a2.535,2.535,0,0,0-.478-.129C317.684.018,317.482,0,317.243,0Z" transform="translate(-255.501)" fill="#1f074f"/>
  <path id="Path_91547" data-name="Path 91547" d="M349.7,15.5a7.654,7.654,0,0,0-1.121.073,9.912,9.912,0,0,0-1.066.165,7.514,7.514,0,0,0-.882.239l-.037.11a3,3,0,0,1,.073.661c.018.276.037.551.037.827s.018.514.018.68V22.94H348.6V18.053a4.2,4.2,0,0,0-.073-.919c.11-.018.2-.037.331-.055a6.286,6.286,0,0,1,.845-.073,4.475,4.475,0,0,1,.5.018,1.717,1.717,0,0,1,.459.073h.129V15.573c-.184-.018-.367-.037-.569-.055A4.989,4.989,0,0,0,349.7,15.5Z" transform="translate(-282.928 -12.653)" fill="#1f074f"/>
  <path id="Path_91548" data-name="Path 91548" d="M381.085,15.614A3.462,3.462,0,0,0,379.1,15.1a3.829,3.829,0,0,0-1.911.478,3.109,3.109,0,0,0-1.249,1.323,4.37,4.37,0,0,0-.441,2.021,4.936,4.936,0,0,0,.276,1.727,3.138,3.138,0,0,0,.845,1.194,3.427,3.427,0,0,0,1.341.68,6.71,6.71,0,0,0,1.8.22,6.252,6.252,0,0,0,1.267-.11,4.229,4.229,0,0,0,.919-.276V20.832h-.11a2.645,2.645,0,0,1-.772.276,5.3,5.3,0,0,1-1.157.129,4.051,4.051,0,0,1-1.3-.2,1.632,1.632,0,0,1-.882-.68,2.084,2.084,0,0,1-.294-.882h5.033l.018-.441a5.087,5.087,0,0,0-.276-2.039A2.865,2.865,0,0,0,381.085,15.614Zm-.459,2.645h-3.215a3.217,3.217,0,0,1,.184-.845,1.356,1.356,0,0,1,.606-.7,1.746,1.746,0,0,1,.882-.22,1.512,1.512,0,0,1,1.157.423,1.816,1.816,0,0,1,.386,1.249Z" transform="translate(-306.519 -12.326)" fill="#1f074f"/>
  <path id="Path_91549" data-name="Path 91549" d="M428.687,17.011a2.7,2.7,0,0,0-1.1-1.4A3.462,3.462,0,0,0,425.6,15.1a3.829,3.829,0,0,0-1.911.478,3.108,3.108,0,0,0-1.249,1.323A4.369,4.369,0,0,0,422,18.921a4.936,4.936,0,0,0,.275,1.727,3.138,3.138,0,0,0,.845,1.194,3.428,3.428,0,0,0,1.341.68,6.709,6.709,0,0,0,1.8.22,6.254,6.254,0,0,0,1.268-.11,4.231,4.231,0,0,0,.918-.276V20.832h-.129a2.644,2.644,0,0,1-.772.276,5.3,5.3,0,0,1-1.157.129,4.05,4.05,0,0,1-1.3-.2,1.632,1.632,0,0,1-.882-.68,2.085,2.085,0,0,1-.294-.882h5.033l.018-.441A4.471,4.471,0,0,0,428.687,17.011Zm-1.543,1.249h-3.215a3.217,3.217,0,0,1,.184-.845,1.356,1.356,0,0,1,.606-.7,1.745,1.745,0,0,1,.882-.22,1.512,1.512,0,0,1,1.157.423,1.816,1.816,0,0,1,.386,1.249Z" transform="translate(-344.477 -12.326)" fill="#1f074f"/>
  <path id="Path_91550" data-name="Path 91550" d="M29.327.7A3.528,3.528,0,0,0,25.8,4.227v13.08a3.528,3.528,0,0,0,3.527-3.527V4.227H38.88A3.528,3.528,0,0,0,42.407.7H29.327Z" transform="translate(-21.06 -0.571)" fill="#04ab61"/>
  <path id="Path_91551" data-name="Path 91551" d="M51.1,26.3v3.527h4.115A3.528,3.528,0,0,0,58.742,26.3H51.1Z" transform="translate(-41.713 -21.469)" fill="#fbb016" fill-rule="evenodd"/>
  <path id="Path_91552" data-name="Path 91552" d="M0,29.827A3.528,3.528,0,0,1,3.527,26.3h0V39.38A3.528,3.528,0,0,1,0,42.907H0Z" transform="translate(0 -21.469)" fill="#fbb016"/>
</svg>
