<svg xmlns="http://www.w3.org/2000/svg" width="14.481" height="17" viewBox="0 0 14.481 17">
  <g id="Group_62454" data-name="Group 62454" transform="translate(-178.441 -689.445)">
    <path id="Path_36241" data-name="Path 36241" d="M15.687,25.592a7.165,7.165,0,0,1-7.155-6.466l-.091-.913.87.295a6,6,0,0,0,6.247-1.514l.425-.439.425.44A5.875,5.875,0,0,0,22.1,18.667l.827-.192-.107.843a7.2,7.2,0,0,1-7.128,6.275" transform="translate(170 680.853)" fill="#8695a7"/>
    <path id="Path_36242" data-name="Path 36242" d="M17.481,14.348l-.443-.442a6.223,6.223,0,0,1-1.6-2.951A5.306,5.306,0,0,1,16.7,6.873l.388-.428.437.379a4.654,4.654,0,0,1,1.753,3.251,5.764,5.764,0,0,1-1.38,3.807Zm-.268-6.177A3.838,3.838,0,0,0,16.6,10.76a4.431,4.431,0,0,0,.816,1.766,4.177,4.177,0,0,0,.677-2.384,3.256,3.256,0,0,0-.885-1.971" transform="translate(168.527 683)" fill="#8695a7"/>
  </g>
</svg>
