<svg xmlns="http://www.w3.org/2000/svg" width="36" height="36" viewBox="0 0 36 36">
  <g id="Group_62335" data-name="Group 62335" transform="translate(-120 -89)">
    <path id="Path_36240" data-name="Path 36240" d="M18,0A18,18,0,1,1,0,18,18,18,0,0,1,18,0" transform="translate(120 89)" fill="#ffdef4"/>
    <g id="Group_66614" data-name="Group 66614">
      <path id="Path_36241" data-name="Path 36241" d="M17.641,28.028a9.1,9.1,0,0,1-9.084-8.209L8.441,18.66l1.1.374a7.614,7.614,0,0,0,7.931-1.922l.539-.557.539.558a7.458,7.458,0,0,0,7.222,2.123l1.05-.244-.136,1.07a9.139,9.139,0,0,1-9.049,7.966m-7.4-7.257A7.629,7.629,0,0,0,25,20.89a8.933,8.933,0,0,1-6.987-2.22,9.092,9.092,0,0,1-7.774,2.1" transform="translate(120 89)" fill="#c60089"/>
      <path id="Path_36242" data-name="Path 36242" d="M18.047,16.478l-.562-.561a7.9,7.9,0,0,1-2.032-3.747,6.737,6.737,0,0,1,1.6-5.181l.492-.544.555.481a5.908,5.908,0,0,1,2.225,4.127,7.318,7.318,0,0,1-1.752,4.833Zm-.34-7.842a4.872,4.872,0,0,0-.773,3.287,5.626,5.626,0,0,0,1.036,2.242,5.3,5.3,0,0,0,.86-3.027,4.134,4.134,0,0,0-1.123-2.5" transform="translate(120 89)" fill="#c60089"/>
    </g>
  </g>
</svg>
