<svg xmlns="http://www.w3.org/2000/svg" width="15.819" height="15.819" viewBox="0 0 15.819 15.819">
  <g id="Icon_ionic-ios-checkmark-circle-outline" data-name="Icon ionic-ios-checkmark-circle-outline" transform="translate(-3.375 -3.375)">
    <path id="Path_37795" data-name="Path 37795" d="M18.579,12.94l-.669-.688a.144.144,0,0,0-.106-.046h0a.138.138,0,0,0-.106.046l-4.639,4.673L11.37,15.237a.147.147,0,0,0-.213,0l-.677.677a.152.152,0,0,0,0,.217l2.129,2.129a.673.673,0,0,0,.445.217.706.706,0,0,0,.441-.209h0l5.084-5.111A.163.163,0,0,0,18.579,12.94Z" transform="translate(-3.242 -4.055)" fill="#21c155"/>
    <path id="Path_37796" data-name="Path 37796" d="M11.284,4.44a6.842,6.842,0,1,1-4.841,2,6.8,6.8,0,0,1,4.841-2m0-1.065a7.909,7.909,0,1,0,7.909,7.909,7.908,7.908,0,0,0-7.909-7.909Z" fill="#21c155"/>
  </g>
</svg>
