<svg xmlns="http://www.w3.org/2000/svg" width="12.124" height="12.209" viewBox="0 0 12.124 12.209">
  <path id="Icon_material-access-alarm" data-name="Icon material-access-alarm" d="M15.124,5.13,12.336,2.79l-.782.927,2.789,2.34ZM6.565,3.717,5.789,2.79,3,5.124l.782.927Zm2.8,2.795H8.456v3.637l2.879,1.728.455-.746L9.365,9.695Zm-.3-2.425a5.456,5.456,0,1,0,5.456,5.456A5.456,5.456,0,0,0,9.062,4.087Zm0,9.7a4.243,4.243,0,1,1,4.243-4.243A4.24,4.24,0,0,1,9.062,13.787Z" transform="translate(-3 -2.79)" fill="#ff4b4b"/>
</svg>
