<svg xmlns="http://www.w3.org/2000/svg" width="25.645" height="25.645" viewBox="0 0 25.645 25.645">
  <g id="Icon_ionic-ios-close-circle-outline" data-name="Icon ionic-ios-close-circle-outline" transform="translate(-3.375 -3.375)">
    <path id="Path_36363" data-name="Path 36363" d="M21.947,20.553,18.7,17.3l3.249-3.249a.985.985,0,0,0-1.393-1.393L17.3,15.911l-3.249-3.249a.985.985,0,0,0-1.393,1.393L15.912,17.3l-3.249,3.249a.953.953,0,0,0,0,1.393.979.979,0,0,0,1.393,0L17.3,18.7l3.249,3.249a.99.99,0,0,0,1.393,0A.979.979,0,0,0,21.947,20.553Z" transform="translate(-1.107 -1.107)" fill="#fff"/>
    <path id="Path_36364" data-name="Path 36364" d="M16.2,5.1A11.092,11.092,0,1,1,8.35,8.35,11.023,11.023,0,0,1,16.2,5.1m0-1.726A12.823,12.823,0,1,0,29.02,16.2,12.821,12.821,0,0,0,16.2,3.375Z" fill="#fff"/>
  </g>
</svg>
