<svg xmlns="http://www.w3.org/2000/svg" xmlns:xlink="http://www.w3.org/1999/xlink" width="22.729" height="22.729" viewBox="0 0 22.729 22.729">
  <defs>
    <clipPath id="clip-path">
      <rect id="Rectangle_19295" data-name="Rectangle 19295" width="22.729" height="22.729" fill="#fff" stroke="#707070" stroke-width="1"/>
    </clipPath>
  </defs>
  <g id="Mask_Group_25483" data-name="Mask Group 25483" clip-path="url(#clip-path)">
    <path id="Vector" d="M14.206,0H2.841A2.825,2.825,0,0,0,0,2.813V13.145a2.833,2.833,0,0,0,2.841,2.822h.72a2.846,2.846,0,0,1,2.008.824l1.619,1.6a1.9,1.9,0,0,0,2.671,0l1.619-1.6a2.846,2.846,0,0,1,2.008-.824h.72a2.833,2.833,0,0,0,2.841-2.822V2.813A2.825,2.825,0,0,0,14.206,0ZM8.523,3.362A1.847,1.847,0,0,1,8.59,7.055H8.448a1.842,1.842,0,0,1-1.78-1.847A1.863,1.863,0,0,1,8.523,3.362Zm2.6,8.656a5.086,5.086,0,0,1-5.209,0,1.71,1.71,0,0,1,0-3.059,5.086,5.086,0,0,1,5.209,0A1.71,1.71,0,0,1,11.128,12.018Z" transform="translate(2.841 1.894)" fill="#2183ff"/>
  </g>
</svg>
