<svg xmlns="http://www.w3.org/2000/svg" width="15.681" height="15.681" viewBox="0 0 15.681 15.681">
  <path id="Icon_awesome-download" data-name="Icon awesome-download" d="M6.616,0h2.45A.733.733,0,0,1,9.8.735V5.881h2.686a.611.611,0,0,1,.432,1.044L8.26,11.586a.593.593,0,0,1-.836,0L2.76,6.925a.611.611,0,0,1,.432-1.044H5.881V.735A.733.733,0,0,1,6.616,0Zm9.066,11.516v3.43a.733.733,0,0,1-.735.735H.735A.733.733,0,0,1,0,14.946v-3.43a.733.733,0,0,1,.735-.735H5.228l1.5,1.5a1.569,1.569,0,0,0,2.224,0l1.5-1.5h4.493A.733.733,0,0,1,15.681,11.516Zm-3.8,2.7a.613.613,0,1,0-.613.613A.614.614,0,0,0,11.884,14.211Zm1.96,0a.613.613,0,1,0-.613.613A.614.614,0,0,0,13.844,14.211Z" fill="#545d67"/>
</svg>
