<svg id="Component_37_1" data-name="Component 37 – 1" xmlns="http://www.w3.org/2000/svg" width="62" height="30" viewBox="0 0 62 30">
  <rect id="Rectangle_17332" data-name="Rectangle 17332" width="62" height="30" rx="15" fill="#f2f4f5"/>
  <text id="Edit" transform="translate(38.933 20)" fill="#131a24" font-size="14" font-family="PlusJakartaSans-Bold, Plus Jakarta Sans" font-weight="700" letter-spacing="0.001em"><tspan x="-13" y="0">Edit</tspan></text>
  <path id="Union_9" data-name="Union 9" d="M.358,11a1.371,1.371,0,0,1-.341-1.17L.379,7.272A.789.789,0,0,1,.566,6.9l4.2-4.2c.067.18.141.374.234.575s.188.368.295.548a3.38,3.38,0,0,0,.261.394,3.881,3.881,0,0,0,.281.368.766.766,0,0,0,.1.12,5.616,5.616,0,0,0,.688.7.83.83,0,0,0,.114.1,4.068,4.068,0,0,0,.375.287c.141.1.281.194.428.282.18.107.368.2.561.294s.381.161.569.227l-4.2,4.2a.752.752,0,0,1-.368.188l-2.568.36a1.386,1.386,0,0,1-.241.021A1.335,1.335,0,0,1,.358,11ZM9.306,5.76a5.434,5.434,0,0,1-3.7-3.7.278.278,0,0,1,.067-.268L6.484.985a2.421,2.421,0,0,1,3.9,0,2.757,2.757,0,0,1,.983,1.967,2.765,2.765,0,0,1-.983,1.932l-.8.809a.265.265,0,0,1-.193.08A.347.347,0,0,1,9.306,5.76Z" transform="translate(9.067 9.318)" fill="#131a24"/>
</svg>
