<svg id="vuesax_bold_user-edit" data-name="vuesax/bold/user-edit" xmlns="http://www.w3.org/2000/svg" width="20.186" height="20.186" viewBox="0 0 20.186 20.186">
  <g id="user-edit" transform="translate(0 0)">
    <path id="Vector" d="M0,0H20.186V20.186H0Z" fill="none" opacity="0"/>
    <path id="Vector-2" data-name="Vector" d="M4.205,0A4.205,4.205,0,1,0,8.411,4.205,4.207,4.207,0,0,0,4.205,0ZM6.031,3.793,3.76,6.064a.9.9,0,0,1-.378.193l-.866.118a.406.406,0,0,1-.488-.488l.126-.866a.744.744,0,0,1,.193-.378L4.618,2.372a.878.878,0,0,1,1.421,0A.882.882,0,0,1,6.031,3.793Z" transform="translate(5.888 1.682)" fill="#545d67"/>
    <path id="Vector-3" data-name="Vector" d="M7.645,0C3.432,0,0,2.826,0,6.308a.416.416,0,0,0,.421.421H14.87a.416.416,0,0,0,.421-.421C15.291,2.826,11.859,0,7.645,0Z" transform="translate(2.448 11.775)" fill="#545d67"/>
  </g>
</svg>
