<svg xmlns="http://www.w3.org/2000/svg" width="20" height="18" viewBox="0 0 20 18">
  <path id="eye-slash" d="M5.567,15.562a.5.5,0,1,1-.664.748,10.687,10.687,0,0,1-2.87-4.129.5.5,0,0,1,0-.362A10.69,10.69,0,0,1,15.327,5.525a.5.5,0,0,1-.312.95A9.69,9.69,0,0,0,3.038,12,9.687,9.687,0,0,0,5.567,15.562ZM12.62,8.048a.5.5,0,0,1-.154.988,3,3,0,0,0-3.431,3.425.5.5,0,0,1-.988.152A4,4,0,0,1,12.62,8.048Zm-1.164,7.915a.5.5,0,1,1,.135-.991A3.032,3.032,0,0,0,12,15a3,3,0,0,0,3-3,3.036,3.036,0,0,0-.021-.361.5.5,0,1,1,.993-.119,4,4,0,0,1-4.516,4.443Zm-7.6,4.89a.5.5,0,0,1-.707-.707l17-17a.5.5,0,0,1,.707.707ZM18.433,8.438A.5.5,0,1,1,19.1,7.69a10.687,10.687,0,0,1,2.87,4.129.5.5,0,0,1,0,.362A10.69,10.69,0,0,1,8.673,18.475a.5.5,0,0,1,.312-.95A9.69,9.69,0,0,0,20.962,12,9.687,9.687,0,0,0,18.433,8.438Z" transform="translate(-2 -3)"/>
</svg>
