<svg xmlns="http://www.w3.org/2000/svg" xmlns:xlink="http://www.w3.org/1999/xlink" width="130" height="154" viewBox="0 0 130 154">
  <defs>
    <clipPath id="clip-path">
      <rect id="Rectangle_19236" data-name="Rectangle 19236" width="130" height="154" rx="9" transform="translate(377 88)" fill="#e2b2d2"/>
    </clipPath>
    <linearGradient id="linear-gradient" x1="0.5" x2="0.5" y2="1" gradientUnits="objectBoundingBox">
      <stop offset="0" stop-color="#836976"/>
      <stop offset="1" stop-color="#53404a"/>
    </linearGradient>
    <linearGradient id="linear-gradient-12" x1="0.348" y1="0.228" x2="1" y2="0.029" xlink:href="#linear-gradient"/>
  </defs>
  <g id="Group_67090" data-name="Group 67090" transform="translate(-377 -88)">
    <g id="Group_67089" data-name="Group 67089">
      <rect id="Rectangle_19173" data-name="Rectangle 19173" width="130" height="154" rx="9" transform="translate(377 88)" fill="#e2b2d2"/>
      <g id="Mask_Group_25469" data-name="Mask Group 25469" clip-path="url(#clip-path)">
        <path id="Union_33" data-name="Union 33" d="M183.68,150.006a103.316,103.316,0,0,1-18.558-1.98,138.786,138.786,0,0,1-17.672-4.576C141.7,141.6,136.159,139.31,130.657,137l-8.162-3.738-7.858-3.856c-5.1-2.533-10.267-4.923-15.529-7.055A150.535,150.535,0,0,0,83.1,116.615a110.557,110.557,0,0,0-16.532-3.71,83.061,83.061,0,0,0-16.874-.917,59.3,59.3,0,0,0-16.583,3.318c-5.3,1.986-10.469,4.859-14.342,9.223,3.284-4.853,8.187-8.511,13.427-11.3a56.973,56.973,0,0,1,17.026-5.484c11.874-1.951,24.061-1,35.726,1.424a160,160,0,0,1,17.307,4.512c5.7,1.753,11.228,3.934,16.73,6.176l8.053,3.271,7.931,2.969c5.363,1.825,10.724,3.607,16.153,4.946,10.784,2.917,21.78,4.643,32.415,4.257a64.183,64.183,0,0,0,29.644-8.155c8.909-5.063,16.569-12.476,23.029-21.124,1.04-1.369,2-2.818,2.985-4.236-1.805.643-3.63,1.275-5.546,1.885a86.363,86.363,0,0,1-8.81,2.315,78.979,78.979,0,0,1-9.168,1.387,87.739,87.739,0,0,1-18.409-.167c-12.137-1.375-23.459-5.033-34.08-9.092-10.645-4.1-20.695-8.672-30.662-12.664-5.014-2.01-9.861-3.792-14.977-5.457-5.04-1.7-10.09-3.274-15.081-4.488a89.2,89.2,0,0,0-14.839-2.466,57.426,57.426,0,0,0-14.6.758,68.907,68.907,0,0,0-14.013,3.977A74.135,74.135,0,0,0,47.651,83.67c1.912-.372,3.836-.69,5.769-.911a81.542,81.542,0,0,1,39.185,5.3c3.15,1.191,5.834,2.385,8.854,3.731l8.6,3.98c5.683,2.64,11.264,5.36,16.99,7.665,2.862,1.158,5.755,2.205,8.688,3.115a89.566,89.566,0,0,0,8.941,2.217c1.513.283,3.042.446,4.576.669,1.536.137,3.08.191,4.629.293l4.663-.133,4.659-.587-4.57,1.2-4.687.756c-1.579.108-3.165.272-4.766.328-1.586-.022-3.192.022-4.786-.065a87.156,87.156,0,0,1-18.838-3.433c-6.134-1.731-12.138-3.821-18.017-5.986l-8.789-3.144c-2.811-.96-5.969-2.022-8.76-2.793a77.793,77.793,0,0,0-8.726-1.992c-2.924-.532-5.857-.845-8.79-1.091A69.273,69.273,0,0,0,55.086,93.8a63.919,63.919,0,0,0-16.3,5.4c-8.844,4.315-15.457,10.888-22.324,17.837Q8.77,124.8,1.076,132.584c-.356.361-.721.727-1.076,1.09,1.781-1.8,2.9-6.913,3.937-9.43,7.623-18.62,18.2-37.664,34.117-50.753q2.344-1.927,4.859-3.686C58.966,58.6,78.822,54.594,98.1,56.974q4.156.511,8.259,1.391c5.757,1.22,11.278,2.762,16.726,4.412,5.388,1.673,10.9,3.646,16.133,5.682,16.4,6.381,32.744,15.088,50.094,18.491,23.459,4.6,47.122-.7,67.35-13.136l26.276-15.1-13.55,27.01a173.3,173.3,0,0,1-19.522,30.967c-7.733,9.7-17.331,18.616-28.878,24.718a71.354,71.354,0,0,1-18.256,6.722,83.13,83.13,0,0,1-17.891,1.884C184.456,150.013,184.068,150.009,183.68,150.006ZM65,21.773A21.778,21.778,0,1,1,86.781,43.546,21.777,21.777,0,0,1,65,21.773Z" transform="translate(263.559 62)" fill="#fff" opacity="0.313"/>
      </g>
    </g>
    <g id="Group_67088" data-name="Group 67088" transform="translate(-17411 -29.925)">
      <path id="Union_31" data-name="Union 31" d="M-6539.51-9004.221l-5.343.035v-.091l-40.336-.415,8.386-33.9s20.1-12.33,25.349-15.4,3.717-13,3.717-13l3.662-1.754L-6544-9075l6.491,3.108,6.491-3.108v6.218l3.737,1.79s-1.53,9.923,3.715,13,19.095.731,27.727,13.094,6.8,36.352,6.8,36.352l-41.979.276v.143Z" transform="translate(24393.859 9276.059)" fill="#ffedf4"/>
      <path id="Path_91506" data-name="Path 91506" d="M17420.66,888.529a17.124,17.124,0,0,0,.555,3.185c.387,1.119-6.1,6.912-9.379,7.363s-5.781.578-8.9-1.513-3.465-1.709-5.127-1.32-2.766.727-2.766.727,3.674-2.532,4.262-4.49a15.83,15.83,0,0,1,.625-1.946s13.029-.886,15.154-2.007S17420.66,888.529,17420.66,888.529Z" transform="translate(446 -674)" fill="#f4d7eb"/>
      <path id="Path_91501" data-name="Path 91501" d="M6705.591,9617.245s-5.412-4.6-7.767-3.583-3.324,4.941-2.735,7.78,2.861,7.169,4.183,7.6,3.7-.163,4.33-1.292S6705.591,9617.245,6705.591,9617.245Z" transform="translate(11127 -9431)" fill="#ffe3f6"/>
      <path id="Path_91497" data-name="Path 91497" d="M7557.531,9359.082c11.2,20.353,11.56,1.91,5.724,1.22s3.034,33.874,3.034,33.874,1.086-3.011,2.8-1.149,3.034,6.276,1.5,9.5-3.059,7.393-5.633,6.595-1.7-1.8-1.7-1.8-2.478,10.626-7.268,14.975-10.475,9.716-14.175,10.418-7.169-.352-8-1.359-6.6-4.721-12.826-11.066-12.732-18.284-9.342-29.191-.063-21.235,2.234-21.882" transform="translate(10315.752 -9210.462)" fill="#ffedf4"/>
      <path id="Intersection_1" data-name="Intersection 1" d="M-17298.184-233.175c-.031-.072-.047-.111-.047-.111s7.91-2.631,12.377-8.489,9.314-11,7.98-31.312,1.613-28.563,1.613-28.563l2.227,28.563s.713,13.434.561,14.986a1.569,1.569,0,0,0,.1.275.848.848,0,0,1-.213-.417c-.57,2.2-2.982,10.682-7.137,14.45-4.787,4.345-10.471,9.715-14.172,10.416a13.134,13.134,0,0,1-2.451.229C-17297.633-233.149-17297.912-233.158-17298.184-233.175Z" transform="translate(35152.465 455.62)" fill="#fffcfe" opacity="0.655"/>
      <path id="Subtraction_55" data-name="Subtraction 55" d="M-17301.912-229.76a2.947,2.947,0,0,1-.988-.691,20.436,20.436,0,0,0-2.258-1.867,99.457,99.457,0,0,1-10.568-9.2,39.086,39.086,0,0,1-8.277-12.886,29.326,29.326,0,0,1-1.912-8.037,21.661,21.661,0,0,1,.85-8.271c1.908-6.143,1.65-11.982,1.463-16.246v-.008c-.141-3.218-.232-5.344.771-5.625l1.113-.258c0,.807.045,1.724.09,2.787l0,.054V-290c.2,4.6.48,10.9-1.576,17.529a23.331,23.331,0,0,0-.914,8.92,31.465,31.465,0,0,0,2.057,8.668,42.276,42.276,0,0,0,8.934,13.9c3.385,3.449,6.1,6.133,8.082,8.093l.189.187c1.354,1.339,2.332,2.307,2.941,2.948Z" transform="translate(35152.465 451.337)" fill="#ffe3f6"/>
    </g>
    <path id="Path_91530" data-name="Path 91530" d="M17906.768,412.082s1.184-26.092,7.9-35.745,18.869-11.858,18.869-11.858-1.449,6.806,12.8,15.216,12.576,10.221,12.576,10.221,1.729-5.366,13.713-10.221,14.246-13.991,14.246-13.991,11.689,1.97,17.855,11.317,6.9,35.062,6.9,35.062Z" transform="translate(-17513.551 -170.139)" fill="#a57dc7"/>
    <path id="Subtraction_57" data-name="Subtraction 57" d="M-17714.545-255.447H-17719v-.024c.035-.7.373-7.022,1.432-14.23a98.4,98.4,0,0,1,2.4-11.835,32.547,32.547,0,0,1,4.066-9.656c3.887-5.588,9.6-8.681,13.705-10.29a28.738,28.738,0,0,0-8.76,8.067,34.672,34.672,0,0,0-4.322,10.259,105.032,105.032,0,0,0-2.549,12.571c-1.193,8.116-1.518,15.075-1.52,15.137Z" transform="translate(18112.219 497.391)" fill="#926db2"/>
    <path id="Path_91523" data-name="Path 91523" d="M17377.691,938.973l-1.77,10.553h1.77Z" transform="translate(-16894.828 -707.526)" fill="#765691" opacity="0.399"/>
    <path id="Path_91533" data-name="Path 91533" d="M17375.922,938.973l1.77,10.553h-1.77Z" transform="translate(-16963.828 -707.526)" fill="#765691" opacity="0.399"/>
    <g id="Group_67016" data-name="Group 67016" transform="translate(414.859 -381.305)">
      <g id="Group_67014" data-name="Group 67014" transform="translate(-54.611)">
        <path id="Path_91223" data-name="Path 91223" d="M7490.293,9409.52s-11.493,7.783-13.032,17.991,3.612,14.971.813,19.112-6.463,2.475-6.463,2.475,2.384,5,5.65,6.713,24.117,9.6,24.211-6.713S7490.293,9409.52,7490.293,9409.52Z" transform="translate(-7443 -8870.922)" fill="url(#linear-gradient)"/>
        <path id="Path_91222" data-name="Path 91222" d="M7560.809,9347.69s8.047-6.6,17.567-1.9,11.017,14.05,9.886,22.364-1.732,9.932-1.732,9.932-14.4-13.232-16.647-16.473S7560.809,9347.69,7560.809,9347.69Z" transform="translate(-7473.22 -8848.759)" fill="url(#linear-gradient)"/>
        <path id="Path_91221" data-name="Path 91221" d="M7546.652,9356.265a16.882,16.882,0,0,0,4.414-10.71c.475-7.019-11.015-13.807-22.162-10.024s-22.033,15.335-23.523,29.186S7546.652,9356.265,7546.652,9356.265Z" transform="translate(-7454.429 -8845.508)" fill="url(#linear-gradient)"/>
        <path id="Path_91219" data-name="Path 91219" d="M7501.188,9424.178s15.516,17.417,16.178,24.1-.4,13.1-14.559,21.568-2.222,26.752-2.222,26.752a26.04,26.04,0,0,1-19.616-13.313c-7.048-12.528,3.393-21.255,12.317-25.088s15.616-8.148,12.663-17.537S7501.188,9424.178,7501.188,9424.178Z" transform="translate(-7445.385 -8875.889)" fill="url(#linear-gradient)"/>
        <path id="Path_91220" data-name="Path 91220" d="M7571.891,9367.232s19.576,13.77,25.43,25.289,2.16,25.771-4.8,31.465.847,1.625,1.157-13.111S7571.891,9367.232,7571.891,9367.232Z" transform="translate(-7476.803 -8856.585)" fill="url(#linear-gradient)"/>
        <path id="Path_91218" data-name="Path 91218" d="M7535.1,9354.489c1.282.722,4.924,3.069,2.6,7.936s-25.813,14.663-31.812,24.9-.822,21.974,1.078,24.619,15.962,16.87-7.21,22.358-9.8,27.159-9.8,27.159-9.824-2.556-12.528-15.254,20.777-14.653,23.548-21.672-16.49-11.9-16.935-30.848,24.272-35.04,35.364-37.788S7533.816,9353.768,7535.1,9354.489Z" transform="translate(-7444.895 -8852.458)" fill="url(#linear-gradient)"/>
      </g>
      <g id="Group_67015" data-name="Group 67015" transform="translate(-54.611)" opacity="0.453">
        <path id="Path_91223-2" data-name="Path 91223" d="M7490.293,9409.52s-11.493,7.783-13.032,17.991,3.612,14.971.813,19.112-6.463,2.475-6.463,2.475,2.384,5,5.65,6.713,24.117,9.6,24.211-6.713S7490.293,9409.52,7490.293,9409.52Z" transform="translate(-7443 -8870.922)" fill="url(#linear-gradient)"/>
        <path id="Path_91222-2" data-name="Path 91222" d="M7560.809,9347.69s8.047-6.6,17.567-1.9,11.017,14.05,9.886,22.364-1.732,9.932-1.732,9.932-14.4-13.232-16.647-16.473S7560.809,9347.69,7560.809,9347.69Z" transform="translate(-7473.22 -8848.759)" fill="url(#linear-gradient)"/>
        <path id="Path_91221-2" data-name="Path 91221" d="M7546.652,9356.265a16.882,16.882,0,0,0,4.414-10.71c.475-7.019-11.015-13.807-22.162-10.024s-22.033,15.335-23.523,29.186S7546.652,9356.265,7546.652,9356.265Z" transform="translate(-7454.429 -8845.508)" fill="url(#linear-gradient)"/>
        <path id="Path_91219-2" data-name="Path 91219" d="M7503.553,9414.7s-.473,8.9,3.3,15.761c3.837,6.967,10.164,14.326,10.509,17.816.663,6.687-.4,13.1-14.559,21.568s-2.222,26.752-2.222,26.752a26.04,26.04,0,0,1-19.616-13.313c-7.048-12.528,3.393-21.255,12.317-25.088s15.616-8.148,12.663-17.537S7503.553,9414.7,7503.553,9414.7Z" transform="translate(-7445.385 -8875.889)" fill="url(#linear-gradient)"/>
        <path id="Path_91220-2" data-name="Path 91220" d="M7572.075,9367.245s19.392,13.757,25.245,25.276,2.16,25.771-4.8,31.465.847,1.625,1.157-13.111S7572.075,9367.245,7572.075,9367.245Z" transform="translate(-7476.803 -8856.585)" fill="url(#linear-gradient)"/>
        <path id="Path_91218-2" data-name="Path 91218" d="M7535.1,9354.489c1.282.722,4.924,3.069,2.6,7.936s-25.874,14.194-31.873,24.428.48,21.24,2.381,23.886,14.72,18.072-8.452,23.561-9.8,27.159-9.8,27.159-9.824-2.556-12.528-15.254,20.777-14.653,23.548-21.672-16.49-11.9-16.935-30.848,24.272-35.04,35.364-37.788S7533.816,9353.768,7535.1,9354.489Z" transform="translate(-7444.895 -8852.458)" fill="url(#linear-gradient-12)"/>
      </g>
    </g>
  </g>
</svg>
