<svg xmlns="http://www.w3.org/2000/svg" width="38.888" height="38.888" viewBox="0 0 38.888 38.888">
  <path id="Path_36162" data-name="Path 36162" d="M38.888,19.47A19.444,19.444,0,1,1,19.521,0,19.46,19.46,0,0,1,38.888,19.47M23.049,26.279c.08.866.109,1.711.247,2.539a2.914,2.914,0,0,0,2.542,2.638c1.531.282,3.043.675,4.554,1.057a.808.808,0,0,0,.881-.212,17.2,17.2,0,0,0,5.3-16.216,17.469,17.469,0,0,0-34.326,6.5,16.9,16.9,0,0,0,5.419,9.755.7.7,0,0,0,.527.176c1.738-.387,3.479-.772,5.2-1.231a2.51,2.51,0,0,0,1.243-.77c1-1.24.995-2.726.925-4.247-.2,0-.332,0-.459,0a2.73,2.73,0,0,1-3.123-2.308,9.6,9.6,0,0,1-.34-2.751c.127-2.427.338-4.852.61-7.268a8.947,8.947,0,0,1,.733-2.606,3,3,0,0,1,2.773-1.921.825.825,0,0,0,.483-.288,4.091,4.091,0,0,1,2.939-1.386,6.614,6.614,0,0,1,7.006,5.236,34.736,34.736,0,0,1,.875,9.183,8.51,8.51,0,0,1-.517,2.434,2.452,2.452,0,0,1-2.5,1.682c-.276,0-.552,0-.99,0" transform="translate(0 0)" fill="#97a0ad"/>
</svg>
