<svg id="india_1_" data-name="india (1)" xmlns="http://www.w3.org/2000/svg" width="32.88" height="22.873" viewBox="0 0 32.88 22.873">
  <path id="Path_451" data-name="Path 451" d="M1.8,0H31.085a1.81,1.81,0,0,1,1.8,1.806v19.26a1.812,1.812,0,0,1-1.806,1.806H1.8A1.812,1.812,0,0,1,0,21.066V1.806A1.81,1.81,0,0,1,1.8,0Z" fill="#f93"/>
  <path id="Path_452" data-name="Path 452" d="M0,28.49H32.88v7.626H0Z" transform="translate(0 -20.867)" fill="#fff"/>
  <path id="Path_453" data-name="Path 453" d="M0,56.99H32.88v5.817a1.812,1.812,0,0,1-1.806,1.806H1.8A1.812,1.812,0,0,1,0,62.807V56.99Z" transform="translate(0 -41.741)" fill="#128807"/>
  <path id="Path_454" data-name="Path 454" d="M56.141,34.39a3.05,3.05,0,1,0-3.05,3.05,3.049,3.049,0,0,0,3.05-3.05Z" transform="translate(-36.65 -22.954)" fill="#008"/>
  <path id="Path_455" data-name="Path 455" d="M56.806,35.438a2.668,2.668,0,1,0-2.668,2.668,2.666,2.666,0,0,0,2.668-2.668Z" transform="translate(-37.698 -24.001)" fill="#fff"/>
  <path id="Path_456" data-name="Path 456" d="M60.515,41.275a.532.532,0,1,0-.532.532.534.534,0,0,0,.532-.532Z" transform="translate(-43.542 -29.839)" fill="#008"/>
  <path id="Path_457" data-name="Path 457" d="M71.091,43.7a.134.134,0,1,0-.15.115.135.135,0,0,0,.15-.115Z" transform="translate(-51.874 -31.893)" fill="#008"/>
  <path id="Path_458" data-name="Path 458" d="M61.191,46.243l.091-1.6-.091-.763-.091.763Z" transform="translate(-44.751 -32.139)" fill="#008"/>
  <path id="Path_459" data-name="Path 459" d="M70.407,46.245a.133.133,0,1,0-.174.072.133.133,0,0,0,.174-.072Z" transform="translate(-51.38 -33.736)"/>
  <path id="Path_460" data-name="Path 460" d="M58.86,46.122l.5-1.523.11-.76-.286.714Z" transform="translate(-43.11 -32.109)"/>
  <path id="Path_461" data-name="Path 461" d="M69.094,48.53a.134.134,0,1,0-.187.024.135.135,0,0,0,.187-.024Z" transform="translate(-50.431 -35.387)"/>
  <path id="Path_462" data-name="Path 462" d="M56.45,45.777l.88-1.341.3-.706-.46.613Z" transform="translate(-41.345 -32.029)"/>
  <path id="Path_463" data-name="Path 463" d="M67.22,50.394a.134.134,0,1,0-.187-.024.135.135,0,0,0,.187.024Z" transform="translate(-49.076 -36.734)"/>
  <path id="Path_464" data-name="Path 464" d="M54.39,45.22l1.2-1.068.474-.6-.6.474Z" transform="translate(-39.836 -31.897)"/>
  <path id="Path_465" data-name="Path 465" d="M64.945,51.717a.133.133,0,1,0-.174-.072.134.134,0,0,0,.174.072Z" transform="translate(-47.432 -37.691)"/>
  <path id="Path_466" data-name="Path 466" d="M52.8,44.493l1.434-.722.613-.46-.706.3Z" transform="translate(-38.672 -31.721)"/>
  <path id="Path_467" data-name="Path 467" d="M62.4,52.393a.134.134,0,1,0-.15-.115.13.13,0,0,0,.15.115Z" transform="translate(-45.591 -38.179)"/>
  <path id="Path_468" data-name="Path 468" d="M51.81,43.65l1.571-.326.712-.284-.76.107Z" transform="translate(-37.947 -31.523)"/>
  <path id="Path_469" data-name="Path 469" d="M59.753,52.391a.134.134,0,1,0-.115-.15.135.135,0,0,0,.115.15Z" transform="translate(-43.679 -38.177)"/>
  <path id="Path_470" data-name="Path 470" d="M51.47,42.491l1.6.091.763-.091L53.07,42.4Z" transform="translate(-37.698 -31.055)"/>
  <path id="Path_471" data-name="Path 471" d="M57.206,51.717a.133.133,0,0,0,.174-.072.135.135,0,0,0-.072-.174.133.133,0,0,0-.174.072.136.136,0,0,0,.072.174Z" transform="translate(-41.839 -37.691)"/>
  <path id="Path_472" data-name="Path 472" d="M51.81,40.16l1.523.5.76.11-.712-.286Z" transform="translate(-37.947 -29.414)"/>
  <path id="Path_473" data-name="Path 473" d="M54.922,50.394a.134.134,0,1,0-.024-.187.138.138,0,0,0,.024.187Z" transform="translate(-40.189 -36.734)"/>
  <path id="Path_474" data-name="Path 474" d="M52.8,37.75l1.341.88.706.3-.613-.46Z" transform="translate(-38.672 -27.649)"/>
  <path id="Path_475" data-name="Path 475" d="M53.055,48.53a.134.134,0,1,0,.024-.187.135.135,0,0,0-.024.187Z" transform="translate(-38.839 -35.387)"/>
  <path id="Path_476" data-name="Path 476" d="M54.39,35.69l1.068,1.2.6.476-.474-.6Z" transform="translate(-39.836 -26.14)"/>
  <path id="Path_477" data-name="Path 477" d="M51.734,46.245a.133.133,0,1,0,.072-.174.134.134,0,0,0-.072.174Z" transform="translate(-37.884 -33.736)"/>
  <path id="Path_478" data-name="Path 478" d="M56.45,34.1l.722,1.434.46.613-.3-.7Z" transform="translate(-41.345 -24.976)"/>
  <path id="Path_479" data-name="Path 479" d="M51.056,43.7a.134.134,0,1,0,.115-.15.13.13,0,0,0-.115.15Z" transform="translate(-37.394 -31.895)"/>
  <path id="Path_480" data-name="Path 480" d="M58.86,33.11l.326,1.571.286.712-.11-.76Z" transform="translate(-43.11 -24.25)"/>
  <path id="Path_481" data-name="Path 481" d="M51.056,41.053a.134.134,0,1,0,.15-.115.135.135,0,0,0-.15.115Z" transform="translate(-37.394 -29.983)"/>
  <path id="Path_482" data-name="Path 482" d="M61.191,32.77l-.091,1.6.091.763.091-.763Z" transform="translate(-44.751 -24.001)"/>
  <path id="Path_483" data-name="Path 483" d="M51.741,38.506a.133.133,0,0,0,.072.174.135.135,0,0,0,.174-.072.133.133,0,1,0-.246-.1Z" transform="translate(-37.889 -28.143)"/>
  <path id="Path_484" data-name="Path 484" d="M62.343,33.11l-.5,1.523-.11.76.286-.712Z" transform="translate(-45.212 -24.25)"/>
  <path id="Path_485" data-name="Path 485" d="M53.053,36.227a.134.134,0,1,0,.187-.024.133.133,0,0,0-.187.024Z" transform="translate(-38.836 -26.495)"/>
  <path id="Path_486" data-name="Path 486" d="M63.193,34.1l-.88,1.343-.3.7.46-.613Z" transform="translate(-45.417 -24.976)"/>
  <path id="Path_487" data-name="Path 487" d="M54.927,34.356a.134.134,0,1,0,.187.024.135.135,0,0,0-.187-.024Z" transform="translate(-40.191 -25.143)"/>
  <path id="Path_488" data-name="Path 488" d="M63.92,35.69l-1.2,1.068-.474.6.6-.476Z" transform="translate(-45.593 -26.14)"/>
  <path id="Path_489" data-name="Path 489" d="M57.206,33.04a.136.136,0,0,0-.072.174.133.133,0,0,0,.246-.1.13.13,0,0,0-.174-.072Z" transform="translate(-41.839 -24.191)"/>
  <path id="Path_490" data-name="Path 490" d="M64.477,37.75l-1.434.722-.613.46.706-.3Z" transform="translate(-45.725 -27.649)"/>
  <path id="Path_491" data-name="Path 491" d="M59.753,32.356a.134.134,0,0,0,.035.265.135.135,0,0,0,.115-.15.132.132,0,0,0-.15-.115Z" transform="translate(-43.679 -23.697)"/>
  <path id="Path_492" data-name="Path 492" d="M64.822,40.16l-1.571.326-.712.286.76-.11Z" transform="translate(-45.806 -29.414)"/>
  <path id="Path_493" data-name="Path 493" d="M62.4,32.356a.134.134,0,1,0,.115.15.135.135,0,0,0-.115-.15Z" transform="translate(-45.59 -23.697)"/>
  <path id="Path_494" data-name="Path 494" d="M64.943,42.491l-1.6-.091-.763.091.763.091Z" transform="translate(-45.835 -31.055)"/>
  <path id="Path_495" data-name="Path 495" d="M64.945,33.041a.133.133,0,0,0-.1.246.133.133,0,0,0,.1-.246Z" transform="translate(-47.432 -24.192)"/>
  <path id="Path_496" data-name="Path 496" d="M64.822,43.65l-1.523-.5-.76-.107.712.284Z" transform="translate(-45.806 -31.523)"/>
  <path id="Path_497" data-name="Path 497" d="M67.22,34.353a.134.134,0,1,0,.024.187.133.133,0,0,0-.024-.187Z" transform="translate(-49.076 -25.14)"/>
  <path id="Path_498" data-name="Path 498" d="M64.477,44.493l-1.341-.88-.706-.3.613.46Z" transform="translate(-45.725 -31.721)"/>
  <path id="Path_499" data-name="Path 499" d="M69.094,36.227a.134.134,0,1,0-.024.187.135.135,0,0,0,.024-.187Z" transform="translate(-50.431 -26.495)"/>
  <path id="Path_500" data-name="Path 500" d="M63.92,45.22l-1.068-1.2-.6-.474.474.6Z" transform="translate(-45.593 -31.897)"/>
  <path id="Path_501" data-name="Path 501" d="M70.417,38.5a.133.133,0,0,0-.246.1.136.136,0,0,0,.174.072.134.134,0,0,0,.072-.174Z" transform="translate(-51.387 -28.14)"/>
  <path id="Path_502" data-name="Path 502" d="M63.193,45.777l-.722-1.434-.46-.613.3.706Z" transform="translate(-45.417 -32.029)"/>
  <path id="Path_503" data-name="Path 503" d="M71.093,41.053a.134.134,0,1,0-.115.15.13.13,0,0,0,.115-.15Z" transform="translate(-51.875 -29.983)"/>
  <path id="Path_504" data-name="Path 504" d="M62.343,46.122l-.326-1.568-.286-.714.11.76Z" transform="translate(-45.212 -32.109)"/>
</svg>
