<svg xmlns="http://www.w3.org/2000/svg" xmlns:xlink="http://www.w3.org/1999/xlink" width="59" height="59" viewBox="0 0 59 59">
  <defs>
    <clipPath id="clip-path">
      <path id="Path_36352" data-name="Path 36352" d="M3405.529-8781.533l1.193-4.768-8.972-15.518-6.837,8.259,1.246,6.01,7.311,6.017Z" transform="translate(-3390.913 8801.818)" fill="none" stroke="#707070" stroke-width="1"/>
    </clipPath>
  </defs>
  <g id="Group_62689" data-name="Group 62689" transform="translate(0 -0.045)">
    <circle id="Ellipse_734" data-name="Ellipse 734" cx="29.5" cy="29.5" r="29.5" transform="translate(0 0.045)" fill="#eff2f5"/>
    <g id="Polygon_1" data-name="Polygon 1" transform="translate(8 21.045)" fill="#fff">
      <path d="M 18.99020957946777 21.5 L 7.009788990020752 21.5 C 5.73707914352417 21.5 4.600668907165527 20.84006118774414 3.96989893913269 19.73466110229492 C 3.339118957519531 18.6292610168457 3.3490891456604 17.31516075134277 3.996549129486084 16.21944046020508 L 9.986748695373535 6.082170486450195 C 10.62295913696289 5.005510330200195 11.74940872192383 4.362730503082275 12.99999904632568 4.362730503082275 C 14.25058937072754 4.362730503082275 15.37703895568848 5.005510330200195 16.01324844360352 6.082180500030518 L 22.00344848632812 16.21944046020508 C 22.65090942382812 17.31516075134277 22.66087913513184 18.6292610168457 22.03009986877441 19.73466110229492 C 21.39932823181152 20.84006118774414 20.26291847229004 21.5 18.99020957946777 21.5 Z" stroke="none"/>
      <path d="M 12.99999904632568 4.862730026245117 C 11.92805862426758 4.862730026245117 10.96252918243408 5.413690567016602 10.4172191619873 6.336540222167969 L 4.427019119262695 16.47381019592285 C 3.872039794921875 17.41299057006836 3.863498687744141 18.53937149047852 4.404169082641602 19.48685073852539 C 4.944829940795898 20.43434143066406 5.918899536132812 21 7.009788513183594 21 L 18.99020957946777 21 C 20.08109855651855 21 21.05516815185547 20.43434143066406 21.59582901000977 19.48685073852539 C 22.13649940490723 18.53937149047852 22.12795829772949 17.41299057006836 21.57297897338867 16.47381019592285 L 15.58277893066406 6.336540222167969 C 15.03745937347412 5.413690567016602 14.07192897796631 4.862730026245117 12.99999904632568 4.862730026245117 M 12.99999904632568 3.862728118896484 C 14.33479118347168 3.862728118896484 15.66958427429199 4.517755508422852 16.44371032714844 5.827810287475586 L 22.43390846252441 15.96508026123047 C 24.00954818725586 18.63154983520508 22.08740997314453 22 18.99020957946777 22 L 7.009788513183594 22 C 3.912588119506836 22 1.990449905395508 18.63154983520508 3.566089630126953 15.96508026123047 L 9.556289672851562 5.827810287475586 C 10.33041381835938 4.517755508422852 11.66520690917969 3.862728118896484 12.99999904632568 3.862728118896484 Z" stroke="none" fill="#b9c4d0"/>
    </g>
    <g id="Path_36351" data-name="Path 36351" transform="translate(18.036 12.597)" fill="#fff">
      <path d="M 26.78350257873535 29.99027442932129 L 0.9382764101028442 29.90502738952637 C 0.9598624706268311 29.86754417419434 0.9820020794868469 29.8291015625 1.004672765731812 29.78973388671875 C 1.781532764434814 28.44081497192383 3.227562665939331 25.92996406555176 4.709532737731934 23.3776741027832 L 13.8422327041626 7.649144172668457 C 14.63909244537354 6.276784420013428 16.06223297119141 5.457474231719971 17.64916229248047 5.457474231719971 C 19.23608207702637 5.457474231719971 20.65922355651855 6.276784420013428 21.45608329772949 7.649144172668457 L 30.58877182006836 23.3776741027832 C 31.3890323638916 24.75590515136719 31.39208221435547 26.4033145904541 30.59693336486816 27.78449440002441 C 29.80201530456543 29.16526222229004 28.37641906738281 29.98977088928223 26.78327941894531 29.99027442932129 L 26.78350257873535 29.99027442932129 Z" stroke="none"/>
      <path d="M 17.6491527557373 5.957464218139648 C 16.24247360229492 5.957464218139648 14.98097229003906 6.683723449707031 14.27463340759277 7.900203704833984 L 5.141933441162109 23.62874412536621 C 3.86768913269043 25.82327651977539 2.620180130004883 27.98688888549805 1.801607131958008 29.40787887573242 L 26.78185272216797 29.49027442932129 C 28.1945629119873 29.49027442932129 29.45876312255859 28.75934410095215 30.16361236572266 27.53502464294434 C 30.86845207214355 26.31072425842285 30.86574172973633 24.85042572021484 30.1563720703125 23.62874412536621 L 21.02367401123047 7.900203704833984 C 20.31733322143555 6.683723449707031 19.05583190917969 5.957464218139648 17.6491527557373 5.957464218139648 M 17.64915657043457 4.957466125488281 C 19.29643630981445 4.957466125488281 20.94371795654297 5.770999908447266 21.88846206665039 7.398063659667969 L 31.02116203308105 23.1266040802002 C 32.91876220703125 26.39467430114746 30.56089210510254 30.49027442932129 26.78185272216797 30.49027442932129 L 0.07470321655273438 30.40218353271484 C 0.5592727661132812 29.56288528442383 2.379552841186523 26.39467430114746 4.277143478393555 23.1266040802002 L 13.40984344482422 7.398063659667969 C 14.35459327697754 5.770999908447266 16.00187492370605 4.957466125488281 17.64915657043457 4.957466125488281 Z" stroke="none" fill="#b9c4d0"/>
    </g>
    <g id="Mask_Group_25309" data-name="Mask Group 25309" transform="translate(30.251 15.305)" clip-path="url(#clip-path)">
      <circle id="Ellipse_739" data-name="Ellipse 739" cx="10" cy="10" r="10" transform="translate(-0.251 -5.261)" fill="#b9c4d0" opacity="0.527"/>
    </g>
    <circle id="Ellipse_738" data-name="Ellipse 738" cx="7" cy="7" r="7" transform="translate(30 14.045)" fill="#ff83d6"/>
  </g>
</svg>
