<svg xmlns="http://www.w3.org/2000/svg" xmlns:xlink="http://www.w3.org/1999/xlink" width="31.621" height="29.303" viewBox="0 0 31.621 29.303">
  <defs>
    <linearGradient id="linear-gradient" x1="1.482" y1="-0.125" x2="0.409" y2="0.54" gradientUnits="objectBoundingBox">
      <stop offset="0" stop-color="#ffc1c1"/>
      <stop offset="1" stop-color="#f55"/>
    </linearGradient>
    <linearGradient id="linear-gradient-2" x1="1.252" y1="0.184" x2="0.394" y2="0.422" gradientUnits="objectBoundingBox">
      <stop offset="0" stop-color="#ffc1c1"/>
      <stop offset="1" stop-color="#fa5252"/>
    </linearGradient>
  </defs>
  <g id="Group_62749" data-name="Group 62749" transform="translate(-38.621 -217.992)">
    <path id="Icon_ionic-ios-heart" data-name="Icon ionic-ios-heart" d="M10.471,0h-.034A3.919,3.919,0,0,0,7.164,1.791,3.919,3.919,0,0,0,3.892,0H3.858A3.894,3.894,0,0,0,0,3.892,8.384,8.384,0,0,0,1.646,8.463a28.852,28.852,0,0,0,5.518,5.315,28.852,28.852,0,0,0,5.518-5.315,8.384,8.384,0,0,0,1.646-4.571A3.894,3.894,0,0,0,10.471,0Z" transform="matrix(0.921, 0.391, -0.391, 0.921, 55.788, 217.992)" fill="url(#linear-gradient)"/>
    <path id="Icon_ionic-ios-heart-2" data-name="Icon ionic-ios-heart" d="M7.294,0H7.27A2.73,2.73,0,0,0,4.99,1.248,2.73,2.73,0,0,0,2.711,0H2.687A2.713,2.713,0,0,0,0,2.711,5.84,5.84,0,0,0,1.147,5.895,20.1,20.1,0,0,0,4.99,9.6a20.1,20.1,0,0,0,3.844-3.7A5.84,5.84,0,0,0,9.981,2.711,2.713,2.713,0,0,0,7.294,0Z" transform="matrix(0.819, -0.574, 0.574, 0.819, 41.714, 225.47)" fill="url(#linear-gradient-2)"/>
    <path id="Path_36370" data-name="Path 36370" d="M0,2.746,14.627,0V18.31L0,15.563Z" transform="translate(42.63 228.985)" fill="#950053"/>
    <path id="Path_36371" data-name="Path 36371" d="M10.56,2.881,0,0V18.31L10.56,15.7Z" transform="translate(57.257 228.985)" fill="#600036"/>
    <path id="Path_36372" data-name="Path 36372" d="M2239,5418l3.7,8.2,9.262.8-2.416-6.1Z" transform="translate(-2181.722 -5189.015)" fill="#950053"/>
    <path id="Path_36373" data-name="Path 36373" d="M2257.636,5418l-4.5,8.257-14.138.435,3.979-5.922Z" transform="translate(-2200.379 -5189.015)" fill="#c14b8d"/>
  </g>
</svg>
