<svg xmlns="http://www.w3.org/2000/svg" width="21.188" height="21.188" viewBox="0 0 21.188 21.188">
  <path id="Icon_metro-my-location" data-name="Icon metro-my-location" d="M14.45,10.6A3.852,3.852,0,1,0,18.3,14.45,3.851,3.851,0,0,0,14.45,10.6Zm8.61,2.889A8.662,8.662,0,0,0,15.413,5.84V3.856H13.487V5.84A8.662,8.662,0,0,0,5.84,13.487H3.856v1.926H5.84a8.662,8.662,0,0,0,7.647,7.647v1.984h1.926V23.06a8.662,8.662,0,0,0,7.647-7.647h1.984V13.487H23.06Zm-8.61,7.7a6.742,6.742,0,1,1,6.742-6.742A6.743,6.743,0,0,1,14.45,21.191Z" transform="translate(-3.856 -3.856)" fill="#2995e5"/>
</svg>
