<svg xmlns="http://www.w3.org/2000/svg" width="30" height="30" viewBox="0 0 30 30">
  <g id="Group_62926" data-name="Group 62926" transform="translate(-31 -129)">
    <g id="Group_62925" data-name="Group 62925" transform="translate(31 129)">
      <circle id="Ellipse_702" data-name="Ellipse 702" cx="15" cy="15" r="15" fill="#36b76d"/>
      <path id="Subtraction_32" data-name="Subtraction 32" d="M18.835,23.156h0A13.334,13.334,0,0,0,0,4.313a13.332,13.332,0,0,1,19.246-.407,13.325,13.325,0,0,1-.411,19.25Z" transform="translate(5.182 1.667)" fill="#58c788"/>
    </g>
    <path id="Icon_zocial-call" data-name="Icon zocial-call" d="M3.3,6.135a1.2,1.2,0,0,1,.3-.649L6.04,3.051q.284-.243.426.081L8.434,6.824a.531.531,0,0,1-.1.629l-.893.893a1.009,1.009,0,0,0-.284.629,3.1,3.1,0,0,0,.629,1.562A13.339,13.339,0,0,0,9.022,12.16l.629.649c.19.19.432.423.731.7a12.247,12.247,0,0,0,1.47,1.1,3.29,3.29,0,0,0,1.613.68.883.883,0,0,0,.649-.264l1.055-1.055a.446.446,0,0,1,.608-.081l3.551,2.089a.3.3,0,0,1,.162.213.259.259,0,0,1-.081.233l-2.434,2.434a1.192,1.192,0,0,1-.649.3,4.908,4.908,0,0,1-2.242-.274,10.144,10.144,0,0,1-2.312-1.106q-1.065-.689-1.978-1.4T8.333,15.162l-.527-.508q-.2-.2-.538-.558T6.1,12.7a20.373,20.373,0,0,1-1.44-2.039A11.893,11.893,0,0,1,3.606,8.4,4.812,4.812,0,0,1,3.3,6.135Z" transform="translate(34.62 132.93)" fill="#fff"/>
  </g>
</svg>
