<svg xmlns="http://www.w3.org/2000/svg" xmlns:xlink="http://www.w3.org/1999/xlink" width="23.138" height="29.998" viewBox="0 0 23.138 29.998">
  <defs>
    <clipPath id="clip-path">
      <rect id="Rectangle_17013" data-name="Rectangle 17013" width="23.138" height="29.998" fill="#565f6c"/>
    </clipPath>
  </defs>
  <g id="Group_62436" data-name="Group 62436" transform="translate(0)">
    <g id="Group_62435" data-name="Group 62435" transform="translate(0)" clip-path="url(#clip-path)">
      <path id="Path_36274" data-name="Path 36274" d="M34.585,0a9.847,9.847,0,0,1,5.074,1.454A4.1,4.1,0,0,1,41.51,3.778a3.312,3.312,0,0,1,.118.548.271.271,0,0,0,.16.225,3.718,3.718,0,0,1,1.734,2.064,4.32,4.32,0,0,1-.007,2.644.709.709,0,0,0,.114.693,2.837,2.837,0,0,1-1.9,4.413c-.137.021-.165.1-.189.2a6.253,6.253,0,0,1-3.442,4.47,6.339,6.339,0,0,1-8.783-3.416c-.133-.342-.226-.7-.324-1.054a.232.232,0,0,0-.213-.2,2.736,2.736,0,0,1-2.23-1.813,2.742,2.742,0,0,1,.511-2.86.293.293,0,0,0,.079-.279,10.626,10.626,0,0,1-.213-2.968A6.647,6.647,0,0,1,28.79,2.018a6.75,6.75,0,0,1,3.16-1.7A10.592,10.592,0,0,1,34.585,0m2.162,7.273a7.138,7.138,0,0,1-1.566,1.361,9.817,9.817,0,0,1-4.839,1.441c-.254.014-.255.008-.255.266q0,1.336,0,2.671a5.878,5.878,0,0,0,.3,1.863,5.088,5.088,0,0,0,7.25,2.973,4.872,4.872,0,0,0,2.731-4.113c.092-1.224.029-2.459.039-3.689a.166.166,0,0,0-.123-.182,8.6,8.6,0,0,1-3.164-2.19c-.121-.126-.236-.257-.37-.4m4.925,5.8c.056-.013.085-.017.111-.026a1.58,1.58,0,0,0,.552-2.675.688.688,0,0,1-.226-.889,8.6,8.6,0,0,0,.29-1.046,2.517,2.517,0,0,0-1.484-2.91.781.781,0,0,1-.526-.781,2.387,2.387,0,0,0-.6-1.5A3.957,3.957,0,0,0,38.462,2.23a8.758,8.758,0,0,0-6.569-.576A4.8,4.8,0,0,0,28.4,5.213a8.823,8.823,0,0,0,.061,4.31.735.735,0,0,1-.262.824,1.569,1.569,0,0,0,.251,2.591c.109.059.229.1.367.154v-.229q0-1.652,0-3.3a.647.647,0,0,1,.742-.741A9.962,9.962,0,0,0,32.272,8.5a6.48,6.48,0,0,0,3.941-2.624.633.633,0,0,1,1.057-.007c.333.407.666.819,1.037,1.191a6.67,6.67,0,0,0,2.8,1.75.665.665,0,0,1,.564.751q0,1.643,0,3.287Z" transform="translate(-23.67)" fill="#565f6c"/>
      <path id="Path_36275" data-name="Path 36275" d="M75,192.924a3.278,3.278,0,0,0-1.213.279c-.187.08-.363.188-.547.277-.1.049-.126.106-.087.219a1.692,1.692,0,0,1,.044.985,1.425,1.425,0,0,1-1.325,1.051,1.8,1.8,0,0,1-1.13-.241,1.468,1.468,0,0,1-.561-1.751c.049-.161.008-.222-.121-.3a4.026,4.026,0,0,0-1.5-.515c-.163-.023-.248,0-.284.192a5.423,5.423,0,0,0,.013,2.179c.025.118.078.141.18.126.208-.03.418-.052.625-.088a.644.644,0,0,1,.739.471.6.6,0,0,1-.437.753,14.614,14.614,0,0,1-1.639.151.527.527,0,0,1-.5-.408,6.379,6.379,0,0,1,0-4.236.621.621,0,0,1,.622-.43,5.052,5.052,0,0,1,3.156.934.448.448,0,0,0,.367.091,4.44,4.44,0,0,1,.593,0,.472.472,0,0,0,.254-.058,5.075,5.075,0,0,1,3.2-.97.644.644,0,0,1,.663.5,6.379,6.379,0,0,1,0,4.1.63.63,0,0,1-.662.492,5.074,5.074,0,0,1-1.462-.15.634.634,0,1,1,.295-1.232c.2.04.4.078.6.1a.181.181,0,0,0,.151-.084,5.02,5.02,0,0,0-.011-2.4.237.237,0,0,0-.026-.044m-3.628,1.311c-.008.178.048.229.261.241.231.013.339-.049.343-.2.007-.23-.09-.357-.282-.369s-.312.1-.322.325" transform="translate(-60.101 -172.164)" fill="#565f6c"/>
      <path id="Path_36276" data-name="Path 36276" d="M4.445,203.7a4.661,4.661,0,0,0-2.129,1.023,3.429,3.429,0,0,0-1.035,2.528c-.008.838,0,1.675,0,2.513a.62.62,0,0,1-.649.652.6.6,0,0,1-.607-.569,27.834,27.834,0,0,1,.054-3.264,4.424,4.424,0,0,1,3.1-3.817c.477-.175.968-.313,1.453-.464a.635.635,0,0,1,.857.442q1.271,4.04,2.54,8.08a.639.639,0,0,1-.134.685.6.6,0,0,1-.629.167.674.674,0,0,1-.462-.507c-.313-1-.63-2.008-.946-3.012L4.512,203.9c-.019-.061-.041-.12-.067-.193" transform="translate(0 -181.713)" fill="#565f6c"/>
      <path id="Path_36277" data-name="Path 36277" d="M152.094,203.681c-.05.153-.1.29-.14.427l-2.219,7.06a.653.653,0,0,1-.692.524.629.629,0,0,1-.535-.85q.613-1.967,1.235-3.932l1.3-4.132a.644.644,0,0,1,.91-.473,17.228,17.228,0,0,1,1.887.654,4.464,4.464,0,0,1,2.65,3.744,5.391,5.391,0,0,1,.031.613q0,1.23,0,2.46a.622.622,0,0,1-.638.63.614.614,0,0,1-.622-.625c-.005-.838,0-1.675,0-2.513a3.651,3.651,0,0,0-.323-1.551,3.269,3.269,0,0,0-1.927-1.741c-.3-.107-.6-.193-.913-.295" transform="translate(-133.386 -181.7)" fill="#565f6c"/>
      <path id="Path_36278" data-name="Path 36278" d="M107.152,247.548a.763.763,0,1,1,.761-.761.767.767,0,0,1-.761.761" transform="translate(-95.572 -221.022)" fill="#565f6c"/>
      <path id="Path_36279" data-name="Path 36279" d="M107.15,273.787a.765.765,0,1,1,.763-.762.773.773,0,0,1-.763.762" transform="translate(-95.573 -244.591)" fill="#565f6c"/>
      <path id="Path_36280" data-name="Path 36280" d="M110.951,214.3c.01-.227.12-.338.322-.325s.288.138.282.369c0,.149-.112.211-.343.2-.213-.012-.269-.063-.261-.241" transform="translate(-99.675 -192.229)" fill="#565f6c"/>
    </g>
  </g>
</svg>
