<svg xmlns="http://www.w3.org/2000/svg" width="35.151" height="35.151" viewBox="0 0 35.151 35.151">
  <g id="vuesax_linear_heart-tick" data-name="vuesax/linear/heart-tick" transform="translate(-684 -188)">
    <g id="heart-tick" transform="translate(684 188)">
      <g id="Group" transform="translate(18.161 18.161)">
        <path id="Vector" d="M14.06,7.03a6.806,6.806,0,0,1-1.025,3.618,6.99,6.99,0,0,1-12.01,0A6.939,6.939,0,0,1,0,7.03a7.03,7.03,0,0,1,14.06,0Z" transform="translate(0 0)" fill="none" stroke="#950053" stroke-linecap="round" stroke-linejoin="round" stroke-width="2"/>
        <path id="Vector-2" data-name="Vector" d="M0,1.728,1.728,3.456,5.478,0" transform="translate(4.291 5.302)" fill="none" stroke="#950053" stroke-linecap="round" stroke-linejoin="round" stroke-width="2"/>
      </g>
      <path id="Vector-3" data-name="Vector" d="M0,0H35.151V35.151H0Z" transform="translate(35.151 35.151) rotate(180)" fill="none" opacity="0"/>
      <g id="Group-2" data-name="Group" transform="translate(2.929 4.54)">
        <path id="Vector-4" data-name="Vector" d="M29.292,8.187a16.151,16.151,0,0,1-1.919,7.645,7.023,7.023,0,0,0-10.34,9.505,15.005,15.005,0,0,1-1.479.6,3.194,3.194,0,0,1-1.816,0C9.491,24.488,0,18.44,0,8.187A8.131,8.131,0,0,1,14.646,3.266,8.131,8.131,0,0,1,29.292,8.187Z" fill="none" stroke="#950053" stroke-linecap="round" stroke-linejoin="round" stroke-width="2"/>
      </g>
    </g>
  </g>
</svg>
