<svg xmlns="http://www.w3.org/2000/svg" width="24" height="24" viewBox="0 0 24 24">
  <g id="vuesax_bold_heart-tick" data-name="vuesax/bold/heart-tick" transform="translate(-684 -188)">
    <g id="heart-tick">
      <path id="Vector" d="M0,0H24V24H0Z" transform="translate(708 212) rotate(180)" fill="none" opacity="0"/>
      <path id="Vector-2" data-name="Vector" d="M4.8,0A4.8,4.8,0,0,0,0,4.8,4.647,4.647,0,0,0,.7,7.27a4.772,4.772,0,0,0,8.2,0A4.738,4.738,0,0,0,9.6,4.8,4.8,4.8,0,0,0,4.8,0ZM7.18,4.17,4.62,6.53a.763.763,0,0,1-.51.2.742.742,0,0,1-.53-.22L2.4,5.33A.75.75,0,0,1,3.46,4.27l.67.67L6.16,3.06a.755.755,0,0,1,1.06.04A.767.767,0,0,1,7.18,4.17Z" transform="translate(696.4 200.4)" fill="#fd3c8e"/>
      <path id="Vector-3" data-name="Vector" d="M20,5.59a10.678,10.678,0,0,1-.52,3.31.308.308,0,0,1-.49.14A6.328,6.328,0,0,0,8.9,14.1a6.27,6.27,0,0,0,.81,3.08c.16.28-.03.64-.33.53C6.97,16.89,2.1,13.9.52,8.9A10.678,10.678,0,0,1,0,5.59,5.552,5.552,0,0,1,10,2.23,5.552,5.552,0,0,1,20,5.59Z" transform="translate(686 191.14)" fill="#fd3c8e"/>
    </g>
  </g>
</svg>
