<svg xmlns="http://www.w3.org/2000/svg" xmlns:xlink="http://www.w3.org/1999/xlink" width="47.958" height="47.958" viewBox="0 0 47.958 47.958">
  <defs>
    <filter id="Path_36288" x="0" y="0" width="47.958" height="47.958" filterUnits="userSpaceOnUse">
      <feOffset input="SourceAlpha"/>
      <feGaussianBlur stdDeviation="3" result="blur"/>
      <feFlood flood-color="#6c6767" flood-opacity="0.271"/>
      <feComposite operator="in" in2="blur"/>
      <feComposite in="SourceGraphic"/>
    </filter>
    <linearGradient id="linear-gradient" y1="0.841" x2="1" y2="0.229" gradientUnits="objectBoundingBox">
      <stop offset="0" stop-color="red"/>
      <stop offset="1" stop-color="#ffc4c4"/>
    </linearGradient>
  </defs>
  <g id="Group_62460" data-name="Group 62460" transform="translate(-21.271 -3275.257)">
    <g transform="matrix(1, 0, 0, 1, 21.27, 3275.26)" filter="url(#Path_36288)">
      <path id="Path_36288-2" data-name="Path 36288" d="M14.979,0A14.979,14.979,0,1,1,0,14.979,14.979,14.979,0,0,1,14.979,0Z" transform="translate(9 9)" fill="#fff"/>
    </g>
    <g id="Group_62459" data-name="Group 62459" transform="translate(36.65 3292.863)">
      <path id="Icon_metro-heart" data-name="Icon metro-heart" d="M15.256,3.856a4.91,4.91,0,0,0-4.085,3.007A4.912,4.912,0,0,0,7.086,3.856,4.517,4.517,0,0,0,2.571,8.372c0,5.07,6.779,9.545,8.6,9.571s8.6-4.663,8.6-9.571A4.517,4.517,0,0,0,15.256,3.856Z" transform="translate(-2.571 -3.856)" fill="url(#linear-gradient)"/>
      <path id="Path_36287" data-name="Path 36287" d="M-10406.1,347.621c.652-.278,1.766.566,1.965,1.978s-.148,2.065-.637,2.067.066-.136-.139-1.762a1.753,1.753,0,0,0-1.414-1.554S-10406.752,347.9-10406.1,347.621Z" transform="translate(10418.999 -345.207)" fill="#fff" opacity="0.471"/>
    </g>
  </g>
</svg>
