<svg xmlns="http://www.w3.org/2000/svg" width="39" height="34" viewBox="0 0 39 34">
  <g id="Group_66785" data-name="Group 66785" transform="translate(-30 -2323)">
    <path id="Polygon_2" data-name="Polygon 2" d="M26.354,0a5,5,0,0,1,4.337,2.512l6.882,12a5,5,0,0,1,0,4.975l-6.882,12A5,5,0,0,1,26.354,34H12.646a5,5,0,0,1-4.337-2.512l-6.882-12a5,5,0,0,1,0-4.975l6.882-12A5,5,0,0,1,12.646,0Z" transform="translate(30 2323)" fill="#7b5cff"/>
    <path id="Icon_ionic-md-unlock" data-name="Icon ionic-md-unlock" d="M20.083,9.9h-.952V8A4.762,4.762,0,0,0,9.607,8h1.809a2.952,2.952,0,0,1,5.9,0h0V9.9H8.655a1.91,1.91,0,0,0-1.9,1.9V21.33a1.91,1.91,0,0,0,1.9,1.9H20.083a1.91,1.91,0,0,0,1.9-1.9V11.806A1.91,1.91,0,0,0,20.083,9.9Zm-5.714,8.667a1.9,1.9,0,1,1,1.9-1.9A1.91,1.91,0,0,1,14.369,18.568Z" transform="translate(35.131 2325.266)" fill="#fff"/>
  </g>
</svg>
