<svg xmlns="http://www.w3.org/2000/svg" width="37" height="37" viewBox="0 0 37 37">
  <g id="Group_62419" data-name="Group 62419" transform="translate(-35 -386)">
    <rect id="Rectangle_16969" data-name="Rectangle 16969" width="37" height="37" rx="9" transform="translate(35 386)" fill="#9262ff"/>
    <path id="Icon_awesome-home" data-name="Icon awesome-home" d="M10.223,6.491,3.5,12.028V18a.583.583,0,0,0,.583.583l4.086-.011a.583.583,0,0,0,.581-.583V14.5a.583.583,0,0,1,.583-.583h2.334a.583.583,0,0,1,.583.583v3.487a.583.583,0,0,0,.583.585l4.085.011A.583.583,0,0,0,17.5,18v-5.98L10.781,6.491A.445.445,0,0,0,10.223,6.491Zm10.62,3.764L17.794,7.742V2.691a.438.438,0,0,0-.438-.438H15.315a.438.438,0,0,0-.438.438V5.339L11.612,2.653a1.75,1.75,0,0,0-2.224,0l-9.23,7.6a.438.438,0,0,0-.058.616L1.029,12a.438.438,0,0,0,.617.059L10.223,5a.445.445,0,0,1,.558,0l8.578,7.065A.438.438,0,0,0,19.975,12l.93-1.13a.438.438,0,0,0-.062-.617Z" transform="translate(42.999 393.747)" fill="#fff"/>
  </g>
</svg>
