<svg xmlns="http://www.w3.org/2000/svg" xmlns:xlink="http://www.w3.org/1999/xlink" width="24" height="24" viewBox="0 0 24 24">
  <defs>
    <linearGradient id="linear-gradient" x1="1.369" x2="0.5" y2="1" gradientUnits="objectBoundingBox">
      <stop offset="0" stop-color="#e6489f"/>
      <stop offset="1" stop-color="#950053"/>
    </linearGradient>
  </defs>
  <g id="vuesax_bold_home-2" data-name="vuesax/bold/home-2" transform="translate(-620 -188)">
    <g id="home-2">
      <path id="Vector" d="M18.05,4.818,12.29.788A4.853,4.853,0,0,0,6.8.918L1.79,4.828A5.153,5.153,0,0,0,0,8.468v6.9A4.631,4.631,0,0,0,4.62,20H15.4a4.622,4.622,0,0,0,4.62-4.62V8.6A5.1,5.1,0,0,0,18.05,4.818ZM10.76,16a.75.75,0,0,1-1.5,0V13a.75.75,0,0,1,1.5,0Z" transform="translate(621.99 190.002)" fill="url(#linear-gradient)"/>
      <path id="Vector-2" data-name="Vector" d="M0,0H24V24H0Z" transform="translate(644 212) rotate(180)" opacity="0" fill="url(#linear-gradient)"/>
    </g>
  </g>
</svg>
