<svg xmlns="http://www.w3.org/2000/svg" width="16.627" height="16.627" viewBox="0 0 16.627 16.627">
  <g id="Icon_feather-image" data-name="Icon feather-image" transform="translate(0.75 0.75)">
    <path id="Path_36378" data-name="Path 36378" d="M6.146,4.5H17.67a1.646,1.646,0,0,1,1.646,1.646V17.67a1.646,1.646,0,0,1-1.646,1.646H6.146A1.646,1.646,0,0,1,4.5,17.67V6.146A1.646,1.646,0,0,1,6.146,4.5Z" transform="translate(-4.5 -4.5)" fill="none" stroke="#000" stroke-linecap="round" stroke-linejoin="round" stroke-width="1.5"/>
    <path id="Path_36379" data-name="Path 36379" d="M12.969,11.735A1.235,1.235,0,1,1,11.735,10.5,1.235,1.235,0,0,1,12.969,11.735Z" transform="translate(-7.207 -7.207)" fill="none" stroke="#000" stroke-linecap="round" stroke-linejoin="round" stroke-width="1.5"/>
    <path id="Path_36380" data-name="Path 36380" d="M20.67,19.116,16.554,15,7.5,24.054" transform="translate(-5.854 -9.238)" fill="none" stroke="#000" stroke-linecap="round" stroke-linejoin="round" stroke-width="1.5"/>
  </g>
</svg>
