<svg xmlns="http://www.w3.org/2000/svg" xmlns:xlink="http://www.w3.org/1999/xlink" width="51" height="51" viewBox="0 0 51 51">
  <defs>
    <filter id="Ellipse_620" x="0" y="0" width="51" height="51" filterUnits="userSpaceOnUse">
      <feOffset dy="3" input="SourceAlpha"/>
      <feGaussianBlur stdDeviation="3" result="blur"/>
      <feFlood flood-opacity="0.071"/>
      <feComposite operator="in" in2="blur"/>
      <feComposite in="SourceGraphic"/>
    </filter>
  </defs>
  <g id="Group_62724" data-name="Group 62724" transform="translate(-183 -42)">
    <g transform="matrix(1, 0, 0, 1, 183, 42)" filter="url(#Ellipse_620)">
      <circle id="Ellipse_620-2" data-name="Ellipse 620" cx="16.5" cy="16.5" r="16.5" transform="translate(9 6)" fill="#fff" opacity="0.225"/>
    </g>
    <g id="vuesax_bold_gallery" data-name="vuesax/bold/gallery" transform="translate(-164.485 -196.486)">
      <g id="gallery" transform="translate(364 252)">
        <path id="Vector" d="M.419,1.565.4,1.581A4.891,4.891,0,0,1,0,0,4.855,4.855,0,0,0,.419,1.565Z" transform="translate(1.62 13.462)" fill="#fff"/>
        <path id="Vector-2" data-name="Vector" d="M3.763,1.881A1.881,1.881,0,1,1,1.881,0,1.881,1.881,0,0,1,3.763,1.881Z" transform="translate(5.233 4.442)" fill="#fff"/>
        <path id="Vector-3" data-name="Vector" d="M11.217,0H4.593A4.219,4.219,0,0,0,0,4.593v6.624a5.314,5.314,0,0,0,.443,2.245,4.211,4.211,0,0,0,4.15,2.348h6.624a4.219,4.219,0,0,0,4.593-4.593V4.593A4.219,4.219,0,0,0,11.217,0Zm3.3,8.3a1.762,1.762,0,0,0-2.229,0L9,11.122a1.762,1.762,0,0,1-2.229,0L6.506,10.9a1.756,1.756,0,0,0-2.087-.111L1.462,12.774a4.215,4.215,0,0,1-.277-1.557V4.593A3.046,3.046,0,0,1,4.593,1.186h6.624a3.046,3.046,0,0,1,3.407,3.407V8.387Z" transform="translate(1.581 1.581)" fill="#fff"/>
        <path id="Vector-4" data-name="Vector" d="M0,0H18.971V18.971H0Z" fill="none" opacity="0"/>
      </g>
    </g>
  </g>
</svg>
