<svg xmlns="http://www.w3.org/2000/svg" width="49" height="56.332" viewBox="0 0 49 56.332">
  <g id="Group_66834" data-name="Group 66834" transform="translate(-161.293 -285)">
    <rect id="Rectangle_18983" data-name="Rectangle 18983" width="49" height="49" rx="11" transform="translate(161.293 285)" fill="#ff6464"/>
    <path id="Path_37829" data-name="Path 37829" d="M3.655-.345,9.136-.862a2.924,2.924,0,0,1,3.31,3.31l-.517,5.481a4.611,4.611,0,0,1-4,4l-5.481.517a2.924,2.924,0,0,1-3.31-3.31l.517-5.481A4.611,4.611,0,0,1,3.655-.345Z" transform="translate(177.602 331.898) rotate(-45)" fill="#ff6464"/>
    <path id="Vector" d="M18.129,0a6.981,6.981,0,0,0-5.58,2.8A6.966,6.966,0,0,0,0,7.01a13.674,13.674,0,0,0,.645,4.15c1.974,6.265,8.1,10.032,11.119,11.059a2.9,2.9,0,0,0,1.551,0c3.022-1.027,9.145-4.774,11.119-11.059a13.171,13.171,0,0,0,.645-4.15A6.964,6.964,0,0,0,18.129,0Z" transform="translate(173.533 299.676)" fill="#fff"/>
  </g>
</svg>
