<svg xmlns="http://www.w3.org/2000/svg" width="33.696" height="30.225" viewBox="0 0 33.696 30.225">
  <g id="Group_66619" data-name="Group 66619" transform="translate(-40.152 -61.378)">
    <g id="Group" transform="translate(41.152 62.378)">
      <path id="Vector" d="M30.887,14.1A17.406,17.406,0,0,0,31.7,8.859,8.833,8.833,0,0,0,22.884,0a8.741,8.741,0,0,0-7.036,3.55A8.79,8.79,0,0,0,0,8.859C0,19.952,10.269,26.5,14.865,28.082a3.058,3.058,0,0,0,.983.143" fill="none" stroke="#565f6c" stroke-linecap="round" stroke-linejoin="round" stroke-width="2"/>
    </g>
    <path id="Vector-2" data-name="Vector" d="M3.333,6.426a1.317,1.317,0,0,0-.239,0,3.22,3.22,0,1,1,.239,0Z" transform="translate(60.639 73.777)" fill="none" stroke="#565f6c" stroke-linecap="round" stroke-linejoin="round" stroke-width="2"/>
    <path id="Vector-3" data-name="Vector" d="M1.315.994a2.377,2.377,0,0,0,0,4.253,7.075,7.075,0,0,0,7.252,0,2.377,2.377,0,0,0,0-4.253A7.108,7.108,0,0,0,1.315.994Z" transform="translate(59.035 82.856)" fill="none" stroke="#565f6c" stroke-linecap="round" stroke-linejoin="round" stroke-width="2"/>
  </g>
</svg>
