<svg xmlns="http://www.w3.org/2000/svg" xmlns:xlink="http://www.w3.org/1999/xlink" width="175.248" height="122.705" viewBox="0 0 175.248 122.705">
  <defs>
    <linearGradient id="linear-gradient" x1="0.033" y1="-1.206" x2="1.176" y2="1.578" gradientUnits="objectBoundingBox">
      <stop offset="0" stop-color="#ffbaee"/>
      <stop offset="1" stop-color="#ff4ec4"/>
    </linearGradient>
  </defs>
  <g id="Group_62545" data-name="Group 62545" transform="matrix(0.914, -0.407, 0.407, 0.914, -254.282, 7.24)">
    <rect id="Rectangle_17094" data-name="Rectangle 17094" width="160.674" height="57" rx="10" transform="translate(210 160)" fill="rgba(155,0,122,0.71)" stroke="#f444ba" stroke-width="4"/>
    <path id="Path_36335" data-name="Path 36335" d="M1.32,0V-14.9h3.1V0ZM8.06,0V-14.9h2.38l8,10.54-1.28.3V-14.9h3.1V0h-2.4L10-10.62l1.16-.3V0ZM26.58,0V-12.2H22.8v-2.7H33.4v2.7H29.68V0Zm9.36,0V-14.9H45.96v2.7H39.04v3.38h6.52v2.7H39.04V-2.7h6.92V0ZM48.72,0V-14.9h5.7a6.542,6.542,0,0,1,2.73.54,4.258,4.258,0,0,1,1.87,1.6,4.757,4.757,0,0,1,.68,2.62A4.627,4.627,0,0,1,59-7.55a4.375,4.375,0,0,1-1.88,1.61L60.52,0H57.04L53.36-6.58l2,1.18H51.82V0Zm3.1-8.1h2.62a2.36,2.36,0,0,0,1.14-.26,1.9,1.9,0,0,0,.75-.72,2.055,2.055,0,0,0,.27-1.06,2.1,2.1,0,0,0-.27-1.08,1.9,1.9,0,0,0-.75-.72,2.36,2.36,0,0,0-1.14-.26H51.82ZM63.06,0V-14.9H73.08v2.7H66.16v3.38h6.52v2.7H66.16V-2.7h6.92V0Zm18.2.24a6.8,6.8,0,0,1-2.63-.51,6.1,6.1,0,0,1-2.12-1.45,6.041,6.041,0,0,1-1.33-2.22l2.54-1.14a4.684,4.684,0,0,0,1.55,1.92,3.708,3.708,0,0,0,2.19.7,2.748,2.748,0,0,0,1.1-.2,1.734,1.734,0,0,0,.72-.55,1.353,1.353,0,0,0,.26-.83,1.315,1.315,0,0,0-.32-.89,2.177,2.177,0,0,0-1-.59L79.3-6.48a5.713,5.713,0,0,1-2.68-1.65,3.862,3.862,0,0,1-.9-2.57,4.161,4.161,0,0,1,.65-2.32,4.354,4.354,0,0,1,1.82-1.56,6.16,6.16,0,0,1,2.69-.56,6.566,6.566,0,0,1,2.48.46,5.769,5.769,0,0,1,1.97,1.3,5.413,5.413,0,0,1,1.25,2.02l-2.52,1.14a3.567,3.567,0,0,0-1.26-1.63,3.258,3.258,0,0,0-1.92-.59,2.84,2.84,0,0,0-1.1.2,1.654,1.654,0,0,0-.74.57,1.442,1.442,0,0,0-.26.85,1.342,1.342,0,0,0,.34.91,2.229,2.229,0,0,0,1.02.61L83-8.38a5.776,5.776,0,0,1,2.69,1.62,3.773,3.773,0,0,1,.89,2.54,4.039,4.039,0,0,1-.68,2.31A4.586,4.586,0,0,1,84.03-.33,6.345,6.345,0,0,1,81.26.24ZM92.46,0V-12.2H88.68v-2.7h10.6v2.7H95.56V0Zm9.36,0V-14.9h10.02v2.7h-6.92v3.38h6.52v2.7h-6.52V-2.7h6.92V0ZM114.6,0V-14.9h4.86a8.721,8.721,0,0,1,4.2.96,6.929,6.929,0,0,1,2.76,2.64,7.479,7.479,0,0,1,.98,3.84,7.533,7.533,0,0,1-.98,3.85,6.908,6.908,0,0,1-2.76,2.65,8.721,8.721,0,0,1-4.2.96Zm3.1-2.7h1.84a5.1,5.1,0,0,0,2.52-.59,4.162,4.162,0,0,0,1.65-1.66,5.117,5.117,0,0,0,.59-2.51,5.1,5.1,0,0,0-.59-2.52,4.112,4.112,0,0,0-1.65-1.64,5.174,5.174,0,0,0-2.52-.58H117.7Z" transform="translate(226.484 197.27)" fill="url(#linear-gradient)"/>
  </g>
</svg>
