<svg xmlns="http://www.w3.org/2000/svg" width="20.768" height="20.768" viewBox="0 0 20.768 20.768">
  <g id="vuesax_linear_call" data-name="vuesax/linear/call" transform="translate(0 0)">
    <g id="call" transform="translate(0 0)">
      <g id="call-2" data-name="call" transform="translate(1.731 1.731)">
        <path id="Vector" d="M17.281,14.131a2.2,2.2,0,0,1-.216.943,3.57,3.57,0,0,1-.588.883,3.9,3.9,0,0,1-1.419,1.021,4.345,4.345,0,0,1-1.687.329,7.211,7.211,0,0,1-2.821-.632,15.2,15.2,0,0,1-2.977-1.713,24.878,24.878,0,0,1-2.838-2.423,24.587,24.587,0,0,1-2.414-2.83,15.427,15.427,0,0,1-1.7-2.951A7.288,7.288,0,0,1,0,3.929a4.476,4.476,0,0,1,.312-1.67,3.983,3.983,0,0,1,1-1.445A2.535,2.535,0,0,1,3.107,0a1.626,1.626,0,0,1,.7.156,1.411,1.411,0,0,1,.58.485L6.395,3.47a2.961,2.961,0,0,1,.346.606,1.368,1.368,0,0,1,.121.528,1.175,1.175,0,0,1-.182.614,2.943,2.943,0,0,1-.485.614l-.658.684a.463.463,0,0,0-.138.346.786.786,0,0,0,.026.2c.026.069.052.121.069.173a7.181,7.181,0,0,0,.8,1.108c.389.45.8.909,1.255,1.367.467.459.917.883,1.376,1.272a6.641,6.641,0,0,0,1.116.8c.043.017.1.043.156.069a.6.6,0,0,0,.216.035.476.476,0,0,0,.355-.147l.658-.649a2.655,2.655,0,0,1,.623-.485,1.152,1.152,0,0,1,.614-.182,1.381,1.381,0,0,1,.528.112,3.347,3.347,0,0,1,.606.337L16.666,12.9a1.313,1.313,0,0,1,.476.554A1.775,1.775,0,0,1,17.281,14.131Z" transform="translate(0 0)" fill="#2995e5"/>
      </g>
      <path id="Vector-2" data-name="Vector" d="M0,0H20.768V20.768H0Z" fill="#2995e5" opacity="0"/>
    </g>
  </g>
</svg>
