<svg id="vuesax_linear_heart" data-name="vuesax/linear/heart" xmlns="http://www.w3.org/2000/svg" width="38.035" height="38.035" viewBox="0 0 38.035 38.035">
  <g id="heart" transform="translate(0 0)">
    <path id="Vector" d="M16.83,28.066a3.456,3.456,0,0,1-1.965,0C10.269,26.5,0,19.952,0,8.859A8.833,8.833,0,0,1,8.811,0a8.741,8.741,0,0,1,7.036,3.55A8.79,8.79,0,0,1,31.7,8.859C31.7,19.952,21.426,26.5,16.83,28.066Z" transform="translate(3.17 4.913)" fill="none" stroke="#565f6c" stroke-linecap="round" stroke-linejoin="round" stroke-width="2"/>
    <path id="Vector-2" data-name="Vector" d="M0,0H38.035V38.035H0Z" fill="none" opacity="0"/>
  </g>
  <g id="vuesax_linear_arrow-2" data-name="vuesax/linear/arrow-2" transform="translate(12.666 12.666)">
    <g id="arrow-2" transform="translate(0 0)">
      <g id="Group" transform="translate(1.588 0.506)">
        <path id="Vector-3" data-name="Vector" d="M0,3.938,1.969,1.969,0,0" transform="translate(7.558)" fill="none" stroke="#565f6c" stroke-linecap="round" stroke-linejoin="round" stroke-width="2"/>
        <path id="Vector-4" data-name="Vector" d="M0,0H9.527" transform="translate(0 1.969)" fill="none" stroke="#565f6c" stroke-linecap="round" stroke-linejoin="round" stroke-width="2"/>
        <path id="Vector-5" data-name="Vector" d="M1.969,0,0,1.969,1.969,3.938" transform="translate(0 6.666)" fill="none" stroke="#565f6c" stroke-linecap="round" stroke-linejoin="round" stroke-width="2"/>
        <path id="Vector-6" data-name="Vector" d="M9.527,0H0" transform="translate(0 8.635)" fill="none" stroke="#565f6c" stroke-linecap="round" stroke-linejoin="round" stroke-width="2"/>
      </g>
      <path id="Vector-7" data-name="Vector" d="M0,0H12.7V12.7H0Z" fill="none" opacity="0"/>
    </g>
  </g>
</svg>
