<svg xmlns="http://www.w3.org/2000/svg" width="19.415" height="19.415" viewBox="0 0 19.415 19.415">
  <path id="Icon_ionic-logo-whatsapp" data-name="Icon ionic-logo-whatsapp" d="M12.133,2.25A9.494,9.494,0,0,0,2.6,11.707,9.36,9.36,0,0,0,3.97,16.591L2.25,21.665l5.277-1.676a9.547,9.547,0,0,0,14.138-8.281A9.494,9.494,0,0,0,12.133,2.25ZM16.873,15.3a2.462,2.462,0,0,1-1.686,1.087c-.447.024-.46.346-2.9-.712a9.944,9.944,0,0,1-4.018-3.8,4.674,4.674,0,0,1-.9-2.533A2.7,2.7,0,0,1,8.3,7.359a.933.933,0,0,1,.66-.278c.192,0,.316-.006.458,0s.355-.03.54.461.626,1.7.682,1.82a.442.442,0,0,1,0,.423,1.655,1.655,0,0,1-.258.394c-.127.136-.268.305-.381.409s-.259.241-.126.488A7.293,7.293,0,0,0,11.171,12.8a6.65,6.65,0,0,0,1.911,1.271c.239.13.382.116.53-.04s.634-.682.806-.917.332-.19.552-.1,1.394.717,1.633.847.4.2.455.3A2,2,0,0,1,16.873,15.3Z" transform="translate(-2.25 -2.25)" fill="#fff"/>
</svg>
