<svg xmlns="http://www.w3.org/2000/svg" xmlns:xlink="http://www.w3.org/1999/xlink" width="130" height="154" viewBox="0 0 130 154">
  <defs>
    <clipPath id="clip-path">
      <rect id="Rectangle_19235" data-name="Rectangle 19235" width="130" height="154" rx="9" transform="translate(263 73)" fill="#e2b2d2"/>
    </clipPath>
    <linearGradient id="linear-gradient" x1="0.5" x2="0.5" y2="1" gradientUnits="objectBoundingBox">
      <stop offset="0" stop-color="#836976"/>
      <stop offset="1" stop-color="#53404a"/>
    </linearGradient>
  </defs>
  <g id="Group_67085" data-name="Group 67085" transform="translate(-263 -73)">
    <rect id="Rectangle_19229" data-name="Rectangle 19229" width="130" height="154" rx="9" transform="translate(263 73)" fill="#e2b2d2"/>
    <rect id="Rectangle_19234" data-name="Rectangle 19234" width="130" height="154" rx="9" transform="translate(263 73)" fill="#e2b2d2"/>
    <g id="Mask_Group_25468" data-name="Mask Group 25468" clip-path="url(#clip-path)">
      <g id="Group_67082" data-name="Group 67082">
        <path id="Union_33" data-name="Union 33" d="M183.68,150.006a103.316,103.316,0,0,1-18.558-1.98,138.786,138.786,0,0,1-17.672-4.576C141.7,141.6,136.159,139.31,130.657,137l-8.162-3.738-7.858-3.856c-5.1-2.533-10.267-4.923-15.529-7.055A150.535,150.535,0,0,0,83.1,116.615a110.557,110.557,0,0,0-16.532-3.71,83.061,83.061,0,0,0-16.874-.917,59.3,59.3,0,0,0-16.583,3.318c-5.3,1.986-10.469,4.859-14.342,9.223,3.284-4.853,8.187-8.511,13.427-11.3a56.973,56.973,0,0,1,17.026-5.484c11.874-1.951,24.061-1,35.726,1.424a160,160,0,0,1,17.307,4.512c5.7,1.753,11.228,3.934,16.73,6.176l8.053,3.271,7.931,2.969c5.363,1.825,10.724,3.607,16.153,4.946,10.784,2.917,21.78,4.643,32.415,4.257a64.183,64.183,0,0,0,29.644-8.155c8.909-5.063,16.569-12.476,23.029-21.124,1.04-1.369,2-2.818,2.985-4.236-1.805.643-3.63,1.275-5.546,1.885a86.363,86.363,0,0,1-8.81,2.315,78.979,78.979,0,0,1-9.168,1.387,87.739,87.739,0,0,1-18.409-.167c-12.137-1.375-23.459-5.033-34.08-9.092-10.645-4.1-20.695-8.672-30.662-12.664-5.014-2.01-9.861-3.792-14.977-5.457-5.04-1.7-10.09-3.274-15.081-4.488a89.2,89.2,0,0,0-14.839-2.466,57.426,57.426,0,0,0-14.6.758,68.907,68.907,0,0,0-14.013,3.977A74.135,74.135,0,0,0,47.651,83.67c1.912-.372,3.836-.69,5.769-.911a81.542,81.542,0,0,1,39.185,5.3c3.15,1.191,5.834,2.385,8.854,3.731l8.6,3.98c5.683,2.64,11.264,5.36,16.99,7.665,2.862,1.158,5.755,2.205,8.688,3.115a89.566,89.566,0,0,0,8.941,2.217c1.513.283,3.042.446,4.576.669,1.536.137,3.08.191,4.629.293l4.663-.133,4.659-.587-4.57,1.2-4.687.756c-1.579.108-3.165.272-4.766.328-1.586-.022-3.192.022-4.786-.065a87.156,87.156,0,0,1-18.838-3.433c-6.134-1.731-12.138-3.821-18.017-5.986l-8.789-3.144c-2.811-.96-5.969-2.022-8.76-2.793a77.793,77.793,0,0,0-8.726-1.992c-2.924-.532-5.857-.845-8.79-1.091A69.273,69.273,0,0,0,55.086,93.8a63.919,63.919,0,0,0-16.3,5.4c-8.844,4.315-15.457,10.888-22.324,17.837Q8.77,124.8,1.076,132.584c-.356.361-.721.727-1.076,1.09,1.781-1.8,2.9-6.913,3.937-9.43,7.623-18.62,18.2-37.664,34.117-50.753q2.344-1.927,4.859-3.686C58.966,58.6,78.822,54.594,98.1,56.974q4.156.511,8.259,1.391c5.757,1.22,11.278,2.762,16.726,4.412,5.388,1.673,10.9,3.646,16.133,5.682,16.4,6.381,32.744,15.088,50.094,18.491,23.459,4.6,47.122-.7,67.35-13.136l26.276-15.1-13.55,27.01a173.3,173.3,0,0,1-19.522,30.967c-7.733,9.7-17.331,18.616-28.878,24.718a71.354,71.354,0,0,1-18.256,6.722,83.13,83.13,0,0,1-17.891,1.884C184.456,150.013,184.068,150.009,183.68,150.006ZM65,21.773A21.778,21.778,0,1,1,86.781,43.546,21.777,21.777,0,0,1,65,21.773Z" transform="translate(151.559 45.987)" fill="#fff" opacity="0.313"/>
        <g id="Group_67081" data-name="Group 67081">
          <path id="Union_31" data-name="Union 31" d="M-6539.51-9004.221l-5.343.035v-.091l-40.336-.415,8.386-33.9s20.1-12.33,25.349-15.4,3.717-13,3.717-13l3.662-1.754L-6544-9075l6.491,3.108,6.491-3.108v6.218l3.737,1.79s-1.53,9.923,3.715,13,20.705,17.6,20.705,17.6l13.822,31.847-41.979.276v.143Z" transform="translate(6868.859 9231.059)" fill="#ffedf4"/>
          <path id="Path_91496" data-name="Path 91496" d="M6674.468,9679.058s7.691-11.145,11.039-16.269a45.78,45.78,0,0,0,4.7-9.051s9.534,3.182,14.333,4.1,11.121,3.014,14.926,7.1,5.28,14.05,7.04,23.138a140.071,140.071,0,0,1,2.2,16.241L6621.9,9705s1.553-16.265,4.223-28.488c1.1-5.045,3.072-10.476,4.182-11.581,3.6-3.588,7.546-5.259,14.862-7.1s14.283-4.1,14.283-4.1,1.572,7.32,5.672,11.649S6674.468,9679.058,6674.468,9679.058Z" transform="translate(-6343.953 -9476)" fill="#a57dc7"/>
          <path id="Path_91506" data-name="Path 91506" d="M17420.66,888.529a17.124,17.124,0,0,0,.555,3.185c.387,1.119-6.1,6.912-9.379,7.363s-5.781.578-8.9-1.513-3.465-1.709-5.127-1.32-2.766.727-2.766.727,3.674-2.532,4.262-4.49a15.83,15.83,0,0,1,.625-1.946s13.029-.886,15.154-2.007S17420.66,888.529,17420.66,888.529Z" transform="translate(-17079 -719)" fill="#f4d7eb"/>
          <path id="Path_91501" data-name="Path 91501" d="M6705.591,9617.245s-5.412-4.6-7.767-3.583-3.324,4.941-2.735,7.78,2.861,7.169,4.183,7.6,3.7-.163,4.33-1.292S6705.591,9617.245,6705.591,9617.245Z" transform="translate(-6398 -9476)" fill="#ffe3f6"/>
          <path id="Path_91497" data-name="Path 91497" d="M7557.531,9359.082c11.2,20.353,11.56,1.91,5.724,1.22s3.034,33.874,3.034,33.874,1.086-3.011,2.8-1.149,3.034,6.276,1.5,9.5-3.059,7.393-5.633,6.595-1.7-1.8-1.7-1.8-2.478,10.626-7.268,14.975-10.475,9.716-14.175,10.418-7.169-.352-8-1.359-6.6-4.721-12.826-11.066-12.732-18.284-9.342-29.191-.063-21.235,2.234-21.882" transform="translate(-7209.248 -9255.462)" fill="#ffedf4"/>
          <path id="Intersection_1" data-name="Intersection 1" d="M-17298.184-233.175c-.031-.072-.047-.111-.047-.111s7.91-2.631,12.377-8.489,9.314-11,7.98-31.312,1.613-28.563,1.613-28.563l2.227,28.563s.713,13.434.561,14.986a1.569,1.569,0,0,0,.1.275.848.848,0,0,1-.213-.417c-.57,2.2-2.982,10.682-7.137,14.45-4.787,4.345-10.471,9.715-14.172,10.416a13.134,13.134,0,0,1-2.451.229C-17297.633-233.149-17297.912-233.158-17298.184-233.175Z" transform="translate(17627.465 410.62)" fill="#fffcfe" opacity="0.655"/>
          <path id="Subtraction_55" data-name="Subtraction 55" d="M-17301.912-229.76a2.947,2.947,0,0,1-.988-.691,20.436,20.436,0,0,0-2.258-1.867,99.457,99.457,0,0,1-10.568-9.2,39.086,39.086,0,0,1-8.277-12.886,29.326,29.326,0,0,1-1.912-8.037,21.661,21.661,0,0,1,.85-8.271c1.908-6.143,1.65-11.982,1.463-16.246v-.008c-.141-3.218-.232-5.344.771-5.625l1.113-.258c0,.807.045,1.724.09,2.787l0,.054V-290c.2,4.6.48,10.9-1.576,17.529a23.331,23.331,0,0,0-.914,8.92,31.465,31.465,0,0,0,2.057,8.668,42.276,42.276,0,0,0,8.934,13.9c3.385,3.449,6.1,6.133,8.082,8.093l.189.187c1.354,1.339,2.332,2.307,2.941,2.948Z" transform="translate(17627.465 406.337)" fill="#ffe3f6"/>
          <path id="Path_91232" data-name="Path 91232" d="M6920.213,9333.542s5.555,7.071,8,9.846,1.549,7.568-1.133,11.21-5.922,12.662-6.871,14.407-1.42-3.149-2.737-9.486-3.333-17.378-2.719-21.769S6920.213,9333.542,6920.213,9333.542Z" transform="translate(-6566.527 -9222.514)" fill="url(#linear-gradient)"/>
          <path id="Path_91231" data-name="Path 91231" d="M6870.675,9341.105s-3.662,17.992-4.74,24.188-1.3,6.959-1.3,6.959-2.232-11.306-3.989-15.092-4.871-3.491-2.667-8.218S6870.675,9341.105,6870.675,9341.105Z" transform="translate(-6561.904 -9223.252)" fill="url(#linear-gradient)"/>
          <path id="Path_91229" data-name="Path 91229" d="M6907.752,9315.523s10.911,1.122,13.423,7.209,3.581,10.816-2.433,15.307-9.1,3.828-9.1,3.828l-1.894-3.828s-9.37-2.072-11.155-2.946-18,8.068-29.091,6.774-15.282-11.948-15.282-11.948a100.112,100.112,0,0,0,15.282-7.187c8.151-4.7,12.649-11.042,23.92-11.365S6907.752,9315.523,6907.752,9315.523Z" transform="translate(-6560.441 -9220.351)" fill="url(#linear-gradient)"/>
          <path id="Path_91230" data-name="Path 91230" d="M6903.366,9338.065s2.082-4.429-3.66-8.225-17.225-6.9-25.964-3.36-15.507,8.638-19.615,11.585-4.094,2.918-4.094,2.918a23.982,23.982,0,0,0,19.555,5.8c11.783-1.886,18.727-10.562,24.854-9.96A81.964,81.964,0,0,1,6903.366,9338.065Z" transform="translate(-6560.229 -9221.675)" fill="url(#linear-gradient)"/>
          <path id="Path_91233" data-name="Path 91233" d="M6912.761,9337.552s6.682-.539,6.94-10.735-5.687-10.836-5.687-10.836,10.514.471,13.767,8.369a42.5,42.5,0,0,1,1.252,4.935c1.105,9.617-14.294,15.621-14.331,12.819A6.749,6.749,0,0,0,6912.761,9337.552Z" transform="translate(-6566.345 -9220.802)" fill="url(#linear-gradient)"/>
          <path id="Path_91521" data-name="Path 91521" d="M17409.387,922.068a36.572,36.572,0,0,1,2.549,11.465c.127,3.915.643,12.153.6,16.054-.027,2.662-1.475,1.717-1.475,1.717s.129-16.89-.627-24.169A30.206,30.206,0,0,0,17409.387,922.068Z" transform="translate(-17079 -719)" fill="#765691" opacity="0.399"/>
          <path id="Path_91522" data-name="Path 91522" d="M17375.922,938.973l1.77,10.553h-1.77Z" transform="translate(-17079 -719)" fill="#765691" opacity="0.399"/>
          <path id="Path_91523" data-name="Path 91523" d="M17377.691,938.973l-1.77,10.553h1.77Z" transform="translate(-17010.828 -719)" fill="#765691" opacity="0.399"/>
          <path id="Path_91524" data-name="Path 91524" d="M17362.672,948s-2.143-36.168,3.867-40.071,29.959-6.314,29.959-6.314l.789-5.875s-21.35,5.914-24.686,7.48-6.146,2.9-8.143,5.7-4.375,14.538-5.518,23.8-2.014,15.276-2.014,15.276Z" transform="translate(-17079 -719)" fill="#765691" opacity="0.399"/>
          <path id="Path_91528" data-name="Path 91528" d="M17391.252,947.418s-.436-6.212-1.088-15.821.061-18.536-1.078-21.031-3.242-4.4-11.332-6.576-18.121-2.326-20.361-3.782c-6.01-3.9.324,1.406.324,1.406l-.324-5.047s20.885,5.085,24.221,6.651,6.137,2.9,8.133,5.707,4.355,10.933,6.045,21.408,2.32,17.028,2.32,17.028Z" transform="translate(-17013.424 -719)" fill="#b68dd9" opacity="0.499"/>
          <path id="Path_91525" data-name="Path 91525" d="M17389.229,901.1s-3.932,5.6-3.5,5.459,9.363-.839,9.363-.839l13.016,14.517-13.016-22.9Z" transform="translate(-17079 -719)" fill="#926db2"/>
          <path id="Path_91529" data-name="Path 91529" d="M17404.584,901.1s3.932,5.6,3.5,5.459-9.363-.839-9.363-.839l-13.016,14.517,13.016-22.9Z" transform="translate(-17053.809 -719)" fill="#926db2" opacity="0.274"/>
          <path id="Path_91500" data-name="Path 91500" d="M6699.931,9676.58l-10.138-12.3-3.3-3.5c-.569.19-9.957,1.359-9.957,1.359l12.178-11.336Z" transform="translate(-6370.697 -9476)" fill="#cb9ff0"/>
          <path id="Path_91526" data-name="Path 91526" d="M17397.059,893.823l-2.24,9.966,14.381,17.856Z" transform="translate(-17079 -719)" fill="#b388d8"/>
          <path id="Path_91527" data-name="Path 91527" d="M17406.957,893.823l2.24,9.966-15.475,18.2Z" transform="translate(-17063.076 -719)" fill="#b18dd0"/>
          <path id="Path_91498" data-name="Path 91498" d="M6676.536,9676.58s12.868-15.984,13.437-15.794,9.957,1.359,9.957,1.359l-12.178-11.336Z" transform="translate(-6344 -9476)" fill="#c396ea"/>
        </g>
      </g>
    </g>
  </g>
</svg>
