<svg xmlns="http://www.w3.org/2000/svg" width="38.887" height="38.885" viewBox="0 0 38.887 38.885">
  <path id="Path_36161" data-name="Path 36161" d="M300.941,19.038A19.441,19.441,0,1,1,319.232,38.99a19.4,19.4,0,0,1-18.291-19.951m23.812,8.12a2.3,2.3,0,0,0,.541.116c.526-.026.706.266.776.728.061.4.2.794.252,1.2a1.1,1.1,0,0,0,.813.981c1.575.606,3.137,1.249,4.687,1.917a.685.685,0,0,0,.907-.179A17.173,17.173,0,0,0,337.481,16,17.456,17.456,0,0,0,303,18a17.023,17.023,0,0,0,4.971,13.857.566.566,0,0,0,.728.148c1.188-.476,2.391-.916,3.585-1.377.622-.24,1.414-.341,1.806-.788a4.264,4.264,0,0,0,.534-1.894c.084-.417.239-.675.706-.663.49.013.692-.224.622-.723a3.941,3.941,0,0,1,0-.835,3.887,3.887,0,0,0-.409-1.92c-.4-.89-.63-1.851-.943-2.778a1.027,1.027,0,0,0-.2-.3c-.262-.317-.646-.589-.772-.952a15.126,15.126,0,0,1-.551-2.32.953.953,0,0,1,.4-1.129c.075-.043.082-.256.072-.387-.072-.944-.205-1.886-.223-2.83-.02-1.089.056-2.176,1.148-2.845.109-.067.146-.283.181-.438a3.232,3.232,0,0,1,2.438-2.622,11.063,11.063,0,0,1,7.155.384,5.476,5.476,0,0,1,2.86,2.694,2.184,2.184,0,0,1,.236,1.919,1.9,1.9,0,0,0-.061.6c-.049.945-.09,1.891-.142,2.836-.018.327-.087.626.275.874a.834.834,0,0,1,.215.7c-.181.943-.392,1.883-.665,2.8-.078.264-.4.454-.61.681a1.088,1.088,0,0,0-.248.311c-.4,1.092-.788,2.19-1.177,3.286a1.81,1.81,0,0,0-.163.521c-.018.76-.008,1.52-.008,2.333" transform="translate(-300.926 -0.129)" fill="#97a0ad"/>
</svg>
