<svg xmlns="http://www.w3.org/2000/svg" xmlns:xlink="http://www.w3.org/1999/xlink" width="24" height="24" viewBox="0 0 24 24">
  <defs>
    <linearGradient id="linear-gradient" x1="0.935" y1="-0.103" x2="0.434" y2="0.742" gradientUnits="objectBoundingBox">
      <stop offset="0" stop-color="#e6489f"/>
      <stop offset="1" stop-color="#950053"/>
    </linearGradient>
  </defs>
  <g id="vuesax_bold_lovely" data-name="vuesax/bold/lovely" transform="translate(-748 -252)">
    <g id="lovely">
      <path id="Vector" d="M0,0H24V24H0Z" transform="translate(748 252)" fill="none" opacity="0"/>
      <path id="Union_20" data-name="Union 20" d="M5381.64-6789.161a9.39,9.39,0,0,1-5.521-5.489,6.862,6.862,0,0,1-.319-2.06,3.472,3.472,0,0,1,3.461-3.48,3.468,3.468,0,0,1,2.769,1.389,3.469,3.469,0,0,1,2.771-1.389,3.456,3.456,0,0,1,3.449,3.48,6.53,6.53,0,0,1-.319,2.06,9.359,9.359,0,0,1-5.521,5.489,1.266,1.266,0,0,1-.384.053A1.276,1.276,0,0,1,5381.64-6789.161Zm-4.83-1.238c-2.729-.931-8.812-4.791-8.812-11.36a5.22,5.22,0,0,1,5.21-5.241,5.187,5.187,0,0,1,4.17,2.091,5.218,5.218,0,0,1,4.17-2.091,5.218,5.218,0,0,1,5.2,5.241.348.348,0,0,1-.449.319,4.809,4.809,0,0,0-3.95.74.615.615,0,0,1-.731,0,4.652,4.652,0,0,0-2.761-.9,4.7,4.7,0,0,0-4.679,4.71,9.068,9.068,0,0,0,2.709,6.341.09.09,0,0,1-.044.158A.086.086,0,0,1,5376.811-6790.4Z" transform="translate(-4618 7062.1)" fill="url(#linear-gradient)"/>
    </g>
  </g>
</svg>
