<svg xmlns="http://www.w3.org/2000/svg" width="7.908" height="11.071" viewBox="0 0 7.908 11.071">
  <path id="Icon_awesome-rupee-sign" data-name="Icon awesome-rupee-sign" d="M7.612,3.832a.3.3,0,0,0,.3-.3V2.547a.3.3,0,0,0-.3-.3H.3a.3.3,0,0,0-.3.3V3.652a.3.3,0,0,0,.3.3H2.4a1.783,1.783,0,0,1,1.507.673H.3a.3.3,0,0,0-.3.3v.989a.3.3,0,0,0,.3.3H4.22A1.708,1.708,0,0,1,2.372,7.653H.3a.3.3,0,0,0-.3.3V9.26a.3.3,0,0,0,.1.218l4.079,3.765a.3.3,0,0,0,.2.079h2.04a.3.3,0,0,0,.2-.514L2.888,9.365A3.386,3.386,0,0,0,6.307,6.2H7.612a.3.3,0,0,0,.3-.3V4.919a.3.3,0,0,0-.3-.3H6.161a3.385,3.385,0,0,0-.352-.791Z" transform="translate(0 -2.25)" fill="#131a24"/>
</svg>
