<svg xmlns="http://www.w3.org/2000/svg" width="36.151" height="36.151" viewBox="0 0 36.151 36.151">
  <g id="Group_62948" data-name="Group 62948" transform="translate(3080 2337)">
    <path id="Vector" d="M15.063,25.607H7.531C3.013,25.607,0,23.347,0,18.075V7.531C0,2.259,3.013,0,7.531,0H22.594c4.519,0,7.531,2.259,7.531,7.531V12.05" transform="translate(-3076.987 -2331.728)" fill="none" stroke="#950053" stroke-linecap="round" stroke-linejoin="round" stroke-width="2"/>
    <path id="Vector-2" data-name="Vector" d="M15.063,0,10.348,3.766a4.768,4.768,0,0,1-5.649,0L0,0" transform="translate(-3069.456 -2323.444)" fill="none" stroke="#950053" stroke-linecap="round" stroke-linejoin="round" stroke-width="2"/>
    <path id="Vector-3" data-name="Vector" d="M0,0H36.151V36.151H0Z" transform="translate(-3080 -2337)" fill="none" opacity="0"/>
    <path id="Vector-4" data-name="Vector" d="M0,2.314V12.942L4.536,8.406" transform="translate(-3052.904 -2318.311)" fill="none" stroke="#950053" stroke-linecap="round" stroke-linejoin="round" stroke-width="2"/>
    <path id="Vector-5" data-name="Vector" d="M4.536,4.536,0,0" transform="translate(-3057.441 -2309.904)" fill="none" stroke="#950053" stroke-linecap="round" stroke-linejoin="round" stroke-width="2"/>
  </g>
</svg>
