<svg xmlns="http://www.w3.org/2000/svg" width="37.513" height="37.513" viewBox="0 0 37.513 37.513">
  <path id="Icon_metro-warning" data-name="Icon metro-warning" d="M21.327,5.327l15.72,31.33H5.608l15.72-31.33Zm0-3.4A2.711,2.711,0,0,0,19.1,3.564L3.085,35.476C1.858,37.657,2.9,39.441,5.4,39.441H37.25c2.5,0,3.546-1.784,2.319-3.965h0L23.557,3.564a2.711,2.711,0,0,0-2.23-1.636Zm2.345,30.479a2.345,2.345,0,1,1-2.345-2.345A2.345,2.345,0,0,1,23.672,32.407Zm-2.345-4.689a2.345,2.345,0,0,1-2.345-2.345V18.34a2.345,2.345,0,0,1,4.689,0v7.034A2.345,2.345,0,0,1,21.327,27.718Z" transform="translate(-2.571 -1.928)" fill="#fd6464"/>
</svg>
