<svg xmlns="http://www.w3.org/2000/svg" xmlns:xlink="http://www.w3.org/1999/xlink" width="115.341" height="118.475" viewBox="0 0 115.341 118.475">
  <defs>
    <linearGradient id="linear-gradient" x1="0.5" x2="0.5" y2="1.694" gradientUnits="objectBoundingBox">
      <stop offset="0" stop-color="#e7ecf2"/>
      <stop offset="1" stop-color="#fff"/>
    </linearGradient>
    <linearGradient id="linear-gradient-4" y1="0.243" y2="1.719" xlink:href="#linear-gradient"/>
  </defs>
  <g id="Group_67000" data-name="Group 67000" transform="translate(-134.458 -256.263)">
    <circle id="Ellipse_63474" data-name="Ellipse 63474" cx="4.916" cy="4.916" r="4.916" transform="translate(143.156 363)" fill="none" stroke="#edf3f9" stroke-width="1"/>
    <path id="Path_37946" data-name="Path 37946" d="M118.04,57.671A57.671,57.671,0,1,1,60.37,0a57.67,57.67,0,0,1,57.67,57.67" transform="translate(131.759 256.262)" fill="#e1e6eb"/>
    <path id="Path_37947" data-name="Path 37947" d="M12.084,102.995A5.045,5.045,0,1,1,7.04,97.95a5.045,5.045,0,0,1,5.045,5.045" transform="matrix(0.883, -0.469, 0.469, 0.883, 93.102, 177.809)" fill="#e1e6eb"/>
    <path id="Path_91206" data-name="Path 91206" d="M9.959,101.932A3.982,3.982,0,1,1,5.977,97.95a3.982,3.982,0,0,1,3.982,3.982" transform="translate(133.197 251.038)" fill="#e1e6eb"/>
    <path id="Path_37948" data-name="Path 37948" d="M104.827,9.375A2.522,2.522,0,1,1,102.3,6.853a2.522,2.522,0,0,1,2.522,2.522" transform="translate(134.3 256.441)" fill="#e1e6eb"/>
    <circle id="Ellipse_63475" data-name="Ellipse 63475" cx="2.522" cy="2.522" r="2.522" transform="translate(234.082 263.295)" fill="#e1e6eb"/>
    <path id="Path_37949" data-name="Path 37949" d="M112.743,19.642a1.261,1.261,0,1,1-1.261-1.261,1.261,1.261,0,0,1,1.261,1.261" transform="translate(134.573 256.743)" fill="#e1e6eb"/>
    <circle id="Ellipse_63476" data-name="Ellipse 63476" cx="1.261" cy="1.261" r="1.261" transform="translate(244.794 275.125)" fill="#e1e6eb"/>
    <path id="Path_37950" data-name="Path 37950" d="M3.971,86.345A1.735,1.735,0,1,1,2.235,84.61a1.735,1.735,0,0,1,1.735,1.735" transform="translate(171.5 286.657)" fill="#e1e6eb"/>
    <circle id="Ellipse_63477" data-name="Ellipse 63477" cx="1.735" cy="1.735" r="1.735" transform="matrix(0.883, -0.469, 0.469, 0.883, 226, 368.539)" fill="#e1e6eb"/>
    <g id="Rectangle_19152" data-name="Rectangle 19152" transform="translate(164 270)" fill="#fff" stroke="#d5dbe3" stroke-width="1">
      <rect width="47" height="83" rx="6" stroke="none"/>
      <rect x="0.5" y="0.5" width="46" height="82" rx="5.5" fill="none"/>
    </g>
    <g id="Group_66999" data-name="Group 66999" transform="translate(12 -2)">
      <g id="Rectangle_19150" data-name="Rectangle 19150" transform="translate(173 322)" fill="#fff" stroke="#d5dbe3" stroke-width="1">
        <rect width="6" height="25" rx="3" stroke="none"/>
        <rect x="0.5" y="0.5" width="5" height="24" rx="2.5" fill="none"/>
      </g>
      <g id="Rectangle_19151" data-name="Rectangle 19151" transform="translate(218 322)" fill="#fff" stroke="#d5dbe3" stroke-width="1">
        <rect width="6" height="25" rx="3" stroke="none"/>
        <rect x="0.5" y="0.5" width="5" height="24" rx="2.5" fill="none"/>
      </g>
      <g id="Rectangle_19119" data-name="Rectangle 19119" transform="translate(160 340)" fill="#fff" stroke="#d5dbe3" stroke-width="1">
        <rect width="77" height="25" rx="6" stroke="none"/>
        <rect x="0.5" y="0.5" width="76" height="24" rx="5.5" fill="none"/>
      </g>
      <g id="Group_66950" data-name="Group 66950" transform="translate(48 8)">
        <rect id="Rectangle_19120" data-name="Rectangle 19120" width="4" height="10" rx="2" transform="translate(160 340)" fill="url(#linear-gradient)"/>
        <rect id="Rectangle_19120-2" data-name="Rectangle 19120" width="4" height="10" rx="2" transform="translate(168 340)" fill="url(#linear-gradient)"/>
        <rect id="Rectangle_19120-3" data-name="Rectangle 19120" width="4" height="10" rx="2" transform="translate(176 340)" fill="url(#linear-gradient)"/>
      </g>
      <path id="Path_91209" data-name="Path 91209" d="M3.971,86.345A1.735,1.735,0,1,1,2.235,84.61a1.735,1.735,0,0,1,1.735,1.735" transform="translate(167.701 266.154)" fill="#d7dde7"/>
      <path id="Path_91210" data-name="Path 91210" d="M3.971,86.345A1.735,1.735,0,1,1,2.235,84.61a1.735,1.735,0,0,1,1.735,1.735" transform="translate(175.701 266.154)" fill="#e1e6eb"/>
    </g>
    <rect id="Rectangle_19120-4" data-name="Rectangle 19120" width="4" height="16" rx="2" transform="translate(196 275) rotate(90)" fill="url(#linear-gradient-4)"/>
    <path id="Union_23" data-name="Union 23" d="M15.962,21.551a2,2,0,1,1,2,2A2,2,0,0,1,15.962,21.551Zm6.331-3.707a7.688,7.688,0,0,0-8.895,0,1.536,1.536,0,1,1-1.778-2.5,10.761,10.761,0,0,1,12.452,0,1.536,1.536,0,1,1-1.778,2.5ZM5.854,13.109a1.536,1.536,0,0,1,.2-2.163,18.425,18.425,0,0,1,23.588,0,1.536,1.536,0,0,1-1.966,2.36,15.354,15.354,0,0,0-19.657,0,1.536,1.536,0,0,1-2.163-.2ZM.383,8.689A1.535,1.535,0,0,1,.52,6.522a26.106,26.106,0,0,1,34.526,0,1.536,1.536,0,0,1-2.031,2.3,23.035,23.035,0,0,0-30.463,0A1.536,1.536,0,0,1,.383,8.689Z" transform="translate(170.159 292.448)" fill="#d7dde7" stroke="#b9c4d0" stroke-linecap="round" stroke-width="1"/>
  </g>
</svg>
