<svg xmlns="http://www.w3.org/2000/svg" xmlns:xlink="http://www.w3.org/1999/xlink" width="121.479" height="120.757" viewBox="0 0 121.479 120.757">
  <defs>
    <linearGradient id="linear-gradient" x1="0.265" y1="0.73" x2="0.761" y2="0.495" gradientUnits="objectBoundingBox">
      <stop offset="0" stop-color="#f2f4f5"/>
      <stop offset="1" stop-color="#fff"/>
    </linearGradient>
    <linearGradient id="linear-gradient-2" x1="0.5" y1="0.757" x2="0.5" y2="-0.719" gradientUnits="objectBoundingBox">
      <stop offset="0" stop-color="#e7ecf2"/>
      <stop offset="1" stop-color="#fff"/>
    </linearGradient>
  </defs>
  <g id="Group_67010" data-name="Group 67010" transform="translate(-128.5 -251.48)">
    <g id="Group_66934" data-name="Group 66934" transform="translate(39.705 -9333.521)">
      <path id="Path_37946" data-name="Path 37946" d="M118.04,57.671A57.671,57.671,0,1,1,60.37,0a57.67,57.67,0,0,1,57.67,57.67" transform="translate(89.058 9585)" fill="#e1e6eb"/>
      <path id="Path_37947" data-name="Path 37947" d="M12.084,102.995A5.045,5.045,0,1,1,7.04,97.95a5.045,5.045,0,0,1,5.045,5.045" transform="translate(89.039 9587.564)" fill="#e1e6eb"/>
      <path id="Path_37948" data-name="Path 37948" d="M104.827,9.375A2.522,2.522,0,1,1,102.3,6.853a2.522,2.522,0,0,1,2.522,2.522" transform="translate(91.599 9585.18)" fill="#e1e6eb"/>
      <circle id="Ellipse_63475" data-name="Ellipse 63475" cx="2.522" cy="2.522" r="2.522" transform="translate(191.381 9592.033)" fill="#e1e6eb"/>
      <path id="Path_37949" data-name="Path 37949" d="M112.743,19.642a1.261,1.261,0,1,1-1.261-1.261,1.261,1.261,0,0,1,1.261,1.261" transform="translate(91.872 9585.481)" fill="#e1e6eb"/>
      <circle id="Ellipse_63476" data-name="Ellipse 63476" cx="1.261" cy="1.261" r="1.261" transform="translate(202.093 9603.863)" fill="#e1e6eb"/>
      <path id="Path_37950" data-name="Path 37950" d="M3.971,86.345A1.735,1.735,0,1,1,2.235,84.61a1.735,1.735,0,0,1,1.735,1.735" transform="translate(89 9587.215)" fill="#e1e6eb"/>
      <circle id="Ellipse_63477" data-name="Ellipse 63477" cx="1.735" cy="1.735" r="1.735" transform="translate(89.5 9671.824)" fill="#e1e6eb"/>
    </g>
    <circle id="Ellipse_63474" data-name="Ellipse 63474" cx="4.916" cy="4.916" r="4.916" transform="translate(129 361.905)" fill="none" stroke="#edf3f9" stroke-width="1"/>
    <line id="Line_1770" data-name="Line 1770" x2="8.646" transform="translate(172.875 272.299)" fill="#fff"/>
    <line id="Line_1772" data-name="Line 1772" x2="8.646" transform="translate(184.514 272.299)" fill="#fff"/>
    <line id="Line_1774" data-name="Line 1774" x2="8.646" transform="translate(196.153 272.299)" fill="#fff"/>
    <line id="Line_1776" data-name="Line 1776" x2="8.646" transform="translate(207.792 272.299)" fill="#fff"/>
    <g id="Group_67009" data-name="Group 67009" transform="translate(-101.969 91.904) rotate(-20)" opacity="0.391">
      <path id="Path_91217" data-name="Path 91217" d="M8.068,0H44.025C57.785,12.712,54.634,8.594,64.1,17.1V68.71a8.069,8.069,0,0,1-8.069,8.069H8.069A8.069,8.069,0,0,1,0,68.71V8.068A8.068,8.068,0,0,1,8.068,0Z" transform="translate(157.954 267.761)" fill="#fff" stroke="#d5dbe3" stroke-width="1"/>
      <path id="Path_91216" data-name="Path 91216" d="M9.815,5.7a2.855,2.855,0,0,1,5.008,0L27.892,23.743a2.855,2.855,0,0,1-2.5,4.226L9,23.883a2.855,2.855,0,0,1-2.5-4.226Z" transform="translate(186.18 268.869) rotate(-14)" fill="url(#linear-gradient)"/>
    </g>
    <path id="Path_91217-2" data-name="Path 91217" d="M8.068,0H44.025C57.785,12.712,54.634,8.594,64.1,17.1V68.71a8.069,8.069,0,0,1-8.069,8.069H8.069A8.069,8.069,0,0,1,0,68.71V8.068A8.068,8.068,0,0,1,8.068,0Z" transform="translate(161.46 272.475)" fill="#fff" stroke="#d5dbe3" stroke-width="1"/>
    <rect id="Rectangle_19120" data-name="Rectangle 19120" width="4" height="43" rx="2" transform="translate(214.66 286) rotate(90)" fill="url(#linear-gradient-2)"/>
    <rect id="Rectangle_19165" data-name="Rectangle 19165" width="4" height="28.816" rx="2" transform="translate(200.476 298) rotate(90)" fill="url(#linear-gradient-2)"/>
    <rect id="Rectangle_19166" data-name="Rectangle 19166" width="4" height="43" rx="2" transform="translate(214.66 310) rotate(90)" fill="url(#linear-gradient-2)"/>
    <rect id="Rectangle_19167" data-name="Rectangle 19167" width="4" height="35" rx="2" transform="translate(206.66 322) rotate(90)" fill="url(#linear-gradient-2)"/>
    <path id="Path_91216-2" data-name="Path 91216" d="M9.815,5.7a2.855,2.855,0,0,1,5.008,0L27.892,23.743a2.855,2.855,0,0,1-2.5,4.226L9,23.883a2.855,2.855,0,0,1-2.5-4.226Z" transform="translate(189.687 273.582) rotate(-14)" fill="url(#linear-gradient)"/>
    <g id="Union_21" data-name="Union 21" transform="matrix(0.629, -0.777, 0.777, 0.629, 10937.941, 6487.674)" fill="#d7dde7">
      <path d="M -1968.500244140625 -12177.5 C -1970.461669921875 -12177.5 -1972.057495117188 -12179.095703125 -1972.057495117188 -12181.0576171875 L -1972.057495117188 -12192.98828125 L -1972.057495117188 -12193.404296875 L -1972.467041015625 -12193.48046875 C -1974.035766601562 -12193.7685546875 -1975.581176757812 -12194.234375 -1977.060546875 -12194.865234375 C -1979.677734375 -12195.98046875 -1982.030883789062 -12197.580078125 -1984.054931640625 -12199.6201171875 C -1986.077270507812 -12201.66015625 -1987.663940429688 -12204.033203125 -1988.770629882812 -12206.6748046875 C -1989.918701171875 -12209.4130859375 -1990.500854492188 -12212.3193359375 -1990.500854492188 -12215.3115234375 C -1990.500854492188 -12218.3076171875 -1989.918823242188 -12221.212890625 -1988.770751953125 -12223.9482421875 C -1987.662109375 -12226.591796875 -1986.075439453125 -12228.9658203125 -1984.0546875 -12231.0048828125 C -1982.0341796875 -12233.0400390625 -1979.680786132812 -12234.6396484375 -1977.060180664062 -12235.7587890625 C -1974.35107421875 -12236.9140625 -1971.470947265625 -12237.5 -1968.500244140625 -12237.5 C -1965.530517578125 -12237.5 -1962.6494140625 -12236.9140625 -1959.936767578125 -12235.7587890625 C -1957.31787109375 -12234.638671875 -1954.965576171875 -12233.0390625 -1952.945678710938 -12231.00390625 C -1950.924926757812 -12228.9658203125 -1949.338256835938 -12226.591796875 -1948.229858398438 -12223.9482421875 C -1947.081787109375 -12221.212890625 -1946.499633789062 -12218.3076171875 -1946.499633789062 -12215.3115234375 C -1946.499633789062 -12212.3193359375 -1947.081787109375 -12209.4140625 -1948.22998046875 -12206.6748046875 C -1949.33642578125 -12204.033203125 -1950.923095703125 -12201.66015625 -1952.945922851562 -12199.619140625 C -1954.968872070312 -12197.5810546875 -1957.321044921875 -12195.9814453125 -1959.93701171875 -12194.865234375 C -1961.418701171875 -12194.234375 -1962.96533203125 -12193.7685546875 -1964.533447265625 -12193.48046875 L -1964.942993164062 -12193.404296875 L -1964.942993164062 -12192.98828125 L -1964.942993164062 -12181.0576171875 C -1964.942993164062 -12179.095703125 -1966.538818359375 -12177.5 -1968.500244140625 -12177.5 Z M -1968.500244140625 -12231.8046875 C -1970.712646484375 -12231.8046875 -1972.855712890625 -12231.3681640625 -1974.8701171875 -12230.5078125 C -1976.823608398438 -12229.673828125 -1978.572875976562 -12228.484375 -1980.069213867188 -12226.9716796875 C -1981.572509765625 -12225.4560546875 -1982.752075195312 -12223.6923828125 -1983.57470703125 -12221.73046875 C -1984.427978515625 -12219.6943359375 -1984.860595703125 -12217.5341796875 -1984.860595703125 -12215.3115234375 C -1984.860595703125 -12213.08984375 -1984.427978515625 -12210.9296875 -1983.574829101562 -12208.892578125 C -1982.752807617188 -12206.9326171875 -1981.5732421875 -12205.1689453125 -1980.06884765625 -12203.6513671875 C -1978.572998046875 -12202.1396484375 -1976.823974609375 -12200.94921875 -1974.870483398438 -12200.1123046875 C -1972.847534179688 -12199.251953125 -1970.704711914062 -12198.81640625 -1968.500244140625 -12198.81640625 C -1966.292602539062 -12198.81640625 -1964.149658203125 -12199.251953125 -1962.130981445312 -12200.1123046875 C -1960.18115234375 -12200.9462890625 -1958.431030273438 -12202.13671875 -1956.928833007812 -12203.650390625 C -1955.427856445312 -12205.1650390625 -1954.249389648438 -12206.9287109375 -1953.42578125 -12208.892578125 C -1952.572631835938 -12210.921875 -1952.139892578125 -12213.08203125 -1952.139892578125 -12215.3115234375 C -1952.139892578125 -12217.5419921875 -1952.572631835938 -12219.7021484375 -1953.425903320312 -12221.73046875 C -1954.250122070312 -12223.6962890625 -1955.4287109375 -12225.4599609375 -1956.928833007812 -12226.97265625 C -1958.43115234375 -12228.4873046875 -1960.181396484375 -12229.677734375 -1962.130981445312 -12230.5078125 C -1964.141479492188 -12231.3681640625 -1966.28466796875 -12231.8046875 -1968.500244140625 -12231.8046875 Z" stroke="none"/>
      <path d="M -1968.500244140625 -12178 C -1966.814453125 -12178 -1965.442993164062 -12179.3720703125 -1965.442993164062 -12181.0576171875 L -1965.442993164062 -12193.8212890625 L -1964.623779296875 -12193.9716796875 C -1963.091796875 -12194.25390625 -1961.580810546875 -12194.708984375 -1960.13330078125 -12195.3251953125 C -1957.576904296875 -12196.416015625 -1955.278076171875 -12197.9794921875 -1953.301025390625 -12199.9716796875 C -1951.323608398438 -12201.9658203125 -1949.772705078125 -12204.2861328125 -1948.691040039062 -12206.8681640625 C -1947.568725585938 -12209.5458984375 -1946.999633789062 -12212.38671875 -1946.999633789062 -12215.3115234375 C -1946.999633789062 -12218.240234375 -1947.568603515625 -12221.0810546875 -1948.691040039062 -12223.7548828125 C -1949.7744140625 -12226.3388671875 -1951.325439453125 -12228.66015625 -1953.300537109375 -12230.65234375 C -1955.274780273438 -12232.640625 -1957.573974609375 -12234.2041015625 -1960.132690429688 -12235.298828125 C -1962.783081054688 -12236.427734375 -1965.598266601562 -12237 -1968.500244140625 -12237 C -1971.403198242188 -12237 -1974.21728515625 -12236.427734375 -1976.86376953125 -12235.298828125 C -1979.424926757812 -12234.205078125 -1981.724975585938 -12232.6416015625 -1983.699584960938 -12230.65234375 C -1985.674926757812 -12228.66015625 -1987.225952148438 -12226.3388671875 -1988.309814453125 -12223.7548828125 C -1989.431884765625 -12221.0810546875 -1990.000854492188 -12218.240234375 -1990.000854492188 -12215.3115234375 C -1990.000854492188 -12212.3857421875 -1989.431884765625 -12209.544921875 -1988.309448242188 -12206.8681640625 C -1987.227783203125 -12204.2861328125 -1985.6767578125 -12201.9658203125 -1983.699951171875 -12199.9716796875 C -1981.7216796875 -12197.978515625 -1979.421997070312 -12196.4150390625 -1976.864379882812 -12195.3251953125 C -1975.4189453125 -12194.708984375 -1973.909057617188 -12194.25390625 -1972.376586914062 -12193.9716796875 L -1971.557495117188 -12193.8212890625 L -1971.557495117188 -12181.0576171875 C -1971.557495117188 -12179.3720703125 -1970.18603515625 -12178 -1968.500244140625 -12178 M -1968.500244140625 -12232.3046875 C -1966.216674804688 -12232.3046875 -1964.00732421875 -12231.8544921875 -1961.934936523438 -12230.9677734375 C -1959.925659179688 -12230.1123046875 -1958.121826171875 -12228.8857421875 -1956.573852539062 -12227.32421875 C -1955.028198242188 -12225.765625 -1953.81396484375 -12223.94921875 -1952.965087890625 -12221.9248046875 C -1952.085693359375 -12219.833984375 -1951.639892578125 -12217.609375 -1951.639892578125 -12215.3115234375 C -1951.639892578125 -12213.0146484375 -1952.085693359375 -12210.7900390625 -1952.964599609375 -12208.69921875 C -1953.813232421875 -12206.67578125 -1955.02734375 -12204.8583984375 -1956.573852539062 -12203.298828125 C -1958.121704101562 -12201.73828125 -1959.925048828125 -12200.51171875 -1961.93505859375 -12199.65234375 C -1964.015991210938 -12198.765625 -1966.224853515625 -12198.31640625 -1968.500244140625 -12198.31640625 C -1970.772338867188 -12198.31640625 -1972.981079101562 -12198.765625 -1975.0673828125 -12199.6533203125 C -1977.080322265625 -12200.5146484375 -1978.882690429688 -12201.7421875 -1980.423950195312 -12203.298828125 C -1981.973754882812 -12204.8623046875 -1983.18896484375 -12206.6796875 -1984.036010742188 -12208.69921875 C -1984.914916992188 -12210.7978515625 -1985.360595703125 -12213.0224609375 -1985.360595703125 -12215.3115234375 C -1985.360595703125 -12217.6015625 -1984.914916992188 -12219.826171875 -1984.035888671875 -12221.923828125 C -1983.188232421875 -12223.9453125 -1981.972900390625 -12225.7626953125 -1980.424682617188 -12227.3232421875 C -1978.882568359375 -12228.8818359375 -1977.079711914062 -12230.1083984375 -1975.066650390625 -12230.9677734375 C -1972.98974609375 -12231.8544921875 -1970.780517578125 -12232.3046875 -1968.500244140625 -12232.3046875 M -1968.500244140625 -12177 C -1970.742309570312 -12177 -1972.557495117188 -12178.8154296875 -1972.557495117188 -12181.0576171875 L -1972.557495117188 -12192.98828125 C -1974.166625976562 -12193.2841796875 -1975.737915039062 -12193.7578125 -1977.256591796875 -12194.4052734375 C -1979.937866210938 -12195.5478515625 -1982.3427734375 -12197.1845703125 -1984.409790039062 -12199.267578125 C -1986.476806640625 -12201.3525390625 -1988.098388671875 -12203.7763671875 -1989.231811523438 -12206.4814453125 C -1990.405029296875 -12209.2802734375 -1991.000854492188 -12212.25 -1991.000854492188 -12215.3115234375 C -1991.000854492188 -12218.3740234375 -1990.405029296875 -12221.3466796875 -1989.231811523438 -12224.1416015625 C -1988.098388671875 -12226.8447265625 -1986.476806640625 -12229.271484375 -1984.409790039062 -12231.3564453125 C -1982.3427734375 -12233.4384765625 -1979.937866210938 -12235.0732421875 -1977.256591796875 -12236.21875 C -1974.483276367188 -12237.4013671875 -1971.534790039062 -12238 -1968.500244140625 -12238 C -1965.462768554688 -12238 -1962.517333984375 -12237.4013671875 -1959.740844726562 -12236.21875 C -1957.062622070312 -12235.0732421875 -1954.65771484375 -12233.4384765625 -1952.5908203125 -12231.3564453125 C -1950.523803710938 -12229.271484375 -1948.902099609375 -12226.8447265625 -1947.768798828125 -12224.1416015625 C -1946.595581054688 -12221.3466796875 -1945.999633789062 -12218.3740234375 -1945.999633789062 -12215.3115234375 C -1945.999633789062 -12212.25 -1946.595581054688 -12209.2802734375 -1947.768798828125 -12206.4814453125 C -1948.902099609375 -12203.7763671875 -1950.523803710938 -12201.3525390625 -1952.5908203125 -12199.267578125 C -1954.65771484375 -12197.1845703125 -1957.062622070312 -12195.5478515625 -1959.740844726562 -12194.4052734375 C -1961.26171875 -12193.7578125 -1962.833374023438 -12193.2841796875 -1964.442993164062 -12192.98828125 L -1964.442993164062 -12181.0576171875 C -1964.442993164062 -12178.8154296875 -1966.258178710938 -12177 -1968.500244140625 -12177 Z M -1968.500244140625 -12231.3046875 C -1970.640991210938 -12231.3046875 -1972.717163085938 -12230.8837890625 -1974.673706054688 -12230.0478515625 C -1976.559448242188 -12229.2431640625 -1978.257934570312 -12228.091796875 -1979.713745117188 -12226.6201171875 C -1981.169555664062 -12225.15234375 -1982.315185546875 -12223.44140625 -1983.113647460938 -12221.537109375 C -1983.939819335938 -12219.5654296875 -1984.360595703125 -12217.470703125 -1984.360595703125 -12215.3115234375 C -1984.360595703125 -12213.15234375 -1983.939819335938 -12211.05859375 -1983.113647460938 -12209.0859375 C -1982.315185546875 -12207.181640625 -1981.169555664062 -12205.4716796875 -1979.713745117188 -12204.0029296875 C -1978.257934570312 -12202.5322265625 -1976.559448242188 -12201.3798828125 -1974.673706054688 -12200.572265625 C -1972.717163085938 -12199.740234375 -1970.640991210938 -12199.31640625 -1968.500244140625 -12199.31640625 C -1966.3564453125 -12199.31640625 -1964.2802734375 -12199.740234375 -1962.326904296875 -12200.572265625 C -1960.43798828125 -12201.3798828125 -1958.74267578125 -12202.5322265625 -1957.283813476562 -12204.0029296875 C -1955.828002929688 -12205.4716796875 -1954.685424804688 -12207.181640625 -1953.886840820312 -12209.0859375 C -1953.0576171875 -12211.05859375 -1952.639892578125 -12213.15234375 -1952.639892578125 -12215.3115234375 C -1952.639892578125 -12217.470703125 -1953.0576171875 -12219.5654296875 -1953.886840820312 -12221.537109375 C -1954.685424804688 -12223.44140625 -1955.828002929688 -12225.15234375 -1957.283813476562 -12226.6201171875 C -1958.74267578125 -12228.091796875 -1960.43798828125 -12229.2431640625 -1962.326904296875 -12230.0478515625 C -1964.2802734375 -12230.8837890625 -1966.3564453125 -12231.3046875 -1968.500244140625 -12231.3046875 Z" stroke="none" fill="#b9c4d0"/>
    </g>
  </g>
</svg>
