<svg xmlns="http://www.w3.org/2000/svg" width="36" height="36" viewBox="0 0 36 36">
  <g id="Group_66627" data-name="Group 66627" transform="translate(-17 -213)">
    <circle id="Ellipse_63418" data-name="Ellipse 63418" cx="18" cy="18" r="18" transform="translate(17 213)" fill="#ffd1ec"/>
    <path id="Icon_awesome-user" data-name="Icon awesome-user" d="M6.388,7.3a3.65,3.65,0,1,0-3.65-3.65A3.65,3.65,0,0,0,6.388,7.3Zm2.555.913H8.467a4.964,4.964,0,0,1-4.158,0H3.833A3.834,3.834,0,0,0,0,12.046v1.186A1.369,1.369,0,0,0,1.369,14.6H11.407a1.369,1.369,0,0,0,1.369-1.369V12.046A3.834,3.834,0,0,0,8.943,8.213Z" transform="translate(28.612 223.699)" fill="#e685bd"/>
  </g>
</svg>
