<svg xmlns="http://www.w3.org/2000/svg" width="16.401" height="20" viewBox="0 0 16.401 20">
  <g id="Group_66574" data-name="Group 66574" transform="translate(166.04 1877)">
    <path id="Vector" d="M4.75,0a4.746,4.746,0,0,0-.12,9.49.807.807,0,0,1,.22,0h.07A4.746,4.746,0,0,0,4.75,0Z" transform="translate(-163.75 -1877)" fill="#565f6c"/>
    <path id="Subtraction_38" data-name="Subtraction 38" d="M7.04,9.245A9.19,9.19,0,0,1,1.96,7.835,3.914,3.914,0,0,1,0,4.625,3.942,3.942,0,0,1,1.97,1.4,9.29,9.29,0,0,1,7.052,0a9.239,9.239,0,0,1,5.041,1.377,4.189,4.189,0,0,0-.668-.034,2.889,2.889,0,0,0-2.79,2.481A4.8,4.8,0,0,0,8.8,5.293,6.177,6.177,0,0,0,11.17,8.372,9.738,9.738,0,0,1,7.04,9.245Z" transform="translate(-166.04 -1866.245)" fill="#565f6c"/>
    <path id="Vector-2" data-name="Vector" d="M4.743,0a1.826,1.826,0,0,0-1.46.733A1.823,1.823,0,0,0,0,1.834,3.577,3.577,0,0,0,.169,2.92,4.948,4.948,0,0,0,3.078,5.813a.758.758,0,0,0,.406,0A4.933,4.933,0,0,0,6.392,2.92a3.446,3.446,0,0,0,.169-1.086A1.822,1.822,0,0,0,4.743,0Z" transform="translate(-156.2 -1863.894)" fill="#565f6c"/>
  </g>
</svg>
