<svg xmlns="http://www.w3.org/2000/svg" xmlns:xlink="http://www.w3.org/1999/xlink" width="26" height="26" viewBox="0 0 26 26">
  <defs>
    <linearGradient id="linear-gradient" x1="0.858" y1="0.207" x2="0.354" y2="0.928" gradientUnits="objectBoundingBox">
      <stop offset="0" stop-color="#ffbc7b"/>
      <stop offset="1" stop-color="#ff7d43"/>
    </linearGradient>
  </defs>
  <g id="Group_62585" data-name="Group 62585" transform="translate(-16 -457)">
    <circle id="Ellipse_715" data-name="Ellipse 715" cx="13" cy="13" r="13" transform="translate(16 457)" fill="url(#linear-gradient)"/>
    <g id="vuesax_bold_call" data-name="vuesax/bold/call" transform="translate(-86.672 274.328)">
      <g id="call" transform="translate(108 188)">
        <path id="Vector" d="M5.786,8.279,4.6,9.462a.643.643,0,0,1-.9.006c-.07-.07-.141-.134-.211-.2A18.166,18.166,0,0,1,1.707,7.173,11.4,11.4,0,0,1,.454,4.993,5.489,5.489,0,0,1,0,2.9,3.307,3.307,0,0,1,.23,1.669,2.943,2.943,0,0,1,.965.6,1.873,1.873,0,0,1,2.3,0a1.2,1.2,0,0,1,.518.115,1.042,1.042,0,0,1,.428.358L4.725,2.564a2.188,2.188,0,0,1,.256.448,1.011,1.011,0,0,1,.09.39.868.868,0,0,1-.134.454,2.175,2.175,0,0,1-.358.454l-.486.505a.342.342,0,0,0-.1.256.58.58,0,0,0,.019.147c.019.051.038.09.051.128a5.305,5.305,0,0,0,.595.818c.288.332.595.671.927,1.01.064.064.134.128.2.192A.641.641,0,0,1,5.786,8.279Z" transform="translate(1.279 1.279)" fill="#fff"/>
        <path id="Vector-2" data-name="Vector" d="M7.909,2.743a1.624,1.624,0,0,1-.1.543,1.561,1.561,0,0,1-.064.153,2.638,2.638,0,0,1-.435.652,2.882,2.882,0,0,1-1.049.754c-.006,0-.013.006-.019.006a3.23,3.23,0,0,1-1.228.237,5.328,5.328,0,0,1-2.084-.467,11.23,11.23,0,0,1-2.2-1.266C.486,3.171.237,2.986,0,2.788L2.091.7A3.592,3.592,0,0,0,2.564,1c.032.013.07.032.115.051a.441.441,0,0,0,.16.026A.352.352,0,0,0,3.1.972l.486-.48a1.962,1.962,0,0,1,.46-.358A.851.851,0,0,1,4.5,0a1.02,1.02,0,0,1,.39.083,2.473,2.473,0,0,1,.448.249l2.116,1.5a.97.97,0,0,1,.352.409A1.312,1.312,0,0,1,7.909,2.743Z" transform="translate(6.138 8.976)" fill="#fff"/>
        <path id="Vector-3" data-name="Vector" d="M0,0H15.344V15.344H0Z" transform="translate(15.344 15.344) rotate(180)" fill="none" opacity="0"/>
      </g>
    </g>
  </g>
</svg>
