<svg xmlns="http://www.w3.org/2000/svg" width="12.222" height="9.778" viewBox="0 0 12.222 9.778">
  <g id="Group_62613" data-name="Group 62613" transform="translate(-79.798 -1067.656)">
    <path id="Icon_awesome-crown" data-name="Icon awesome-crown" d="M10.083,8.556H2.139a.306.306,0,0,0-.306.306v.611a.306.306,0,0,0,.306.306h7.944a.306.306,0,0,0,.306-.306V8.861A.306.306,0,0,0,10.083,8.556Zm1.222-6.111a.917.917,0,0,0-.917.917.9.9,0,0,0,.084.378L9.09,4.568a.61.61,0,0,1-.844-.222L6.69,1.623a.917.917,0,1,0-1.157,0L3.976,4.347a.611.611,0,0,1-.844.222L1.751,3.739a.916.916,0,1,0-.835.539.936.936,0,0,0,.147-.015L2.444,7.944H9.778l1.381-3.682a.936.936,0,0,0,.147.015.917.917,0,0,0,0-1.833Z" transform="translate(79.798 1067.656)" fill="#ffb000"/>
  </g>
</svg>
