<svg xmlns="http://www.w3.org/2000/svg" width="38.035" height="38.035" viewBox="0 0 38.035 38.035">
  <g id="vuesax_linear_profile-2user" data-name="vuesax/linear/profile-2user" transform="translate(-172 -252)">
    <g id="profile-2user" transform="translate(172 252)">
      <path id="Vector" d="M7.29,14.057a2.881,2.881,0,0,0-.523,0,7.044,7.044,0,1,1,.523,0Z" transform="translate(7.227 3.17)" fill="none" stroke="#565f6c" stroke-linecap="round" stroke-linejoin="round" stroke-width="2"/>
      <path id="Vector-2" data-name="Vector" d="M.206,0A5.543,5.543,0,0,1,5.753,5.547,5.554,5.554,0,0,1,.412,11.093a1.79,1.79,0,0,0-.412,0" transform="translate(25.8 6.339)" fill="none" stroke="#565f6c" stroke-linecap="round" stroke-linejoin="round" stroke-width="2"/>
      <path id="Vector-3" data-name="Vector" d="M2.876,2.175c-3.835,2.567-3.835,6.751,0,9.3a15.477,15.477,0,0,0,15.864,0c3.835-2.567,3.835-6.751,0-9.3C14.4-.725,7.25-.725,2.876,2.175Z" transform="translate(3.716 20.899)" fill="none" stroke="#565f6c" stroke-linecap="round" stroke-linejoin="round" stroke-width="2"/>
      <path id="Vector-4" data-name="Vector" d="M0,9.509A7.666,7.666,0,0,0,3.106,8.13a4.014,4.014,0,0,0,0-6.767A7.882,7.882,0,0,0,.048,0" transform="translate(29.065 22.187)" fill="none" stroke="#565f6c" stroke-linecap="round" stroke-linejoin="round" stroke-width="2"/>
      <path id="Vector-5" data-name="Vector" d="M0,0H38.035V38.035H0Z" transform="translate(38.035 38.035) rotate(180)" fill="none" opacity="0"/>
    </g>
  </g>
</svg>
