<svg xmlns="http://www.w3.org/2000/svg" xmlns:xlink="http://www.w3.org/1999/xlink" width="58" height="58" viewBox="0 0 58 58">
  <defs>
    <linearGradient id="linear-gradient" x1="0.5" y1="0.977" x2="0.49" y2="0.04" gradientUnits="objectBoundingBox">
      <stop offset="0" stop-color="#6a29ff"/>
      <stop offset="1" stop-color="#c7afff"/>
    </linearGradient>
    <linearGradient id="linear-gradient-2" x1="0.5" y1="1.027" x2="0.523" y2="0.6" gradientUnits="objectBoundingBox">
      <stop offset="0" stop-color="#d6c4fe"/>
      <stop offset="1" stop-color="#fff"/>
    </linearGradient>
  </defs>
  <g id="Group_62671" data-name="Group 62671" transform="translate(-97 -16)">
    <rect id="Rectangle_17177" data-name="Rectangle 17177" width="58" height="58" rx="16" transform="translate(97 16)" fill="#e2d4ff"/>
    <rect id="Rectangle_17174" data-name="Rectangle 17174" width="56" height="56" rx="15" transform="translate(98 17)" fill="url(#linear-gradient)"/>
    <path id="Subtraction_6" data-name="Subtraction 6" d="M4151,721.986h0A15,15,0,0,0,4136,707h-26a15,15,0,0,0-15,14.751l0-1.752a15,15,0,0,1,15-15h26a15,15,0,0,1,15,15Z" transform="translate(-3997 -688)" fill="#a179ff"/>
    <path id="Subtraction_7" data-name="Subtraction 7" d="M41,16.986H15A14.9,14.9,0,0,1,4.393,12.592,14.9,14.9,0,0,1,0,1.986V.234A14.929,14.929,0,0,0,4.393,10.592,14.9,14.9,0,0,0,15,14.986H41a14.9,14.9,0,0,0,10.607-4.393A14.9,14.9,0,0,0,56,.015V1.986a14.9,14.9,0,0,1-4.393,10.606A14.9,14.9,0,0,1,41,16.986Z" transform="translate(98 55.985)" fill="#4f13d8"/>
    <g id="vuesax_bold_briefcase" data-name="vuesax/bold/briefcase" transform="translate(3.152 -159.613)" opacity="0.238">
      <path id="Vector" d="M24.226,6.613c-1.079-1.193-2.881-1.79-5.5-1.79h-.3V4.772c0-2.132,0-4.772-4.772-4.772H11.724C6.952,0,6.952,2.653,6.952,4.772v.063h-.3c-2.627,0-4.417.6-5.5,1.79A5.772,5.772,0,0,0,.06,11.182l.013.089L.2,12.6s.914.609,1.371.863c.178.114.368.216.558.317A21.786,21.786,0,0,0,9.109,16.17c.114,1.193.635,2.589,3.414,2.589s3.325-1.383,3.414-2.615a21.359,21.359,0,0,0,7.349-2.64c.076-.038.127-.076.19-.114A17.66,17.66,0,0,0,25.2,12.248l.051-.457.063-.6c.013-.076.013-.14.025-.228A5.626,5.626,0,0,0,24.226,6.613ZM14.072,15.307c0,1.345,0,1.548-1.561,1.548s-1.561-.241-1.561-1.536v-1.6h3.122ZM8.767,4.823V4.772c0-2.158,0-2.957,2.957-2.957h1.929c2.957,0,2.957.812,2.957,2.957v.063H8.767Z" transform="translate(110.542 190.247)" fill="#844eff" opacity="0.604"/>
      <path id="Vector-2" data-name="Vector" d="M24.546,0l-.558,6.152c-.267,2.538-1.307,5.128-6.892,5.128H7.425C1.84,11.279.8,8.69.533,6.164L0,.3A50.319,50.319,0,0,0,7.108,3.093c.7,1.853,2.424,2.843,4.988,2.843,2.538,0,4.29-1.028,4.988-2.881A48.657,48.657,0,0,0,24.546,0Z" transform="translate(110.97 204.935)" fill="#844eff" opacity="0.604"/>
      <path id="Vector-3" data-name="Vector" d="M0,0H30.461V30.461H0Z" transform="translate(138.461 218.461) rotate(180)" fill="none" opacity="0"/>
    </g>
    <path id="Union_6" data-name="Union 6" d="M4102.853,784.968c-5.584,0-6.625-2.589-6.892-5.116l-.532-5.863a50.272,50.272,0,0,0,7.107,2.792c.7,1.853,2.425,2.843,4.987,2.843,2.539,0,4.291-1.028,4.988-2.881a48.674,48.674,0,0,0,7.463-3.055l-.559,6.152c-.267,2.539-1.307,5.128-6.891,5.128Zm1.256-9.8a21.771,21.771,0,0,1-6.981-2.386c-.19-.1-.381-.2-.558-.317-.457-.253-1.371-.862-1.371-.862l-.127-1.333-.012-.089a5.77,5.77,0,0,1,1.091-4.556c1.079-1.193,2.869-1.79,5.5-1.79h.3v-.063c0-2.12,0-4.772,4.772-4.772h1.93c4.772,0,4.772,2.64,4.772,4.772v.051h.3c2.614,0,4.417.6,5.5,1.789a5.632,5.632,0,0,1,1.117,4.354c-.014.089-.014.153-.026.229l-.063.6-.051.457a17.93,17.93,0,0,1-1.727,1.143c-.063.037-.114.076-.19.114a21.356,21.356,0,0,1-7.348,2.64c-.089,1.231-.634,2.614-3.415,2.614S4104.223,776.363,4104.109,775.169Zm1.841-.85c0,1.295,0,1.536,1.561,1.536s1.561-.2,1.561-1.548v-1.586h-3.122Zm-2.183-10.547v.063h7.844v-.063c0-2.145,0-2.957-2.958-2.957h-1.93C4103.767,760.815,4103.767,761.614,4103.767,763.772Z" transform="translate(-3981.306 -729.366)" fill="url(#linear-gradient-2)"/>
    <path id="Vector-4" data-name="Vector" d="M0,0H30.461V30.461H0Z" transform="translate(141.613 57.848) rotate(180)" fill="none" opacity="0"/>
  </g>
</svg>
