<svg xmlns="http://www.w3.org/2000/svg" width="89.372" height="18.876" viewBox="0 0 89.372 18.876">
  <g id="Page-1" transform="translate(0 0)">
    <g id="Group" transform="translate(0 0)">
      <path id="Fill-1" d="M267.049,80.764a1.848,1.848,0,0,1-.82,1.159,3.3,3.3,0,0,1-1.711.37h-2.334L263,79.235h2.334a2.3,2.3,0,0,1,1.512.37,1.083,1.083,0,0,1,.2,1.159m2.418-.066a2.584,2.584,0,0,0-.369-2.548,3.758,3.758,0,0,0-2.853-.888h-5.211l-3.136,11.7h2.532l1.264-4.718h1.66a1.8,1.8,0,0,1,.88.181.8.8,0,0,1,.379.641l.452,3.9h2.713l-.44-3.633a1.435,1.435,0,0,0-1.113-1.43,4.785,4.785,0,0,0,2.089-1.2,4.379,4.379,0,0,0,1.154-2.006" transform="translate(-245.771 -73.641)" fill="#072654" fill-rule="evenodd"/>
      <path id="Fill-3" d="M501.588,148.53a3.772,3.772,0,0,1-.977,1.808,2.221,2.221,0,0,1-1.581.625,1.316,1.316,0,0,1-1.273-.616,2.45,2.45,0,0,1-.023-1.784,3.835,3.835,0,0,1,1-1.825,2.247,2.247,0,0,1,1.606-.657,1.264,1.264,0,0,1,1.244.633,2.593,2.593,0,0,1,.007,1.816Zm1.11-4.143-.317,1.184a1.858,1.858,0,0,0-.795-1.019,2.654,2.654,0,0,0-1.461-.378,4.156,4.156,0,0,0-2.054.551,5.423,5.423,0,0,0-1.723,1.553,6.782,6.782,0,0,0-1.081,2.285,4.873,4.873,0,0,0-.137,2.26,2.448,2.448,0,0,0,.9,1.5,2.84,2.84,0,0,0,1.774.526,3.928,3.928,0,0,0,1.659-.362,3.862,3.862,0,0,0,1.337-1l-.331,1.233h2.449l2.233-8.334Z" transform="translate(-471.739 -137.396)" fill="#072654" fill-rule="evenodd"/>
      <path id="Fill-5" d="M705.549,148.706h-7.118l-.5,1.858h4.142L696.6,155.3l-.467,1.743h7.348l.5-1.857H699.54l5.56-4.8Z" transform="translate(-663.335 -141.715)" fill="#072654" fill-rule="evenodd"/>
      <path id="Fill-7" d="M897.761,148.514a3.828,3.828,0,0,1-.979,1.841,2.208,2.208,0,0,1-1.568.608q-1.924,0-1.267-2.449a3.8,3.8,0,0,1,.984-1.833,2.248,2.248,0,0,1,1.6-.617,1.265,1.265,0,0,1,1.24.617,2.621,2.621,0,0,1-.006,1.833m1.433-3.814a4.032,4.032,0,0,0-2.161-.526,5.8,5.8,0,0,0-2.467.526,5.356,5.356,0,0,0-1.934,1.512,6.127,6.127,0,0,0-1.151,2.3,4.389,4.389,0,0,0-.082,2.3,2.478,2.478,0,0,0,1.123,1.512,4.1,4.1,0,0,0,2.185.526,5.7,5.7,0,0,0,2.443-.526,5.383,5.383,0,0,0,1.925-1.512,6.136,6.136,0,0,0,1.151-2.3,4.4,4.4,0,0,0,.083-2.3,2.5,2.5,0,0,0-1.115-1.512" transform="translate(-849.28 -137.397)" fill="#072654" fill-rule="evenodd"/>
      <path id="Fill-9" d="M1470.1,148.53a3.768,3.768,0,0,1-.977,1.808,2.222,2.222,0,0,1-1.582.625,1.316,1.316,0,0,1-1.272-.616,2.448,2.448,0,0,1-.024-1.784,3.838,3.838,0,0,1,1-1.825,2.247,2.247,0,0,1,1.606-.657,1.264,1.264,0,0,1,1.244.633,2.594,2.594,0,0,1,.006,1.816Zm1.11-4.143-.317,1.184a1.859,1.859,0,0,0-.795-1.019,2.655,2.655,0,0,0-1.461-.378,4.156,4.156,0,0,0-2.054.551,5.425,5.425,0,0,0-1.723,1.553,6.781,6.781,0,0,0-1.081,2.285,4.884,4.884,0,0,0-.137,2.26,2.447,2.447,0,0,0,.9,1.5,2.841,2.841,0,0,0,1.774.526,3.929,3.929,0,0,0,1.659-.362,3.863,3.863,0,0,0,1.337-1l-.331,1.233h2.449l2.233-8.334Z" transform="translate(-1394.573 -137.396)" fill="#072654" fill-rule="evenodd"/>
      <path id="Fill-11" d="M1095.582,146.956l.624-2.269a1.843,1.843,0,0,0-.844-.165,3.364,3.364,0,0,0-1.617.419,3.544,3.544,0,0,0-1.145,1l.324-1.222h-2.448l-2.25,8.334h2.483l1.167-4.356a2.765,2.765,0,0,1,.916-1.488,2.535,2.535,0,0,1,1.647-.534,2.427,2.427,0,0,1,1.142.279" transform="translate(-1036.936 -137.728)" fill="#072654" fill-rule="evenodd"/>
      <path id="Fill-13" d="M1221.771,148.566a3.688,3.688,0,0,1-.971,1.784,2.229,2.229,0,0,1-1.579.616,1.291,1.291,0,0,1-1.255-.625,2.515,2.515,0,0,1-.017-1.808,3.779,3.779,0,0,1,.988-1.816,2.242,2.242,0,0,1,1.592-.633,1.241,1.241,0,0,1,1.229.658,2.629,2.629,0,0,1,.013,1.825m1.735-3.838a2.735,2.735,0,0,0-1.759-.55,3.9,3.9,0,0,0-1.783.427,3.706,3.706,0,0,0-1.373,1.167l.008-.055.417-1.327h-2.424l-.617,2.3c-.007.027-.013.052-.02.079l-2.546,9.5h2.483l1.282-4.783a1.706,1.706,0,0,0,.783,1,2.768,2.768,0,0,0,1.465.362,4.3,4.3,0,0,0,2.064-.526,5.123,5.123,0,0,0,1.7-1.5,6.665,6.665,0,0,0,1.066-2.26,5.038,5.038,0,0,0,.144-2.285,2.538,2.538,0,0,0-.891-1.553" transform="translate(-1156.214 -137.4)" fill="#072654" fill-rule="evenodd"/>
      <path id="Fill-15" d="M1673.834,148.709l0,0h-1.5l-.134,0h-.781l-.4.556c-.032.042-.064.084-.1.133l-.043.064-3.172,4.417-.658-5.173h-2.6l1.316,7.86-2.905,4.025h2.588l.7-1,.061-.085.822-1.165.024-.033,3.676-5.212,3.1-4.387,0,0Z" transform="translate(-1584.464 -141.715)" fill="#072654" fill-rule="evenodd"/>
      <path id="Fill-17" d="M107.621,5.445l-.743,2.735,4.252-2.75-2.781,10.376,2.824,0L115.282.482Z" transform="translate(-101.875 -0.482)" fill="#3395ff" fill-rule="evenodd"/>
      <path id="Fill-19" d="M1.977,141.778.808,146.14H6.6l2.368-8.874-6.988,4.512" transform="translate(-0.808 -130.814)" fill="#072654" fill-rule="evenodd"/>
    </g>
  </g>
</svg>
