<svg xmlns="http://www.w3.org/2000/svg" width="18.108" height="18.108" viewBox="0 0 18.108 18.108">
  <g id="vuesax_bold_refresh-right-square" data-name="vuesax/bold/refresh-right-square" transform="translate(-684 -380)">
    <g id="refresh-right-square" transform="translate(684 380)">
      <path id="Vector" d="M0,0H18.108V18.108H0Z" fill="none" opacity="0"/>
      <path id="Vector-2" data-name="Vector" d="M10.707,0H4.384A4.027,4.027,0,0,0,0,4.384V10.7A4.029,4.029,0,0,0,4.384,15.09H10.7a4.027,4.027,0,0,0,4.384-4.384V4.384A4.018,4.018,0,0,0,10.707,0ZM7.545,12.08a4.338,4.338,0,0,1,0-8.677c.106,0,.219.015.324.023l-.211-.241a.567.567,0,0,1,.853-.747l1.26,1.441c.008.008.008.015.015.023s.015.008.015.015A.885.885,0,0,1,9.839,4a.636.636,0,0,1,.045.106c.008.038.008.068.015.106s.008.068.008.106a.28.28,0,0,1-.03.106c-.015.038-.023.075-.038.106a.708.708,0,0,1-.068.091c-.023.023-.03.053-.053.068-.008.008-.015.008-.023.015s-.008.015-.015.015L8.217,5.787a.543.543,0,0,1-.332.106.569.569,0,0,1-.34-1.026l.423-.309c-.143-.008-.279-.023-.423-.023a3.2,3.2,0,1,0,2.671,1.426.566.566,0,1,1,.943-.626A4.335,4.335,0,0,1,7.545,12.08Z" transform="translate(1.509 1.509)" fill="#2995e5"/>
    </g>
  </g>
</svg>
