<svg xmlns="http://www.w3.org/2000/svg" width="37" height="37" viewBox="0 0 37 37">
  <g id="Group_62418" data-name="Group 62418" transform="translate(-35 -247)">
    <rect id="Rectangle_16969" data-name="Rectangle 16969" width="37" height="37" rx="9" transform="translate(35 247)" fill="#55a2ff"/>
    <path id="Icon_awesome-pen-fancy" data-name="Icon awesome-pen-fancy" d="M3.1,11.078a1.253,1.253,0,0,0-.792.792L0,18.793l.184.184L3.821,15.34a1.205,1.205,0,0,1-.061-.305,1.253,1.253,0,1,1,1.253,1.253,1.205,1.205,0,0,1-.305-.061L1.07,19.863l.183.183,6.923-2.308a1.252,1.252,0,0,0,.792-.792l1.295-3.292L6.392,9.783ZM14.457,1.109,7.288,8.919l3.831,3.831L18.93,5.581C22.255,2.642,17.373-2.19,14.457,1.109Z" transform="translate(43.477 256.454)" fill="#fff"/>
  </g>
</svg>
