<svg xmlns="http://www.w3.org/2000/svg" width="36" height="36" viewBox="0 0 36 36">
  <g id="Group_62334" data-name="Group 62334" transform="translate(-105 -89)">
    <path id="Path_36237" data-name="Path 36237" d="M18,0A18,18,0,1,1,0,18,18,18,0,0,1,18,0" transform="translate(105 89)" fill="#ffdef4"/>
    <g id="Group_66613" data-name="Group 66613">
      <path id="Path_36238" data-name="Path 36238" d="M23.009,28.575a.748.748,0,0,1-.574-.267l-4.51-5.355a3.309,3.309,0,0,1-.776-2.127V8.6A1.284,1.284,0,0,1,19.57,8l3.6,6.873a2.228,2.228,0,0,1,.208,1.487l-.727,3.487a.456.456,0,0,0,.1.394l3.781,4.242a.75.75,0,0,1-1.12,1L21.638,21.24a1.964,1.964,0,0,1-.454-1.7l.727-3.488a.727.727,0,0,0-.067-.485L18.649,9.475V20.826a1.811,1.811,0,0,0,.423,1.161l4.51,5.355a.75.75,0,0,1-.573,1.233" transform="translate(105 89)" fill="#c60089"/>
      <path id="Path_36239" data-name="Path 36239" d="M12.752,28.575a.75.75,0,0,1-.573-1.233l4.51-5.355a1.811,1.811,0,0,0,.423-1.161V9.476L13.918,15.57a.729.729,0,0,0-.068.485l.727,3.488a1.962,1.962,0,0,1-.454,1.7l-3.78,4.242a.75.75,0,0,1-1.12-1L13,20.242a.454.454,0,0,0,.1-.394l-.727-3.487a2.229,2.229,0,0,1,.208-1.487L16.191,8a1.284,1.284,0,0,1,2.421.6V20.826a3.309,3.309,0,0,1-.776,2.127l-4.51,5.355a.748.748,0,0,1-.574.267" transform="translate(105 89)" fill="#c60089"/>
    </g>
  </g>
</svg>
