<svg xmlns="http://www.w3.org/2000/svg" xmlns:xlink="http://www.w3.org/1999/xlink" width="22.092" height="23.656" viewBox="0 0 22.092 23.656">
  <defs>
    <clipPath id="clip-path">
      <rect id="Rectangle_17049" data-name="Rectangle 17049" width="17.141" height="19.496" transform="translate(0 0)" fill="#4b3cff"/>
    </clipPath>
  </defs>
  <g id="Group_62627" data-name="Group 62627" transform="translate(5.7 0) rotate(17)">
    <g id="Group_62466" data-name="Group 62466" transform="translate(0 0)" clip-path="url(#clip-path)">
      <path id="Path_36290" data-name="Path 36290" d="M11.762,14.2c.787-1.818,1.552-3.646,2.324-5.471q.5-1.172.979-2.349a.829.829,0,0,0-.131-.958.955.955,0,0,0-1.606.3Q12.455,7.7,11.576,9.663c-.063.142-.148.244-.319.183-.14-.05-.173-.189-.092-.369.182-.411.367-.821.55-1.231q.974-2.186,1.948-4.372a1.041,1.041,0,0,0,.1-.7,1.007,1.007,0,0,0-.855-.735A.917.917,0,0,0,11.923,3q-.749,1.672-1.491,3.348-.44.989-.88,1.978c-.064.145-.172.216-.318.152s-.162-.194-.094-.337.141-.311.211-.468q1.39-3.123,2.78-6.247A.934.934,0,0,0,11.59.1c-.081-.033-.163-.065-.245-.1h-.381a1.161,1.161,0,0,0-.624.674Q8.89,3.946,7.43,7.215c-.034.075-.062.153-.1.224a.206.206,0,0,1-.286.108.209.209,0,0,1-.12-.282c.014-.042.031-.083.049-.123q.958-2.152,1.915-4.3c.195-.44.4-.875.559-1.329A.892.892,0,0,0,8.984.384.94.94,0,0,0,7.619.914L3.62,9.9q-.161.365-.324.729c-.053.119-.133.211-.277.176a.225.225,0,0,1-.169-.278c0-.038,0-.076.008-.114Q3.1,8.356,3.336,6.3a1.008,1.008,0,0,0-.911-1.107.96.96,0,0,0-1.1.745c-.037.166-.06.337-.088.505q-.335,2-.67,4.008c-.158.949-.292,1.9-.48,2.846a4.111,4.111,0,0,0,.744,3.362A6.459,6.459,0,0,0,3.26,18.572a5.07,5.07,0,0,0,2.887.567,5.815,5.815,0,0,0,3.566-1.781A10.169,10.169,0,0,0,11.762,14.2" transform="translate(0 0)" fill="#4b3cff"/>
      <path id="Path_36291" data-name="Path 36291" d="M32.718,17.878a.972.972,0,0,0-1.122-.017.225.225,0,0,0-.078.17,1.642,1.642,0,0,1-.151.887c-.734,1.75-1.451,3.508-2.2,5.251-.53,1.232-1.058,2.468-1.671,3.659a7.41,7.41,0,0,1-4.484,3.878c.056.01.112.022.168.029s.114.007.171.009a5.656,5.656,0,0,0,4.257-1.78A9.841,9.841,0,0,0,29.675,26.8c1.029-2.4,2.034-4.8,3.047-7.2.111-.262.227-.523.311-.795a.809.809,0,0,0-.316-.923" transform="translate(-15.933 -12.249)" fill="#4b3cff"/>
      <path id="Path_36292" data-name="Path 36292" d="M45.218,9.336a1.287,1.287,0,0,1-.108.885c-.1.23-.2.461-.316.716a1.562,1.562,0,0,1,1.481.373c.166-.386.343-.75.479-1.129a.884.884,0,0,0-.319-.968,1.015,1.015,0,0,0-1.1-.116c-.1.056-.147.115-.113.239" transform="translate(-31.015 -6.22)" fill="#4b3cff"/>
      <path id="Path_36293" data-name="Path 36293" d="M41.676,3.139a6.021,6.021,0,0,0,.313-.724,1.246,1.246,0,0,0,.039-.589,1.054,1.054,0,0,0-1.442-.643.183.183,0,0,0-.1.231,1.329,1.329,0,0,1-.086.906l-.192.434c.9,0,.9,0,1.469.386" transform="translate(-27.839 -0.744)" fill="#4b3cff"/>
      <path id="Path_36294" data-name="Path 36294" d="M12.725,18.261a.19.19,0,0,0-.061-.174,1.1,1.1,0,0,0-.912-.116c-.158.049-.276.113-.19.323a.746.746,0,0,1,.025.338c-.044.46-.1.919-.148,1.379-.054.481-.109.963-.168,1.486a.7.7,0,0,0,.056-.078c.468-1.052.938-2.1,1.4-3.159" transform="translate(-7.803 -12.407)" fill="#4b3cff"/>
    </g>
  </g>
</svg>
