<svg xmlns="http://www.w3.org/2000/svg" xmlns:xlink="http://www.w3.org/1999/xlink" width="17.967" height="19.24" viewBox="0 0 17.967 19.24">
  <defs>
    <clipPath id="clip-path">
      <rect id="Rectangle_17049" data-name="Rectangle 17049" width="13.941" height="15.857" transform="translate(0 0)" fill="#8695a7"/>
    </clipPath>
  </defs>
  <g id="Group_62467" data-name="Group 62467" transform="translate(4.636 0) rotate(17)">
    <g id="Group_62466" data-name="Group 62466" transform="translate(0 0)" clip-path="url(#clip-path)">
      <path id="Path_36290" data-name="Path 36290" d="M9.566,11.55c.64-1.479,1.262-2.965,1.89-4.449q.4-.953.8-1.91a.674.674,0,0,0-.107-.779.777.777,0,0,0-1.306.244q-.71,1.6-1.425,3.2c-.051.115-.12.2-.26.149-.114-.041-.14-.154-.075-.3.148-.334.3-.667.447-1q.792-1.778,1.584-3.556a.847.847,0,0,0,.08-.569.819.819,0,0,0-.7-.6.746.746,0,0,0-.8.459Q9.088,3.8,8.485,5.165q-.358.8-.716,1.609c-.052.118-.14.176-.259.123s-.132-.158-.077-.274.115-.253.172-.38Q8.736,3.7,9.866,1.162A.76.76,0,0,0,9.426.079C9.361.052,9.294.026,9.228,0h-.31A.945.945,0,0,0,8.41.548Q7.23,3.21,6.043,5.868c-.027.061-.051.125-.084.182a.167.167,0,0,1-.233.088.17.17,0,0,1-.1-.23c.011-.034.026-.068.04-.1q.779-1.75,1.558-3.5c.158-.358.329-.712.455-1.081A.725.725,0,0,0,7.307.312.764.764,0,0,0,6.2.744L2.944,8.053q-.131.3-.263.593c-.043.1-.108.172-.225.143a.183.183,0,0,1-.138-.226c0-.031,0-.062.006-.093q.194-1.674.389-3.348a.82.82,0,0,0-.741-.9.781.781,0,0,0-.892.606c-.03.135-.049.274-.071.411Q.736,6.869.464,8.5c-.129.772-.238,1.548-.39,2.315a3.343,3.343,0,0,0,.605,2.734A5.253,5.253,0,0,0,2.651,15.1,4.124,4.124,0,0,0,5,15.566a4.73,4.73,0,0,0,2.9-1.449A8.27,8.27,0,0,0,9.566,11.55" transform="translate(0 0)" fill="#8695a7"/>
      <path id="Path_36291" data-name="Path 36291" d="M30.906,17.844a.79.79,0,0,0-.912-.014.183.183,0,0,0-.064.139,1.336,1.336,0,0,1-.123.721c-.6,1.424-1.18,2.853-1.79,4.271-.431,1-.86,2.007-1.359,2.976a6.027,6.027,0,0,1-3.647,3.154c.046.008.091.018.137.023s.093.006.139.007a4.6,4.6,0,0,0,3.462-1.447A8,8,0,0,0,28.431,25.1c.837-1.949,1.654-3.905,2.479-5.859.09-.213.185-.426.253-.646a.658.658,0,0,0-.257-.751" transform="translate(-17.254 -13.265)" fill="#8695a7"/>
      <path id="Path_36292" data-name="Path 36292" d="M45.139,9.27a1.047,1.047,0,0,1-.088.72l-.257.582a1.27,1.27,0,0,1,1.2.3c.135-.314.279-.61.39-.918a.719.719,0,0,0-.259-.787.826.826,0,0,0-.9-.094c-.083.046-.12.093-.092.194" transform="translate(-33.587 -6.736)" fill="#8695a7"/>
      <path id="Path_36293" data-name="Path 36293" d="M41.4,2.754a4.9,4.9,0,0,0,.255-.589,1.013,1.013,0,0,0,.032-.479.858.858,0,0,0-1.173-.523.148.148,0,0,0-.083.188,1.081,1.081,0,0,1-.07.737l-.156.353c.73,0,.734,0,1.2.314" transform="translate(-30.148 -0.806)" fill="#8695a7"/>
      <path id="Path_36294" data-name="Path 36294" d="M12.454,18.2a.155.155,0,0,0-.05-.142.894.894,0,0,0-.742-.094c-.129.04-.224.092-.155.263a.607.607,0,0,1,.021.275c-.036.374-.079.748-.121,1.122-.044.392-.089.783-.137,1.208a.565.565,0,0,0,.046-.063c.381-.856.763-1.711,1.138-2.569" transform="translate(-8.45 -13.436)" fill="#8695a7"/>
    </g>
  </g>
</svg>
