<svg xmlns="http://www.w3.org/2000/svg" xmlns:xlink="http://www.w3.org/1999/xlink" width="37" height="37" viewBox="0 0 37 37">
  <defs>
    <clipPath id="clip-path">
      <rect id="Rectangle_16970" data-name="Rectangle 16970" width="18.709" height="21.161" fill="#fff"/>
    </clipPath>
  </defs>
  <g id="Group_62412" data-name="Group 62412" transform="translate(-47 -262)">
    <rect id="Rectangle_16969" data-name="Rectangle 16969" width="37" height="37" rx="9" transform="translate(47 262)" fill="#fe8900"/>
    <g id="Group_62356" data-name="Group 62356" transform="translate(56.145 269.92)">
      <g id="Group_62355" data-name="Group 62355" clip-path="url(#clip-path)">
        <path id="Path_36255" data-name="Path 36255" d="M14.835,33.214,9.271,38.573c.872-.332,1.695-.728,2.518-1.123l2.469-1.182a6.608,6.608,0,0,1-9.325,8.221,6.657,6.657,0,0,1-3.4-7.032C1.97,35,4.2,32.567,6.285,32.292l.842,5.11c.447-2.466.837-4.932,1.217-7.4a.358.358,0,0,0-.1-.3c-.915-.537-1.839-1.058-2.856-1.637l.577,2.765c-.186.063-.326.108-.464.158A8,8,0,0,0,.548,35.757,17.77,17.77,0,0,0,0,37.84v1.511A17.4,17.4,0,0,0,.73,41.93a7.875,7.875,0,0,0,6.4,4.726,1.655,1.655,0,0,1,.245.076H8.891a.933.933,0,0,1,.2-.071,8,8,0,0,0,7.033-8.523c-.068-.8-.268-1.591-.415-2.432l2.158-.837-3.033-1.655" transform="translate(0 -25.571)" fill="#fff"/>
        <path id="Path_36256" data-name="Path 36256" d="M70.416,3.215c.778-.651,1.6-1.254,2.423-1.9L70.384,0h-.178c-.621.295-1.24.594-1.865.882-.585.27-1.175.528-1.824.818,1.019.555,1.976,1.047,2.9,1.6a.735.735,0,0,0,1-.081" transform="translate(-60.604)" fill="#fff"/>
        <path id="Path_36257" data-name="Path 36257" d="M86.916,62.428l5.8-6.076-4.087-2.234-1.717,8.31" transform="translate(-79.188 -49.306)" fill="#fff"/>
        <path id="Path_36258" data-name="Path 36258" d="M171.784,36.879c1.057.589,2.121,1.165,3.287,1.8-.4-1.573-.775-3.043-1.153-4.512a.306.306,0,0,0-.107-.185c-.657-.347-1.319-.685-2.031-1.051-.058,1.287-.117,2.483-.159,3.679a.363.363,0,0,0,.164.268" transform="translate(-156.361 -30.005)" fill="#fff"/>
        <path id="Path_36259" data-name="Path 36259" d="M115.245,23.008l4.066,2.217c.041-.951.067-1.82.119-2.687.071-1.161.076-1.152-.958-1.67a.435.435,0,0,0-.548.053c-.5.409-1.022.8-1.535,1.2-.366.284-.732.567-1.144.885" transform="translate(-104.999 -18.947)" fill="#fff"/>
      </g>
    </g>
  </g>
</svg>
