<svg xmlns="http://www.w3.org/2000/svg" width="55" height="55" viewBox="0 0 55 55">
  <g id="Group_62630" data-name="Group 62630" transform="translate(-161 -588)">
    <g id="Ellipse_722" data-name="Ellipse 722" transform="translate(161 588)" fill="none" stroke="#fff" stroke-width="2" opacity="0.3">
      <circle cx="27.5" cy="27.5" r="27.5" stroke="none"/>
      <circle cx="27.5" cy="27.5" r="26.5" fill="none"/>
    </g>
    <path id="Icon_awesome-star" data-name="Icon awesome-star" d="M11.658.761,8.864,6.425l-6.25.911a1.37,1.37,0,0,0-.757,2.336l4.522,4.406L5.309,20.3a1.368,1.368,0,0,0,1.985,1.442l5.592-2.939,5.592,2.939A1.369,1.369,0,0,0,20.462,20.3l-1.07-6.225,4.522-4.406a1.37,1.37,0,0,0-.757-2.336l-6.25-.911L14.113.761a1.37,1.37,0,0,0-2.456,0Z" transform="translate(175.558 604.179)" fill="#aa84ff"/>
  </g>
</svg>
