<svg xmlns="http://www.w3.org/2000/svg" xmlns:xlink="http://www.w3.org/1999/xlink" width="183.52" height="61" viewBox="0 0 183.52 61">
  <defs>
    <linearGradient id="linear-gradient" x1="0.606" y1="5.869" x2="0.276" y2="-2.093" gradientUnits="objectBoundingBox">
      <stop offset="0" stop-color="#783cff"/>
      <stop offset="1" stop-color="#fff"/>
    </linearGradient>
  </defs>
  <g id="Group_62575" data-name="Group 62575" transform="translate(6246.316 2295.148)">
    <path id="Path_36317" data-name="Path 36317" d="M10,0H169.52a10,10,0,0,1,10,10V47a10,10,0,0,1-10,10H10A10,10,0,0,1,0,47V10A10,10,0,0,1,10,0Z" transform="translate(-6244.316 -2293.148)" fill="rgba(77,6,232,0.47)" stroke="#9e72ff" stroke-width="4"/>
    <path id="Path_36315" data-name="Path 36315" d="M-140.2.24a6.8,6.8,0,0,1-2.63-.51,6.1,6.1,0,0,1-2.12-1.45,6.041,6.041,0,0,1-1.33-2.22l2.54-1.14a4.684,4.684,0,0,0,1.55,1.92,3.708,3.708,0,0,0,2.19.7,2.747,2.747,0,0,0,1.1-.2,1.734,1.734,0,0,0,.72-.55,1.353,1.353,0,0,0,.26-.83,1.315,1.315,0,0,0-.32-.89,2.177,2.177,0,0,0-1-.59l-2.92-.96a5.713,5.713,0,0,1-2.68-1.65,3.862,3.862,0,0,1-.9-2.57,4.161,4.161,0,0,1,.65-2.32,4.354,4.354,0,0,1,1.82-1.56,6.16,6.16,0,0,1,2.69-.56,6.566,6.566,0,0,1,2.48.46,5.769,5.769,0,0,1,1.97,1.3,5.413,5.413,0,0,1,1.25,2.02l-2.52,1.14a3.567,3.567,0,0,0-1.26-1.63,3.258,3.258,0,0,0-1.92-.59,2.84,2.84,0,0,0-1.1.2,1.654,1.654,0,0,0-.74.57,1.442,1.442,0,0,0-.26.85,1.342,1.342,0,0,0,.34.91,2.229,2.229,0,0,0,1.02.61l2.86.92a5.776,5.776,0,0,1,2.69,1.62,3.773,3.773,0,0,1,.89,2.54,4.039,4.039,0,0,1-.68,2.31,4.586,4.586,0,0,1-1.87,1.58A6.344,6.344,0,0,1-140.2.24Zm8.58-.24V-14.9h3.1v6.44h5.8V-14.9h3.1V0h-3.1V-5.76h-5.8V0Zm23.16.24a8.273,8.273,0,0,1-3.12-.58,7.592,7.592,0,0,1-2.51-1.63,7.581,7.581,0,0,1-1.67-2.45,7.636,7.636,0,0,1-.6-3.04,7.748,7.748,0,0,1,.59-3.04,7.34,7.34,0,0,1,1.66-2.44,7.673,7.673,0,0,1,2.51-1.62,8.328,8.328,0,0,1,3.14-.58,8.328,8.328,0,0,1,3.14.58,7.673,7.673,0,0,1,2.51,1.62,7.34,7.34,0,0,1,1.66,2.44,7.748,7.748,0,0,1,.59,3.04,7.636,7.636,0,0,1-.6,3.04,7.581,7.581,0,0,1-1.67,2.45,7.592,7.592,0,0,1-2.51,1.63A8.273,8.273,0,0,1-108.46.24Zm0-2.8a4.894,4.894,0,0,0,1.89-.36,4.742,4.742,0,0,0,1.53-1.01,4.484,4.484,0,0,0,1.02-1.55,5.285,5.285,0,0,0,.36-1.98,5.208,5.208,0,0,0-.36-1.97,4.613,4.613,0,0,0-1.02-1.55,4.535,4.535,0,0,0-1.53-1.01,5.017,5.017,0,0,0-1.89-.35,5.017,5.017,0,0,0-1.89.35,4.535,4.535,0,0,0-1.53,1.01,4.613,4.613,0,0,0-1.02,1.55,5.208,5.208,0,0,0-.36,1.97,5.285,5.285,0,0,0,.36,1.98,4.484,4.484,0,0,0,1.02,1.55,4.742,4.742,0,0,0,1.53,1.01A4.895,4.895,0,0,0-108.46-2.56ZM-97.3,0V-14.9h5.7a6.542,6.542,0,0,1,2.73.54A4.258,4.258,0,0,1-87-12.76a4.757,4.757,0,0,1,.68,2.62,4.627,4.627,0,0,1-.7,2.59A4.375,4.375,0,0,1-88.9-5.94L-85.5,0h-3.48l-3.68-6.58,2,1.18H-94.2V0Zm3.1-8.1h2.62a2.36,2.36,0,0,0,1.14-.26,1.9,1.9,0,0,0,.75-.72,2.055,2.055,0,0,0,.27-1.06,2.1,2.1,0,0,0-.27-1.08,1.9,1.9,0,0,0-.75-.72,2.36,2.36,0,0,0-1.14-.26H-94.2ZM-80.62,0V-12.2H-84.4v-2.7h10.6v2.7h-3.72V0Zm9.42,0V-14.9h3.1V-2.7h6.3V0Zm12,0V-14.9h3.1V0Zm12.22.24a6.8,6.8,0,0,1-2.63-.51,6.1,6.1,0,0,1-2.12-1.45,6.041,6.041,0,0,1-1.33-2.22l2.54-1.14a4.684,4.684,0,0,0,1.55,1.92,3.708,3.708,0,0,0,2.19.7,2.748,2.748,0,0,0,1.1-.2,1.734,1.734,0,0,0,.72-.55,1.353,1.353,0,0,0,.26-.83,1.315,1.315,0,0,0-.32-.89,2.177,2.177,0,0,0-1-.59l-2.92-.96a5.713,5.713,0,0,1-2.68-1.65,3.862,3.862,0,0,1-.9-2.57,4.161,4.161,0,0,1,.65-2.32,4.354,4.354,0,0,1,1.82-1.56,6.16,6.16,0,0,1,2.69-.56,6.566,6.566,0,0,1,2.48.46,5.769,5.769,0,0,1,1.97,1.3,5.413,5.413,0,0,1,1.25,2.02l-2.52,1.14a3.567,3.567,0,0,0-1.26-1.63,3.258,3.258,0,0,0-1.92-.59,2.84,2.84,0,0,0-1.1.2,1.654,1.654,0,0,0-.74.57,1.442,1.442,0,0,0-.26.85,1.342,1.342,0,0,0,.34.91,2.229,2.229,0,0,0,1.02.61l2.86.92a5.776,5.776,0,0,1,2.69,1.62,3.773,3.773,0,0,1,.89,2.54,4.039,4.039,0,0,1-.68,2.31A4.586,4.586,0,0,1-44.21-.33,6.345,6.345,0,0,1-46.98.24ZM-35.72,0V-12.2H-39.5v-2.7h10.6v2.7h-3.72V0Zm9.42,0V-14.9h10.02v2.7H-23.2v3.38h6.52v2.7H-23.2V-2.7h6.92V0Zm12.84,0V-14.9H-8.6a8.721,8.721,0,0,1,4.2.96A6.929,6.929,0,0,1-1.64-11.3,7.479,7.479,0,0,1-.66-7.46a7.533,7.533,0,0,1-.98,3.85A6.908,6.908,0,0,1-4.4-.96,8.721,8.721,0,0,1-8.6,0Zm3.1-2.7h1.84A5.1,5.1,0,0,0-6-3.29,4.162,4.162,0,0,0-4.35-4.95a5.117,5.117,0,0,0,.59-2.51,5.1,5.1,0,0,0-.59-2.52A4.112,4.112,0,0,0-6-11.62a5.174,5.174,0,0,0-2.52-.58h-1.84Z" transform="translate(-6081 -2256)" fill="url(#linear-gradient)"/>
  </g>
</svg>
