<svg id="star" xmlns="http://www.w3.org/2000/svg" width="38.5" height="38.5" viewBox="0 0 38.5 38.5">
  <path id="Vector" d="M18.815,2.3l2.823,5.647a3.486,3.486,0,0,0,2.278,1.684l5.117.85c3.272.545,4.042,2.92,1.684,5.262L26.74,19.719a3.483,3.483,0,0,0-.834,2.9l1.139,4.925c.9,3.9-1.171,5.406-4.62,3.369l-4.8-2.839a3.468,3.468,0,0,0-3.176,0l-4.8,2.839c-3.433,2.037-5.518.513-4.62-3.369l1.139-4.925a3.483,3.483,0,0,0-.834-2.9L1.362,15.741C-.98,13.4-.226,11.025,3.046,10.479l5.117-.85a3.494,3.494,0,0,0,2.262-1.684L13.249,2.3C14.789-.766,17.291-.766,18.815,2.3Z" transform="translate(3.21 3.333)" fill="none" stroke="#fff" stroke-linecap="round" stroke-linejoin="round" stroke-width="2"/>
  <path id="Vector-2" data-name="Vector" d="M0,0H38.5V38.5H0Z" fill="none" opacity="0"/>
  <path id="Icon_feather-check" data-name="Icon feather-check" d="M14.547,9,8.671,14.876,6,12.205" transform="translate(9.209 8.822)" fill="none" stroke="#fff" stroke-linecap="round" stroke-linejoin="round" stroke-width="2"/>
</svg>
