<svg xmlns="http://www.w3.org/2000/svg" xmlns:xlink="http://www.w3.org/1999/xlink" width="117.348" height="93.603" viewBox="0 0 117.348 93.603">
  <defs>
    <linearGradient id="linear-gradient" x1="1.006" y1="0.045" x2="0.156" y2="0.904" gradientUnits="objectBoundingBox">
      <stop offset="0" stop-color="#ff9595" stop-opacity="0.98"/>
      <stop offset="1" stop-color="#ff6262"/>
    </linearGradient>
  </defs>
  <g id="Group_62545" data-name="Group 62545" transform="translate(-115.702 -222.046) rotate(21)">
    <rect id="Rectangle_17094" data-name="Rectangle 17094" width="98.281" height="57" rx="10" transform="translate(210 160)" fill="rgba(255,0,0,0.26)" stroke="#ff5757" stroke-width="4"/>
    <path id="Path_36311" data-name="Path 36311" d="M6.74.24A6.8,6.8,0,0,1,4.11-.27,6.1,6.1,0,0,1,1.99-1.72,6.041,6.041,0,0,1,.66-3.94L3.2-5.08A4.684,4.684,0,0,0,4.75-3.16a3.708,3.708,0,0,0,2.19.7,2.748,2.748,0,0,0,1.1-.2,1.734,1.734,0,0,0,.72-.55,1.353,1.353,0,0,0,.26-.83,1.315,1.315,0,0,0-.32-.89,2.177,2.177,0,0,0-1-.59L4.78-6.48A5.713,5.713,0,0,1,2.1-8.13a3.862,3.862,0,0,1-.9-2.57,4.161,4.161,0,0,1,.65-2.32,4.354,4.354,0,0,1,1.82-1.56,6.16,6.16,0,0,1,2.69-.56,6.566,6.566,0,0,1,2.48.46,5.769,5.769,0,0,1,1.97,1.3,5.413,5.413,0,0,1,1.25,2.02L9.54-10.22a3.567,3.567,0,0,0-1.26-1.63,3.258,3.258,0,0,0-1.92-.59,2.84,2.84,0,0,0-1.1.2,1.654,1.654,0,0,0-.74.57,1.442,1.442,0,0,0-.26.85,1.342,1.342,0,0,0,.34.91,2.229,2.229,0,0,0,1.02.61l2.86.92a5.776,5.776,0,0,1,2.69,1.62,3.773,3.773,0,0,1,.89,2.54,4.039,4.039,0,0,1-.68,2.31A4.586,4.586,0,0,1,9.51-.33,6.345,6.345,0,0,1,6.74.24ZM15.26,0V-14.9h3.1v7.46l-.86-.3,5.96-7.16h3.88l-5.9,7.12.18-2.2L27.46,0H23.84L20.2-6.3,18.36-4.08V0ZM30,0V-14.9h3.1V0Zm6.74,0V-14.9h5.72a6.542,6.542,0,0,1,2.73.54,4.258,4.258,0,0,1,1.87,1.6,4.757,4.757,0,0,1,.68,2.62,4.628,4.628,0,0,1-.69,2.58,4.387,4.387,0,0,1-1.88,1.61,6.39,6.39,0,0,1-2.71.55H39.84V0Zm3.1-8.1h2.64a2.36,2.36,0,0,0,1.14-.26,1.9,1.9,0,0,0,.75-.72,2.055,2.055,0,0,0,.27-1.06,2.1,2.1,0,0,0-.27-1.08,1.9,1.9,0,0,0-.75-.72,2.36,2.36,0,0,0-1.14-.26H39.84Z" transform="translate(235.141 197)" fill="url(#linear-gradient)"/>
  </g>
</svg>
