<svg xmlns="http://www.w3.org/2000/svg" width="20.289" height="13.418" viewBox="0 0 20.289 13.418">
  <g id="Group_62150" data-name="Group 62150" transform="translate(-118.246 -374.291)">
    <path id="Icon_metro-arrow-down" data-name="Icon metro-arrow-down" d="M16.811,11.58l-4.435,4.435a.887.887,0,0,1-1.254,0L6.687,11.58a.887.887,0,0,1,1.254-1.254l2.921,2.921v-8.5a.887.887,0,1,1,1.774,0v8.5l2.921-2.921a.887.887,0,0,1,1.254,1.254Z" transform="translate(111.819 371.435)" fill="#131a24"/>
    <path id="Icon_metro-arrow-down-2" data-name="Icon metro-arrow-down" d="M16.812,8.551,12.376,4.116a.887.887,0,0,0-1.254,0L6.687,8.551A.887.887,0,0,0,7.941,9.806l2.921-2.921v8.5a.887.887,0,0,0,1.774,0v-8.5l2.921,2.921a.887.887,0,0,0,1.254-1.254Z" transform="translate(121.464 370.435)" fill="#131a24"/>
  </g>
</svg>
