<svg xmlns="http://www.w3.org/2000/svg" xmlns:xlink="http://www.w3.org/1999/xlink" width="58" height="58" viewBox="0 0 58 58">
  <defs>
    <linearGradient id="linear-gradient" x1="0.5" y1="0.977" x2="0.49" y2="0.04" gradientUnits="objectBoundingBox">
      <stop offset="0" stop-color="#008484"/>
      <stop offset="1" stop-color="#4bebe2"/>
    </linearGradient>
    <linearGradient id="linear-gradient-2" x1="0.5" y1="0.5" x2="0.5" y2="1.091" gradientUnits="objectBoundingBox">
      <stop offset="0" stop-color="#fff"/>
      <stop offset="1" stop-color="#83e8e2"/>
    </linearGradient>
  </defs>
  <g id="Group_62672" data-name="Group 62672" transform="translate(-167 -16)">
    <rect id="Rectangle_17177" data-name="Rectangle 17177" width="58" height="58" rx="16" transform="translate(167 16)" fill="#8ee0db"/>
    <rect id="Rectangle_17174" data-name="Rectangle 17174" width="56" height="56" rx="15" transform="translate(168 17)" fill="url(#linear-gradient)"/>
    <path id="Subtraction_6" data-name="Subtraction 6" d="M4151,721.986h0A15,15,0,0,0,4136,707h-26a15,15,0,0,0-15,14.751l0-1.752a15,15,0,0,1,15-15h26a15,15,0,0,1,15,15Z" transform="translate(-3927 -688)" fill="#1ec9c7"/>
    <path id="Subtraction_7" data-name="Subtraction 7" d="M41,16.986H15A14.9,14.9,0,0,1,4.393,12.592,14.9,14.9,0,0,1,0,1.986V.234A14.929,14.929,0,0,0,4.393,10.592,14.9,14.9,0,0,0,15,14.986H41a14.9,14.9,0,0,0,10.607-4.393A14.9,14.9,0,0,0,56,.015V1.986a14.9,14.9,0,0,1-4.393,10.606A14.9,14.9,0,0,1,41,16.986Z" transform="translate(168 55.985)" fill="#0a7473"/>
    <path id="Vector" d="M0,0H30.461V30.461H0Z" transform="translate(211.613 57.848) rotate(180)" fill="none" opacity="0"/>
    <path id="Icon_awesome-star" data-name="Icon awesome-star" d="M12.57.829,9.527,7l-6.808.993a1.492,1.492,0,0,0-.825,2.544l4.926,4.8-1.165,6.78a1.49,1.49,0,0,0,2.162,1.57l6.091-3.2L20,23.687a1.491,1.491,0,0,0,2.162-1.57l-1.165-6.78,4.926-4.8A1.492,1.492,0,0,0,25.1,7.992L18.287,7,15.244.829a1.492,1.492,0,0,0-2.675,0Z" transform="translate(182.702 33.07)" fill="#18a097" opacity="0.294"/>
    <path id="Icon_awesome-star-2" data-name="Icon awesome-star" d="M12.57.829,9.527,7l-6.808.993a1.492,1.492,0,0,0-.825,2.544l4.926,4.8-1.165,6.78a1.49,1.49,0,0,0,2.162,1.57l6.091-3.2L20,23.687a1.491,1.491,0,0,0,2.162-1.57l-1.165-6.78,4.926-4.8A1.492,1.492,0,0,0,25.1,7.992L18.287,7,15.244.829a1.492,1.492,0,0,0-2.675,0Z" transform="translate(182.702 32.07)" fill="url(#linear-gradient-2)"/>
  </g>
</svg>
