<svg xmlns="http://www.w3.org/2000/svg" xmlns:xlink="http://www.w3.org/1999/xlink" width="37" height="37" viewBox="0 0 37 37">
  <defs>
    <clipPath id="clip-path">
      <rect id="Rectangle_16996" data-name="Rectangle 16996" width="16.091" height="20.511" fill="#fff"/>
    </clipPath>
  </defs>
  <g id="Group_62422" data-name="Group 62422" transform="translate(-213 -386)">
    <rect id="Rectangle_16969" data-name="Rectangle 16969" width="37" height="37" rx="9" transform="translate(213 386)" fill="#f864cb"/>
    <g id="Group_62421" data-name="Group 62421" transform="translate(223.454 394.697)">
      <g id="Group_62420" data-name="Group 62420" clip-path="url(#clip-path)">
        <path id="Path_36262" data-name="Path 36262" d="M16.09,299.056a5.768,5.768,0,0,0-4.238-5.317,1.047,1.047,0,0,0-.964.133,5.023,5.023,0,0,1-3.047.768,5.154,5.154,0,0,1-2.9-.924.406.406,0,0,0-.276-.063,5.762,5.762,0,0,0-4.655,5.219A1.7,1.7,0,0,0,.8,300.509a6.254,6.254,0,0,0,1.709.824,18.274,18.274,0,0,0,5.555.783,18.061,18.061,0,0,0,5.5-.779,5.426,5.426,0,0,0,2-1.05,1.485,1.485,0,0,0,.528-1.23" transform="translate(0 -281.605)" fill="#fff"/>
        <path id="Path_36263" data-name="Path 36263" d="M96.068,74.716a3.209,3.209,0,0,1,1.922.007.661.661,0,0,0,.56.077,1.509,1.509,0,0,0,.3-.074.654.654,0,0,0,.287-.222,7.5,7.5,0,0,0,.486-1.058A4.312,4.312,0,1,0,91.275,71.8a5.128,5.128,0,0,0,1.275,3.461,4.044,4.044,0,0,0,2.433,1.484,9.072,9.072,0,0,0,.983.069l.011-.069c-.051-.044-.1-.086-.152-.131a1.162,1.162,0,0,1,.243-1.9" transform="translate(-87.531 -64.835)" fill="#fff"/>
        <path id="Path_36264" data-name="Path 36264" d="M22.934,9.37a1.1,1.1,0,0,0,2.187,0c.013-.745.008-1.49,0-2.235a.954.954,0,0,0-.431-.819.31.31,0,0,1-.146-.338,5.511,5.511,0,0,1,8.247-4.238,5.367,5.367,0,0,1,2.726,4.268.323.323,0,0,1-.089.255,1.108,1.108,0,0,0-.487.962c.006.615,0,1.23,0,1.845a1.5,1.5,0,0,0,.022.448c.06.185-.021.255-.157.335a5.4,5.4,0,0,1-2.25.7c-.055.005-.115-.047-.173-.071a2.032,2.032,0,0,0-.5-.2,5.5,5.5,0,0,0-.819-.008.643.643,0,1,0,.006,1.286c.273.005.547,0,.82,0a.7.7,0,0,0,.508-.226.51.51,0,0,1,.271-.135,5.775,5.775,0,0,0,2.647-.907.226.226,0,0,1,.259,0,1.09,1.09,0,0,0,1.555-1.007c0-.7,0-1.394,0-2.091a.85.85,0,0,0-.3-.753.886.886,0,0,1-.363-.8c-.007-.1-.028-.2-.046-.3a6.5,6.5,0,0,0-12.885.71.319.319,0,0,1-.121.208,1.093,1.093,0,0,0-.5.957c0,.342,0,.683,0,1.025h0c0,.376-.011.752,0,1.127" transform="translate(-21.987 0)" fill="#fff"/>
      </g>
    </g>
  </g>
</svg>
