<svg xmlns="http://www.w3.org/2000/svg" width="24" height="24" viewBox="0 0 24 24">
  <g id="vuesax_bold_tag-user" data-name="vuesax/bold/tag-user" transform="translate(-556 -252)">
    <g id="tag-user">
      <path id="Vector" d="M0,0H24V24H0Z" transform="translate(556 252)" fill="none" opacity="0"/>
      <path id="Vector-2" data-name="Vector" d="M15,0H3A2.983,2.983,0,0,0,0,2.97V13.88a2.992,2.992,0,0,0,3,2.98h.76a3,3,0,0,1,2.12.87l1.71,1.69a2.01,2.01,0,0,0,2.82,0l1.71-1.69a3,3,0,0,1,2.12-.87H15a2.992,2.992,0,0,0,3-2.98V2.97A2.983,2.983,0,0,0,15,0ZM9,3.55a1.951,1.951,0,0,1,.07,3.9H8.92A1.945,1.945,0,0,1,7.04,5.5,1.968,1.968,0,0,1,9,3.55Zm2.75,9.14a5.37,5.37,0,0,1-5.5,0,1.806,1.806,0,0,1,0-3.23,5.37,5.37,0,0,1,5.5,0A1.806,1.806,0,0,1,11.75,12.69Z" transform="translate(559 254)" fill="#2183ff"/>
    </g>
  </g>
</svg>
