<svg xmlns="http://www.w3.org/2000/svg" width="21.393" height="16.847" viewBox="0 0 21.393 16.847">
  <path id="Union_13" data-name="Union 13" d="M4.6,16.846a2.117,2.117,0,0,1-2.242-2.517c.169-1.174.336-2.35.525-3.521A1.716,1.716,0,0,1,4.21,9.389,11.716,11.716,0,0,0,5.7,8.871,3.516,3.516,0,0,0,7.771,5.989c.024-.17.05-.34.081-.554a22.1,22.1,0,0,1,5.641,0c.066.372.108.715.19,1.048a3.733,3.733,0,0,0,2.72,2.7c.25.082.509.135.761.211a1.723,1.723,0,0,1,1.318,1.5c.162,1.132.324,2.264.506,3.393a2.124,2.124,0,0,1-2.223,2.562H4.6Zm6.066-7.905a2.628,2.628,0,1,0,2.717,2.639,2.67,2.67,0,0,0-2.717-2.639Zm6.173-1.87a1.67,1.67,0,0,1-1.15-1.649,6.372,6.372,0,0,1-.007-.68A.92.92,0,0,0,14.995,3.7a11.573,11.573,0,0,0-1.916-.44,17.534,17.534,0,0,0-2.848-.18c-.82.021-1.9.222-3.068.357a2.594,2.594,0,0,0-.57.158c-.749.269-.914.509-.913,1.295,0,.032,0,.065,0,.1-.009,1.43-.413,1.969-1.832,2.306a8.361,8.361,0,0,1-1.791.231A1.739,1.739,0,0,1,.14,6.009,9.3,9.3,0,0,1,0,4.208,1.744,1.744,0,0,1,.64,3,8.306,8.306,0,0,1,3.687,1.179a20.172,20.172,0,0,1,8.2-1.147,18.75,18.75,0,0,1,5.73,1.126,10.148,10.148,0,0,1,2.7,1.471,2.384,2.384,0,0,1,1.038,2.4,9.306,9.306,0,0,1-.227,1.268A1.682,1.682,0,0,1,19.488,7.52q-.154.008-.307.008A6.365,6.365,0,0,1,16.844,7.071Z" transform="translate(0 0)" fill="#2995e5"/>
</svg>
