<svg xmlns="http://www.w3.org/2000/svg" width="5.52" height="7.727" viewBox="0 0 5.52 7.727">
  <path id="Icon_awesome-rupee-sign" data-name="Icon awesome-rupee-sign" d="M5.313,3.354a.207.207,0,0,0,.207-.207v-.69a.207.207,0,0,0-.207-.207H.207A.207.207,0,0,0,0,2.457v.772a.207.207,0,0,0,.207.207H1.678a1.244,1.244,0,0,1,1.052.47H.207A.207.207,0,0,0,0,4.113V4.8a.207.207,0,0,0,.207.207H2.945A1.192,1.192,0,0,1,1.656,6.021H.207A.207.207,0,0,0,0,6.228v.914a.207.207,0,0,0,.067.152L2.913,9.922a.207.207,0,0,0,.14.055H4.478a.207.207,0,0,0,.14-.359l-2.6-2.4A2.363,2.363,0,0,0,4.4,5.01h.911A.207.207,0,0,0,5.519,4.8v-.69a.207.207,0,0,0-.207-.207H4.3a2.363,2.363,0,0,0-.246-.552Z" transform="translate(0 -2.25)" fill="#131a24"/>
</svg>
