<svg xmlns="http://www.w3.org/2000/svg" width="36" height="36" viewBox="0 0 36 36">
  <g id="Group_62331" data-name="Group 62331" transform="translate(-75 -89)">
    <path id="Path_36235" data-name="Path 36235" d="M18,0A18,18,0,1,1,0,18,18,18,0,0,1,18,0" transform="translate(75 89)" fill="#ffdef4"/>
    <path id="Path_36236" data-name="Path 36236" d="M11.482,26.867A.865.865,0,0,0,12.347,26a5.546,5.546,0,0,1,11.092,0,.865.865,0,0,0,1.73,0,7.276,7.276,0,0,0-6.9-7.244,5.131,5.131,0,1,0-.768,0A7.266,7.266,0,0,0,10.621,26a.865.865,0,0,0,.865.865Zm3-13.221a3.413,3.413,0,1,1,3.426,3.4h-.026a3.4,3.4,0,0,1-3.4-3.4Z" transform="translate(75 89)" fill="#c60089"/>
  </g>
</svg>
