<svg xmlns="http://www.w3.org/2000/svg" width="11.166" height="11.166" viewBox="0 0 11.166 11.166">
  <g id="Group_62438" data-name="Group 62438" transform="translate(-170 -561)">
    <path id="Path_36155" data-name="Path 36155" d="M10.368,4.182a1.8,1.8,0,0,1,2.484,1.029h0a1.8,1.8,0,0,0,1.108,1.108h0A1.8,1.8,0,0,1,14.988,8.8h0a1.8,1.8,0,0,0,0,1.566h0a1.868,1.868,0,0,1-.32,2.029,1.6,1.6,0,0,1-.709.455h0a1.879,1.879,0,0,0-.55.308,1.754,1.754,0,0,0-.558.8h0a1.8,1.8,0,0,1-2.484,1.029h0a1.8,1.8,0,0,0-1.566,0h0a1.8,1.8,0,0,1-2.484-1.029h0a1.8,1.8,0,0,0-1.108-1.108h0a1.8,1.8,0,0,1-1.029-2.484h0a1.8,1.8,0,0,0,0-1.566h0A1.8,1.8,0,0,1,5.211,6.318h0A1.8,1.8,0,0,0,6.318,5.211h0A1.8,1.8,0,0,1,8.8,4.182h0A1.8,1.8,0,0,0,10.368,4.182Z" transform="translate(165.998 556.998)" fill="#c60089"/>
    <path id="Path_36156" data-name="Path 36156" d="M-8479.323-4589.531l1.688,1.75,3.244-3.07" transform="translate(8652.439 5155.899)" fill="none" stroke="#fff" stroke-width="1"/>
  </g>
</svg>
