<svg xmlns="http://www.w3.org/2000/svg" width="31.585" height="31.585" viewBox="0 0 31.585 31.585">
  <g id="vuesax_linear_whatsapp" data-name="vuesax/linear/whatsapp" transform="translate(0 0)">
    <g id="whatsapp" transform="translate(0 0)">
      <path id="BG_1" data-name="BG 1" d="M0,0H31.585V31.585H0Z" fill="none" opacity="0.58"/>
      <path id="Vector" d="M6.449,24.479A13.159,13.159,0,1,0,0,13.161a13.986,13.986,0,0,0,1.711,6.58L0,26.321Z" transform="translate(2.632 2.632)" fill="#21c155"/>
      <path id="Vector-2" data-name="Vector" d="M11.845,9.671a1.505,1.505,0,0,1-.148.646,2.443,2.443,0,0,1-.4.6,2.674,2.674,0,0,1-.973.7,2.982,2.982,0,0,1-1.157.225,4.949,4.949,0,0,1-1.934-.432A10.422,10.422,0,0,1,5.19,10.24,17.046,17.046,0,0,1,3.244,8.581,16.834,16.834,0,0,1,1.59,6.645,10.554,10.554,0,0,1,.427,4.625,4.982,4.982,0,0,1,0,2.689,3.06,3.06,0,0,1,.214,1.546,2.726,2.726,0,0,1,.9.557,1.739,1.739,0,0,1,2.129,0a1.116,1.116,0,0,1,.48.107.967.967,0,0,1,.4.332L4.383,2.375a2.026,2.026,0,0,1,.237.415.935.935,0,0,1,.083.361.8.8,0,0,1-.125.42,2.015,2.015,0,0,1-.332.42L3.8,4.459A.317.317,0,0,0,3.7,4.7a.537.537,0,0,0,.018.136c.018.047.036.083.047.118a4.915,4.915,0,0,0,.552.758c.267.308.552.622.86.936s.629.6.943.871a4.552,4.552,0,0,0,.765.545c.03.012.065.03.107.047a.41.41,0,0,0,.148.024.327.327,0,0,0,.243-.1l.451-.444a1.819,1.819,0,0,1,.427-.332.791.791,0,0,1,.421-.124.948.948,0,0,1,.362.077,2.3,2.3,0,0,1,.415.231L11.423,8.83a.9.9,0,0,1,.326.379A1.213,1.213,0,0,1,11.845,9.671Z" transform="translate(9.87 9.87)" fill="#fff"/>
      <path id="Vector-3" data-name="Vector" d="M0,0H31.585V31.585H0Z" fill="none" opacity="0"/>
    </g>
  </g>
</svg>
