<svg xmlns="http://www.w3.org/2000/svg" width="15.808" height="12.646" viewBox="0 0 15.808 12.646">
  <path id="Icon_awesome-crown" data-name="Icon awesome-crown" d="M13.041,11.065H2.766a.4.4,0,0,0-.4.4v.79a.4.4,0,0,0,.4.4H13.041a.4.4,0,0,0,.4-.4v-.79A.4.4,0,0,0,13.041,11.065Zm1.581-7.9a1.186,1.186,0,0,0-1.186,1.186,1.162,1.162,0,0,0,.109.489L11.757,5.908a.789.789,0,0,1-1.092-.287L8.652,2.1a1.186,1.186,0,1,0-1.5,0L5.142,5.622a.79.79,0,0,1-1.092.287L2.265,4.836a1.185,1.185,0,1,0-1.079.7,1.211,1.211,0,0,0,.19-.02l1.786,4.762h9.485l1.786-4.762a1.211,1.211,0,0,0,.19.02,1.186,1.186,0,1,0,0-2.371Z" fill="#fff"/>
</svg>
